<?xml version="1.0" encoding="utf-8" standalone="no"?>
<!DOCTYPE svg PUBLIC "-//W3C//DTD SVG 1.1//EN"
  "http://www.w3.org/Graphics/SVG/1.1/DTD/svg11.dtd">
<!-- Created with matplotlib (https://matplotlib.org/) -->
<svg height="396.105203pt" version="1.1" viewBox="0 0 352.295486 396.105203" width="352.295486pt" xmlns="http://www.w3.org/2000/svg" xmlns:xlink="http://www.w3.org/1999/xlink">
 <defs>
  <style type="text/css">
*{stroke-linecap:butt;stroke-linejoin:round;}
  </style>
 </defs>
 <g id="figure_1">
  <g id="patch_1">
   <path d="M 0 396.105203 
L 352.295486 396.105203 
L 352.295486 0 
L 0 0 
z
" style="fill:#ffffff;"/>
  </g>
  <g id="axes_1">
   <g id="patch_2">
    <path d="M 54.781188 154.529766 
L 277.981187 154.529766 
L 277.981187 24.065766 
L 54.781188 24.065766 
z
" style="fill:#ffffff;"/>
   </g>
   <g id="PolyCollection_1">
    <defs>
     <path d="M 64.926642 -378.567619 
L 64.926642 -345.083901 
L 67.342226 -285.390312 
L 69.757811 -276.003909 
L 72.173395 -271.261599 
L 74.58898 -268.985879 
L 77.004564 -267.876934 
L 79.420149 -267.203992 
L 81.835733 -266.779094 
L 84.251317 -266.417632 
L 86.666902 -266.156705 
L 89.082486 -265.973826 
L 91.498071 -265.820666 
L 93.913655 -265.688626 
L 96.329239 -265.542638 
L 98.744824 -265.497247 
L 101.160408 -265.36403 
L 103.575993 -265.297999 
L 105.991577 -265.248973 
L 108.407162 -265.210958 
L 110.822746 -265.10418 
L 113.23833 -265.104331 
L 115.653915 -265.095966 
L 118.069499 -265.009648 
L 120.485084 -264.996678 
L 122.900668 -264.960526 
L 125.316252 -264.936031 
L 127.731837 -264.930022 
L 130.147421 -264.881388 
L 132.563006 -264.932176 
L 134.97859 -264.8344 
L 137.394175 -264.875138 
L 139.809759 -264.876192 
L 142.225343 -264.804932 
L 144.640928 -264.79432 
L 147.056512 -264.777311 
L 149.472097 -264.7606 
L 151.887681 -264.762171 
L 154.303265 -264.712756 
L 156.71885 -264.758858 
L 159.134434 -264.757229 
L 161.550019 -264.719113 
L 163.965603 -264.690789 
L 166.381187 -264.71683 
L 168.796772 -264.671274 
L 171.212356 -264.664409 
L 173.627941 -264.651514 
L 176.043525 -264.625742 
L 178.45911 -264.64352 
L 180.874694 -264.604612 
L 183.290278 -264.636457 
L 185.705863 -264.622482 
L 188.121447 -264.645632 
L 190.537032 -264.620354 
L 192.952616 -264.60693 
L 195.3682 -264.584021 
L 197.783785 -264.627073 
L 200.199369 -264.591732 
L 202.614954 -264.605465 
L 205.030538 -264.63284 
L 207.446123 -264.60974 
L 209.861707 -264.603679 
L 212.277291 -264.630069 
L 214.692876 -264.590397 
L 217.10846 -264.596006 
L 219.524045 -264.637949 
L 221.939629 -264.588337 
L 224.355213 -264.57155 
L 226.770798 -264.588273 
L 229.186382 -264.54565 
L 231.601967 -264.504848 
L 234.017551 -264.509186 
L 236.433136 -264.630565 
L 238.84872 -264.586882 
L 241.264304 -264.529554 
L 243.679889 -264.586514 
L 246.095473 -264.520331 
L 248.511058 -264.554908 
L 250.926642 -264.58453 
L 253.342226 -264.576941 
L 255.757811 -264.584629 
L 255.757811 -265.305071 
L 255.757811 -265.305071 
L 253.342226 -265.283058 
L 250.926642 -265.302987 
L 248.511058 -265.312153 
L 246.095473 -265.382268 
L 243.679889 -265.283412 
L 241.264304 -265.313823 
L 238.84872 -265.311301 
L 236.433136 -265.375068 
L 234.017551 -265.369386 
L 231.601967 -265.300326 
L 229.186382 -265.373133 
L 226.770798 -265.32498 
L 224.355213 -265.407545 
L 221.939629 -265.297492 
L 219.524045 -265.359381 
L 217.10846 -265.28979 
L 214.692876 -265.391904 
L 212.277291 -265.361401 
L 209.861707 -265.318953 
L 207.446123 -265.346117 
L 205.030538 -265.43275 
L 202.614954 -265.399194 
L 200.199369 -265.361446 
L 197.783785 -265.383334 
L 195.3682 -265.341761 
L 192.952616 -265.354577 
L 190.537032 -265.40689 
L 188.121447 -265.424847 
L 185.705863 -265.407077 
L 183.290278 -265.440507 
L 180.874694 -265.453135 
L 178.45911 -265.524988 
L 176.043525 -265.456199 
L 173.627941 -265.511727 
L 171.212356 -265.50152 
L 168.796772 -265.51843 
L 166.381187 -265.505354 
L 163.965603 -265.591309 
L 161.550019 -265.571068 
L 159.134434 -265.500067 
L 156.71885 -265.605859 
L 154.303265 -265.717636 
L 151.887681 -265.658231 
L 149.472097 -265.631075 
L 147.056512 -265.663267 
L 144.640928 -265.759619 
L 142.225343 -265.69573 
L 139.809759 -265.795485 
L 137.394175 -265.733201 
L 134.97859 -265.797007 
L 132.563006 -265.888005 
L 130.147421 -265.890881 
L 127.731837 -265.900413 
L 125.316252 -265.963756 
L 122.900668 -266.001026 
L 120.485084 -266.106665 
L 118.069499 -266.074779 
L 115.653915 -266.148703 
L 113.23833 -266.224272 
L 110.822746 -266.343513 
L 108.407162 -266.379974 
L 105.991577 -266.52556 
L 103.575993 -266.602279 
L 101.160408 -266.744564 
L 98.744824 -266.856466 
L 96.329239 -266.912771 
L 93.913655 -267.141242 
L 91.498071 -267.350301 
L 89.082486 -267.583345 
L 86.666902 -267.875854 
L 84.251317 -268.265928 
L 81.835733 -268.565222 
L 79.420149 -269.218126 
L 77.004564 -270.016059 
L 74.58898 -271.377739 
L 72.173395 -273.797464 
L 69.757811 -280.129649 
L 67.342226 -313.193495 
L 64.926642 -378.567619 
z
" id="m056eaa7284" style="stroke:#430000;stroke-opacity:0.2;"/>
    </defs>
    <g clip-path="url(#p003e5a0df1)">
     <use style="fill:#430000;fill-opacity:0.2;stroke:#430000;stroke-opacity:0.2;" x="0" xlink:href="#m056eaa7284" y="396.105203"/>
    </g>
   </g>
   <g id="PolyCollection_2">
    <defs>
     <path d="M 64.926642 -378.302519 
L 64.926642 -341.665067 
L 67.342226 -285.117037 
L 69.757811 -275.804238 
L 72.173395 -271.458017 
L 74.58898 -269.349711 
L 77.004564 -268.269979 
L 79.420149 -267.603388 
L 81.835733 -267.089703 
L 84.251317 -266.76187 
L 86.666902 -266.510902 
L 89.082486 -266.320618 
L 91.498071 -265.899863 
L 93.913655 -265.867325 
L 96.329239 -265.828292 
L 98.744824 -265.857622 
L 101.160408 -265.844193 
L 103.575993 -265.906367 
L 105.991577 -265.946998 
L 108.407162 -266.012126 
L 110.822746 -265.74942 
L 113.23833 -265.796133 
L 115.653915 -265.663046 
L 118.069499 -265.478205 
L 120.485084 -265.449767 
L 122.900668 -265.470482 
L 125.316252 -265.377034 
L 127.731837 -265.289275 
L 130.147421 -265.140967 
L 132.563006 -265.165748 
L 134.97859 -265.109852 
L 137.394175 -264.465718 
L 139.809759 -264.542379 
L 142.225343 -264.779711 
L 144.640928 -264.837121 
L 147.056512 -264.860828 
L 149.472097 -264.865579 
L 151.887681 -264.793327 
L 154.303265 -264.776289 
L 156.71885 -264.778933 
L 159.134434 -264.844215 
L 161.550019 -264.807624 
L 163.965603 -264.706133 
L 166.381187 -264.700548 
L 168.796772 -264.660332 
L 171.212356 -264.661984 
L 173.627941 -264.700409 
L 176.043525 -264.675895 
L 178.45911 -264.639602 
L 180.874694 -264.621699 
L 183.290278 -264.597048 
L 185.705863 -264.208024 
L 188.121447 -264.668652 
L 190.537032 -264.681799 
L 192.952616 -264.672833 
L 195.3682 -264.604139 
L 197.783785 -264.5963 
L 200.199369 -264.5697 
L 202.614954 -264.581271 
L 205.030538 -264.568183 
L 207.446123 -264.519869 
L 209.861707 -264.530587 
L 212.277291 -264.545841 
L 214.692876 -264.525061 
L 217.10846 -264.487069 
L 219.524045 -264.552782 
L 221.939629 -264.478662 
L 224.355213 -264.50856 
L 226.770798 -264.515037 
L 229.186382 -264.346861 
L 231.601967 -264.423482 
L 234.017551 -264.192937 
L 236.433136 -264.496869 
L 238.84872 -264.495822 
L 241.264304 -264.485093 
L 243.679889 -264.44893 
L 246.095473 -264.435385 
L 248.511058 -264.462552 
L 250.926642 -264.526911 
L 253.342226 -264.502015 
L 255.757811 -264.453464 
L 255.757811 -265.239192 
L 255.757811 -265.239192 
L 253.342226 -265.231467 
L 250.926642 -265.269453 
L 248.511058 -265.248403 
L 246.095473 -265.299091 
L 243.679889 -265.244712 
L 241.264304 -265.320877 
L 238.84872 -265.314751 
L 236.433136 -265.339887 
L 234.017551 -265.745541 
L 231.601967 -265.487135 
L 229.186382 -265.710775 
L 226.770798 -265.291402 
L 224.355213 -265.289714 
L 221.939629 -265.313183 
L 219.524045 -265.294913 
L 217.10846 -265.323101 
L 214.692876 -265.348146 
L 212.277291 -265.315047 
L 209.861707 -265.304678 
L 207.446123 -265.327206 
L 205.030538 -265.322489 
L 202.614954 -265.334902 
L 200.199369 -265.372408 
L 197.783785 -265.372785 
L 195.3682 -265.394794 
L 192.952616 -265.390838 
L 190.537032 -265.538321 
L 188.121447 -265.3982 
L 185.705863 -266.529795 
L 183.290278 -265.429037 
L 180.874694 -265.441457 
L 178.45911 -265.40313 
L 176.043525 -265.460447 
L 173.627941 -265.451667 
L 171.212356 -265.523627 
L 168.796772 -265.523958 
L 166.381187 -265.554793 
L 163.965603 -265.603011 
L 161.550019 -265.645246 
L 159.134434 -265.714079 
L 156.71885 -265.788312 
L 154.303265 -265.958444 
L 151.887681 -266.04572 
L 149.472097 -266.004952 
L 147.056512 -266.156502 
L 144.640928 -266.232337 
L 142.225343 -266.56107 
L 139.809759 -266.959393 
L 137.394175 -266.911181 
L 134.97859 -265.870972 
L 132.563006 -265.990279 
L 130.147421 -266.29372 
L 127.731837 -266.158968 
L 125.316252 -266.246985 
L 122.900668 -266.380771 
L 120.485084 -266.544998 
L 118.069499 -266.783764 
L 115.653915 -266.743066 
L 113.23833 -267.204365 
L 110.822746 -267.754741 
L 108.407162 -267.525848 
L 105.991577 -267.642534 
L 103.575993 -267.681739 
L 101.160408 -267.520532 
L 98.744824 -267.386361 
L 96.329239 -267.426596 
L 93.913655 -267.778949 
L 91.498071 -268.105486 
L 89.082486 -267.577886 
L 86.666902 -267.795997 
L 84.251317 -268.051773 
L 81.835733 -268.388634 
L 79.420149 -268.917671 
L 77.004564 -269.659969 
L 74.58898 -270.80361 
L 72.173395 -273.436555 
L 69.757811 -280.314212 
L 67.342226 -308.145424 
L 64.926642 -378.302519 
z
" id="m39a702e2cf" style="stroke:#499ad7;stroke-opacity:0.2;"/>
    </defs>
    <g clip-path="url(#p003e5a0df1)">
     <use style="fill:#499ad7;fill-opacity:0.2;stroke:#499ad7;stroke-opacity:0.2;" x="0" xlink:href="#m39a702e2cf" y="396.105203"/>
    </g>
   </g>
   <g id="matplotlib.axis_1">
    <g id="xtick_1">
     <g id="line2d_1">
      <defs>
       <path d="M 0 0 
L 0 3.5 
" id="mf161611876" style="stroke:#000000;stroke-width:0.8;"/>
      </defs>
      <g>
       <use style="stroke:#000000;stroke-width:0.8;" x="64.926642" xlink:href="#mf161611876" y="154.529766"/>
      </g>
     </g>
     <g id="text_1">
      <!-- 0 -->
      <defs>
       <path d="M 31.78125 66.40625 
Q 24.171875 66.40625 20.328125 58.90625 
Q 16.5 51.421875 16.5 36.375 
Q 16.5 21.390625 20.328125 13.890625 
Q 24.171875 6.390625 31.78125 6.390625 
Q 39.453125 6.390625 43.28125 13.890625 
Q 47.125 21.390625 47.125 36.375 
Q 47.125 51.421875 43.28125 58.90625 
Q 39.453125 66.40625 31.78125 66.40625 
z
M 31.78125 74.21875 
Q 44.046875 74.21875 50.515625 64.515625 
Q 56.984375 54.828125 56.984375 36.375 
Q 56.984375 17.96875 50.515625 8.265625 
Q 44.046875 -1.421875 31.78125 -1.421875 
Q 19.53125 -1.421875 13.0625 8.265625 
Q 6.59375 17.96875 6.59375 36.375 
Q 6.59375 54.828125 13.0625 64.515625 
Q 19.53125 74.21875 31.78125 74.21875 
z
" id="DejaVuSans-48"/>
      </defs>
      <g transform="translate(60.377455 172.395531)scale(0.143 -0.143)">
       <use xlink:href="#DejaVuSans-48"/>
      </g>
     </g>
    </g>
    <g id="xtick_2">
     <g id="line2d_2">
      <g>
       <use style="stroke:#000000;stroke-width:0.8;" x="113.23833" xlink:href="#mf161611876" y="154.529766"/>
      </g>
     </g>
     <g id="text_2">
      <!-- 20 -->
      <defs>
       <path d="M 19.1875 8.296875 
L 53.609375 8.296875 
L 53.609375 0 
L 7.328125 0 
L 7.328125 8.296875 
Q 12.9375 14.109375 22.625 23.890625 
Q 32.328125 33.6875 34.8125 36.53125 
Q 39.546875 41.84375 41.421875 45.53125 
Q 43.3125 49.21875 43.3125 52.78125 
Q 43.3125 58.59375 39.234375 62.25 
Q 35.15625 65.921875 28.609375 65.921875 
Q 23.96875 65.921875 18.8125 64.3125 
Q 13.671875 62.703125 7.8125 59.421875 
L 7.8125 69.390625 
Q 13.765625 71.78125 18.9375 73 
Q 24.125 74.21875 28.421875 74.21875 
Q 39.75 74.21875 46.484375 68.546875 
Q 53.21875 62.890625 53.21875 53.421875 
Q 53.21875 48.921875 51.53125 44.890625 
Q 49.859375 40.875 45.40625 35.40625 
Q 44.1875 33.984375 37.640625 27.21875 
Q 31.109375 20.453125 19.1875 8.296875 
z
" id="DejaVuSans-50"/>
      </defs>
      <g transform="translate(104.139955 172.395531)scale(0.143 -0.143)">
       <use xlink:href="#DejaVuSans-50"/>
       <use x="63.623047" xlink:href="#DejaVuSans-48"/>
      </g>
     </g>
    </g>
    <g id="xtick_3">
     <g id="line2d_3">
      <g>
       <use style="stroke:#000000;stroke-width:0.8;" x="161.550019" xlink:href="#mf161611876" y="154.529766"/>
      </g>
     </g>
     <g id="text_3">
      <!-- 40 -->
      <defs>
       <path d="M 37.796875 64.3125 
L 12.890625 25.390625 
L 37.796875 25.390625 
z
M 35.203125 72.90625 
L 47.609375 72.90625 
L 47.609375 25.390625 
L 58.015625 25.390625 
L 58.015625 17.1875 
L 47.609375 17.1875 
L 47.609375 0 
L 37.796875 0 
L 37.796875 17.1875 
L 4.890625 17.1875 
L 4.890625 26.703125 
z
" id="DejaVuSans-52"/>
      </defs>
      <g transform="translate(152.451644 172.395531)scale(0.143 -0.143)">
       <use xlink:href="#DejaVuSans-52"/>
       <use x="63.623047" xlink:href="#DejaVuSans-48"/>
      </g>
     </g>
    </g>
    <g id="xtick_4">
     <g id="line2d_4">
      <g>
       <use style="stroke:#000000;stroke-width:0.8;" x="209.861707" xlink:href="#mf161611876" y="154.529766"/>
      </g>
     </g>
     <g id="text_4">
      <!-- 60 -->
      <defs>
       <path d="M 33.015625 40.375 
Q 26.375 40.375 22.484375 35.828125 
Q 18.609375 31.296875 18.609375 23.390625 
Q 18.609375 15.53125 22.484375 10.953125 
Q 26.375 6.390625 33.015625 6.390625 
Q 39.65625 6.390625 43.53125 10.953125 
Q 47.40625 15.53125 47.40625 23.390625 
Q 47.40625 31.296875 43.53125 35.828125 
Q 39.65625 40.375 33.015625 40.375 
z
M 52.59375 71.296875 
L 52.59375 62.3125 
Q 48.875 64.0625 45.09375 64.984375 
Q 41.3125 65.921875 37.59375 65.921875 
Q 27.828125 65.921875 22.671875 59.328125 
Q 17.53125 52.734375 16.796875 39.40625 
Q 19.671875 43.65625 24.015625 45.921875 
Q 28.375 48.1875 33.59375 48.1875 
Q 44.578125 48.1875 50.953125 41.515625 
Q 57.328125 34.859375 57.328125 23.390625 
Q 57.328125 12.15625 50.6875 5.359375 
Q 44.046875 -1.421875 33.015625 -1.421875 
Q 20.359375 -1.421875 13.671875 8.265625 
Q 6.984375 17.96875 6.984375 36.375 
Q 6.984375 53.65625 15.1875 63.9375 
Q 23.390625 74.21875 37.203125 74.21875 
Q 40.921875 74.21875 44.703125 73.484375 
Q 48.484375 72.75 52.59375 71.296875 
z
" id="DejaVuSans-54"/>
      </defs>
      <g transform="translate(200.763332 172.395531)scale(0.143 -0.143)">
       <use xlink:href="#DejaVuSans-54"/>
       <use x="63.623047" xlink:href="#DejaVuSans-48"/>
      </g>
     </g>
    </g>
    <g id="xtick_5">
     <g id="line2d_5">
      <g>
       <use style="stroke:#000000;stroke-width:0.8;" x="258.173395" xlink:href="#mf161611876" y="154.529766"/>
      </g>
     </g>
     <g id="text_5">
      <!-- 80 -->
      <defs>
       <path d="M 31.78125 34.625 
Q 24.75 34.625 20.71875 30.859375 
Q 16.703125 27.09375 16.703125 20.515625 
Q 16.703125 13.921875 20.71875 10.15625 
Q 24.75 6.390625 31.78125 6.390625 
Q 38.8125 6.390625 42.859375 10.171875 
Q 46.921875 13.96875 46.921875 20.515625 
Q 46.921875 27.09375 42.890625 30.859375 
Q 38.875 34.625 31.78125 34.625 
z
M 21.921875 38.8125 
Q 15.578125 40.375 12.03125 44.71875 
Q 8.5 49.078125 8.5 55.328125 
Q 8.5 64.0625 14.71875 69.140625 
Q 20.953125 74.21875 31.78125 74.21875 
Q 42.671875 74.21875 48.875 69.140625 
Q 55.078125 64.0625 55.078125 55.328125 
Q 55.078125 49.078125 51.53125 44.71875 
Q 48 40.375 41.703125 38.8125 
Q 48.828125 37.15625 52.796875 32.3125 
Q 56.78125 27.484375 56.78125 20.515625 
Q 56.78125 9.90625 50.3125 4.234375 
Q 43.84375 -1.421875 31.78125 -1.421875 
Q 19.734375 -1.421875 13.25 4.234375 
Q 6.78125 9.90625 6.78125 20.515625 
Q 6.78125 27.484375 10.78125 32.3125 
Q 14.796875 37.15625 21.921875 38.8125 
z
M 18.3125 54.390625 
Q 18.3125 48.734375 21.84375 45.5625 
Q 25.390625 42.390625 31.78125 42.390625 
Q 38.140625 42.390625 41.71875 45.5625 
Q 45.3125 48.734375 45.3125 54.390625 
Q 45.3125 60.0625 41.71875 63.234375 
Q 38.140625 66.40625 31.78125 66.40625 
Q 25.390625 66.40625 21.84375 63.234375 
Q 18.3125 60.0625 18.3125 54.390625 
z
" id="DejaVuSans-56"/>
      </defs>
      <g transform="translate(249.07502 172.395531)scale(0.143 -0.143)">
       <use xlink:href="#DejaVuSans-56"/>
       <use x="63.623047" xlink:href="#DejaVuSans-48"/>
      </g>
     </g>
    </g>
    <g id="text_6">
     <!-- Epoch -->
     <defs>
      <path d="M 9.8125 72.90625 
L 55.90625 72.90625 
L 55.90625 64.59375 
L 19.671875 64.59375 
L 19.671875 43.015625 
L 54.390625 43.015625 
L 54.390625 34.71875 
L 19.671875 34.71875 
L 19.671875 8.296875 
L 56.78125 8.296875 
L 56.78125 0 
L 9.8125 0 
z
" id="DejaVuSans-69"/>
      <path d="M 18.109375 8.203125 
L 18.109375 -20.796875 
L 9.078125 -20.796875 
L 9.078125 54.6875 
L 18.109375 54.6875 
L 18.109375 46.390625 
Q 20.953125 51.265625 25.265625 53.625 
Q 29.59375 56 35.59375 56 
Q 45.5625 56 51.78125 48.09375 
Q 58.015625 40.1875 58.015625 27.296875 
Q 58.015625 14.40625 51.78125 6.484375 
Q 45.5625 -1.421875 35.59375 -1.421875 
Q 29.59375 -1.421875 25.265625 0.953125 
Q 20.953125 3.328125 18.109375 8.203125 
z
M 48.6875 27.296875 
Q 48.6875 37.203125 44.609375 42.84375 
Q 40.53125 48.484375 33.40625 48.484375 
Q 26.265625 48.484375 22.1875 42.84375 
Q 18.109375 37.203125 18.109375 27.296875 
Q 18.109375 17.390625 22.1875 11.75 
Q 26.265625 6.109375 33.40625 6.109375 
Q 40.53125 6.109375 44.609375 11.75 
Q 48.6875 17.390625 48.6875 27.296875 
z
" id="DejaVuSans-112"/>
      <path d="M 30.609375 48.390625 
Q 23.390625 48.390625 19.1875 42.75 
Q 14.984375 37.109375 14.984375 27.296875 
Q 14.984375 17.484375 19.15625 11.84375 
Q 23.34375 6.203125 30.609375 6.203125 
Q 37.796875 6.203125 41.984375 11.859375 
Q 46.1875 17.53125 46.1875 27.296875 
Q 46.1875 37.015625 41.984375 42.703125 
Q 37.796875 48.390625 30.609375 48.390625 
z
M 30.609375 56 
Q 42.328125 56 49.015625 48.375 
Q 55.71875 40.765625 55.71875 27.296875 
Q 55.71875 13.875 49.015625 6.21875 
Q 42.328125 -1.421875 30.609375 -1.421875 
Q 18.84375 -1.421875 12.171875 6.21875 
Q 5.515625 13.875 5.515625 27.296875 
Q 5.515625 40.765625 12.171875 48.375 
Q 18.84375 56 30.609375 56 
z
" id="DejaVuSans-111"/>
      <path d="M 48.78125 52.59375 
L 48.78125 44.1875 
Q 44.96875 46.296875 41.140625 47.34375 
Q 37.3125 48.390625 33.40625 48.390625 
Q 24.65625 48.390625 19.8125 42.84375 
Q 14.984375 37.3125 14.984375 27.296875 
Q 14.984375 17.28125 19.8125 11.734375 
Q 24.65625 6.203125 33.40625 6.203125 
Q 37.3125 6.203125 41.140625 7.25 
Q 44.96875 8.296875 48.78125 10.40625 
L 48.78125 2.09375 
Q 45.015625 0.34375 40.984375 -0.53125 
Q 36.96875 -1.421875 32.421875 -1.421875 
Q 20.0625 -1.421875 12.78125 6.34375 
Q 5.515625 14.109375 5.515625 27.296875 
Q 5.515625 40.671875 12.859375 48.328125 
Q 20.21875 56 33.015625 56 
Q 37.15625 56 41.109375 55.140625 
Q 45.0625 54.296875 48.78125 52.59375 
z
" id="DejaVuSans-99"/>
      <path d="M 54.890625 33.015625 
L 54.890625 0 
L 45.90625 0 
L 45.90625 32.71875 
Q 45.90625 40.484375 42.875 44.328125 
Q 39.84375 48.1875 33.796875 48.1875 
Q 26.515625 48.1875 22.3125 43.546875 
Q 18.109375 38.921875 18.109375 30.90625 
L 18.109375 0 
L 9.078125 0 
L 9.078125 75.984375 
L 18.109375 75.984375 
L 18.109375 46.1875 
Q 21.34375 51.125 25.703125 53.5625 
Q 30.078125 56 35.796875 56 
Q 45.21875 56 50.046875 50.171875 
Q 54.890625 44.34375 54.890625 33.015625 
z
" id="DejaVuSans-104"/>
     </defs>
     <g transform="translate(144.486547 190.23525)scale(0.143 -0.143)">
      <use xlink:href="#DejaVuSans-69"/>
      <use x="63.183594" xlink:href="#DejaVuSans-112"/>
      <use x="126.660156" xlink:href="#DejaVuSans-111"/>
      <use x="187.841797" xlink:href="#DejaVuSans-99"/>
      <use x="242.822266" xlink:href="#DejaVuSans-104"/>
     </g>
    </g>
   </g>
   <g id="matplotlib.axis_2">
    <g id="ytick_1">
     <g id="line2d_6">
      <defs>
       <path d="M 0 0 
L -3.5 0 
" id="m2430b8a9aa" style="stroke:#000000;stroke-width:0.8;"/>
      </defs>
      <g>
       <use style="stroke:#000000;stroke-width:0.8;" x="54.781188" xlink:href="#m2430b8a9aa" y="152.692244"/>
      </g>
     </g>
     <g id="text_7">
      <!-- 0 -->
      <g transform="translate(38.682813 158.125127)scale(0.143 -0.143)">
       <use xlink:href="#DejaVuSans-48"/>
      </g>
     </g>
    </g>
    <g id="ytick_2">
     <g id="line2d_7">
      <g>
       <use style="stroke:#000000;stroke-width:0.8;" x="54.781188" xlink:href="#m2430b8a9aa" y="115.941822"/>
      </g>
     </g>
     <g id="text_8">
      <!-- 1 -->
      <defs>
       <path d="M 12.40625 8.296875 
L 28.515625 8.296875 
L 28.515625 63.921875 
L 10.984375 60.40625 
L 10.984375 69.390625 
L 28.421875 72.90625 
L 38.28125 72.90625 
L 38.28125 8.296875 
L 54.390625 8.296875 
L 54.390625 0 
L 12.40625 0 
z
" id="DejaVuSans-49"/>
      </defs>
      <g transform="translate(38.682813 121.374705)scale(0.143 -0.143)">
       <use xlink:href="#DejaVuSans-49"/>
      </g>
     </g>
    </g>
    <g id="ytick_3">
     <g id="line2d_8">
      <g>
       <use style="stroke:#000000;stroke-width:0.8;" x="54.781188" xlink:href="#m2430b8a9aa" y="79.191399"/>
      </g>
     </g>
     <g id="text_9">
      <!-- 2 -->
      <g transform="translate(38.682813 84.624282)scale(0.143 -0.143)">
       <use xlink:href="#DejaVuSans-50"/>
      </g>
     </g>
    </g>
    <g id="ytick_4">
     <g id="line2d_9">
      <g>
       <use style="stroke:#000000;stroke-width:0.8;" x="54.781188" xlink:href="#m2430b8a9aa" y="42.440977"/>
      </g>
     </g>
     <g id="text_10">
      <!-- 3 -->
      <defs>
       <path d="M 40.578125 39.3125 
Q 47.65625 37.796875 51.625 33 
Q 55.609375 28.21875 55.609375 21.1875 
Q 55.609375 10.40625 48.1875 4.484375 
Q 40.765625 -1.421875 27.09375 -1.421875 
Q 22.515625 -1.421875 17.65625 -0.515625 
Q 12.796875 0.390625 7.625 2.203125 
L 7.625 11.71875 
Q 11.71875 9.328125 16.59375 8.109375 
Q 21.484375 6.890625 26.8125 6.890625 
Q 36.078125 6.890625 40.9375 10.546875 
Q 45.796875 14.203125 45.796875 21.1875 
Q 45.796875 27.640625 41.28125 31.265625 
Q 36.765625 34.90625 28.71875 34.90625 
L 20.21875 34.90625 
L 20.21875 43.015625 
L 29.109375 43.015625 
Q 36.375 43.015625 40.234375 45.921875 
Q 44.09375 48.828125 44.09375 54.296875 
Q 44.09375 59.90625 40.109375 62.90625 
Q 36.140625 65.921875 28.71875 65.921875 
Q 24.65625 65.921875 20.015625 65.03125 
Q 15.375 64.15625 9.8125 62.3125 
L 9.8125 71.09375 
Q 15.4375 72.65625 20.34375 73.4375 
Q 25.25 74.21875 29.59375 74.21875 
Q 40.828125 74.21875 47.359375 69.109375 
Q 53.90625 64.015625 53.90625 55.328125 
Q 53.90625 49.265625 50.4375 45.09375 
Q 46.96875 40.921875 40.578125 39.3125 
z
" id="DejaVuSans-51"/>
      </defs>
      <g transform="translate(38.682813 47.87386)scale(0.143 -0.143)">
       <use xlink:href="#DejaVuSans-51"/>
      </g>
     </g>
    </g>
    <g id="text_11">
     <!-- Prediction loss -->
     <defs>
      <path d="M 19.671875 64.796875 
L 19.671875 37.40625 
L 32.078125 37.40625 
Q 38.96875 37.40625 42.71875 40.96875 
Q 46.484375 44.53125 46.484375 51.125 
Q 46.484375 57.671875 42.71875 61.234375 
Q 38.96875 64.796875 32.078125 64.796875 
z
M 9.8125 72.90625 
L 32.078125 72.90625 
Q 44.34375 72.90625 50.609375 67.359375 
Q 56.890625 61.8125 56.890625 51.125 
Q 56.890625 40.328125 50.609375 34.8125 
Q 44.34375 29.296875 32.078125 29.296875 
L 19.671875 29.296875 
L 19.671875 0 
L 9.8125 0 
z
" id="DejaVuSans-80"/>
      <path d="M 41.109375 46.296875 
Q 39.59375 47.171875 37.8125 47.578125 
Q 36.03125 48 33.890625 48 
Q 26.265625 48 22.1875 43.046875 
Q 18.109375 38.09375 18.109375 28.8125 
L 18.109375 0 
L 9.078125 0 
L 9.078125 54.6875 
L 18.109375 54.6875 
L 18.109375 46.1875 
Q 20.953125 51.171875 25.484375 53.578125 
Q 30.03125 56 36.53125 56 
Q 37.453125 56 38.578125 55.875 
Q 39.703125 55.765625 41.0625 55.515625 
z
" id="DejaVuSans-114"/>
      <path d="M 56.203125 29.59375 
L 56.203125 25.203125 
L 14.890625 25.203125 
Q 15.484375 15.921875 20.484375 11.0625 
Q 25.484375 6.203125 34.421875 6.203125 
Q 39.59375 6.203125 44.453125 7.46875 
Q 49.3125 8.734375 54.109375 11.28125 
L 54.109375 2.78125 
Q 49.265625 0.734375 44.1875 -0.34375 
Q 39.109375 -1.421875 33.890625 -1.421875 
Q 20.796875 -1.421875 13.15625 6.1875 
Q 5.515625 13.8125 5.515625 26.8125 
Q 5.515625 40.234375 12.765625 48.109375 
Q 20.015625 56 32.328125 56 
Q 43.359375 56 49.78125 48.890625 
Q 56.203125 41.796875 56.203125 29.59375 
z
M 47.21875 32.234375 
Q 47.125 39.59375 43.09375 43.984375 
Q 39.0625 48.390625 32.421875 48.390625 
Q 24.90625 48.390625 20.390625 44.140625 
Q 15.875 39.890625 15.1875 32.171875 
z
" id="DejaVuSans-101"/>
      <path d="M 45.40625 46.390625 
L 45.40625 75.984375 
L 54.390625 75.984375 
L 54.390625 0 
L 45.40625 0 
L 45.40625 8.203125 
Q 42.578125 3.328125 38.25 0.953125 
Q 33.9375 -1.421875 27.875 -1.421875 
Q 17.96875 -1.421875 11.734375 6.484375 
Q 5.515625 14.40625 5.515625 27.296875 
Q 5.515625 40.1875 11.734375 48.09375 
Q 17.96875 56 27.875 56 
Q 33.9375 56 38.25 53.625 
Q 42.578125 51.265625 45.40625 46.390625 
z
M 14.796875 27.296875 
Q 14.796875 17.390625 18.875 11.75 
Q 22.953125 6.109375 30.078125 6.109375 
Q 37.203125 6.109375 41.296875 11.75 
Q 45.40625 17.390625 45.40625 27.296875 
Q 45.40625 37.203125 41.296875 42.84375 
Q 37.203125 48.484375 30.078125 48.484375 
Q 22.953125 48.484375 18.875 42.84375 
Q 14.796875 37.203125 14.796875 27.296875 
z
" id="DejaVuSans-100"/>
      <path d="M 9.421875 54.6875 
L 18.40625 54.6875 
L 18.40625 0 
L 9.421875 0 
z
M 9.421875 75.984375 
L 18.40625 75.984375 
L 18.40625 64.59375 
L 9.421875 64.59375 
z
" id="DejaVuSans-105"/>
      <path d="M 18.3125 70.21875 
L 18.3125 54.6875 
L 36.8125 54.6875 
L 36.8125 47.703125 
L 18.3125 47.703125 
L 18.3125 18.015625 
Q 18.3125 11.328125 20.140625 9.421875 
Q 21.96875 7.515625 27.59375 7.515625 
L 36.8125 7.515625 
L 36.8125 0 
L 27.59375 0 
Q 17.1875 0 13.234375 3.875 
Q 9.28125 7.765625 9.28125 18.015625 
L 9.28125 47.703125 
L 2.6875 47.703125 
L 2.6875 54.6875 
L 9.28125 54.6875 
L 9.28125 70.21875 
z
" id="DejaVuSans-116"/>
      <path d="M 54.890625 33.015625 
L 54.890625 0 
L 45.90625 0 
L 45.90625 32.71875 
Q 45.90625 40.484375 42.875 44.328125 
Q 39.84375 48.1875 33.796875 48.1875 
Q 26.515625 48.1875 22.3125 43.546875 
Q 18.109375 38.921875 18.109375 30.90625 
L 18.109375 0 
L 9.078125 0 
L 9.078125 54.6875 
L 18.109375 54.6875 
L 18.109375 46.1875 
Q 21.34375 51.125 25.703125 53.5625 
Q 30.078125 56 35.796875 56 
Q 45.21875 56 50.046875 50.171875 
Q 54.890625 44.34375 54.890625 33.015625 
z
" id="DejaVuSans-110"/>
      <path id="DejaVuSans-32"/>
      <path d="M 9.421875 75.984375 
L 18.40625 75.984375 
L 18.40625 0 
L 9.421875 0 
z
" id="DejaVuSans-108"/>
      <path d="M 44.28125 53.078125 
L 44.28125 44.578125 
Q 40.484375 46.53125 36.375 47.5 
Q 32.28125 48.484375 27.875 48.484375 
Q 21.1875 48.484375 17.84375 46.4375 
Q 14.5 44.390625 14.5 40.28125 
Q 14.5 37.15625 16.890625 35.375 
Q 19.28125 33.59375 26.515625 31.984375 
L 29.59375 31.296875 
Q 39.15625 29.25 43.1875 25.515625 
Q 47.21875 21.78125 47.21875 15.09375 
Q 47.21875 7.46875 41.1875 3.015625 
Q 35.15625 -1.421875 24.609375 -1.421875 
Q 20.21875 -1.421875 15.453125 -0.5625 
Q 10.6875 0.296875 5.421875 2 
L 5.421875 11.28125 
Q 10.40625 8.6875 15.234375 7.390625 
Q 20.0625 6.109375 24.8125 6.109375 
Q 31.15625 6.109375 34.5625 8.28125 
Q 37.984375 10.453125 37.984375 14.40625 
Q 37.984375 18.0625 35.515625 20.015625 
Q 33.0625 21.96875 24.703125 23.78125 
L 21.578125 24.515625 
Q 13.234375 26.265625 9.515625 29.90625 
Q 5.8125 33.546875 5.8125 39.890625 
Q 5.8125 47.609375 11.28125 51.796875 
Q 16.75 56 26.8125 56 
Q 31.78125 56 36.171875 55.265625 
Q 40.578125 54.546875 44.28125 53.078125 
z
" id="DejaVuSans-115"/>
     </defs>
     <g transform="translate(18.065766 141.179953)rotate(-90)scale(0.143 -0.143)">
      <use xlink:href="#DejaVuSans-80"/>
      <use x="60.287109" xlink:href="#DejaVuSans-114"/>
      <use x="101.369141" xlink:href="#DejaVuSans-101"/>
      <use x="162.892578" xlink:href="#DejaVuSans-100"/>
      <use x="226.369141" xlink:href="#DejaVuSans-105"/>
      <use x="254.152344" xlink:href="#DejaVuSans-99"/>
      <use x="309.132812" xlink:href="#DejaVuSans-116"/>
      <use x="348.341797" xlink:href="#DejaVuSans-105"/>
      <use x="376.125" xlink:href="#DejaVuSans-111"/>
      <use x="437.306641" xlink:href="#DejaVuSans-110"/>
      <use x="500.685547" xlink:href="#DejaVuSans-32"/>
      <use x="532.472656" xlink:href="#DejaVuSans-108"/>
      <use x="560.255859" xlink:href="#DejaVuSans-111"/>
      <use x="621.4375" xlink:href="#DejaVuSans-115"/>
      <use x="673.537109" xlink:href="#DejaVuSans-115"/>
     </g>
    </g>
   </g>
   <g id="line2d_10">
    <path clip-path="url(#p003e5a0df1)" d="M 64.926642 132.02619 
L 267.835733 132.02619 
" style="fill:none;stroke:#000000;stroke-linecap:square;stroke-opacity:0.8;stroke-width:1.5;"/>
   </g>
   <g id="line2d_11">
    <path clip-path="url(#p003e5a0df1)" d="M 64.926642 34.279443 
L 67.342226 96.8133 
L 69.757811 118.038424 
L 72.173395 123.575672 
L 74.58898 125.923394 
L 77.004564 127.158707 
L 79.420149 127.894144 
L 81.835733 128.433045 
L 84.251317 128.763423 
L 86.666902 129.088923 
L 89.082486 129.326618 
L 91.498071 129.519719 
L 93.913655 129.690269 
L 96.329239 129.877499 
L 98.744824 129.928347 
L 101.160408 130.050906 
L 103.575993 130.155064 
L 105.991577 130.217937 
L 108.407162 130.309737 
L 110.822746 130.381356 
L 113.23833 130.440902 
L 115.653915 130.482869 
L 118.069499 130.56299 
L 120.485084 130.553532 
L 122.900668 130.624427 
L 125.316252 130.655309 
L 127.731837 130.689986 
L 130.147421 130.719068 
L 132.563006 130.695113 
L 134.97859 130.7895 
L 137.394175 130.801034 
L 139.809759 130.769365 
L 142.225343 130.854872 
L 144.640928 130.828233 
L 147.056512 130.884914 
L 149.472097 130.909366 
L 151.887681 130.895002 
L 154.303265 130.890007 
L 156.71885 130.922845 
L 159.134434 130.976555 
L 161.550019 130.960113 
L 163.965603 130.964154 
L 166.381187 130.994111 
L 168.796772 131.010351 
L 171.212356 131.022238 
L 173.627941 131.023583 
L 176.043525 131.064233 
L 178.45911 131.020949 
L 180.874694 131.07633 
L 183.290278 131.066721 
L 185.705863 131.090424 
L 188.121447 131.069964 
L 190.537032 131.091581 
L 192.952616 131.124449 
L 195.3682 131.142312 
L 197.783785 131.1 
L 200.199369 131.128614 
L 202.614954 131.102874 
L 205.030538 131.072408 
L 207.446123 131.127274 
L 209.861707 131.143887 
L 212.277291 131.109468 
L 214.692876 131.114053 
L 217.10846 131.162305 
L 219.524045 131.106538 
L 221.939629 131.162289 
L 224.355213 131.115656 
L 226.770798 131.148577 
L 229.186382 131.145811 
L 231.601967 131.202616 
L 234.017551 131.165917 
L 236.433136 131.102387 
L 238.84872 131.156112 
L 241.264304 131.183515 
L 243.679889 131.17024 
L 246.095473 131.153904 
L 248.511058 131.171672 
L 250.926642 131.161445 
L 253.342226 131.175203 
L 255.757811 131.160353 
" style="fill:none;stroke:#430000;stroke-linecap:square;stroke-width:5;"/>
   </g>
   <g id="line2d_12">
    <path clip-path="url(#p003e5a0df1)" d="M 64.926642 36.12141 
L 67.342226 99.473972 
L 69.757811 118.045978 
L 72.173395 123.657917 
L 74.58898 126.028542 
L 77.004564 127.140229 
L 79.420149 127.844674 
L 81.835733 128.366035 
L 84.251317 128.698382 
L 86.666902 128.951754 
L 89.082486 129.155951 
L 91.498071 129.102528 
L 93.913655 129.282066 
L 96.329239 129.477759 
L 98.744824 129.483212 
L 101.160408 129.422841 
L 103.575993 129.31115 
L 105.991577 129.310437 
L 108.407162 129.336216 
L 110.822746 129.353122 
L 113.23833 129.604954 
L 115.653915 129.902147 
L 118.069499 129.974218 
L 120.485084 130.107821 
L 122.900668 130.179577 
L 125.316252 130.293193 
L 127.731837 130.381081 
L 130.147421 130.387859 
L 132.563006 130.527189 
L 134.97859 130.614791 
L 137.394175 130.416754 
L 139.809759 130.354317 
L 142.225343 130.434813 
L 144.640928 130.570474 
L 147.056512 130.596538 
L 149.472097 130.669937 
L 151.887681 130.685679 
L 154.303265 130.737836 
L 156.71885 130.821581 
L 159.134434 130.826056 
L 161.550019 130.878768 
L 163.965603 130.950631 
L 166.381187 130.977533 
L 168.796772 131.013058 
L 171.212356 131.012398 
L 173.627941 131.029165 
L 176.043525 131.037032 
L 178.45911 131.083837 
L 180.874694 131.073625 
L 183.290278 131.09216 
L 185.705863 130.736294 
L 188.121447 131.071777 
L 190.537032 130.995143 
L 192.952616 131.073368 
L 195.3682 131.105737 
L 197.783785 131.12066 
L 200.199369 131.134149 
L 202.614954 131.147117 
L 205.030538 131.159867 
L 207.446123 131.181666 
L 209.861707 131.187571 
L 212.277291 131.174759 
L 214.692876 131.1686 
L 217.10846 131.200118 
L 219.524045 131.181355 
L 221.939629 131.20928 
L 224.355213 131.206066 
L 226.770798 131.201983 
L 229.186382 131.076385 
L 231.601967 131.149895 
L 234.017551 131.135964 
L 236.433136 131.186825 
L 238.84872 131.199917 
L 241.264304 131.202218 
L 243.679889 131.258382 
L 246.095473 131.237965 
L 248.511058 131.249726 
L 250.926642 131.207021 
L 253.342226 131.238462 
L 255.757811 131.258875 
" style="fill:none;stroke:#499ad7;stroke-dasharray:18.5,8;stroke-dashoffset:0;stroke-width:5;"/>
   </g>
   <g id="patch_3">
    <path d="M 54.781188 154.529766 
L 54.781188 24.065766 
" style="fill:none;stroke:#000000;stroke-linecap:square;stroke-linejoin:miter;stroke-width:1.25;"/>
   </g>
   <g id="patch_4">
    <path d="M 54.781188 154.529766 
L 277.981187 154.529766 
" style="fill:none;stroke:#000000;stroke-linecap:square;stroke-linejoin:miter;stroke-width:1.25;"/>
   </g>
   <g id="text_12">
    <!-- optimal -->
    <defs>
     <path d="M 52 44.1875 
Q 55.375 50.25 60.0625 53.125 
Q 64.75 56 71.09375 56 
Q 79.640625 56 84.28125 50.015625 
Q 88.921875 44.046875 88.921875 33.015625 
L 88.921875 0 
L 79.890625 0 
L 79.890625 32.71875 
Q 79.890625 40.578125 77.09375 44.375 
Q 74.3125 48.1875 68.609375 48.1875 
Q 61.625 48.1875 57.5625 43.546875 
Q 53.515625 38.921875 53.515625 30.90625 
L 53.515625 0 
L 44.484375 0 
L 44.484375 32.71875 
Q 44.484375 40.625 41.703125 44.40625 
Q 38.921875 48.1875 33.109375 48.1875 
Q 26.21875 48.1875 22.15625 43.53125 
Q 18.109375 38.875 18.109375 30.90625 
L 18.109375 0 
L 9.078125 0 
L 9.078125 54.6875 
L 18.109375 54.6875 
L 18.109375 46.1875 
Q 21.1875 51.21875 25.484375 53.609375 
Q 29.78125 56 35.6875 56 
Q 41.65625 56 45.828125 52.96875 
Q 50 49.953125 52 44.1875 
z
" id="DejaVuSans-109"/>
     <path d="M 34.28125 27.484375 
Q 23.390625 27.484375 19.1875 25 
Q 14.984375 22.515625 14.984375 16.5 
Q 14.984375 11.71875 18.140625 8.90625 
Q 21.296875 6.109375 26.703125 6.109375 
Q 34.1875 6.109375 38.703125 11.40625 
Q 43.21875 16.703125 43.21875 25.484375 
L 43.21875 27.484375 
z
M 52.203125 31.203125 
L 52.203125 0 
L 43.21875 0 
L 43.21875 8.296875 
Q 40.140625 3.328125 35.546875 0.953125 
Q 30.953125 -1.421875 24.3125 -1.421875 
Q 15.921875 -1.421875 10.953125 3.296875 
Q 6 8.015625 6 15.921875 
Q 6 25.140625 12.171875 29.828125 
Q 18.359375 34.515625 30.609375 34.515625 
L 43.21875 34.515625 
L 43.21875 35.40625 
Q 43.21875 41.609375 39.140625 45 
Q 35.0625 48.390625 27.6875 48.390625 
Q 23 48.390625 18.546875 47.265625 
Q 14.109375 46.140625 10.015625 43.890625 
L 10.015625 52.203125 
Q 14.9375 54.109375 19.578125 55.046875 
Q 24.21875 56 28.609375 56 
Q 40.484375 56 46.34375 49.84375 
Q 52.203125 43.703125 52.203125 31.203125 
z
" id="DejaVuSans-97"/>
    </defs>
    <g transform="translate(270.251317 132.02619)scale(0.143 -0.143)">
     <use xlink:href="#DejaVuSans-111"/>
     <use x="61.181641" xlink:href="#DejaVuSans-112"/>
     <use x="124.658203" xlink:href="#DejaVuSans-116"/>
     <use x="163.867188" xlink:href="#DejaVuSans-105"/>
     <use x="191.650391" xlink:href="#DejaVuSans-109"/>
     <use x="289.0625" xlink:href="#DejaVuSans-97"/>
     <use x="350.341797" xlink:href="#DejaVuSans-108"/>
    </g>
   </g>
   <g id="text_13">
    <!-- Prediction task convergence -->
    <defs>
     <path d="M 9.1875 72.90625 
L 40.375 72.90625 
Q 54.296875 72.90625 61.734375 66.71875 
Q 69.1875 60.546875 69.1875 49.125 
Q 69.1875 37.640625 61.734375 31.46875 
Q 54.296875 25.296875 40.375 25.296875 
L 27.984375 25.296875 
L 27.984375 0 
L 9.1875 0 
z
M 27.984375 59.28125 
L 27.984375 38.921875 
L 38.375 38.921875 
Q 43.84375 38.921875 46.828125 41.578125 
Q 49.8125 44.234375 49.8125 49.125 
Q 49.8125 54 46.828125 56.640625 
Q 43.84375 59.28125 38.375 59.28125 
z
" id="DejaVuSans-Bold-80"/>
     <path d="M 49.03125 39.796875 
Q 46.734375 40.875 44.453125 41.375 
Q 42.1875 41.890625 39.890625 41.890625 
Q 33.15625 41.890625 29.515625 37.5625 
Q 25.875 33.25 25.875 25.203125 
L 25.875 0 
L 8.40625 0 
L 8.40625 54.6875 
L 25.875 54.6875 
L 25.875 45.703125 
Q 29.25 51.078125 33.609375 53.53125 
Q 37.984375 56 44.09375 56 
Q 44.96875 56 45.984375 55.921875 
Q 47.015625 55.859375 48.96875 55.609375 
z
" id="DejaVuSans-Bold-114"/>
     <path d="M 62.984375 27.484375 
L 62.984375 22.515625 
L 22.125 22.515625 
Q 22.75 16.359375 26.5625 13.28125 
Q 30.375 10.203125 37.203125 10.203125 
Q 42.71875 10.203125 48.5 11.84375 
Q 54.296875 13.484375 60.40625 16.796875 
L 60.40625 3.328125 
Q 54.203125 0.984375 48 -0.21875 
Q 41.796875 -1.421875 35.59375 -1.421875 
Q 20.75 -1.421875 12.515625 6.125 
Q 4.296875 13.671875 4.296875 27.296875 
Q 4.296875 40.671875 12.375 48.328125 
Q 20.453125 56 34.625 56 
Q 47.515625 56 55.25 48.234375 
Q 62.984375 40.484375 62.984375 27.484375 
z
M 45.015625 33.296875 
Q 45.015625 38.28125 42.109375 41.328125 
Q 39.203125 44.390625 34.515625 44.390625 
Q 29.4375 44.390625 26.265625 41.53125 
Q 23.09375 38.671875 22.3125 33.296875 
z
" id="DejaVuSans-Bold-101"/>
     <path d="M 45.609375 46.6875 
L 45.609375 75.984375 
L 63.1875 75.984375 
L 63.1875 0 
L 45.609375 0 
L 45.609375 7.90625 
Q 42 3.078125 37.640625 0.828125 
Q 33.296875 -1.421875 27.59375 -1.421875 
Q 17.484375 -1.421875 10.984375 6.609375 
Q 4.5 14.65625 4.5 27.296875 
Q 4.5 39.9375 10.984375 47.96875 
Q 17.484375 56 27.59375 56 
Q 33.25 56 37.625 53.734375 
Q 42 51.46875 45.609375 46.6875 
z
M 34.078125 11.28125 
Q 39.703125 11.28125 42.65625 15.375 
Q 45.609375 19.484375 45.609375 27.296875 
Q 45.609375 35.109375 42.65625 39.203125 
Q 39.703125 43.3125 34.078125 43.3125 
Q 28.515625 43.3125 25.5625 39.203125 
Q 22.609375 35.109375 22.609375 27.296875 
Q 22.609375 19.484375 25.5625 15.375 
Q 28.515625 11.28125 34.078125 11.28125 
z
" id="DejaVuSans-Bold-100"/>
     <path d="M 8.40625 54.6875 
L 25.875 54.6875 
L 25.875 0 
L 8.40625 0 
z
M 8.40625 75.984375 
L 25.875 75.984375 
L 25.875 61.71875 
L 8.40625 61.71875 
z
" id="DejaVuSans-Bold-105"/>
     <path d="M 52.59375 52.984375 
L 52.59375 38.71875 
Q 49.03125 41.15625 45.4375 42.328125 
Q 41.84375 43.5 37.984375 43.5 
Q 30.671875 43.5 26.59375 39.234375 
Q 22.515625 34.96875 22.515625 27.296875 
Q 22.515625 19.625 26.59375 15.34375 
Q 30.671875 11.078125 37.984375 11.078125 
Q 42.09375 11.078125 45.78125 12.296875 
Q 49.46875 13.53125 52.59375 15.921875 
L 52.59375 1.609375 
Q 48.484375 0.09375 44.265625 -0.65625 
Q 40.046875 -1.421875 35.796875 -1.421875 
Q 21 -1.421875 12.640625 6.171875 
Q 4.296875 13.765625 4.296875 27.296875 
Q 4.296875 40.828125 12.640625 48.40625 
Q 21 56 35.796875 56 
Q 40.09375 56 44.265625 55.25 
Q 48.4375 54.5 52.59375 52.984375 
z
" id="DejaVuSans-Bold-99"/>
     <path d="M 27.484375 70.21875 
L 27.484375 54.6875 
L 45.515625 54.6875 
L 45.515625 42.1875 
L 27.484375 42.1875 
L 27.484375 19 
Q 27.484375 15.1875 29 13.84375 
Q 30.515625 12.5 35.015625 12.5 
L 44 12.5 
L 44 0 
L 29 0 
Q 18.65625 0 14.328125 4.3125 
Q 10.015625 8.640625 10.015625 19 
L 10.015625 42.1875 
L 1.3125 42.1875 
L 1.3125 54.6875 
L 10.015625 54.6875 
L 10.015625 70.21875 
z
" id="DejaVuSans-Bold-116"/>
     <path d="M 34.421875 43.5 
Q 28.609375 43.5 25.5625 39.328125 
Q 22.515625 35.15625 22.515625 27.296875 
Q 22.515625 19.4375 25.5625 15.25 
Q 28.609375 11.078125 34.421875 11.078125 
Q 40.140625 11.078125 43.15625 15.25 
Q 46.1875 19.4375 46.1875 27.296875 
Q 46.1875 35.15625 43.15625 39.328125 
Q 40.140625 43.5 34.421875 43.5 
z
M 34.421875 56 
Q 48.53125 56 56.46875 48.375 
Q 64.40625 40.765625 64.40625 27.296875 
Q 64.40625 13.8125 56.46875 6.1875 
Q 48.53125 -1.421875 34.421875 -1.421875 
Q 20.265625 -1.421875 12.28125 6.1875 
Q 4.296875 13.8125 4.296875 27.296875 
Q 4.296875 40.765625 12.28125 48.375 
Q 20.265625 56 34.421875 56 
z
" id="DejaVuSans-Bold-111"/>
     <path d="M 63.375 33.296875 
L 63.375 0 
L 45.796875 0 
L 45.796875 5.421875 
L 45.796875 25.484375 
Q 45.796875 32.5625 45.484375 35.25 
Q 45.171875 37.9375 44.390625 39.203125 
Q 43.359375 40.921875 41.59375 41.875 
Q 39.84375 42.828125 37.59375 42.828125 
Q 32.125 42.828125 29 38.59375 
Q 25.875 34.375 25.875 26.90625 
L 25.875 0 
L 8.40625 0 
L 8.40625 54.6875 
L 25.875 54.6875 
L 25.875 46.6875 
Q 29.828125 51.46875 34.265625 53.734375 
Q 38.71875 56 44.09375 56 
Q 53.5625 56 58.46875 50.1875 
Q 63.375 44.390625 63.375 33.296875 
z
" id="DejaVuSans-Bold-110"/>
     <path id="DejaVuSans-Bold-32"/>
     <path d="M 32.90625 24.609375 
Q 27.4375 24.609375 24.671875 22.75 
Q 21.921875 20.90625 21.921875 17.28125 
Q 21.921875 13.96875 24.140625 12.078125 
Q 26.375 10.203125 30.328125 10.203125 
Q 35.25 10.203125 38.625 13.734375 
Q 42 17.28125 42 22.609375 
L 42 24.609375 
z
M 59.625 31.203125 
L 59.625 0 
L 42 0 
L 42 8.109375 
Q 38.484375 3.125 34.078125 0.84375 
Q 29.6875 -1.421875 23.390625 -1.421875 
Q 14.890625 -1.421875 9.59375 3.53125 
Q 4.296875 8.5 4.296875 16.40625 
Q 4.296875 26.03125 10.90625 30.515625 
Q 17.53125 35.015625 31.6875 35.015625 
L 42 35.015625 
L 42 36.375 
Q 42 40.53125 38.71875 42.453125 
Q 35.453125 44.390625 28.515625 44.390625 
Q 22.90625 44.390625 18.0625 43.265625 
Q 13.234375 42.140625 9.078125 39.890625 
L 9.078125 53.21875 
Q 14.703125 54.59375 20.359375 55.296875 
Q 26.03125 56 31.6875 56 
Q 46.484375 56 53.046875 50.171875 
Q 59.625 44.34375 59.625 31.203125 
z
" id="DejaVuSans-Bold-97"/>
     <path d="M 51.125 52.984375 
L 51.125 39.703125 
Q 45.515625 42.046875 40.28125 43.21875 
Q 35.0625 44.390625 30.421875 44.390625 
Q 25.4375 44.390625 23.015625 43.140625 
Q 20.609375 41.890625 20.609375 39.3125 
Q 20.609375 37.203125 22.4375 36.078125 
Q 24.265625 34.96875 29 34.421875 
L 32.078125 33.984375 
Q 45.515625 32.28125 50.140625 28.375 
Q 54.78125 24.46875 54.78125 16.109375 
Q 54.78125 7.375 48.328125 2.96875 
Q 41.890625 -1.421875 29.109375 -1.421875 
Q 23.6875 -1.421875 17.890625 -0.5625 
Q 12.109375 0.296875 6 2 
L 6 15.28125 
Q 11.234375 12.75 16.71875 11.46875 
Q 22.21875 10.203125 27.875 10.203125 
Q 33.015625 10.203125 35.59375 11.609375 
Q 38.1875 13.03125 38.1875 15.828125 
Q 38.1875 18.171875 36.40625 19.3125 
Q 34.625 20.453125 29.296875 21.09375 
L 26.21875 21.484375 
Q 14.546875 22.953125 9.859375 26.90625 
Q 5.171875 30.859375 5.171875 38.921875 
Q 5.171875 47.609375 11.125 51.796875 
Q 17.09375 56 29.390625 56 
Q 34.234375 56 39.546875 55.265625 
Q 44.875 54.546875 51.125 52.984375 
z
" id="DejaVuSans-Bold-115"/>
     <path d="M 8.40625 75.984375 
L 25.875 75.984375 
L 25.875 34.625 
L 46 54.6875 
L 66.3125 54.6875 
L 39.59375 29.59375 
L 68.40625 0 
L 47.21875 0 
L 25.875 22.796875 
L 25.875 0 
L 8.40625 0 
z
" id="DejaVuSans-Bold-107"/>
     <path d="M 1.515625 54.6875 
L 19 54.6875 
L 32.625 16.890625 
L 46.1875 54.6875 
L 63.71875 54.6875 
L 42.1875 0 
L 23 0 
z
" id="DejaVuSans-Bold-118"/>
     <path d="M 45.609375 9.28125 
Q 42 4.5 37.640625 2.25 
Q 33.296875 0 27.59375 0 
Q 17.578125 0 11.03125 7.875 
Q 4.5 15.765625 4.5 27.984375 
Q 4.5 40.234375 11.03125 48.0625 
Q 17.578125 55.90625 27.59375 55.90625 
Q 33.296875 55.90625 37.640625 53.65625 
Q 42 51.421875 45.609375 46.578125 
L 45.609375 54.6875 
L 63.1875 54.6875 
L 63.1875 5.515625 
Q 63.1875 -7.671875 54.859375 -14.625 
Q 46.53125 -21.578125 30.71875 -21.578125 
Q 25.59375 -21.578125 20.796875 -20.796875 
Q 16.015625 -20.015625 11.1875 -18.40625 
L 11.1875 -4.78125 
Q 15.765625 -7.421875 20.15625 -8.71875 
Q 24.5625 -10.015625 29 -10.015625 
Q 37.59375 -10.015625 41.59375 -6.25 
Q 45.609375 -2.484375 45.609375 5.515625 
z
M 34.078125 43.3125 
Q 28.65625 43.3125 25.625 39.296875 
Q 22.609375 35.296875 22.609375 27.984375 
Q 22.609375 20.453125 25.53125 16.578125 
Q 28.46875 12.703125 34.078125 12.703125 
Q 39.546875 12.703125 42.578125 16.703125 
Q 45.609375 20.703125 45.609375 27.984375 
Q 45.609375 35.296875 42.578125 39.296875 
Q 39.546875 43.3125 34.078125 43.3125 
z
" id="DejaVuSans-Bold-103"/>
    </defs>
    <g transform="translate(54.781188 18.065766)scale(0.143 -0.143)">
     <use xlink:href="#DejaVuSans-Bold-80"/>
     <use x="73.291016" xlink:href="#DejaVuSans-Bold-114"/>
     <use x="122.607422" xlink:href="#DejaVuSans-Bold-101"/>
     <use x="190.429688" xlink:href="#DejaVuSans-Bold-100"/>
     <use x="262.011719" xlink:href="#DejaVuSans-Bold-105"/>
     <use x="296.289062" xlink:href="#DejaVuSans-Bold-99"/>
     <use x="355.566406" xlink:href="#DejaVuSans-Bold-116"/>
     <use x="403.369141" xlink:href="#DejaVuSans-Bold-105"/>
     <use x="437.646484" xlink:href="#DejaVuSans-Bold-111"/>
     <use x="506.347656" xlink:href="#DejaVuSans-Bold-110"/>
     <use x="577.539062" xlink:href="#DejaVuSans-Bold-32"/>
     <use x="612.353516" xlink:href="#DejaVuSans-Bold-116"/>
     <use x="660.15625" xlink:href="#DejaVuSans-Bold-97"/>
     <use x="727.636719" xlink:href="#DejaVuSans-Bold-115"/>
     <use x="787.158203" xlink:href="#DejaVuSans-Bold-107"/>
     <use x="853.662109" xlink:href="#DejaVuSans-Bold-32"/>
     <use x="888.476562" xlink:href="#DejaVuSans-Bold-99"/>
     <use x="947.753906" xlink:href="#DejaVuSans-Bold-111"/>
     <use x="1016.455078" xlink:href="#DejaVuSans-Bold-110"/>
     <use x="1087.646484" xlink:href="#DejaVuSans-Bold-118"/>
     <use x="1152.832031" xlink:href="#DejaVuSans-Bold-101"/>
     <use x="1220.654297" xlink:href="#DejaVuSans-Bold-114"/>
     <use x="1269.970703" xlink:href="#DejaVuSans-Bold-103"/>
     <use x="1341.552734" xlink:href="#DejaVuSans-Bold-101"/>
     <use x="1409.375" xlink:href="#DejaVuSans-Bold-110"/>
     <use x="1480.566406" xlink:href="#DejaVuSans-Bold-99"/>
     <use x="1539.84375" xlink:href="#DejaVuSans-Bold-101"/>
    </g>
   </g>
  </g>
  <g id="axes_2">
   <g id="patch_5">
    <path d="M 54.781188 350.225766 
L 277.981187 350.225766 
L 277.981187 219.761766 
L 54.781188 219.761766 
z
" style="fill:#ffffff;"/>
   </g>
   <g id="PolyCollection_3">
    <defs>
     <path d="M 64.926642 -145.244746 
L 64.926642 -144.709203 
L 67.342226 -144.732872 
L 69.757811 -144.730562 
L 72.173395 -144.72922 
L 74.58898 -144.728217 
L 77.004564 -144.727559 
L 79.420149 -144.727143 
L 81.835733 -144.725128 
L 84.251317 -144.727187 
L 86.666902 -144.726986 
L 89.082486 -144.727059 
L 91.498071 -144.727493 
L 93.913655 -144.727816 
L 96.329239 -144.728425 
L 98.744824 -144.728394 
L 101.160408 -144.729012 
L 103.575993 -144.72949 
L 105.991577 -144.730356 
L 108.407162 -144.730608 
L 110.822746 -144.730741 
L 113.23833 -144.731373 
L 115.653915 -144.731739 
L 118.069499 -144.732142 
L 120.485084 -144.732518 
L 122.900668 -144.733046 
L 125.316252 -144.730667 
L 127.731837 -144.733943 
L 130.147421 -144.737685 
L 132.563006 -144.737247 
L 134.97859 -144.737036 
L 137.394175 -144.737534 
L 139.809759 -144.73807 
L 142.225343 -144.738852 
L 144.640928 -144.739392 
L 147.056512 -144.73991 
L 149.472097 -144.740505 
L 151.887681 -144.741169 
L 154.303265 -144.741912 
L 156.71885 -144.74281 
L 159.134434 -144.743577 
L 161.550019 -144.744489 
L 163.965603 -144.745136 
L 166.381187 -144.74612 
L 168.796772 -144.74692 
L 171.212356 -144.745594 
L 173.627941 -144.748545 
L 176.043525 -144.749916 
L 178.45911 -144.750798 
L 180.874694 -144.752025 
L 183.290278 -144.75045 
L 185.705863 -144.750793 
L 188.121447 -144.750517 
L 190.537032 -144.750963 
L 192.952616 -144.751108 
L 195.3682 -144.751767 
L 197.783785 -144.751454 
L 200.199369 -144.751807 
L 202.614954 -144.751546 
L 205.030538 -144.751906 
L 207.446123 -144.750281 
L 209.861707 -144.749963 
L 212.277291 -144.750384 
L 214.692876 -144.751617 
L 217.10846 -144.752051 
L 219.524045 -144.751928 
L 221.939629 -144.751847 
L 224.355213 -144.752118 
L 226.770798 -144.751302 
L 229.186382 -144.751839 
L 231.601967 -144.751956 
L 234.017551 -144.751824 
L 236.433136 -144.752003 
L 238.84872 -144.751969 
L 241.264304 -144.751845 
L 243.679889 -144.751528 
L 246.095473 -144.751607 
L 248.511058 -144.751483 
L 250.926642 -144.751593 
L 253.342226 -144.75345 
L 255.757811 -144.752417 
L 255.757811 -145.034802 
L 255.757811 -145.034802 
L 253.342226 -145.034159 
L 250.926642 -145.032936 
L 248.511058 -145.031514 
L 246.095473 -145.031241 
L 243.679889 -145.030982 
L 241.264304 -145.031058 
L 238.84872 -145.030963 
L 236.433136 -145.031007 
L 234.017551 -145.030827 
L 231.601967 -145.030982 
L 229.186382 -145.030955 
L 226.770798 -145.030939 
L 224.355213 -145.031249 
L 221.939629 -145.031207 
L 219.524045 -145.031211 
L 217.10846 -145.030039 
L 214.692876 -145.030071 
L 212.277291 -145.030299 
L 209.861707 -145.03032 
L 207.446123 -145.030648 
L 205.030538 -145.031495 
L 202.614954 -145.03171 
L 200.199369 -145.032366 
L 197.783785 -145.032979 
L 195.3682 -145.033524 
L 192.952616 -145.034042 
L 190.537032 -145.034566 
L 188.121447 -145.034734 
L 185.705863 -145.035524 
L 183.290278 -145.036109 
L 180.874694 -145.036891 
L 178.45911 -145.037328 
L 176.043525 -145.038438 
L 173.627941 -145.039218 
L 171.212356 -145.040137 
L 168.796772 -145.041251 
L 166.381187 -145.042507 
L 163.965603 -145.043619 
L 161.550019 -145.044504 
L 159.134434 -145.045868 
L 156.71885 -145.047329 
L 154.303265 -145.048506 
L 151.887681 -145.050162 
L 149.472097 -145.05215 
L 147.056512 -145.054069 
L 144.640928 -145.056064 
L 142.225343 -145.058616 
L 139.809759 -145.059819 
L 137.394175 -145.061795 
L 134.97859 -145.063963 
L 132.563006 -145.065374 
L 130.147421 -145.068356 
L 127.731837 -145.071007 
L 125.316252 -145.073884 
L 122.900668 -145.076284 
L 120.485084 -145.079263 
L 118.069499 -145.082138 
L 115.653915 -145.085282 
L 113.23833 -145.088829 
L 110.822746 -145.092728 
L 108.407162 -145.096805 
L 105.991577 -145.101231 
L 103.575993 -145.106063 
L 101.160408 -145.111113 
L 98.744824 -145.116608 
L 96.329239 -145.122401 
L 93.913655 -145.12893 
L 91.498071 -145.135827 
L 89.082486 -145.14322 
L 86.666902 -145.151146 
L 84.251317 -145.159985 
L 81.835733 -145.169509 
L 79.420149 -145.179925 
L 77.004564 -145.191209 
L 74.58898 -145.203529 
L 72.173395 -145.217035 
L 69.757811 -145.231952 
L 67.342226 -145.247549 
L 64.926642 -145.244746 
z
" id="m777d52ce59" style="stroke:#cf8f17;stroke-opacity:0.2;"/>
    </defs>
    <g clip-path="url(#p7df9285535)">
     <use style="fill:#cf8f17;fill-opacity:0.2;stroke:#cf8f17;stroke-opacity:0.2;" x="0" xlink:href="#m777d52ce59" y="396.105203"/>
    </g>
   </g>
   <g id="PolyCollection_4">
    <defs>
     <path d="M 64.926642 -145.373285 
L 64.926642 -144.667493 
L 67.342226 -144.566704 
L 69.757811 -144.529746 
L 72.173395 -144.607764 
L 74.58898 -144.57182 
L 77.004564 -144.447313 
L 79.420149 -144.485354 
L 81.835733 -144.349183 
L 84.251317 -144.291005 
L 86.666902 -143.945309 
L 89.082486 -142.543423 
L 91.498071 -135.442849 
L 93.913655 -121.631512 
L 96.329239 -116.43688 
L 98.744824 -109.903545 
L 101.160408 -102.506068 
L 103.575993 -88.722508 
L 105.991577 -76.72497 
L 108.407162 -65.087125 
L 110.822746 -58.481507 
L 113.23833 -51.458103 
L 115.653915 -45.001744 
L 118.069499 -43.544956 
L 120.485084 -41.415762 
L 122.900668 -40.759042 
L 125.316252 -41.142358 
L 127.731837 -40.33032 
L 130.147421 -37.065356 
L 132.563006 -38.973294 
L 134.97859 -38.616002 
L 137.394175 -35.466706 
L 139.809759 -34.734816 
L 142.225343 -38.453037 
L 144.640928 -36.875298 
L 147.056512 -36.345869 
L 149.472097 -36.799075 
L 151.887681 -36.652765 
L 154.303265 -35.808449 
L 156.71885 -34.954355 
L 159.134434 -34.71415 
L 161.550019 -34.377087 
L 163.965603 -34.463286 
L 166.381187 -34.176449 
L 168.796772 -34.147695 
L 171.212356 -34.073652 
L 173.627941 -33.990792 
L 176.043525 -34.097526 
L 178.45911 -34.094919 
L 180.874694 -33.929752 
L 183.290278 -33.699472 
L 185.705863 -32.278051 
L 188.121447 -33.209847 
L 190.537032 -34.914864 
L 192.952616 -34.647418 
L 195.3682 -34.622717 
L 197.783785 -34.77293 
L 200.199369 -34.135836 
L 202.614954 -33.779592 
L 205.030538 -33.516672 
L 207.446123 -33.507596 
L 209.861707 -33.372156 
L 212.277291 -33.633624 
L 214.692876 -33.606837 
L 217.10846 -33.399308 
L 219.524045 -33.526876 
L 221.939629 -33.629702 
L 224.355213 -33.43216 
L 226.770798 -33.484285 
L 229.186382 -35.080842 
L 231.601967 -34.502065 
L 234.017551 -33.413146 
L 236.433136 -33.687826 
L 238.84872 -33.86857 
L 241.264304 -33.662855 
L 243.679889 -33.354864 
L 246.095473 -33.430667 
L 248.511058 -33.338547 
L 250.926642 -33.392996 
L 253.342226 -33.243522 
L 255.757811 -33.361496 
L 255.757811 -85.559787 
L 255.757811 -85.559787 
L 253.342226 -85.491654 
L 250.926642 -85.60766 
L 248.511058 -85.538021 
L 246.095473 -85.669343 
L 243.679889 -85.553636 
L 241.264304 -85.79297 
L 238.84872 -85.894324 
L 236.433136 -85.799007 
L 234.017551 -92.816889 
L 231.601967 -87.828957 
L 229.186382 -95.210131 
L 226.770798 -85.632953 
L 224.355213 -85.593023 
L 221.939629 -85.758207 
L 219.524045 -85.649654 
L 217.10846 -85.571763 
L 214.692876 -85.69166 
L 212.277291 -85.712568 
L 209.861707 -85.587612 
L 207.446123 -85.640513 
L 205.030538 -85.649864 
L 202.614954 -85.811189 
L 200.199369 -86.233782 
L 197.783785 -87.513164 
L 195.3682 -87.663404 
L 192.952616 -87.768181 
L 190.537032 -88.784955 
L 188.121447 -94.755922 
L 185.705863 -106.420256 
L 183.290278 -92.613302 
L 180.874694 -92.764484 
L 178.45911 -92.799671 
L 176.043525 -92.841622 
L 173.627941 -92.884214 
L 171.212356 -92.82944 
L 168.796772 -92.970872 
L 166.381187 -92.962695 
L 163.965603 -93.115205 
L 161.550019 -93.189057 
L 159.134434 -93.170456 
L 156.71885 -93.307394 
L 154.303265 -93.908564 
L 151.887681 -96.280391 
L 149.472097 -100.937121 
L 147.056512 -105.050598 
L 144.640928 -100.672153 
L 142.225343 -106.498103 
L 139.809759 -119.841547 
L 137.394175 -106.45501 
L 134.97859 -95.25607 
L 132.563006 -95.572462 
L 130.147421 -105.411283 
L 127.731837 -96.871692 
L 125.316252 -100.420344 
L 122.900668 -104.770818 
L 120.485084 -110.133305 
L 118.069499 -113.760422 
L 115.653915 -118.510199 
L 113.23833 -122.172469 
L 110.822746 -127.817088 
L 108.407162 -133.832246 
L 105.991577 -143.335021 
L 103.575993 -148.225983 
L 101.160408 -152.643636 
L 98.744824 -155.442518 
L 96.329239 -155.182478 
L 93.913655 -154.567316 
L 91.498071 -148.864326 
L 89.082486 -145.887712 
L 86.666902 -145.402111 
L 84.251317 -145.36493 
L 81.835733 -145.462211 
L 79.420149 -145.352551 
L 77.004564 -145.51061 
L 74.58898 -145.385724 
L 72.173395 -145.388267 
L 69.757811 -145.527933 
L 67.342226 -145.518803 
L 64.926642 -145.373285 
z
" id="mf6ccc7080a" style="stroke:#499ad7;stroke-opacity:0.2;"/>
    </defs>
    <g clip-path="url(#p7df9285535)">
     <use style="fill:#499ad7;fill-opacity:0.2;stroke:#499ad7;stroke-opacity:0.2;" x="0" xlink:href="#mf6ccc7080a" y="396.105203"/>
    </g>
   </g>
   <g id="patch_6">
    <path clip-path="url(#p7df9285535)" d="M 234.017551 257.638411 
L 237.640928 266.055443 
L 234.018759 266.055443 
L 234.018759 291.30654 
L 234.016343 291.30654 
L 234.016343 266.055443 
L 230.394175 266.055443 
z
" style="stroke:#000000;stroke-linejoin:miter;stroke-width:1.5;"/>
   </g>
   <g id="patch_7">
    <path clip-path="url(#p7df9285535)" d="M 234.017551 324.974669 
L 230.394175 316.557637 
L 234.016343 316.557637 
L 234.016343 291.30654 
L 234.018759 291.30654 
L 234.018759 316.557637 
L 237.640928 316.557637 
z
" style="stroke:#000000;stroke-linejoin:miter;stroke-width:1.5;"/>
   </g>
   <g id="matplotlib.axis_3">
    <g id="xtick_6">
     <g id="line2d_13">
      <g>
       <use style="stroke:#000000;stroke-width:0.8;" x="64.926642" xlink:href="#mf161611876" y="350.225766"/>
      </g>
     </g>
     <g id="text_14">
      <!-- 0 -->
      <g transform="translate(60.377455 368.091531)scale(0.143 -0.143)">
       <use xlink:href="#DejaVuSans-48"/>
      </g>
     </g>
    </g>
    <g id="xtick_7">
     <g id="line2d_14">
      <g>
       <use style="stroke:#000000;stroke-width:0.8;" x="113.23833" xlink:href="#mf161611876" y="350.225766"/>
      </g>
     </g>
     <g id="text_15">
      <!-- 20 -->
      <g transform="translate(104.139955 368.091531)scale(0.143 -0.143)">
       <use xlink:href="#DejaVuSans-50"/>
       <use x="63.623047" xlink:href="#DejaVuSans-48"/>
      </g>
     </g>
    </g>
    <g id="xtick_8">
     <g id="line2d_15">
      <g>
       <use style="stroke:#000000;stroke-width:0.8;" x="161.550019" xlink:href="#mf161611876" y="350.225766"/>
      </g>
     </g>
     <g id="text_16">
      <!-- 40 -->
      <g transform="translate(152.451644 368.091531)scale(0.143 -0.143)">
       <use xlink:href="#DejaVuSans-52"/>
       <use x="63.623047" xlink:href="#DejaVuSans-48"/>
      </g>
     </g>
    </g>
    <g id="xtick_9">
     <g id="line2d_16">
      <g>
       <use style="stroke:#000000;stroke-width:0.8;" x="209.861707" xlink:href="#mf161611876" y="350.225766"/>
      </g>
     </g>
     <g id="text_17">
      <!-- 60 -->
      <g transform="translate(200.763332 368.091531)scale(0.143 -0.143)">
       <use xlink:href="#DejaVuSans-54"/>
       <use x="63.623047" xlink:href="#DejaVuSans-48"/>
      </g>
     </g>
    </g>
    <g id="xtick_10">
     <g id="line2d_17">
      <g>
       <use style="stroke:#000000;stroke-width:0.8;" x="258.173395" xlink:href="#mf161611876" y="350.225766"/>
      </g>
     </g>
     <g id="text_18">
      <!-- 80 -->
      <g transform="translate(249.07502 368.091531)scale(0.143 -0.143)">
       <use xlink:href="#DejaVuSans-56"/>
       <use x="63.623047" xlink:href="#DejaVuSans-48"/>
      </g>
     </g>
    </g>
    <g id="text_19">
     <!-- Epoch -->
     <g transform="translate(144.486547 385.93125)scale(0.143 -0.143)">
      <use xlink:href="#DejaVuSans-69"/>
      <use x="63.183594" xlink:href="#DejaVuSans-112"/>
      <use x="126.660156" xlink:href="#DejaVuSans-111"/>
      <use x="187.841797" xlink:href="#DejaVuSans-99"/>
      <use x="242.822266" xlink:href="#DejaVuSans-104"/>
     </g>
    </g>
   </g>
   <g id="matplotlib.axis_4">
    <g id="ytick_5">
     <g id="line2d_18">
      <g>
       <use style="stroke:#000000;stroke-width:0.8;" x="54.781188" xlink:href="#m2430b8a9aa" y="346.017249"/>
      </g>
     </g>
     <g id="text_20">
      <!-- 0.0 -->
      <defs>
       <path d="M 10.6875 12.40625 
L 21 12.40625 
L 21 0 
L 10.6875 0 
z
" id="DejaVuSans-46"/>
      </defs>
      <g transform="translate(25.039719 351.450132)scale(0.143 -0.143)">
       <use xlink:href="#DejaVuSans-48"/>
       <use x="63.623047" xlink:href="#DejaVuSans-46"/>
       <use x="95.410156" xlink:href="#DejaVuSans-48"/>
      </g>
     </g>
    </g>
    <g id="ytick_6">
     <g id="line2d_19">
      <g>
       <use style="stroke:#000000;stroke-width:0.8;" x="54.781188" xlink:href="#m2430b8a9aa" y="303.932088"/>
      </g>
     </g>
     <g id="text_21">
      <!-- 0.5 -->
      <defs>
       <path d="M 10.796875 72.90625 
L 49.515625 72.90625 
L 49.515625 64.59375 
L 19.828125 64.59375 
L 19.828125 46.734375 
Q 21.96875 47.46875 24.109375 47.828125 
Q 26.265625 48.1875 28.421875 48.1875 
Q 40.625 48.1875 47.75 41.5 
Q 54.890625 34.8125 54.890625 23.390625 
Q 54.890625 11.625 47.5625 5.09375 
Q 40.234375 -1.421875 26.90625 -1.421875 
Q 22.3125 -1.421875 17.546875 -0.640625 
Q 12.796875 0.140625 7.71875 1.703125 
L 7.71875 11.625 
Q 12.109375 9.234375 16.796875 8.0625 
Q 21.484375 6.890625 26.703125 6.890625 
Q 35.15625 6.890625 40.078125 11.328125 
Q 45.015625 15.765625 45.015625 23.390625 
Q 45.015625 31 40.078125 35.4375 
Q 35.15625 39.890625 26.703125 39.890625 
Q 22.75 39.890625 18.8125 39.015625 
Q 14.890625 38.140625 10.796875 36.28125 
z
" id="DejaVuSans-53"/>
      </defs>
      <g transform="translate(25.039719 309.364971)scale(0.143 -0.143)">
       <use xlink:href="#DejaVuSans-48"/>
       <use x="63.623047" xlink:href="#DejaVuSans-46"/>
       <use x="95.410156" xlink:href="#DejaVuSans-53"/>
      </g>
     </g>
    </g>
    <g id="ytick_7">
     <g id="line2d_20">
      <g>
       <use style="stroke:#000000;stroke-width:0.8;" x="54.781188" xlink:href="#m2430b8a9aa" y="261.846927"/>
      </g>
     </g>
     <g id="text_22">
      <!-- 1.0 -->
      <g transform="translate(25.039719 267.27981)scale(0.143 -0.143)">
       <use xlink:href="#DejaVuSans-49"/>
       <use x="63.623047" xlink:href="#DejaVuSans-46"/>
       <use x="95.410156" xlink:href="#DejaVuSans-48"/>
      </g>
     </g>
    </g>
    <g id="ytick_8">
     <g id="line2d_21">
      <g>
       <use style="stroke:#000000;stroke-width:0.8;" x="54.781188" xlink:href="#m2430b8a9aa" y="219.761766"/>
      </g>
     </g>
     <g id="text_23">
      <!-- 1.5 -->
      <g transform="translate(25.039719 225.194648)scale(0.143 -0.143)">
       <use xlink:href="#DejaVuSans-49"/>
       <use x="63.623047" xlink:href="#DejaVuSans-46"/>
       <use x="95.410156" xlink:href="#DejaVuSans-53"/>
      </g>
     </g>
    </g>
    <g id="text_24">
     <!-- Matching loss -->
     <defs>
      <path d="M 9.8125 72.90625 
L 24.515625 72.90625 
L 43.109375 23.296875 
L 61.8125 72.90625 
L 76.515625 72.90625 
L 76.515625 0 
L 66.890625 0 
L 66.890625 64.015625 
L 48.09375 14.015625 
L 38.1875 14.015625 
L 19.390625 64.015625 
L 19.390625 0 
L 9.8125 0 
z
" id="DejaVuSans-77"/>
      <path d="M 45.40625 27.984375 
Q 45.40625 37.75 41.375 43.109375 
Q 37.359375 48.484375 30.078125 48.484375 
Q 22.859375 48.484375 18.828125 43.109375 
Q 14.796875 37.75 14.796875 27.984375 
Q 14.796875 18.265625 18.828125 12.890625 
Q 22.859375 7.515625 30.078125 7.515625 
Q 37.359375 7.515625 41.375 12.890625 
Q 45.40625 18.265625 45.40625 27.984375 
z
M 54.390625 6.78125 
Q 54.390625 -7.171875 48.1875 -13.984375 
Q 42 -20.796875 29.203125 -20.796875 
Q 24.46875 -20.796875 20.265625 -20.09375 
Q 16.0625 -19.390625 12.109375 -17.921875 
L 12.109375 -9.1875 
Q 16.0625 -11.328125 19.921875 -12.34375 
Q 23.78125 -13.375 27.78125 -13.375 
Q 36.625 -13.375 41.015625 -8.765625 
Q 45.40625 -4.15625 45.40625 5.171875 
L 45.40625 9.625 
Q 42.625 4.78125 38.28125 2.390625 
Q 33.9375 0 27.875 0 
Q 17.828125 0 11.671875 7.65625 
Q 5.515625 15.328125 5.515625 27.984375 
Q 5.515625 40.671875 11.671875 48.328125 
Q 17.828125 56 27.875 56 
Q 33.9375 56 38.28125 53.609375 
Q 42.625 51.21875 45.40625 46.390625 
L 45.40625 54.6875 
L 54.390625 54.6875 
z
" id="DejaVuSans-103"/>
     </defs>
     <g transform="translate(18.065766 333.950039)rotate(-90)scale(0.143 -0.143)">
      <use xlink:href="#DejaVuSans-77"/>
      <use x="86.279297" xlink:href="#DejaVuSans-97"/>
      <use x="147.558594" xlink:href="#DejaVuSans-116"/>
      <use x="186.767578" xlink:href="#DejaVuSans-99"/>
      <use x="241.748047" xlink:href="#DejaVuSans-104"/>
      <use x="305.126953" xlink:href="#DejaVuSans-105"/>
      <use x="332.910156" xlink:href="#DejaVuSans-110"/>
      <use x="396.289062" xlink:href="#DejaVuSans-103"/>
      <use x="459.765625" xlink:href="#DejaVuSans-32"/>
      <use x="491.552734" xlink:href="#DejaVuSans-108"/>
      <use x="519.335938" xlink:href="#DejaVuSans-111"/>
      <use x="580.517578" xlink:href="#DejaVuSans-115"/>
      <use x="632.617188" xlink:href="#DejaVuSans-115"/>
     </g>
    </g>
   </g>
   <g id="line2d_22">
    <path clip-path="url(#p7df9285535)" d="M 64.926642 346.017249 
L 267.835733 346.017249 
" style="fill:none;stroke:#000000;stroke-linecap:square;stroke-opacity:0.8;stroke-width:1.5;"/>
   </g>
   <g id="line2d_23">
    <path clip-path="url(#p7df9285535)" d="M 64.926642 251.128228 
L 67.342226 251.114993 
L 69.757811 251.123946 
L 72.173395 251.132076 
L 74.58898 251.13933 
L 77.004564 251.145819 
L 79.420149 251.151669 
L 81.835733 251.157885 
L 84.251317 251.161617 
L 86.666902 251.166137 
L 89.082486 251.170063 
L 91.498071 251.173543 
L 93.913655 251.17683 
L 96.329239 251.17979 
L 98.744824 251.182702 
L 101.160408 251.185141 
L 103.575993 251.187426 
L 105.991577 251.18941 
L 108.407162 251.191497 
L 110.822746 251.193469 
L 113.23833 251.195102 
L 115.653915 251.196693 
L 118.069499 251.198063 
L 120.485084 251.199312 
L 122.900668 251.200538 
L 125.316252 251.202927 
L 127.731837 251.202728 
L 130.147421 251.202183 
L 132.563006 251.203893 
L 134.97859 251.204704 
L 137.394175 251.205539 
L 139.809759 251.206258 
L 142.225343 251.206469 
L 144.640928 251.207475 
L 147.056512 251.208214 
L 149.472097 251.208876 
L 151.887681 251.209538 
L 154.303265 251.209994 
L 156.71885 251.210134 
L 159.134434 251.210481 
L 161.550019 251.210706 
L 163.965603 251.210825 
L 166.381187 251.21089 
L 168.796772 251.211117 
L 171.212356 251.212338 
L 173.627941 251.211322 
L 176.043525 251.211027 
L 178.45911 251.21114 
L 180.874694 251.210745 
L 183.290278 251.211924 
L 185.705863 251.212044 
L 188.121447 251.212578 
L 190.537032 251.212439 
L 192.952616 251.212628 
L 195.3682 251.212558 
L 197.783785 251.212987 
L 200.199369 251.213117 
L 202.614954 251.213575 
L 205.030538 251.213502 
L 207.446123 251.214739 
L 209.861707 251.215062 
L 212.277291 251.214862 
L 214.692876 251.214359 
L 217.10846 251.214158 
L 219.524045 251.213634 
L 221.939629 251.213676 
L 224.355213 251.213519 
L 226.770798 251.214083 
L 229.186382 251.213806 
L 231.601967 251.213734 
L 234.017551 251.213878 
L 236.433136 251.213698 
L 238.84872 251.213737 
L 241.264304 251.213752 
L 243.679889 251.213948 
L 246.095473 251.213779 
L 248.511058 251.213705 
L 250.926642 251.212939 
L 253.342226 251.211398 
L 255.757811 251.211593 
" style="fill:none;stroke:#cf8f17;stroke-linecap:square;stroke-width:5;"/>
   </g>
   <g id="line2d_24">
    <path clip-path="url(#p7df9285535)" d="M 64.926642 251.084814 
L 67.342226 251.062449 
L 69.757811 251.076363 
L 72.173395 251.107188 
L 74.58898 251.126431 
L 77.004564 251.126241 
L 79.420149 251.186251 
L 81.835733 251.199506 
L 84.251317 251.277236 
L 86.666902 251.431493 
L 89.082486 251.889636 
L 91.498071 253.951616 
L 93.913655 258.005789 
L 96.329239 260.295524 
L 98.744824 263.432172 
L 101.160408 268.530351 
L 103.575993 277.630958 
L 105.991577 286.075207 
L 108.407162 296.645518 
L 110.822746 302.955906 
L 113.23833 309.289917 
L 115.653915 314.349232 
L 118.069499 317.452514 
L 120.485084 320.330669 
L 122.900668 323.340273 
L 125.316252 325.323852 
L 127.731837 327.504197 
L 130.147421 324.866884 
L 132.563006 328.832325 
L 134.97859 329.169167 
L 137.394175 325.144345 
L 139.809759 318.817022 
L 142.225343 323.629633 
L 144.640928 327.331478 
L 147.056512 325.40697 
L 149.472097 327.237105 
L 151.887681 329.638625 
L 154.303265 331.246697 
L 156.71885 331.974329 
L 159.134434 332.1629 
L 161.550019 332.322131 
L 163.965603 332.315958 
L 166.381187 332.535631 
L 168.796772 332.545919 
L 171.212356 332.653657 
L 173.627941 332.6677 
L 176.043525 332.635629 
L 178.45911 332.657908 
L 180.874694 332.758085 
L 183.290278 332.948816 
L 185.705863 326.756049 
L 188.121447 332.122319 
L 190.537032 334.255293 
L 192.952616 334.897403 
L 195.3682 334.962143 
L 197.783785 334.962156 
L 200.199369 335.920394 
L 202.614954 336.309813 
L 205.030538 336.521935 
L 207.446123 336.531149 
L 209.861707 336.62532 
L 212.277291 336.432107 
L 214.692876 336.455954 
L 217.10846 336.619668 
L 219.524045 336.516938 
L 221.939629 336.411248 
L 224.355213 336.592612 
L 226.770798 336.546584 
L 229.186382 330.959717 
L 231.601967 334.939692 
L 234.017551 332.990186 
L 236.433136 336.361787 
L 238.84872 336.223756 
L 241.264304 336.377291 
L 243.679889 336.650953 
L 246.095473 336.555198 
L 248.511058 336.666919 
L 250.926642 336.604875 
L 253.342226 336.737615 
L 255.757811 336.644562 
" style="fill:none;stroke:#499ad7;stroke-linecap:square;stroke-width:5;"/>
   </g>
   <g id="patch_8">
    <path d="M 54.781188 350.225766 
L 54.781188 219.761766 
" style="fill:none;stroke:#000000;stroke-linecap:square;stroke-linejoin:miter;stroke-width:1.25;"/>
   </g>
   <g id="patch_9">
    <path d="M 54.781188 350.225766 
L 277.981187 350.225766 
" style="fill:none;stroke:#000000;stroke-linecap:square;stroke-linejoin:miter;stroke-width:1.25;"/>
   </g>
   <g id="text_25">
    <!-- optimal -->
    <g transform="translate(270.251317 346.017249)scale(0.143 -0.143)">
     <use xlink:href="#DejaVuSans-111"/>
     <use x="61.181641" xlink:href="#DejaVuSans-112"/>
     <use x="124.658203" xlink:href="#DejaVuSans-116"/>
     <use x="163.867188" xlink:href="#DejaVuSans-105"/>
     <use x="191.650391" xlink:href="#DejaVuSans-109"/>
     <use x="289.0625" xlink:href="#DejaVuSans-97"/>
     <use x="350.341797" xlink:href="#DejaVuSans-108"/>
    </g>
   </g>
   <g id="text_26">
    <!-- eavesdropping -->
    <defs>
     <path d="M 2.984375 54.6875 
L 12.5 54.6875 
L 29.59375 8.796875 
L 46.6875 54.6875 
L 56.203125 54.6875 
L 35.6875 0 
L 23.484375 0 
z
" id="DejaVuSans-118"/>
    </defs>
    <g transform="translate(238.84872 279.502184)scale(0.143 -0.143)">
     <use xlink:href="#DejaVuSans-101"/>
     <use x="61.523438" xlink:href="#DejaVuSans-97"/>
     <use x="122.802734" xlink:href="#DejaVuSans-118"/>
     <use x="181.982422" xlink:href="#DejaVuSans-101"/>
     <use x="243.505859" xlink:href="#DejaVuSans-115"/>
     <use x="295.605469" xlink:href="#DejaVuSans-100"/>
     <use x="359.082031" xlink:href="#DejaVuSans-114"/>
     <use x="400.164062" xlink:href="#DejaVuSans-111"/>
     <use x="461.345703" xlink:href="#DejaVuSans-112"/>
     <use x="524.822266" xlink:href="#DejaVuSans-112"/>
     <use x="588.298828" xlink:href="#DejaVuSans-105"/>
     <use x="616.082031" xlink:href="#DejaVuSans-110"/>
     <use x="679.460938" xlink:href="#DejaVuSans-103"/>
    </g>
    <!-- effect -->
    <defs>
     <path d="M 37.109375 75.984375 
L 37.109375 68.5 
L 28.515625 68.5 
Q 23.6875 68.5 21.796875 66.546875 
Q 19.921875 64.59375 19.921875 59.515625 
L 19.921875 54.6875 
L 34.71875 54.6875 
L 34.71875 47.703125 
L 19.921875 47.703125 
L 19.921875 0 
L 10.890625 0 
L 10.890625 47.703125 
L 2.296875 47.703125 
L 2.296875 54.6875 
L 10.890625 54.6875 
L 10.890625 58.5 
Q 10.890625 67.625 15.140625 71.796875 
Q 19.390625 75.984375 28.609375 75.984375 
z
" id="DejaVuSans-102"/>
    </defs>
    <g transform="translate(238.84872 295.515056)scale(0.143 -0.143)">
     <use xlink:href="#DejaVuSans-101"/>
     <use x="61.523438" xlink:href="#DejaVuSans-102"/>
     <use x="96.728516" xlink:href="#DejaVuSans-102"/>
     <use x="131.933594" xlink:href="#DejaVuSans-101"/>
     <use x="193.457031" xlink:href="#DejaVuSans-99"/>
     <use x="248.4375" xlink:href="#DejaVuSans-116"/>
    </g>
   </g>
   <g id="text_27">
    <!-- Matching task convergence -->
    <defs>
     <path d="M 9.1875 72.90625 
L 33.109375 72.90625 
L 49.703125 33.890625 
L 66.40625 72.90625 
L 90.28125 72.90625 
L 90.28125 0 
L 72.515625 0 
L 72.515625 53.328125 
L 55.71875 14.015625 
L 43.796875 14.015625 
L 27 53.328125 
L 27 0 
L 9.1875 0 
z
" id="DejaVuSans-Bold-77"/>
     <path d="M 63.375 33.296875 
L 63.375 0 
L 45.796875 0 
L 45.796875 5.421875 
L 45.796875 25.390625 
Q 45.796875 32.5625 45.484375 35.25 
Q 45.171875 37.9375 44.390625 39.203125 
Q 43.359375 40.921875 41.59375 41.875 
Q 39.84375 42.828125 37.59375 42.828125 
Q 32.125 42.828125 29 38.59375 
Q 25.875 34.375 25.875 26.90625 
L 25.875 0 
L 8.40625 0 
L 8.40625 75.984375 
L 25.875 75.984375 
L 25.875 46.6875 
Q 29.828125 51.46875 34.265625 53.734375 
Q 38.71875 56 44.09375 56 
Q 53.5625 56 58.46875 50.1875 
Q 63.375 44.390625 63.375 33.296875 
z
" id="DejaVuSans-Bold-104"/>
    </defs>
    <g transform="translate(54.781188 213.761766)scale(0.143 -0.143)">
     <use xlink:href="#DejaVuSans-Bold-77"/>
     <use x="99.511719" xlink:href="#DejaVuSans-Bold-97"/>
     <use x="166.992188" xlink:href="#DejaVuSans-Bold-116"/>
     <use x="214.794922" xlink:href="#DejaVuSans-Bold-99"/>
     <use x="274.072266" xlink:href="#DejaVuSans-Bold-104"/>
     <use x="345.263672" xlink:href="#DejaVuSans-Bold-105"/>
     <use x="379.541016" xlink:href="#DejaVuSans-Bold-110"/>
     <use x="450.732422" xlink:href="#DejaVuSans-Bold-103"/>
     <use x="522.314453" xlink:href="#DejaVuSans-Bold-32"/>
     <use x="557.128906" xlink:href="#DejaVuSans-Bold-116"/>
     <use x="604.931641" xlink:href="#DejaVuSans-Bold-97"/>
     <use x="672.412109" xlink:href="#DejaVuSans-Bold-115"/>
     <use x="731.933594" xlink:href="#DejaVuSans-Bold-107"/>
     <use x="798.4375" xlink:href="#DejaVuSans-Bold-32"/>
     <use x="833.251953" xlink:href="#DejaVuSans-Bold-99"/>
     <use x="892.529297" xlink:href="#DejaVuSans-Bold-111"/>
     <use x="961.230469" xlink:href="#DejaVuSans-Bold-110"/>
     <use x="1032.421875" xlink:href="#DejaVuSans-Bold-118"/>
     <use x="1097.607422" xlink:href="#DejaVuSans-Bold-101"/>
     <use x="1165.429688" xlink:href="#DejaVuSans-Bold-114"/>
     <use x="1214.746094" xlink:href="#DejaVuSans-Bold-103"/>
     <use x="1286.328125" xlink:href="#DejaVuSans-Bold-101"/>
     <use x="1354.150391" xlink:href="#DejaVuSans-Bold-110"/>
     <use x="1425.341797" xlink:href="#DejaVuSans-Bold-99"/>
     <use x="1484.619141" xlink:href="#DejaVuSans-Bold-101"/>
    </g>
   </g>
  </g>
 </g>
 <defs>
  <clipPath id="p003e5a0df1">
   <rect height="130.464" width="223.2" x="54.781188" y="24.065766"/>
  </clipPath>
  <clipPath id="p7df9285535">
   <rect height="130.464" width="223.2" x="54.781188" y="219.761766"/>
  </clipPath>
 </defs>
</svg>
