<?xml version="1.0" encoding="utf-8" standalone="no"?>
<!DOCTYPE svg PUBLIC "-//W3C//DTD SVG 1.1//EN"
  "http://www.w3.org/Graphics/SVG/1.1/DTD/svg11.dtd">
<!-- Created with matplotlib (https://matplotlib.org/) -->
<svg height="293.567pt" version="1.1" viewBox="0 0 397.47875 293.567" width="397.47875pt" xmlns="http://www.w3.org/2000/svg" xmlns:xlink="http://www.w3.org/1999/xlink">
 <defs>
  <style type="text/css">
*{stroke-linecap:butt;stroke-linejoin:round;}
  </style>
 </defs>
 <g id="figure_1">
  <g id="patch_1">
   <path d="M 0 293.567 
L 397.47875 293.567 
L 397.47875 0 
L 0 0 
z
" style="fill:#ffffff;"/>
  </g>
  <g id="axes_1">
   <g id="patch_2">
    <path d="M 56.67875 252.1395 
L 344.67875 252.1395 
L 344.67875 90.1395 
L 56.67875 90.1395 
z
" style="fill:#ffffff;"/>
   </g>
   <g id="PolyCollection_1">
    <defs>
     <path d="M 69.769659 -191.543457 
L 69.769659 -191.543437 
L 71.085328 -191.542127 
L 72.400998 -191.527508 
L 73.716667 -191.540758 
L 75.032336 -191.531315 
L 76.348005 -191.542358 
L 77.663675 -191.522452 
L 78.979344 -191.539012 
L 80.295013 -191.525872 
L 81.610682 -191.543206 
L 82.926352 -191.542722 
L 84.242021 -191.542621 
L 85.55769 -191.542143 
L 86.873359 -191.543019 
L 88.189029 -191.54343 
L 89.504698 -191.542307 
L 90.820367 -191.531281 
L 92.136036 -191.542415 
L 93.451706 -191.541712 
L 94.767375 -191.542801 
L 96.083044 -191.540797 
L 97.398713 -191.541299 
L 98.714383 -191.5411 
L 100.030052 -191.542872 
L 101.345721 -191.521056 
L 102.66139 -191.541728 
L 103.97706 -191.542859 
L 105.292729 -191.540618 
L 106.608398 -191.541545 
L 107.924067 -191.543437 
L 109.239737 -191.543292 
L 110.555406 -191.54343 
L 111.871075 -191.543148 
L 113.186745 -191.542938 
L 114.502414 -191.54163 
L 115.818083 -191.54327 
L 117.133752 -191.543156 
L 118.449422 -191.543356 
L 119.765091 -191.542384 
L 121.08076 -191.54316 
L 122.396429 -191.542344 
L 123.712099 -191.543433 
L 125.027768 -191.543423 
L 126.343437 -191.54326 
L 127.659106 -191.542946 
L 128.974776 -191.543192 
L 130.290445 -191.543315 
L 131.606114 -191.542857 
L 132.921783 -191.543437 
L 134.237453 -191.316445 
L 135.553122 -191.180121 
L 136.868791 -191.015335 
L 138.18446 -190.794143 
L 139.50013 -190.586738 
L 140.815799 -190.049228 
L 142.131468 -190.223668 
L 143.447137 -189.700482 
L 144.762807 -187.354677 
L 146.078476 -186.758529 
L 147.394145 -184.926027 
L 148.709814 -185.116944 
L 150.025484 -183.430336 
L 151.341153 -181.921162 
L 152.656822 -181.699837 
L 153.972491 -180.306487 
L 155.288161 -178.824196 
L 156.60383 -179.160918 
L 157.919499 -177.229156 
L 159.235168 -175.402232 
L 160.550838 -175.429936 
L 161.866507 -173.411565 
L 163.182176 -173.445581 
L 164.497845 -171.007432 
L 165.813515 -168.793083 
L 167.129184 -172.510193 
L 168.444853 -170.516048 
L 169.760522 -170.429673 
L 171.076192 -168.425338 
L 172.391861 -166.19195 
L 173.70753 -165.92019 
L 175.0232 -163.863045 
L 176.338869 -163.626907 
L 177.654538 -163.401036 
L 178.970207 -162.983482 
L 180.285877 -162.809288 
L 181.601546 -162.138359 
L 182.917215 -161.293991 
L 184.232884 -159.05306 
L 185.548554 -157.121471 
L 186.864223 -152.368279 
L 188.179892 -145.512663 
L 189.495561 -129.324152 
L 190.811231 -111.472641 
L 192.1269 -94.644086 
L 193.442569 -84.319648 
L 194.758238 -78.056651 
L 196.073908 -78.162974 
L 197.389577 -80.70317 
L 198.705246 -79.993125 
L 200.020915 -79.24843 
L 201.336585 -74.932753 
L 202.652254 -67.647992 
L 203.967923 -64.532542 
L 205.283592 -63.543817 
L 206.599262 -58.850314 
L 207.914931 -54.951482 
L 209.2306 -53.758222 
L 210.546269 -52.7235 
L 211.861939 -52.279176 
L 213.177608 -51.722484 
L 214.493277 -51.544558 
L 215.808946 -49.809222 
L 217.124616 -48.351934 
L 218.440285 -48.228422 
L 219.755954 -47.954844 
L 221.071623 -47.49847 
L 222.387293 -45.831796 
L 223.702962 -46.09667 
L 225.018631 -44.861064 
L 226.3343 -44.738141 
L 227.64997 -44.553786 
L 228.965639 -44.52968 
L 230.281308 -44.366256 
L 231.596978 -44.013939 
L 232.912647 -43.834789 
L 234.228316 -43.875087 
L 235.543985 -43.67566 
L 236.859655 -43.51213 
L 238.175324 -41.878059 
L 239.490993 -41.359573 
L 240.806662 -41.165255 
L 242.122332 -37.03771 
L 243.438001 -41.848701 
L 244.75367 -41.915228 
L 246.069339 -40.55093 
L 247.385009 -40.060598 
L 248.700678 -17.875437 
L 250.016347 -39.436146 
L 251.332016 -39.327373 
L 252.647686 -39.109857 
L 253.963355 -43.268194 
L 255.279024 -42.583768 
L 256.594693 -41.138484 
L 257.910363 -42.404158 
L 259.226032 -42.499536 
L 260.541701 -42.247816 
L 261.85737 -41.918339 
L 263.17304 -41.667508 
L 264.488709 -41.610168 
L 265.804378 -41.432729 
L 267.120047 -41.389121 
L 268.435717 -41.209188 
L 269.751386 -41.087317 
L 271.067055 -40.818133 
L 272.382724 -40.784812 
L 273.698394 -40.591227 
L 275.014063 -40.630572 
L 276.329732 -40.590153 
L 277.645401 -40.278723 
L 278.961071 -40.233588 
L 280.27674 -40.176891 
L 281.592409 -40.113583 
L 282.908078 -40.106751 
L 284.223748 -40.123702 
L 285.539417 -40.093543 
L 286.855086 -40.039241 
L 288.170755 -20.437656 
L 289.486425 -28.685734 
L 290.802094 -40.418278 
L 292.117763 -40.128727 
L 293.433433 -40.100496 
L 294.749102 -40.1839 
L 296.064771 -40.033427 
L 297.38044 -40.859305 
L 298.69611 -40.059288 
L 300.011779 -40.030506 
L 301.327448 -40.055551 
L 302.643117 -40.064195 
L 303.958787 -39.964759 
L 305.274456 -40.38827 
L 306.590125 -39.998865 
L 307.905794 -39.970595 
L 309.221464 -39.985141 
L 310.537133 -40.127406 
L 311.852802 -40.048818 
L 313.168471 -39.920651 
L 314.484141 -39.751488 
L 315.79981 -39.925833 
L 317.115479 -39.884694 
L 318.431148 -39.897461 
L 319.746818 -39.948042 
L 321.062487 -40.033209 
L 322.378156 -39.87198 
L 323.693825 -39.916435 
L 325.009495 -39.895962 
L 326.325164 -18.572947 
L 327.640833 -21.932411 
L 328.956502 -24.886635 
L 330.272172 -21.527015 
L 331.587841 -23.852045 
L 331.587841 -104.410827 
L 331.587841 -104.410827 
L 330.272172 -109.247358 
L 328.956502 -113.035289 
L 327.640833 -108.218138 
L 326.325164 -115.129361 
L 325.009495 -61.62983 
L 323.693825 -61.669443 
L 322.378156 -61.679199 
L 321.062487 -61.72944 
L 319.746818 -61.699711 
L 318.431148 -61.689658 
L 317.115479 -61.7035 
L 315.79981 -61.643067 
L 314.484141 -62.047906 
L 313.168471 -61.695926 
L 311.852802 -61.731928 
L 310.537133 -61.765756 
L 309.221464 -61.701854 
L 307.905794 -61.691482 
L 306.590125 -61.732196 
L 305.274456 -62.102067 
L 303.958787 -61.778012 
L 302.643117 -61.767975 
L 301.327448 -61.738454 
L 300.011779 -61.728588 
L 298.69611 -61.74934 
L 297.38044 -62.603792 
L 296.064771 -61.731429 
L 294.749102 -61.812425 
L 293.433433 -61.769785 
L 292.117763 -61.797017 
L 290.802094 -61.988296 
L 289.486425 -95.144877 
L 288.170755 -111.768375 
L 286.855086 -61.882165 
L 285.539417 -61.8134 
L 284.223748 -61.884867 
L 282.908078 -61.780969 
L 281.592409 -61.776711 
L 280.27674 -61.820641 
L 278.961071 -61.594869 
L 277.645401 -61.61926 
L 276.329732 -61.310985 
L 275.014063 -61.361468 
L 273.698394 -61.140595 
L 272.382724 -60.727235 
L 271.067055 -60.802562 
L 269.751386 -60.535079 
L 268.435717 -60.193548 
L 267.120047 -60.316678 
L 265.804378 -59.97455 
L 264.488709 -59.816754 
L 263.17304 -59.744275 
L 261.85737 -59.489212 
L 260.541701 -59.693981 
L 259.226032 -59.510647 
L 257.910363 -59.042651 
L 256.594693 -61.855357 
L 255.279024 -59.293265 
L 253.963355 -59.63545 
L 252.647686 -72.768504 
L 251.332016 -72.069914 
L 250.016347 -72.197214 
L 248.700678 -131.150998 
L 247.385009 -70.895768 
L 246.069339 -71.110547 
L 244.75367 -72.387196 
L 243.438001 -78.010928 
L 242.122332 -103.63255 
L 240.806662 -76.76163 
L 239.490993 -76.873825 
L 238.175324 -76.159591 
L 236.859655 -76.883851 
L 235.543985 -81.039373 
L 234.228316 -79.814294 
L 232.912647 -79.935262 
L 231.596978 -78.965867 
L 230.281308 -77.548856 
L 228.965639 -77.622645 
L 227.64997 -76.428451 
L 226.3343 -76.49929 
L 225.018631 -76.68676 
L 223.702962 -76.765977 
L 222.387293 -76.94768 
L 221.071623 -77.807992 
L 219.755954 -80.899436 
L 218.440285 -80.967662 
L 217.124616 -81.323168 
L 215.808946 -81.384971 
L 214.493277 -82.461106 
L 213.177608 -84.919686 
L 211.861939 -84.978156 
L 210.546269 -84.811937 
L 209.2306 -85.105484 
L 207.914931 -84.892832 
L 206.599262 -87.462621 
L 205.283592 -89.115982 
L 203.967923 -89.004746 
L 202.652254 -88.782042 
L 201.336585 -88.524807 
L 200.020915 -89.350723 
L 198.705246 -90.69717 
L 197.389577 -95.150057 
L 196.073908 -110.096155 
L 194.758238 -123.108211 
L 193.442569 -133.040199 
L 192.1269 -144.920866 
L 190.811231 -155.749726 
L 189.495561 -161.583408 
L 188.179892 -162.086123 
L 186.864223 -161.758068 
L 185.548554 -162.61948 
L 184.232884 -163.027962 
L 182.917215 -163.181773 
L 181.601546 -163.683831 
L 180.285877 -163.712999 
L 178.970207 -164.00854 
L 177.654538 -164.30686 
L 176.338869 -164.372295 
L 175.0232 -164.085006 
L 173.70753 -166.819534 
L 172.391861 -166.589849 
L 171.076192 -168.880877 
L 169.760522 -171.318419 
L 168.444853 -170.821052 
L 167.129184 -173.127087 
L 165.813515 -180.169349 
L 164.497845 -181.278327 
L 163.182176 -182.515836 
L 161.866507 -182.526304 
L 160.550838 -183.500315 
L 159.235168 -183.494727 
L 157.919499 -184.443489 
L 156.60383 -185.483296 
L 155.288161 -185.226715 
L 153.972491 -185.948156 
L 152.656822 -186.634613 
L 151.341153 -186.769151 
L 150.025484 -187.778855 
L 148.709814 -188.891295 
L 147.394145 -188.821705 
L 146.078476 -190.332532 
L 144.762807 -191.379495 
L 143.447137 -191.729658 
L 142.131468 -191.691716 
L 140.815799 -191.695436 
L 139.50013 -191.744522 
L 138.18446 -191.794287 
L 136.868791 -191.721167 
L 135.553122 -191.666616 
L 134.237453 -191.656947 
L 132.921783 -191.543457 
L 131.606114 -191.544346 
L 130.290445 -191.543711 
L 128.974776 -191.543964 
L 127.659106 -191.544568 
L 126.343437 -191.543973 
L 125.027768 -191.543446 
L 123.712099 -191.543456 
L 122.396429 -191.545721 
L 121.08076 -191.544262 
L 119.765091 -191.544355 
L 118.449422 -191.543635 
L 117.133752 -191.543596 
L 115.818083 -191.543816 
L 114.502414 -191.545509 
L 113.186745 -191.544963 
L 111.871075 -191.544185 
L 110.555406 -191.543454 
L 109.239737 -191.54352 
L 107.924067 -191.543457 
L 106.608398 -191.544868 
L 105.292729 -191.545083 
L 103.97706 -191.544115 
L 102.66139 -191.543838 
L 101.345721 -191.587308 
L 100.030052 -191.544227 
L 98.714383 -191.544987 
L 97.398713 -191.545084 
L 96.083044 -191.544771 
L 94.767375 -191.543737 
L 93.451706 -191.544121 
L 92.136036 -191.545107 
L 90.820367 -191.577833 
L 89.504698 -191.544804 
L 88.189029 -191.543454 
L 86.873359 -191.544301 
L 85.55769 -191.545479 
L 84.242021 -191.546573 
L 82.926352 -191.545092 
L 81.610682 -191.544171 
L 80.295013 -191.552313 
L 78.979344 -191.545602 
L 77.663675 -191.60115 
L 76.348005 -191.544362 
L 75.032336 -191.575973 
L 73.716667 -191.544883 
L 72.400998 -191.56275 
L 71.085328 -191.543775 
L 69.769659 -191.543457 
z
" id="m3db7b56d2c" style="stroke:#499ad7;stroke-opacity:0.2;"/>
    </defs>
    <g clip-path="url(#pfa932d9dff)">
     <use style="fill:#499ad7;fill-opacity:0.2;stroke:#499ad7;stroke-opacity:0.2;" x="0" xlink:href="#m3db7b56d2c" y="293.567"/>
    </g>
   </g>
   <g id="PolyCollection_2">
    <defs>
     <path d="M 69.769659 -191.543457 
L 69.769659 -191.543437 
L 71.085328 -191.541317 
L 72.400998 -191.541528 
L 73.716667 -191.539103 
L 75.032336 -191.538063 
L 76.348005 -191.541085 
L 77.663675 -191.528287 
L 78.979344 -191.54044 
L 80.295013 -191.538031 
L 81.610682 -191.541563 
L 82.926352 -191.536963 
L 84.242021 -191.53953 
L 85.55769 -191.543321 
L 86.873359 -191.542576 
L 88.189029 -191.542772 
L 89.504698 -191.542138 
L 90.820367 -191.542324 
L 92.136036 -191.543397 
L 93.451706 -191.543126 
L 94.767375 -191.542619 
L 96.083044 -191.535453 
L 97.398713 -191.541764 
L 98.714383 -191.541333 
L 100.030052 -191.54211 
L 101.345721 -191.542495 
L 102.66139 -191.54343 
L 103.97706 -191.542774 
L 105.292729 -191.542895 
L 106.608398 -191.543376 
L 107.924067 -191.543176 
L 109.239737 -191.542191 
L 110.555406 -191.543073 
L 111.871075 -191.54325 
L 113.186745 -191.5425 
L 114.502414 -191.542666 
L 115.818083 -191.54343 
L 117.133752 -191.542912 
L 118.449422 -191.543425 
L 119.765091 -191.542216 
L 121.08076 -191.542742 
L 122.396429 -191.54275 
L 123.712099 -191.54266 
L 125.027768 -191.542455 
L 126.343437 -191.543412 
L 127.659106 -191.543437 
L 128.974776 -191.542259 
L 130.290445 -191.543346 
L 131.606114 -191.54249 
L 132.921783 -191.543258 
L 134.237453 -191.543427 
L 135.553122 -191.543433 
L 136.868791 -191.543423 
L 138.18446 -191.54312 
L 139.50013 -191.543202 
L 140.815799 -191.538585 
L 142.131468 -191.543236 
L 143.447137 -191.542593 
L 144.762807 -191.543189 
L 146.078476 -191.541793 
L 147.394145 -191.543427 
L 148.709814 -191.542896 
L 150.025484 -191.54343 
L 151.341153 -191.543216 
L 152.656822 -191.54293 
L 153.972491 -191.543332 
L 155.288161 -191.543289 
L 156.60383 -191.542945 
L 157.919499 -191.543296 
L 159.235168 -191.543035 
L 160.550838 -191.543425 
L 161.866507 -191.543433 
L 163.182176 -191.543229 
L 164.497845 -191.543437 
L 165.813515 -191.543242 
L 167.129184 -191.54343 
L 168.444853 -191.543437 
L 169.760522 -191.543427 
L 171.076192 -191.540825 
L 172.391861 -191.543437 
L 173.70753 -191.543437 
L 175.0232 -191.543314 
L 176.338869 -191.543063 
L 177.654538 -191.543442 
L 178.970207 -191.543427 
L 180.285877 -191.543442 
L 181.601546 -191.54343 
L 182.917215 -191.543437 
L 184.232884 -191.543421 
L 185.548554 -191.54343 
L 186.864223 -191.54343 
L 188.179892 -191.54343 
L 189.495561 -191.543426 
L 190.811231 -191.543437 
L 192.1269 -191.543433 
L 193.442569 -191.54343 
L 194.758238 -191.543437 
L 196.073908 -191.54341 
L 197.389577 -191.543417 
L 198.705246 -191.543408 
L 200.020915 -191.543442 
L 201.336585 -191.543437 
L 202.652254 -191.54343 
L 203.967923 -191.543433 
L 205.283592 -191.543422 
L 206.599262 -191.543433 
L 207.914931 -191.54343 
L 209.2306 -191.543437 
L 210.546269 -191.543426 
L 211.861939 -191.543442 
L 213.177608 -191.54343 
L 214.493277 -191.543412 
L 215.808946 -191.543433 
L 217.124616 -191.543437 
L 218.440285 -191.543433 
L 219.755954 -191.543437 
L 221.071623 -191.543437 
L 222.387293 -191.543433 
L 223.702962 -191.543437 
L 225.018631 -191.54343 
L 226.3343 -191.54343 
L 227.64997 -191.543433 
L 228.965639 -191.543425 
L 230.281308 -191.254547 
L 231.596978 -191.54343 
L 232.912647 -191.543427 
L 234.228316 -191.543427 
L 235.543985 -191.543433 
L 236.859655 -191.54343 
L 238.175324 -191.543427 
L 239.490993 -191.543433 
L 240.806662 -191.543442 
L 242.122332 -191.54343 
L 243.438001 -191.54343 
L 244.75367 -191.543425 
L 246.069339 -191.543442 
L 247.385009 -191.543427 
L 248.700678 -191.543433 
L 250.016347 -191.543433 
L 251.332016 -191.543423 
L 252.647686 -191.54343 
L 253.963355 -191.378774 
L 255.279024 -191.543433 
L 256.594693 -191.543427 
L 257.910363 -191.543331 
L 259.226032 -191.50139 
L 260.541701 -191.54343 
L 261.85737 -191.543427 
L 263.17304 -191.543383 
L 264.488709 -191.543442 
L 265.804378 -191.54343 
L 267.120047 -191.514478 
L 268.435717 -191.543442 
L 269.751386 -191.543442 
L 271.067055 -191.520817 
L 272.382724 -191.543437 
L 273.698394 -191.543433 
L 275.014063 -191.543398 
L 276.329732 -191.543433 
L 277.645401 -191.54343 
L 278.961071 -191.54343 
L 280.27674 -191.54343 
L 281.592409 -191.54343 
L 282.908078 -191.54343 
L 284.223748 -191.543437 
L 285.539417 -191.54343 
L 286.855086 -191.543433 
L 288.170755 -191.543433 
L 289.486425 -191.543427 
L 290.802094 -191.53708 
L 292.117763 -191.543433 
L 293.433433 -191.543425 
L 294.749102 -191.543417 
L 296.064771 -191.54343 
L 297.38044 -191.543433 
L 298.69611 -191.543424 
L 300.011779 -191.543427 
L 301.327448 -191.54343 
L 302.643117 -191.543425 
L 303.958787 -191.543437 
L 305.274456 -191.54343 
L 306.590125 -191.543432 
L 307.905794 -191.543377 
L 309.221464 -191.543433 
L 310.537133 -191.543293 
L 311.852802 -191.543433 
L 313.168471 -191.54343 
L 314.484141 -191.543437 
L 315.79981 -191.543442 
L 317.115479 -191.543427 
L 318.431148 -191.543437 
L 319.746818 -191.543433 
L 321.062487 -191.465451 
L 322.378156 -191.54343 
L 323.693825 -191.543433 
L 325.009495 -191.543433 
L 326.325164 -191.543426 
L 327.640833 -191.54343 
L 328.956502 -191.543433 
L 330.272172 -191.543423 
L 331.587841 -191.54343 
L 331.587841 -191.543454 
L 331.587841 -191.543454 
L 330.272172 -191.543446 
L 328.956502 -191.543456 
L 327.640833 -191.543454 
L 326.325164 -191.543459 
L 325.009495 -191.543456 
L 323.693825 -191.543456 
L 322.378156 -191.543454 
L 321.062487 -191.699421 
L 319.746818 -191.543456 
L 318.431148 -191.543457 
L 317.115479 -191.543455 
L 315.79981 -191.543457 
L 314.484141 -191.543457 
L 313.168471 -191.543454 
L 311.852802 -191.543456 
L 310.537133 -191.543549 
L 309.221464 -191.543456 
L 307.905794 -191.543559 
L 306.590125 -191.543462 
L 305.274456 -191.543454 
L 303.958787 -191.543457 
L 302.643117 -191.543449 
L 301.327448 -191.543454 
L 300.011779 -191.543452 
L 298.69611 -191.543453 
L 297.38044 -191.543456 
L 296.064771 -191.543454 
L 294.749102 -191.543463 
L 293.433433 -191.543449 
L 292.117763 -191.543456 
L 290.802094 -191.556189 
L 289.486425 -191.543452 
L 288.170755 -191.543456 
L 286.855086 -191.543456 
L 285.539417 -191.543454 
L 284.223748 -191.543457 
L 282.908078 -191.543454 
L 281.592409 -191.543454 
L 280.27674 -191.543454 
L 278.961071 -191.543454 
L 277.645401 -191.543454 
L 276.329732 -191.543456 
L 275.014063 -191.543463 
L 273.698394 -191.543456 
L 272.382724 -191.543457 
L 271.067055 -191.588706 
L 269.751386 -191.543457 
L 268.435717 -191.543457 
L 267.120047 -191.601366 
L 265.804378 -191.543454 
L 264.488709 -191.543457 
L 263.17304 -191.543479 
L 261.85737 -191.543452 
L 260.541701 -191.543454 
L 259.226032 -191.627552 
L 257.910363 -191.543678 
L 256.594693 -191.543452 
L 255.279024 -191.543456 
L 253.963355 -191.872774 
L 252.647686 -191.543454 
L 251.332016 -191.543446 
L 250.016347 -191.543456 
L 248.700678 -191.543456 
L 247.385009 -191.543452 
L 246.069339 -191.543457 
L 244.75367 -191.543449 
L 243.438001 -191.543454 
L 242.122332 -191.543454 
L 240.806662 -191.543457 
L 239.490993 -191.543456 
L 238.175324 -191.543452 
L 236.859655 -191.543454 
L 235.543985 -191.543456 
L 234.228316 -191.543452 
L 232.912647 -191.543452 
L 231.596978 -191.543454 
L 230.281308 -192.121246 
L 228.965639 -191.543449 
L 227.64997 -191.543456 
L 226.3343 -191.543454 
L 225.018631 -191.543454 
L 223.702962 -191.543457 
L 222.387293 -191.543456 
L 221.071623 -191.543457 
L 219.755954 -191.543457 
L 218.440285 -191.543456 
L 217.124616 -191.543457 
L 215.808946 -191.543456 
L 214.493277 -191.543465 
L 213.177608 -191.543454 
L 211.861939 -191.543457 
L 210.546269 -191.543459 
L 209.2306 -191.543457 
L 207.914931 -191.543454 
L 206.599262 -191.543456 
L 205.283592 -191.543442 
L 203.967923 -191.543456 
L 202.652254 -191.543454 
L 201.336585 -191.543457 
L 200.020915 -191.543457 
L 198.705246 -191.543459 
L 197.389577 -191.543463 
L 196.073908 -191.543454 
L 194.758238 -191.543457 
L 193.442569 -191.543454 
L 192.1269 -191.543456 
L 190.811231 -191.543457 
L 189.495561 -191.543459 
L 188.179892 -191.543454 
L 186.864223 -191.543454 
L 185.548554 -191.543454 
L 184.232884 -191.543461 
L 182.917215 -191.543457 
L 181.601546 -191.543454 
L 180.285877 -191.543457 
L 178.970207 -191.543452 
L 177.654538 -191.543457 
L 176.338869 -191.543779 
L 175.0232 -191.543513 
L 173.70753 -191.543457 
L 172.391861 -191.543457 
L 171.076192 -191.548673 
L 169.760522 -191.543452 
L 168.444853 -191.543457 
L 167.129184 -191.543454 
L 165.813515 -191.543545 
L 164.497845 -191.543457 
L 163.182176 -191.543526 
L 161.866507 -191.543456 
L 160.550838 -191.543449 
L 159.235168 -191.54364 
L 157.919499 -191.543972 
L 156.60383 -191.543685 
L 155.288161 -191.543745 
L 153.972491 -191.5435 
L 152.656822 -191.543593 
L 151.341153 -191.543968 
L 150.025484 -191.543454 
L 148.709814 -191.543849 
L 147.394145 -191.543452 
L 146.078476 -191.548291 
L 144.762807 -191.543798 
L 143.447137 -191.543898 
L 142.131468 -191.543723 
L 140.815799 -191.552346 
L 139.50013 -191.5436 
L 138.18446 -191.544141 
L 136.868791 -191.543446 
L 135.553122 -191.543456 
L 134.237453 -191.543452 
L 132.921783 -191.543816 
L 131.606114 -191.546582 
L 130.290445 -191.543494 
L 128.974776 -191.544032 
L 127.659106 -191.543457 
L 126.343437 -191.543577 
L 125.027768 -191.543584 
L 123.712099 -191.543836 
L 122.396429 -191.544872 
L 121.08076 -191.543609 
L 119.765091 -191.543955 
L 118.449422 -191.543449 
L 117.133752 -191.544019 
L 115.818083 -191.543454 
L 114.502414 -191.545003 
L 113.186745 -191.543916 
L 111.871075 -191.543876 
L 110.555406 -191.543629 
L 109.239737 -191.544396 
L 107.924067 -191.544007 
L 106.608398 -191.543571 
L 105.292729 -191.544074 
L 103.97706 -191.543779 
L 102.66139 -191.543454 
L 101.345721 -191.544937 
L 100.030052 -191.546294 
L 98.714383 -191.544654 
L 97.398713 -191.544278 
L 96.083044 -191.560978 
L 94.767375 -191.544792 
L 93.451706 -191.544194 
L 92.136036 -191.54352 
L 90.820367 -191.545691 
L 89.504698 -191.544088 
L 88.189029 -191.543967 
L 86.873359 -191.545935 
L 85.55769 -191.5438 
L 84.242021 -191.545522 
L 82.926352 -191.546697 
L 81.610682 -191.545408 
L 80.295013 -191.546989 
L 78.979344 -191.54691 
L 77.663675 -191.577121 
L 76.348005 -191.545715 
L 75.032336 -191.545933 
L 73.716667 -191.545725 
L 72.400998 -191.554063 
L 71.085328 -191.546156 
L 69.769659 -191.543457 
z
" id="ma4a5c1c148" style="stroke:#6ecba6;stroke-opacity:0.2;"/>
    </defs>
    <g clip-path="url(#pfa932d9dff)">
     <use style="fill:#6ecba6;fill-opacity:0.2;stroke:#6ecba6;stroke-opacity:0.2;" x="0" xlink:href="#ma4a5c1c148" y="293.567"/>
    </g>
   </g>
   <g id="matplotlib.axis_1">
    <g id="xtick_1">
     <g id="line2d_1">
      <defs>
       <path d="M 0 0 
L 0 3.5 
" id="m24657ca0f5" style="stroke:#000000;stroke-width:0.8;"/>
      </defs>
      <g>
       <use style="stroke:#000000;stroke-width:0.8;" x="69.769659" xlink:href="#m24657ca0f5" y="252.1395"/>
      </g>
     </g>
     <g id="text_1">
      <!-- 0 -->
      <defs>
       <path d="M 31.78125 66.40625 
Q 24.171875 66.40625 20.328125 58.90625 
Q 16.5 51.421875 16.5 36.375 
Q 16.5 21.390625 20.328125 13.890625 
Q 24.171875 6.390625 31.78125 6.390625 
Q 39.453125 6.390625 43.28125 13.890625 
Q 47.125 21.390625 47.125 36.375 
Q 47.125 51.421875 43.28125 58.90625 
Q 39.453125 66.40625 31.78125 66.40625 
z
M 31.78125 74.21875 
Q 44.046875 74.21875 50.515625 64.515625 
Q 56.984375 54.828125 56.984375 36.375 
Q 56.984375 17.96875 50.515625 8.265625 
Q 44.046875 -1.421875 31.78125 -1.421875 
Q 19.53125 -1.421875 13.0625 8.265625 
Q 6.59375 17.96875 6.59375 36.375 
Q 6.59375 54.828125 13.0625 64.515625 
Q 19.53125 74.21875 31.78125 74.21875 
z
" id="DejaVuSans-48"/>
      </defs>
      <g transform="translate(65.952159 268.257625)scale(0.12 -0.12)">
       <use xlink:href="#DejaVuSans-48"/>
      </g>
     </g>
    </g>
    <g id="xtick_2">
     <g id="line2d_2">
      <g>
       <use style="stroke:#000000;stroke-width:0.8;" x="135.553122" xlink:href="#m24657ca0f5" y="252.1395"/>
      </g>
     </g>
     <g id="text_2">
      <!-- 50 -->
      <defs>
       <path d="M 10.796875 72.90625 
L 49.515625 72.90625 
L 49.515625 64.59375 
L 19.828125 64.59375 
L 19.828125 46.734375 
Q 21.96875 47.46875 24.109375 47.828125 
Q 26.265625 48.1875 28.421875 48.1875 
Q 40.625 48.1875 47.75 41.5 
Q 54.890625 34.8125 54.890625 23.390625 
Q 54.890625 11.625 47.5625 5.09375 
Q 40.234375 -1.421875 26.90625 -1.421875 
Q 22.3125 -1.421875 17.546875 -0.640625 
Q 12.796875 0.140625 7.71875 1.703125 
L 7.71875 11.625 
Q 12.109375 9.234375 16.796875 8.0625 
Q 21.484375 6.890625 26.703125 6.890625 
Q 35.15625 6.890625 40.078125 11.328125 
Q 45.015625 15.765625 45.015625 23.390625 
Q 45.015625 31 40.078125 35.4375 
Q 35.15625 39.890625 26.703125 39.890625 
Q 22.75 39.890625 18.8125 39.015625 
Q 14.890625 38.140625 10.796875 36.28125 
z
" id="DejaVuSans-53"/>
      </defs>
      <g transform="translate(127.918122 268.257625)scale(0.12 -0.12)">
       <use xlink:href="#DejaVuSans-53"/>
       <use x="63.623047" xlink:href="#DejaVuSans-48"/>
      </g>
     </g>
    </g>
    <g id="xtick_3">
     <g id="line2d_3">
      <g>
       <use style="stroke:#000000;stroke-width:0.8;" x="201.336585" xlink:href="#m24657ca0f5" y="252.1395"/>
      </g>
     </g>
     <g id="text_3">
      <!-- 100 -->
      <defs>
       <path d="M 12.40625 8.296875 
L 28.515625 8.296875 
L 28.515625 63.921875 
L 10.984375 60.40625 
L 10.984375 69.390625 
L 28.421875 72.90625 
L 38.28125 72.90625 
L 38.28125 8.296875 
L 54.390625 8.296875 
L 54.390625 0 
L 12.40625 0 
z
" id="DejaVuSans-49"/>
      </defs>
      <g transform="translate(189.884085 268.257625)scale(0.12 -0.12)">
       <use xlink:href="#DejaVuSans-49"/>
       <use x="63.623047" xlink:href="#DejaVuSans-48"/>
       <use x="127.246094" xlink:href="#DejaVuSans-48"/>
      </g>
     </g>
    </g>
    <g id="xtick_4">
     <g id="line2d_4">
      <g>
       <use style="stroke:#000000;stroke-width:0.8;" x="267.120047" xlink:href="#m24657ca0f5" y="252.1395"/>
      </g>
     </g>
     <g id="text_4">
      <!-- 150 -->
      <g transform="translate(255.667547 268.257625)scale(0.12 -0.12)">
       <use xlink:href="#DejaVuSans-49"/>
       <use x="63.623047" xlink:href="#DejaVuSans-53"/>
       <use x="127.246094" xlink:href="#DejaVuSans-48"/>
      </g>
     </g>
    </g>
    <g id="xtick_5">
     <g id="line2d_5">
      <g>
       <use style="stroke:#000000;stroke-width:0.8;" x="332.90351" xlink:href="#m24657ca0f5" y="252.1395"/>
      </g>
     </g>
     <g id="text_5">
      <!-- 200 -->
      <defs>
       <path d="M 19.1875 8.296875 
L 53.609375 8.296875 
L 53.609375 0 
L 7.328125 0 
L 7.328125 8.296875 
Q 12.9375 14.109375 22.625 23.890625 
Q 32.328125 33.6875 34.8125 36.53125 
Q 39.546875 41.84375 41.421875 45.53125 
Q 43.3125 49.21875 43.3125 52.78125 
Q 43.3125 58.59375 39.234375 62.25 
Q 35.15625 65.921875 28.609375 65.921875 
Q 23.96875 65.921875 18.8125 64.3125 
Q 13.671875 62.703125 7.8125 59.421875 
L 7.8125 69.390625 
Q 13.765625 71.78125 18.9375 73 
Q 24.125 74.21875 28.421875 74.21875 
Q 39.75 74.21875 46.484375 68.546875 
Q 53.21875 62.890625 53.21875 53.421875 
Q 53.21875 48.921875 51.53125 44.890625 
Q 49.859375 40.875 45.40625 35.40625 
Q 44.1875 33.984375 37.640625 27.21875 
Q 31.109375 20.453125 19.1875 8.296875 
z
" id="DejaVuSans-50"/>
      </defs>
      <g transform="translate(321.45101 268.257625)scale(0.12 -0.12)">
       <use xlink:href="#DejaVuSans-50"/>
       <use x="63.623047" xlink:href="#DejaVuSans-48"/>
       <use x="127.246094" xlink:href="#DejaVuSans-48"/>
      </g>
     </g>
    </g>
    <g id="text_6">
     <!-- Epoch -->
     <defs>
      <path d="M 9.8125 72.90625 
L 55.90625 72.90625 
L 55.90625 64.59375 
L 19.671875 64.59375 
L 19.671875 43.015625 
L 54.390625 43.015625 
L 54.390625 34.71875 
L 19.671875 34.71875 
L 19.671875 8.296875 
L 56.78125 8.296875 
L 56.78125 0 
L 9.8125 0 
z
" id="DejaVuSans-69"/>
      <path d="M 18.109375 8.203125 
L 18.109375 -20.796875 
L 9.078125 -20.796875 
L 9.078125 54.6875 
L 18.109375 54.6875 
L 18.109375 46.390625 
Q 20.953125 51.265625 25.265625 53.625 
Q 29.59375 56 35.59375 56 
Q 45.5625 56 51.78125 48.09375 
Q 58.015625 40.1875 58.015625 27.296875 
Q 58.015625 14.40625 51.78125 6.484375 
Q 45.5625 -1.421875 35.59375 -1.421875 
Q 29.59375 -1.421875 25.265625 0.953125 
Q 20.953125 3.328125 18.109375 8.203125 
z
M 48.6875 27.296875 
Q 48.6875 37.203125 44.609375 42.84375 
Q 40.53125 48.484375 33.40625 48.484375 
Q 26.265625 48.484375 22.1875 42.84375 
Q 18.109375 37.203125 18.109375 27.296875 
Q 18.109375 17.390625 22.1875 11.75 
Q 26.265625 6.109375 33.40625 6.109375 
Q 40.53125 6.109375 44.609375 11.75 
Q 48.6875 17.390625 48.6875 27.296875 
z
" id="DejaVuSans-112"/>
      <path d="M 30.609375 48.390625 
Q 23.390625 48.390625 19.1875 42.75 
Q 14.984375 37.109375 14.984375 27.296875 
Q 14.984375 17.484375 19.15625 11.84375 
Q 23.34375 6.203125 30.609375 6.203125 
Q 37.796875 6.203125 41.984375 11.859375 
Q 46.1875 17.53125 46.1875 27.296875 
Q 46.1875 37.015625 41.984375 42.703125 
Q 37.796875 48.390625 30.609375 48.390625 
z
M 30.609375 56 
Q 42.328125 56 49.015625 48.375 
Q 55.71875 40.765625 55.71875 27.296875 
Q 55.71875 13.875 49.015625 6.21875 
Q 42.328125 -1.421875 30.609375 -1.421875 
Q 18.84375 -1.421875 12.171875 6.21875 
Q 5.515625 13.875 5.515625 27.296875 
Q 5.515625 40.765625 12.171875 48.375 
Q 18.84375 56 30.609375 56 
z
" id="DejaVuSans-111"/>
      <path d="M 48.78125 52.59375 
L 48.78125 44.1875 
Q 44.96875 46.296875 41.140625 47.34375 
Q 37.3125 48.390625 33.40625 48.390625 
Q 24.65625 48.390625 19.8125 42.84375 
Q 14.984375 37.3125 14.984375 27.296875 
Q 14.984375 17.28125 19.8125 11.734375 
Q 24.65625 6.203125 33.40625 6.203125 
Q 37.3125 6.203125 41.140625 7.25 
Q 44.96875 8.296875 48.78125 10.40625 
L 48.78125 2.09375 
Q 45.015625 0.34375 40.984375 -0.53125 
Q 36.96875 -1.421875 32.421875 -1.421875 
Q 20.0625 -1.421875 12.78125 6.34375 
Q 5.515625 14.109375 5.515625 27.296875 
Q 5.515625 40.671875 12.859375 48.328125 
Q 20.21875 56 33.015625 56 
Q 37.15625 56 41.109375 55.140625 
Q 45.0625 54.296875 48.78125 52.59375 
z
" id="DejaVuSans-99"/>
      <path d="M 54.890625 33.015625 
L 54.890625 0 
L 45.90625 0 
L 45.90625 32.71875 
Q 45.90625 40.484375 42.875 44.328125 
Q 39.84375 48.1875 33.796875 48.1875 
Q 26.515625 48.1875 22.3125 43.546875 
Q 18.109375 38.921875 18.109375 30.90625 
L 18.109375 0 
L 9.078125 0 
L 9.078125 75.984375 
L 18.109375 75.984375 
L 18.109375 46.1875 
Q 21.34375 51.125 25.703125 53.5625 
Q 30.078125 56 35.796875 56 
Q 45.21875 56 50.046875 50.171875 
Q 54.890625 44.34375 54.890625 33.015625 
z
" id="DejaVuSans-104"/>
     </defs>
     <g transform="translate(182.305625 283.871375)scale(0.12 -0.12)">
      <use xlink:href="#DejaVuSans-69"/>
      <use x="63.183594" xlink:href="#DejaVuSans-112"/>
      <use x="126.660156" xlink:href="#DejaVuSans-111"/>
      <use x="187.841797" xlink:href="#DejaVuSans-99"/>
      <use x="242.822266" xlink:href="#DejaVuSans-104"/>
     </g>
    </g>
   </g>
   <g id="matplotlib.axis_2">
    <g id="ytick_1">
     <g id="line2d_6">
      <defs>
       <path d="M 0 0 
L -3.5 0 
" id="m82fecce89e" style="stroke:#000000;stroke-width:0.8;"/>
      </defs>
      <g>
       <use style="stroke:#000000;stroke-width:0.8;" x="56.67875" xlink:href="#m82fecce89e" y="246.913694"/>
      </g>
     </g>
     <g id="text_7">
      <!-- 0.0 -->
      <defs>
       <path d="M 10.6875 12.40625 
L 21 12.40625 
L 21 0 
L 10.6875 0 
z
" id="DejaVuSans-46"/>
      </defs>
      <g transform="translate(30.595 251.472756)scale(0.12 -0.12)">
       <use xlink:href="#DejaVuSans-48"/>
       <use x="63.623047" xlink:href="#DejaVuSans-46"/>
       <use x="95.410156" xlink:href="#DejaVuSans-48"/>
      </g>
     </g>
    </g>
    <g id="ytick_2">
     <g id="line2d_7">
      <g>
       <use style="stroke:#000000;stroke-width:0.8;" x="56.67875" xlink:href="#m82fecce89e" y="194.655629"/>
      </g>
     </g>
     <g id="text_8">
      <!-- 0.5 -->
      <g transform="translate(30.595 199.214692)scale(0.12 -0.12)">
       <use xlink:href="#DejaVuSans-48"/>
       <use x="63.623047" xlink:href="#DejaVuSans-46"/>
       <use x="95.410156" xlink:href="#DejaVuSans-53"/>
      </g>
     </g>
    </g>
    <g id="ytick_3">
     <g id="line2d_8">
      <g>
       <use style="stroke:#000000;stroke-width:0.8;" x="56.67875" xlink:href="#m82fecce89e" y="142.397565"/>
      </g>
     </g>
     <g id="text_9">
      <!-- 1.0 -->
      <g transform="translate(30.595 146.956627)scale(0.12 -0.12)">
       <use xlink:href="#DejaVuSans-49"/>
       <use x="63.623047" xlink:href="#DejaVuSans-46"/>
       <use x="95.410156" xlink:href="#DejaVuSans-48"/>
      </g>
     </g>
    </g>
    <g id="ytick_4">
     <g id="line2d_9">
      <g>
       <use style="stroke:#000000;stroke-width:0.8;" x="56.67875" xlink:href="#m82fecce89e" y="90.1395"/>
      </g>
     </g>
     <g id="text_10">
      <!-- 1.5 -->
      <g transform="translate(30.595 94.698562)scale(0.12 -0.12)">
       <use xlink:href="#DejaVuSans-49"/>
       <use x="63.623047" xlink:href="#DejaVuSans-46"/>
       <use x="95.410156" xlink:href="#DejaVuSans-53"/>
      </g>
     </g>
    </g>
    <g id="text_11">
     <!-- Final loss -->
     <defs>
      <path d="M 9.8125 72.90625 
L 51.703125 72.90625 
L 51.703125 64.59375 
L 19.671875 64.59375 
L 19.671875 43.109375 
L 48.578125 43.109375 
L 48.578125 34.8125 
L 19.671875 34.8125 
L 19.671875 0 
L 9.8125 0 
z
" id="DejaVuSans-70"/>
      <path d="M 9.421875 54.6875 
L 18.40625 54.6875 
L 18.40625 0 
L 9.421875 0 
z
M 9.421875 75.984375 
L 18.40625 75.984375 
L 18.40625 64.59375 
L 9.421875 64.59375 
z
" id="DejaVuSans-105"/>
      <path d="M 54.890625 33.015625 
L 54.890625 0 
L 45.90625 0 
L 45.90625 32.71875 
Q 45.90625 40.484375 42.875 44.328125 
Q 39.84375 48.1875 33.796875 48.1875 
Q 26.515625 48.1875 22.3125 43.546875 
Q 18.109375 38.921875 18.109375 30.90625 
L 18.109375 0 
L 9.078125 0 
L 9.078125 54.6875 
L 18.109375 54.6875 
L 18.109375 46.1875 
Q 21.34375 51.125 25.703125 53.5625 
Q 30.078125 56 35.796875 56 
Q 45.21875 56 50.046875 50.171875 
Q 54.890625 44.34375 54.890625 33.015625 
z
" id="DejaVuSans-110"/>
      <path d="M 34.28125 27.484375 
Q 23.390625 27.484375 19.1875 25 
Q 14.984375 22.515625 14.984375 16.5 
Q 14.984375 11.71875 18.140625 8.90625 
Q 21.296875 6.109375 26.703125 6.109375 
Q 34.1875 6.109375 38.703125 11.40625 
Q 43.21875 16.703125 43.21875 25.484375 
L 43.21875 27.484375 
z
M 52.203125 31.203125 
L 52.203125 0 
L 43.21875 0 
L 43.21875 8.296875 
Q 40.140625 3.328125 35.546875 0.953125 
Q 30.953125 -1.421875 24.3125 -1.421875 
Q 15.921875 -1.421875 10.953125 3.296875 
Q 6 8.015625 6 15.921875 
Q 6 25.140625 12.171875 29.828125 
Q 18.359375 34.515625 30.609375 34.515625 
L 43.21875 34.515625 
L 43.21875 35.40625 
Q 43.21875 41.609375 39.140625 45 
Q 35.0625 48.390625 27.6875 48.390625 
Q 23 48.390625 18.546875 47.265625 
Q 14.109375 46.140625 10.015625 43.890625 
L 10.015625 52.203125 
Q 14.9375 54.109375 19.578125 55.046875 
Q 24.21875 56 28.609375 56 
Q 40.484375 56 46.34375 49.84375 
Q 52.203125 43.703125 52.203125 31.203125 
z
" id="DejaVuSans-97"/>
      <path d="M 9.421875 75.984375 
L 18.40625 75.984375 
L 18.40625 0 
L 9.421875 0 
z
" id="DejaVuSans-108"/>
      <path id="DejaVuSans-32"/>
      <path d="M 44.28125 53.078125 
L 44.28125 44.578125 
Q 40.484375 46.53125 36.375 47.5 
Q 32.28125 48.484375 27.875 48.484375 
Q 21.1875 48.484375 17.84375 46.4375 
Q 14.5 44.390625 14.5 40.28125 
Q 14.5 37.15625 16.890625 35.375 
Q 19.28125 33.59375 26.515625 31.984375 
L 29.59375 31.296875 
Q 39.15625 29.25 43.1875 25.515625 
Q 47.21875 21.78125 47.21875 15.09375 
Q 47.21875 7.46875 41.1875 3.015625 
Q 35.15625 -1.421875 24.609375 -1.421875 
Q 20.21875 -1.421875 15.453125 -0.5625 
Q 10.6875 0.296875 5.421875 2 
L 5.421875 11.28125 
Q 10.40625 8.6875 15.234375 7.390625 
Q 20.0625 6.109375 24.8125 6.109375 
Q 31.15625 6.109375 34.5625 8.28125 
Q 37.984375 10.453125 37.984375 14.40625 
Q 37.984375 18.0625 35.515625 20.015625 
Q 33.0625 21.96875 24.703125 23.78125 
L 21.578125 24.515625 
Q 13.234375 26.265625 9.515625 29.90625 
Q 5.8125 33.546875 5.8125 39.890625 
Q 5.8125 47.609375 11.28125 51.796875 
Q 16.75 56 26.8125 56 
Q 31.78125 56 36.171875 55.265625 
Q 40.578125 54.546875 44.28125 53.078125 
z
" id="DejaVuSans-115"/>
     </defs>
     <g transform="translate(16.464375 198.89325)rotate(-90)scale(0.12 -0.12)">
      <use xlink:href="#DejaVuSans-70"/>
      <use x="57.410156" xlink:href="#DejaVuSans-105"/>
      <use x="85.193359" xlink:href="#DejaVuSans-110"/>
      <use x="148.572266" xlink:href="#DejaVuSans-97"/>
      <use x="209.851562" xlink:href="#DejaVuSans-108"/>
      <use x="237.634766" xlink:href="#DejaVuSans-32"/>
      <use x="269.421875" xlink:href="#DejaVuSans-108"/>
      <use x="297.205078" xlink:href="#DejaVuSans-111"/>
      <use x="358.386719" xlink:href="#DejaVuSans-115"/>
      <use x="410.486328" xlink:href="#DejaVuSans-115"/>
     </g>
    </g>
   </g>
   <g id="line2d_10">
    <path clip-path="url(#pfa932d9dff)" d="M 69.769659 102.023553 
L 135.553122 102.143632 
L 139.50013 102.40137 
L 140.815799 102.694668 
L 142.131468 102.609308 
L 143.447137 102.85193 
L 144.762807 104.199914 
L 146.078476 105.021469 
L 147.394145 106.693134 
L 148.709814 106.562881 
L 151.341153 109.221844 
L 152.656822 109.399775 
L 155.288161 111.541545 
L 156.60383 111.244893 
L 159.235168 114.11852 
L 160.550838 114.101875 
L 161.866507 115.598065 
L 163.182176 115.586291 
L 165.813515 119.085784 
L 167.129184 120.74836 
L 168.444853 122.89845 
L 169.760522 122.692954 
L 172.391861 127.1761 
L 173.70753 127.197138 
L 175.0232 129.592974 
L 176.338869 129.567399 
L 177.654538 129.713052 
L 178.970207 130.070989 
L 180.285877 130.305856 
L 181.601546 130.655905 
L 182.917215 131.329118 
L 185.548554 133.696525 
L 186.864223 136.503827 
L 188.179892 139.767607 
L 189.495561 148.11322 
L 190.811231 159.955817 
L 192.1269 173.784524 
L 193.442569 184.887076 
L 194.758238 192.984569 
L 197.389577 205.640387 
L 198.705246 208.221852 
L 200.020915 209.267423 
L 201.336585 211.83822 
L 202.652254 215.351983 
L 203.967923 216.798356 
L 205.283592 217.2371 
L 207.914931 223.644843 
L 209.2306 224.135147 
L 210.546269 224.799281 
L 211.861939 224.938334 
L 213.177608 225.245915 
L 215.808946 227.969903 
L 217.124616 228.729449 
L 219.755954 229.13986 
L 221.071623 230.913769 
L 222.387293 232.177262 
L 223.702962 232.135677 
L 225.018631 232.793088 
L 227.64997 233.075881 
L 228.965639 232.490838 
L 230.281308 232.609444 
L 231.596978 232.077097 
L 232.912647 231.681974 
L 234.228316 231.722309 
L 235.543985 231.209483 
L 236.859655 233.36901 
L 238.175324 234.548175 
L 239.490993 234.450301 
L 240.806662 234.603557 
L 242.122332 223.23187 
L 243.438001 233.637186 
L 244.75367 236.415788 
L 246.069339 237.736262 
L 247.385009 238.088817 
L 248.700678 219.053782 
L 250.016347 237.75032 
L 251.332016 237.868357 
L 252.647686 237.627819 
L 253.963355 242.115178 
L 255.279024 242.628483 
L 256.594693 242.07008 
L 257.910363 242.843596 
L 259.226032 242.561909 
L 260.541701 242.596101 
L 261.85737 242.863224 
L 265.804378 242.86336 
L 267.120047 242.714101 
L 268.435717 242.865632 
L 271.067055 242.756652 
L 272.382724 242.810976 
L 275.014063 242.57098 
L 278.961071 242.652772 
L 280.27674 242.568234 
L 282.908078 242.62314 
L 284.223748 242.562716 
L 286.855086 242.606297 
L 288.170755 227.463985 
L 289.486425 231.651694 
L 290.802094 242.363713 
L 292.117763 242.604128 
L 296.064771 242.684572 
L 297.38044 241.835451 
L 298.69611 242.662686 
L 303.958787 242.695614 
L 305.274456 242.321832 
L 306.590125 242.70147 
L 309.221464 242.723503 
L 310.537133 242.620419 
L 313.168471 242.758711 
L 314.484141 242.667303 
L 315.79981 242.78255 
L 325.009495 242.804104 
L 326.325164 226.715846 
L 327.640833 228.491725 
L 328.956502 224.606038 
L 330.272172 228.179813 
L 331.587841 229.435564 
L 331.587841 229.435564 
" style="fill:none;stroke:#499ad7;stroke-linecap:square;stroke-width:5;"/>
   </g>
   <g id="line2d_11">
    <path clip-path="url(#pfa932d9dff)" d="M 69.769659 102.023553 
L 331.587841 102.023558 
L 331.587841 102.023558 
" style="fill:none;stroke:#6ecba6;stroke-dasharray:18.5,8;stroke-dashoffset:0;stroke-width:5;"/>
   </g>
   <g id="patch_3">
    <path d="M 56.67875 252.1395 
L 56.67875 90.1395 
" style="fill:none;stroke:#000000;stroke-linecap:square;stroke-linejoin:miter;stroke-width:1.25;"/>
   </g>
   <g id="patch_4">
    <path d="M 56.67875 252.1395 
L 344.67875 252.1395 
" style="fill:none;stroke:#000000;stroke-linecap:square;stroke-linejoin:miter;stroke-width:1.25;"/>
   </g>
  </g>
  <g id="axes_2">
   <g id="patch_5">
    <path d="M 56.67875 68.5395 
L 344.67875 68.5395 
L 344.67875 36.1395 
L 56.67875 36.1395 
z
" style="fill:#ffffff;"/>
   </g>
   <g id="matplotlib.axis_3">
    <g id="xtick_6">
     <g id="line2d_12">
      <g>
       <use style="stroke:#000000;stroke-width:0.8;" x="69.769659" xlink:href="#m24657ca0f5" y="68.5395"/>
      </g>
     </g>
    </g>
    <g id="xtick_7">
     <g id="line2d_13">
      <g>
       <use style="stroke:#000000;stroke-width:0.8;" x="135.553122" xlink:href="#m24657ca0f5" y="68.5395"/>
      </g>
     </g>
    </g>
    <g id="xtick_8">
     <g id="line2d_14">
      <g>
       <use style="stroke:#000000;stroke-width:0.8;" x="201.336585" xlink:href="#m24657ca0f5" y="68.5395"/>
      </g>
     </g>
    </g>
    <g id="xtick_9">
     <g id="line2d_15">
      <g>
       <use style="stroke:#000000;stroke-width:0.8;" x="267.120047" xlink:href="#m24657ca0f5" y="68.5395"/>
      </g>
     </g>
    </g>
    <g id="xtick_10">
     <g id="line2d_16">
      <g>
       <use style="stroke:#000000;stroke-width:0.8;" x="332.90351" xlink:href="#m24657ca0f5" y="68.5395"/>
      </g>
     </g>
    </g>
   </g>
   <g id="matplotlib.axis_4">
    <g id="ytick_5">
     <g id="line2d_17">
      <g>
       <use style="stroke:#000000;stroke-width:0.8;" x="56.67875" xlink:href="#m82fecce89e" y="64.4895"/>
      </g>
     </g>
     <g id="text_12">
      <!-- 0.50 -->
      <g transform="translate(22.96 69.048562)scale(0.12 -0.12)">
       <use xlink:href="#DejaVuSans-48"/>
       <use x="63.623047" xlink:href="#DejaVuSans-46"/>
       <use x="95.410156" xlink:href="#DejaVuSans-53"/>
       <use x="159.033203" xlink:href="#DejaVuSans-48"/>
      </g>
     </g>
    </g>
    <g id="ytick_6">
     <g id="line2d_18">
      <g>
       <use style="stroke:#000000;stroke-width:0.8;" x="56.67875" xlink:href="#m82fecce89e" y="44.2395"/>
      </g>
     </g>
     <g id="text_13">
      <!-- 0.75 -->
      <defs>
       <path d="M 8.203125 72.90625 
L 55.078125 72.90625 
L 55.078125 68.703125 
L 28.609375 0 
L 18.3125 0 
L 43.21875 64.59375 
L 8.203125 64.59375 
z
" id="DejaVuSans-55"/>
      </defs>
      <g transform="translate(22.96 48.798562)scale(0.12 -0.12)">
       <use xlink:href="#DejaVuSans-48"/>
       <use x="63.623047" xlink:href="#DejaVuSans-46"/>
       <use x="95.410156" xlink:href="#DejaVuSans-55"/>
       <use x="159.033203" xlink:href="#DejaVuSans-53"/>
      </g>
     </g>
    </g>
    <g id="text_14">
     <!-- $P(\alpha = \beta)$ -->
     <defs>
      <path d="M 16.890625 72.90625 
L 39.703125 72.90625 
Q 49.65625 72.90625 54.875 68.265625 
Q 60.109375 63.625 60.109375 54.6875 
Q 60.109375 42.671875 52.390625 35.984375 
Q 44.671875 29.296875 30.71875 29.296875 
L 18.3125 29.296875 
L 12.59375 0 
L 2.6875 0 
z
M 25.203125 64.796875 
L 19.921875 37.40625 
L 32.328125 37.40625 
Q 40.71875 37.40625 45.203125 41.703125 
Q 49.703125 46 49.703125 54 
Q 49.703125 59.125 46.65625 61.953125 
Q 43.609375 64.796875 38.09375 64.796875 
z
" id="DejaVuSans-Oblique-80"/>
      <path d="M 31 75.875 
Q 24.46875 64.65625 21.28125 53.65625 
Q 18.109375 42.671875 18.109375 31.390625 
Q 18.109375 20.125 21.3125 9.0625 
Q 24.515625 -2 31 -13.1875 
L 23.1875 -13.1875 
Q 15.875 -1.703125 12.234375 9.375 
Q 8.59375 20.453125 8.59375 31.390625 
Q 8.59375 42.28125 12.203125 53.3125 
Q 15.828125 64.359375 23.1875 75.875 
z
" id="DejaVuSans-40"/>
      <path d="M 40.921875 25.4375 
L 40.96875 36.71875 
Q 41.015625 48.25 32.328125 48.296875 
Q 25.828125 48.34375 21.78125 42.921875 
Q 16.703125 36.234375 14.984375 27.296875 
Q 12.890625 16.546875 15.53125 11.421875 
Q 18.265625 6.203125 24.171875 6.203125 
Q 30.71875 6.203125 36.234375 16.609375 
z
M 33.84375 55.90625 
Q 49.078125 56.15625 48.875 40.375 
Q 48.875 40.375 56.5 54.6875 
L 64.5 54.6875 
L 48.734375 25.046875 
L 48.578125 14.359375 
Q 48.578125 11.96875 49.90625 9.96875 
Q 51.421875 7.625 52.984375 7.625 
L 57.328125 7.625 
L 55.859375 0 
L 50.4375 0 
Q 45.84375 0 42.53125 4.109375 
Q 40.96875 6.15625 40.921875 10.453125 
Q 37.75 5.21875 32.28125 0.78125 
Q 29.6875 -1.265625 22.703125 -1.21875 
Q 11.28125 -1.125 7.125 6.203125 
Q 2.875 13.8125 5.515625 27.296875 
Q 8.34375 41.796875 15.765625 48.390625 
Q 24.125 55.765625 33.84375 55.90625 
z
" id="DejaVuSans-Oblique-945"/>
      <path d="M 10.59375 45.40625 
L 73.1875 45.40625 
L 73.1875 37.203125 
L 10.59375 37.203125 
z
M 10.59375 25.484375 
L 73.1875 25.484375 
L 73.1875 17.1875 
L 10.59375 17.1875 
z
" id="DejaVuSans-61"/>
      <path d="M 13.625 3.375 
L 8.9375 -20.796875 
L -0.09375 -20.796875 
L 14.5 54.34375 
Q 18.84375 76.609375 39.65625 76.609375 
Q 60.75 76.609375 57.171875 57.8125 
Q 54.734375 44.4375 45.21875 39.546875 
Q 58.015625 35.15625 55.515625 22.125 
Q 51.125 -1.078125 27.484375 -1.03125 
Q 17.140625 -0.984375 13.625 3.375 
z
M 15.921875 15.09375 
Q 19.671875 6.59375 29.296875 6.640625 
Q 43.359375 6.640625 46.34375 21.96875 
Q 49.03125 35.75 26.171875 34.671875 
L 27.78125 42.96875 
Q 45.453125 42.671875 48.53125 58.59375 
Q 50.640625 69.34375 39.203125 69.28125 
Q 26.421875 69.28125 23.484375 54.046875 
z
" id="DejaVuSans-Oblique-946"/>
      <path d="M 8.015625 75.875 
L 15.828125 75.875 
Q 23.140625 64.359375 26.78125 53.3125 
Q 30.421875 42.28125 30.421875 31.390625 
Q 30.421875 20.453125 26.78125 9.375 
Q 23.140625 -1.703125 15.828125 -13.1875 
L 8.015625 -13.1875 
Q 14.5 -2 17.703125 9.0625 
Q 20.90625 20.125 20.90625 31.390625 
Q 20.90625 42.671875 17.703125 53.65625 
Q 14.5 64.65625 8.015625 75.875 
z
" id="DejaVuSans-41"/>
     </defs>
     <g transform="translate(16.44 75.7995)rotate(-90)scale(0.12 -0.12)">
      <use transform="translate(0 0.390625)" xlink:href="#DejaVuSans-Oblique-80"/>
      <use transform="translate(60.302734 0.390625)" xlink:href="#DejaVuSans-40"/>
      <use transform="translate(99.316406 0.390625)" xlink:href="#DejaVuSans-Oblique-945"/>
      <use transform="translate(184.716797 0.390625)" xlink:href="#DejaVuSans-61"/>
      <use transform="translate(287.988281 0.390625)" xlink:href="#DejaVuSans-Oblique-946"/>
      <use transform="translate(351.806641 0.390625)" xlink:href="#DejaVuSans-41"/>
     </g>
    </g>
   </g>
   <g id="line2d_19">
    <path clip-path="url(#p9338386c50)" d="M 69.769659 64.4895 
L 122.396429 64.4895 
L 175.0232 44.2395 
L 227.64997 44.2395 
L 280.27674 64.4895 
L 331.587841 64.4895 
L 331.587841 64.4895 
" style="fill:none;stroke:#499ad7;stroke-linecap:square;stroke-width:3;"/>
   </g>
   <g id="line2d_20">
    <path clip-path="url(#p9338386c50)" d="M 69.769659 64.4895 
L 331.587841 64.4895 
L 331.587841 64.4895 
" style="fill:none;stroke:#6ecba6;stroke-dasharray:11.1,4.8;stroke-dashoffset:0;stroke-width:3;"/>
   </g>
   <g id="patch_6">
    <path d="M 56.67875 68.5395 
L 56.67875 36.1395 
" style="fill:none;stroke:#000000;stroke-linecap:square;stroke-linejoin:miter;stroke-width:1.25;"/>
   </g>
   <g id="patch_7">
    <path d="M 56.67875 68.5395 
L 344.67875 68.5395 
" style="fill:none;stroke:#000000;stroke-linecap:square;stroke-linejoin:miter;stroke-width:1.25;"/>
   </g>
   <g id="text_15">
    <!-- Simulated annealing of stimulus predictability -->
    <defs>
     <path d="M 59.90625 70.609375 
L 59.90625 55.171875 
Q 53.90625 57.859375 48.1875 59.21875 
Q 42.484375 60.59375 37.40625 60.59375 
Q 30.671875 60.59375 27.4375 58.734375 
Q 24.21875 56.890625 24.21875 52.984375 
Q 24.21875 50.046875 26.390625 48.40625 
Q 28.5625 46.78125 34.28125 45.609375 
L 42.28125 44 
Q 54.4375 41.546875 59.5625 36.5625 
Q 64.703125 31.59375 64.703125 22.40625 
Q 64.703125 10.359375 57.546875 4.46875 
Q 50.390625 -1.421875 35.6875 -1.421875 
Q 28.765625 -1.421875 21.78125 -0.09375 
Q 14.796875 1.21875 7.8125 3.8125 
L 7.8125 19.671875 
Q 14.796875 15.96875 21.3125 14.078125 
Q 27.828125 12.203125 33.890625 12.203125 
Q 40.046875 12.203125 43.3125 14.25 
Q 46.578125 16.3125 46.578125 20.125 
Q 46.578125 23.53125 44.359375 25.390625 
Q 42.140625 27.25 35.5 28.71875 
L 28.21875 30.328125 
Q 17.28125 32.671875 12.21875 37.796875 
Q 7.171875 42.921875 7.171875 51.609375 
Q 7.171875 62.5 14.203125 68.359375 
Q 21.234375 74.21875 34.421875 74.21875 
Q 40.4375 74.21875 46.78125 73.3125 
Q 53.125 72.40625 59.90625 70.609375 
z
" id="DejaVuSans-Bold-83"/>
     <path d="M 8.40625 54.6875 
L 25.875 54.6875 
L 25.875 0 
L 8.40625 0 
z
M 8.40625 75.984375 
L 25.875 75.984375 
L 25.875 61.71875 
L 8.40625 61.71875 
z
" id="DejaVuSans-Bold-105"/>
     <path d="M 59.078125 45.609375 
Q 62.40625 50.6875 66.96875 53.34375 
Q 71.53125 56 77 56 
Q 86.421875 56 91.359375 50.1875 
Q 96.296875 44.390625 96.296875 33.296875 
L 96.296875 0 
L 78.71875 0 
L 78.71875 28.515625 
Q 78.765625 29.15625 78.78125 29.828125 
Q 78.8125 30.515625 78.8125 31.78125 
Q 78.8125 37.59375 77.09375 40.203125 
Q 75.390625 42.828125 71.578125 42.828125 
Q 66.609375 42.828125 63.890625 38.71875 
Q 61.1875 34.625 61.078125 26.859375 
L 61.078125 0 
L 43.5 0 
L 43.5 28.515625 
Q 43.5 37.59375 41.9375 40.203125 
Q 40.375 42.828125 36.375 42.828125 
Q 31.34375 42.828125 28.609375 38.703125 
Q 25.875 34.578125 25.875 26.90625 
L 25.875 0 
L 8.296875 0 
L 8.296875 54.6875 
L 25.875 54.6875 
L 25.875 46.6875 
Q 29.109375 51.3125 33.28125 53.65625 
Q 37.453125 56 42.484375 56 
Q 48.140625 56 52.484375 53.265625 
Q 56.84375 50.53125 59.078125 45.609375 
z
" id="DejaVuSans-Bold-109"/>
     <path d="M 7.8125 21.296875 
L 7.8125 54.6875 
L 25.390625 54.6875 
L 25.390625 49.21875 
Q 25.390625 44.78125 25.34375 38.0625 
Q 25.296875 31.34375 25.296875 29.109375 
Q 25.296875 22.515625 25.640625 19.609375 
Q 25.984375 16.703125 26.8125 15.375 
Q 27.875 13.671875 29.609375 12.734375 
Q 31.34375 11.8125 33.59375 11.8125 
Q 39.0625 11.8125 42.1875 16.015625 
Q 45.3125 20.21875 45.3125 27.6875 
L 45.3125 54.6875 
L 62.796875 54.6875 
L 62.796875 0 
L 45.3125 0 
L 45.3125 7.90625 
Q 41.359375 3.125 36.9375 0.84375 
Q 32.515625 -1.421875 27.203125 -1.421875 
Q 17.71875 -1.421875 12.765625 4.390625 
Q 7.8125 10.203125 7.8125 21.296875 
z
" id="DejaVuSans-Bold-117"/>
     <path d="M 8.40625 75.984375 
L 25.875 75.984375 
L 25.875 0 
L 8.40625 0 
z
" id="DejaVuSans-Bold-108"/>
     <path d="M 32.90625 24.609375 
Q 27.4375 24.609375 24.671875 22.75 
Q 21.921875 20.90625 21.921875 17.28125 
Q 21.921875 13.96875 24.140625 12.078125 
Q 26.375 10.203125 30.328125 10.203125 
Q 35.25 10.203125 38.625 13.734375 
Q 42 17.28125 42 22.609375 
L 42 24.609375 
z
M 59.625 31.203125 
L 59.625 0 
L 42 0 
L 42 8.109375 
Q 38.484375 3.125 34.078125 0.84375 
Q 29.6875 -1.421875 23.390625 -1.421875 
Q 14.890625 -1.421875 9.59375 3.53125 
Q 4.296875 8.5 4.296875 16.40625 
Q 4.296875 26.03125 10.90625 30.515625 
Q 17.53125 35.015625 31.6875 35.015625 
L 42 35.015625 
L 42 36.375 
Q 42 40.53125 38.71875 42.453125 
Q 35.453125 44.390625 28.515625 44.390625 
Q 22.90625 44.390625 18.0625 43.265625 
Q 13.234375 42.140625 9.078125 39.890625 
L 9.078125 53.21875 
Q 14.703125 54.59375 20.359375 55.296875 
Q 26.03125 56 31.6875 56 
Q 46.484375 56 53.046875 50.171875 
Q 59.625 44.34375 59.625 31.203125 
z
" id="DejaVuSans-Bold-97"/>
     <path d="M 27.484375 70.21875 
L 27.484375 54.6875 
L 45.515625 54.6875 
L 45.515625 42.1875 
L 27.484375 42.1875 
L 27.484375 19 
Q 27.484375 15.1875 29 13.84375 
Q 30.515625 12.5 35.015625 12.5 
L 44 12.5 
L 44 0 
L 29 0 
Q 18.65625 0 14.328125 4.3125 
Q 10.015625 8.640625 10.015625 19 
L 10.015625 42.1875 
L 1.3125 42.1875 
L 1.3125 54.6875 
L 10.015625 54.6875 
L 10.015625 70.21875 
z
" id="DejaVuSans-Bold-116"/>
     <path d="M 62.984375 27.484375 
L 62.984375 22.515625 
L 22.125 22.515625 
Q 22.75 16.359375 26.5625 13.28125 
Q 30.375 10.203125 37.203125 10.203125 
Q 42.71875 10.203125 48.5 11.84375 
Q 54.296875 13.484375 60.40625 16.796875 
L 60.40625 3.328125 
Q 54.203125 0.984375 48 -0.21875 
Q 41.796875 -1.421875 35.59375 -1.421875 
Q 20.75 -1.421875 12.515625 6.125 
Q 4.296875 13.671875 4.296875 27.296875 
Q 4.296875 40.671875 12.375 48.328125 
Q 20.453125 56 34.625 56 
Q 47.515625 56 55.25 48.234375 
Q 62.984375 40.484375 62.984375 27.484375 
z
M 45.015625 33.296875 
Q 45.015625 38.28125 42.109375 41.328125 
Q 39.203125 44.390625 34.515625 44.390625 
Q 29.4375 44.390625 26.265625 41.53125 
Q 23.09375 38.671875 22.3125 33.296875 
z
" id="DejaVuSans-Bold-101"/>
     <path d="M 45.609375 46.6875 
L 45.609375 75.984375 
L 63.1875 75.984375 
L 63.1875 0 
L 45.609375 0 
L 45.609375 7.90625 
Q 42 3.078125 37.640625 0.828125 
Q 33.296875 -1.421875 27.59375 -1.421875 
Q 17.484375 -1.421875 10.984375 6.609375 
Q 4.5 14.65625 4.5 27.296875 
Q 4.5 39.9375 10.984375 47.96875 
Q 17.484375 56 27.59375 56 
Q 33.25 56 37.625 53.734375 
Q 42 51.46875 45.609375 46.6875 
z
M 34.078125 11.28125 
Q 39.703125 11.28125 42.65625 15.375 
Q 45.609375 19.484375 45.609375 27.296875 
Q 45.609375 35.109375 42.65625 39.203125 
Q 39.703125 43.3125 34.078125 43.3125 
Q 28.515625 43.3125 25.5625 39.203125 
Q 22.609375 35.109375 22.609375 27.296875 
Q 22.609375 19.484375 25.5625 15.375 
Q 28.515625 11.28125 34.078125 11.28125 
z
" id="DejaVuSans-Bold-100"/>
     <path id="DejaVuSans-Bold-32"/>
     <path d="M 63.375 33.296875 
L 63.375 0 
L 45.796875 0 
L 45.796875 5.421875 
L 45.796875 25.484375 
Q 45.796875 32.5625 45.484375 35.25 
Q 45.171875 37.9375 44.390625 39.203125 
Q 43.359375 40.921875 41.59375 41.875 
Q 39.84375 42.828125 37.59375 42.828125 
Q 32.125 42.828125 29 38.59375 
Q 25.875 34.375 25.875 26.90625 
L 25.875 0 
L 8.40625 0 
L 8.40625 54.6875 
L 25.875 54.6875 
L 25.875 46.6875 
Q 29.828125 51.46875 34.265625 53.734375 
Q 38.71875 56 44.09375 56 
Q 53.5625 56 58.46875 50.1875 
Q 63.375 44.390625 63.375 33.296875 
z
" id="DejaVuSans-Bold-110"/>
     <path d="M 45.609375 9.28125 
Q 42 4.5 37.640625 2.25 
Q 33.296875 0 27.59375 0 
Q 17.578125 0 11.03125 7.875 
Q 4.5 15.765625 4.5 27.984375 
Q 4.5 40.234375 11.03125 48.0625 
Q 17.578125 55.90625 27.59375 55.90625 
Q 33.296875 55.90625 37.640625 53.65625 
Q 42 51.421875 45.609375 46.578125 
L 45.609375 54.6875 
L 63.1875 54.6875 
L 63.1875 5.515625 
Q 63.1875 -7.671875 54.859375 -14.625 
Q 46.53125 -21.578125 30.71875 -21.578125 
Q 25.59375 -21.578125 20.796875 -20.796875 
Q 16.015625 -20.015625 11.1875 -18.40625 
L 11.1875 -4.78125 
Q 15.765625 -7.421875 20.15625 -8.71875 
Q 24.5625 -10.015625 29 -10.015625 
Q 37.59375 -10.015625 41.59375 -6.25 
Q 45.609375 -2.484375 45.609375 5.515625 
z
M 34.078125 43.3125 
Q 28.65625 43.3125 25.625 39.296875 
Q 22.609375 35.296875 22.609375 27.984375 
Q 22.609375 20.453125 25.53125 16.578125 
Q 28.46875 12.703125 34.078125 12.703125 
Q 39.546875 12.703125 42.578125 16.703125 
Q 45.609375 20.703125 45.609375 27.984375 
Q 45.609375 35.296875 42.578125 39.296875 
Q 39.546875 43.3125 34.078125 43.3125 
z
" id="DejaVuSans-Bold-103"/>
     <path d="M 34.421875 43.5 
Q 28.609375 43.5 25.5625 39.328125 
Q 22.515625 35.15625 22.515625 27.296875 
Q 22.515625 19.4375 25.5625 15.25 
Q 28.609375 11.078125 34.421875 11.078125 
Q 40.140625 11.078125 43.15625 15.25 
Q 46.1875 19.4375 46.1875 27.296875 
Q 46.1875 35.15625 43.15625 39.328125 
Q 40.140625 43.5 34.421875 43.5 
z
M 34.421875 56 
Q 48.53125 56 56.46875 48.375 
Q 64.40625 40.765625 64.40625 27.296875 
Q 64.40625 13.8125 56.46875 6.1875 
Q 48.53125 -1.421875 34.421875 -1.421875 
Q 20.265625 -1.421875 12.28125 6.1875 
Q 4.296875 13.8125 4.296875 27.296875 
Q 4.296875 40.765625 12.28125 48.375 
Q 20.265625 56 34.421875 56 
z
" id="DejaVuSans-Bold-111"/>
     <path d="M 44.390625 75.984375 
L 44.390625 64.5 
L 34.71875 64.5 
Q 31 64.5 29.53125 63.15625 
Q 28.078125 61.8125 28.078125 58.5 
L 28.078125 54.6875 
L 43.015625 54.6875 
L 43.015625 42.1875 
L 28.078125 42.1875 
L 28.078125 0 
L 10.59375 0 
L 10.59375 42.1875 
L 1.90625 42.1875 
L 1.90625 54.6875 
L 10.59375 54.6875 
L 10.59375 58.5 
Q 10.59375 67.4375 15.578125 71.703125 
Q 20.5625 75.984375 31 75.984375 
z
" id="DejaVuSans-Bold-102"/>
     <path d="M 51.125 52.984375 
L 51.125 39.703125 
Q 45.515625 42.046875 40.28125 43.21875 
Q 35.0625 44.390625 30.421875 44.390625 
Q 25.4375 44.390625 23.015625 43.140625 
Q 20.609375 41.890625 20.609375 39.3125 
Q 20.609375 37.203125 22.4375 36.078125 
Q 24.265625 34.96875 29 34.421875 
L 32.078125 33.984375 
Q 45.515625 32.28125 50.140625 28.375 
Q 54.78125 24.46875 54.78125 16.109375 
Q 54.78125 7.375 48.328125 2.96875 
Q 41.890625 -1.421875 29.109375 -1.421875 
Q 23.6875 -1.421875 17.890625 -0.5625 
Q 12.109375 0.296875 6 2 
L 6 15.28125 
Q 11.234375 12.75 16.71875 11.46875 
Q 22.21875 10.203125 27.875 10.203125 
Q 33.015625 10.203125 35.59375 11.609375 
Q 38.1875 13.03125 38.1875 15.828125 
Q 38.1875 18.171875 36.40625 19.3125 
Q 34.625 20.453125 29.296875 21.09375 
L 26.21875 21.484375 
Q 14.546875 22.953125 9.859375 26.90625 
Q 5.171875 30.859375 5.171875 38.921875 
Q 5.171875 47.609375 11.125 51.796875 
Q 17.09375 56 29.390625 56 
Q 34.234375 56 39.546875 55.265625 
Q 44.875 54.546875 51.125 52.984375 
z
" id="DejaVuSans-Bold-115"/>
     <path d="M 25.875 7.90625 
L 25.875 -20.796875 
L 8.40625 -20.796875 
L 8.40625 54.6875 
L 25.875 54.6875 
L 25.875 46.6875 
Q 29.5 51.46875 33.890625 53.734375 
Q 38.28125 56 44 56 
Q 54.109375 56 60.59375 47.96875 
Q 67.09375 39.9375 67.09375 27.296875 
Q 67.09375 14.65625 60.59375 6.609375 
Q 54.109375 -1.421875 44 -1.421875 
Q 38.28125 -1.421875 33.890625 0.84375 
Q 29.5 3.125 25.875 7.90625 
z
M 37.5 43.3125 
Q 31.890625 43.3125 28.875 39.1875 
Q 25.875 35.0625 25.875 27.296875 
Q 25.875 19.53125 28.875 15.40625 
Q 31.890625 11.28125 37.5 11.28125 
Q 43.109375 11.28125 46.0625 15.375 
Q 49.03125 19.484375 49.03125 27.296875 
Q 49.03125 35.109375 46.0625 39.203125 
Q 43.109375 43.3125 37.5 43.3125 
z
" id="DejaVuSans-Bold-112"/>
     <path d="M 49.03125 39.796875 
Q 46.734375 40.875 44.453125 41.375 
Q 42.1875 41.890625 39.890625 41.890625 
Q 33.15625 41.890625 29.515625 37.5625 
Q 25.875 33.25 25.875 25.203125 
L 25.875 0 
L 8.40625 0 
L 8.40625 54.6875 
L 25.875 54.6875 
L 25.875 45.703125 
Q 29.25 51.078125 33.609375 53.53125 
Q 37.984375 56 44.09375 56 
Q 44.96875 56 45.984375 55.921875 
Q 47.015625 55.859375 48.96875 55.609375 
z
" id="DejaVuSans-Bold-114"/>
     <path d="M 52.59375 52.984375 
L 52.59375 38.71875 
Q 49.03125 41.15625 45.4375 42.328125 
Q 41.84375 43.5 37.984375 43.5 
Q 30.671875 43.5 26.59375 39.234375 
Q 22.515625 34.96875 22.515625 27.296875 
Q 22.515625 19.625 26.59375 15.34375 
Q 30.671875 11.078125 37.984375 11.078125 
Q 42.09375 11.078125 45.78125 12.296875 
Q 49.46875 13.53125 52.59375 15.921875 
L 52.59375 1.609375 
Q 48.484375 0.09375 44.265625 -0.65625 
Q 40.046875 -1.421875 35.796875 -1.421875 
Q 21 -1.421875 12.640625 6.171875 
Q 4.296875 13.765625 4.296875 27.296875 
Q 4.296875 40.828125 12.640625 48.40625 
Q 21 56 35.796875 56 
Q 40.09375 56 44.265625 55.25 
Q 48.4375 54.5 52.59375 52.984375 
z
" id="DejaVuSans-Bold-99"/>
     <path d="M 37.5 11.28125 
Q 43.109375 11.28125 46.0625 15.375 
Q 49.03125 19.484375 49.03125 27.296875 
Q 49.03125 35.109375 46.0625 39.203125 
Q 43.109375 43.3125 37.5 43.3125 
Q 31.890625 43.3125 28.875 39.1875 
Q 25.875 35.0625 25.875 27.296875 
Q 25.875 19.53125 28.875 15.40625 
Q 31.890625 11.28125 37.5 11.28125 
z
M 25.875 46.6875 
Q 29.5 51.46875 33.890625 53.734375 
Q 38.28125 56 44 56 
Q 54.109375 56 60.59375 47.96875 
Q 67.09375 39.9375 67.09375 27.296875 
Q 67.09375 14.65625 60.59375 6.609375 
Q 54.109375 -1.421875 44 -1.421875 
Q 38.28125 -1.421875 33.890625 0.84375 
Q 29.5 3.125 25.875 7.90625 
L 25.875 0 
L 8.40625 0 
L 8.40625 75.984375 
L 25.875 75.984375 
z
" id="DejaVuSans-Bold-98"/>
     <path d="M 1.21875 54.6875 
L 18.703125 54.6875 
L 33.40625 17.578125 
L 45.90625 54.6875 
L 63.375 54.6875 
L 40.375 -5.171875 
Q 36.921875 -14.3125 32.296875 -17.9375 
Q 27.6875 -21.578125 20.125 -21.578125 
L 10.015625 -21.578125 
L 10.015625 -10.109375 
L 15.484375 -10.109375 
Q 19.921875 -10.109375 21.9375 -8.6875 
Q 23.96875 -7.28125 25.09375 -3.609375 
L 25.59375 -2.09375 
z
" id="DejaVuSans-Bold-121"/>
    </defs>
    <g transform="translate(56.67875 16.318125)scale(0.12 -0.12)">
     <use xlink:href="#DejaVuSans-Bold-83"/>
     <use x="72.021484" xlink:href="#DejaVuSans-Bold-105"/>
     <use x="106.298828" xlink:href="#DejaVuSans-Bold-109"/>
     <use x="210.498047" xlink:href="#DejaVuSans-Bold-117"/>
     <use x="281.689453" xlink:href="#DejaVuSans-Bold-108"/>
     <use x="315.966797" xlink:href="#DejaVuSans-Bold-97"/>
     <use x="383.447266" xlink:href="#DejaVuSans-Bold-116"/>
     <use x="431.25" xlink:href="#DejaVuSans-Bold-101"/>
     <use x="499.072266" xlink:href="#DejaVuSans-Bold-100"/>
     <use x="570.654297" xlink:href="#DejaVuSans-Bold-32"/>
     <use x="605.46875" xlink:href="#DejaVuSans-Bold-97"/>
     <use x="672.949219" xlink:href="#DejaVuSans-Bold-110"/>
     <use x="744.140625" xlink:href="#DejaVuSans-Bold-110"/>
     <use x="815.332031" xlink:href="#DejaVuSans-Bold-101"/>
     <use x="883.154297" xlink:href="#DejaVuSans-Bold-97"/>
     <use x="950.634766" xlink:href="#DejaVuSans-Bold-108"/>
     <use x="984.912109" xlink:href="#DejaVuSans-Bold-105"/>
     <use x="1019.189453" xlink:href="#DejaVuSans-Bold-110"/>
     <use x="1090.380859" xlink:href="#DejaVuSans-Bold-103"/>
     <use x="1161.962891" xlink:href="#DejaVuSans-Bold-32"/>
     <use x="1196.777344" xlink:href="#DejaVuSans-Bold-111"/>
     <use x="1265.478516" xlink:href="#DejaVuSans-Bold-102"/>
     <use x="1308.984375" xlink:href="#DejaVuSans-Bold-32"/>
     <use x="1343.798828" xlink:href="#DejaVuSans-Bold-115"/>
     <use x="1403.320312" xlink:href="#DejaVuSans-Bold-116"/>
     <use x="1451.123047" xlink:href="#DejaVuSans-Bold-105"/>
     <use x="1485.400391" xlink:href="#DejaVuSans-Bold-109"/>
     <use x="1589.599609" xlink:href="#DejaVuSans-Bold-117"/>
     <use x="1660.791016" xlink:href="#DejaVuSans-Bold-108"/>
     <use x="1695.068359" xlink:href="#DejaVuSans-Bold-117"/>
     <use x="1766.259766" xlink:href="#DejaVuSans-Bold-115"/>
     <use x="1825.78125" xlink:href="#DejaVuSans-Bold-32"/>
     <use x="1860.595703" xlink:href="#DejaVuSans-Bold-112"/>
     <use x="1932.177734" xlink:href="#DejaVuSans-Bold-114"/>
     <use x="1981.494141" xlink:href="#DejaVuSans-Bold-101"/>
     <use x="2049.316406" xlink:href="#DejaVuSans-Bold-100"/>
     <use x="2120.898438" xlink:href="#DejaVuSans-Bold-105"/>
     <use x="2155.175781" xlink:href="#DejaVuSans-Bold-99"/>
     <use x="2214.453125" xlink:href="#DejaVuSans-Bold-116"/>
     <use x="2262.255859" xlink:href="#DejaVuSans-Bold-97"/>
     <use x="2329.736328" xlink:href="#DejaVuSans-Bold-98"/>
     <use x="2401.318359" xlink:href="#DejaVuSans-Bold-105"/>
     <use x="2435.595703" xlink:href="#DejaVuSans-Bold-108"/>
     <use x="2469.873047" xlink:href="#DejaVuSans-Bold-105"/>
     <use x="2504.150391" xlink:href="#DejaVuSans-Bold-116"/>
     <use x="2551.953125" xlink:href="#DejaVuSans-Bold-121"/>
    </g>
    <!-- $\mathbf{P(\alpha = \beta)}$ enables RNNs to learn the matching task -->
    <defs>
     <path d="M 9.1875 72.90625 
L 40.375 72.90625 
Q 54.296875 72.90625 61.734375 66.71875 
Q 69.1875 60.546875 69.1875 49.125 
Q 69.1875 37.640625 61.734375 31.46875 
Q 54.296875 25.296875 40.375 25.296875 
L 27.984375 25.296875 
L 27.984375 0 
L 9.1875 0 
z
M 27.984375 59.28125 
L 27.984375 38.921875 
L 38.375 38.921875 
Q 43.84375 38.921875 46.828125 41.578125 
Q 49.8125 44.234375 49.8125 49.125 
Q 49.8125 54 46.828125 56.640625 
Q 43.84375 59.28125 38.375 59.28125 
z
" id="DejaVuSans-Bold-80"/>
     <path d="M 37.703125 -13.1875 
L 23.1875 -13.1875 
Q 15.71875 -1.125 12.15625 9.734375 
Q 8.59375 20.609375 8.59375 31.296875 
Q 8.59375 42 12.171875 52.953125 
Q 15.765625 63.921875 23.1875 75.875 
L 37.703125 75.875 
Q 31.453125 64.3125 28.328125 53.25 
Q 25.203125 42.1875 25.203125 31.390625 
Q 25.203125 20.609375 28.296875 9.515625 
Q 31.390625 -1.5625 37.703125 -13.1875 
z
" id="DejaVuSans-Bold-40"/>
     <path d="M 46.96875 49.421875 
L 48.734375 54.6875 
L 63.875 54.6875 
L 54.4375 26.515625 
L 55.765625 19.046875 
Q 57.171875 10.984375 60.5 10.984375 
L 64.5 10.984375 
L 64.5 0 
L 59.515625 0 
Q 51.765625 0 47.796875 4.109375 
Q 46.921875 5.03125 46.6875 5.515625 
Q 44.34375 2.546875 42.015625 0.609375 
Q 39.703125 -1.3125 27.546875 -1.21875 
Q 15.4375 -1.125 10.125 6.25 
Q 4.828125 13.625 4.828125 28.03125 
Q 4.828125 42.390625 10.359375 48.25 
Q 17.328125 55.765625 30.71875 55.90625 
Q 42 56.0625 46.96875 49.421875 
z
M 40.234375 28.765625 
L 38.765625 36.71875 
Q 37.40625 44.140625 30.953125 44.1875 
Q 27.6875 44.1875 24.96875 39.96875 
Q 22.265625 35.75 22.265625 27.203125 
Q 22.265625 18.609375 24.703125 14.75 
Q 27.15625 10.890625 30.765625 10.796875 
Q 34.578125 10.6875 36.921875 18.171875 
z
" id="DejaVuSans-Bold-945"/>
     <path d="M 10.59375 48.1875 
L 73.1875 48.1875 
L 73.1875 36.71875 
L 10.59375 36.71875 
z
M 10.59375 25.984375 
L 73.1875 25.984375 
L 73.1875 14.40625 
L 10.59375 14.40625 
z
" id="DejaVuSans-Bold-61"/>
     <path d="M 40.234375 47.46875 
Q 43.3125 51.703125 43.3125 54.734375 
Q 43.3125 58.890625 41.375 61.6875 
Q 39.453125 64.5 35.015625 64.5 
Q 29.6875 64.5 27.78125 60.375 
Q 25.875 56.25 25.875 48.484375 
L 25.875 27.296875 
Q 25.875 19.53125 28.875 15.40625 
Q 31.890625 11.28125 37.5 11.28125 
Q 43.75 11.28125 46.140625 14.59375 
Q 48.53125 17.921875 48.53125 19.921875 
Q 48.53125 26.90625 42.78125 31.0625 
Q 39.65625 33.15625 31.0625 33.34375 
L 31.0625 44.484375 
Q 39.015625 45.703125 40.234375 47.46875 
z
M 8.40625 -20.796875 
L 8.40625 47.5625 
Q 8.40625 61.28125 15.140625 68.265625 
Q 20.703125 74.078125 26.125 75.703125 
Q 31.546875 77.34375 35.296875 77.34375 
Q 39.0625 77.296875 39.65625 77.203125 
Q 49.65625 75.640625 55.28125 69.34375 
Q 59.1875 65.046875 59.1875 56.25 
Q 59.1875 51.765625 56.5 47.703125 
Q 53.21875 42.71875 48.34375 42.328125 
Q 55.5625 40.375 60.0625 36.28125 
Q 67.09375 29.984375 67.09375 20.125 
Q 67.09375 11.421875 60.984375 5 
Q 54.890625 -1.421875 43.890625 -1.421875 
Q 32.90625 -1.421875 25.875 7.90625 
L 25.875 -20.796875 
z
" id="DejaVuSans-Bold-946"/>
     <path d="M 8.015625 -13.1875 
Q 14.265625 -1.5625 17.390625 9.515625 
Q 20.515625 20.609375 20.515625 31.390625 
Q 20.515625 42.1875 17.390625 53.25 
Q 14.265625 64.3125 8.015625 75.875 
L 22.515625 75.875 
Q 29.9375 63.921875 33.515625 52.953125 
Q 37.109375 42 37.109375 31.296875 
Q 37.109375 20.609375 33.546875 9.734375 
Q 29.984375 -1.125 22.515625 -13.1875 
z
" id="DejaVuSans-Bold-41"/>
     <path d="M 35.890625 40.578125 
Q 41.796875 40.578125 44.359375 42.765625 
Q 46.921875 44.96875 46.921875 50 
Q 46.921875 54.984375 44.359375 57.125 
Q 41.796875 59.28125 35.890625 59.28125 
L 27.984375 59.28125 
L 27.984375 40.578125 
z
M 27.984375 27.59375 
L 27.984375 0 
L 9.1875 0 
L 9.1875 72.90625 
L 37.890625 72.90625 
Q 52.296875 72.90625 59 68.0625 
Q 65.71875 63.234375 65.71875 52.78125 
Q 65.71875 45.5625 62.21875 40.921875 
Q 58.734375 36.28125 51.703125 34.078125 
Q 55.5625 33.203125 58.609375 30.09375 
Q 61.671875 27 64.796875 20.703125 
L 75 0 
L 54.984375 0 
L 46.09375 18.109375 
Q 43.40625 23.578125 40.640625 25.578125 
Q 37.890625 27.59375 33.296875 27.59375 
z
" id="DejaVuSans-Bold-82"/>
     <path d="M 9.1875 72.90625 
L 30.171875 72.90625 
L 56.6875 22.90625 
L 56.6875 72.90625 
L 74.515625 72.90625 
L 74.515625 0 
L 53.515625 0 
L 27 50 
L 27 0 
L 9.1875 0 
z
" id="DejaVuSans-Bold-78"/>
     <path d="M 63.375 33.296875 
L 63.375 0 
L 45.796875 0 
L 45.796875 5.421875 
L 45.796875 25.390625 
Q 45.796875 32.5625 45.484375 35.25 
Q 45.171875 37.9375 44.390625 39.203125 
Q 43.359375 40.921875 41.59375 41.875 
Q 39.84375 42.828125 37.59375 42.828125 
Q 32.125 42.828125 29 38.59375 
Q 25.875 34.375 25.875 26.90625 
L 25.875 0 
L 8.40625 0 
L 8.40625 75.984375 
L 25.875 75.984375 
L 25.875 46.6875 
Q 29.828125 51.46875 34.265625 53.734375 
Q 38.71875 56 44.09375 56 
Q 53.5625 56 58.46875 50.1875 
Q 63.375 44.390625 63.375 33.296875 
z
" id="DejaVuSans-Bold-104"/>
     <path d="M 8.40625 75.984375 
L 25.875 75.984375 
L 25.875 34.625 
L 46 54.6875 
L 66.3125 54.6875 
L 39.59375 29.59375 
L 68.40625 0 
L 47.21875 0 
L 25.875 22.796875 
L 25.875 0 
L 8.40625 0 
z
" id="DejaVuSans-Bold-107"/>
    </defs>
    <g transform="translate(56.67875 30.1395)scale(0.12 -0.12)">
     <use transform="translate(0 0.65625)" xlink:href="#DejaVuSans-Bold-80"/>
     <use transform="translate(73.291016 0.65625)" xlink:href="#DejaVuSans-Bold-40"/>
     <use transform="translate(118.994141 0.65625)" xlink:href="#DejaVuSans-Bold-945"/>
     <use transform="translate(208.535156 0.65625)" xlink:href="#DejaVuSans-Bold-61"/>
     <use transform="translate(313.164062 0.65625)" xlink:href="#DejaVuSans-Bold-946"/>
     <use transform="translate(384.746094 0.65625)" xlink:href="#DejaVuSans-Bold-41"/>
     <use transform="translate(430.449219 0.65625)" xlink:href="#DejaVuSans-Bold-32"/>
     <use transform="translate(465.263672 0.65625)" xlink:href="#DejaVuSans-Bold-101"/>
     <use transform="translate(533.085938 0.65625)" xlink:href="#DejaVuSans-Bold-110"/>
     <use transform="translate(604.277344 0.65625)" xlink:href="#DejaVuSans-Bold-97"/>
     <use transform="translate(671.757812 0.65625)" xlink:href="#DejaVuSans-Bold-98"/>
     <use transform="translate(743.339844 0.65625)" xlink:href="#DejaVuSans-Bold-108"/>
     <use transform="translate(777.617188 0.65625)" xlink:href="#DejaVuSans-Bold-101"/>
     <use transform="translate(845.439453 0.65625)" xlink:href="#DejaVuSans-Bold-115"/>
     <use transform="translate(904.960938 0.65625)" xlink:href="#DejaVuSans-Bold-32"/>
     <use transform="translate(939.775391 0.65625)" xlink:href="#DejaVuSans-Bold-82"/>
     <use transform="translate(1016.777344 0.65625)" xlink:href="#DejaVuSans-Bold-78"/>
     <use transform="translate(1100.46875 0.65625)" xlink:href="#DejaVuSans-Bold-78"/>
     <use transform="translate(1184.160156 0.65625)" xlink:href="#DejaVuSans-Bold-115"/>
     <use transform="translate(1243.681641 0.65625)" xlink:href="#DejaVuSans-Bold-32"/>
     <use transform="translate(1278.496094 0.65625)" xlink:href="#DejaVuSans-Bold-116"/>
     <use transform="translate(1326.298828 0.65625)" xlink:href="#DejaVuSans-Bold-111"/>
     <use transform="translate(1395 0.65625)" xlink:href="#DejaVuSans-Bold-32"/>
     <use transform="translate(1429.814453 0.65625)" xlink:href="#DejaVuSans-Bold-108"/>
     <use transform="translate(1464.091797 0.65625)" xlink:href="#DejaVuSans-Bold-101"/>
     <use transform="translate(1531.914062 0.65625)" xlink:href="#DejaVuSans-Bold-97"/>
     <use transform="translate(1599.394531 0.65625)" xlink:href="#DejaVuSans-Bold-114"/>
     <use transform="translate(1648.710938 0.65625)" xlink:href="#DejaVuSans-Bold-110"/>
     <use transform="translate(1719.902344 0.65625)" xlink:href="#DejaVuSans-Bold-32"/>
     <use transform="translate(1754.716797 0.65625)" xlink:href="#DejaVuSans-Bold-116"/>
     <use transform="translate(1802.519531 0.65625)" xlink:href="#DejaVuSans-Bold-104"/>
     <use transform="translate(1873.710938 0.65625)" xlink:href="#DejaVuSans-Bold-101"/>
     <use transform="translate(1941.533203 0.65625)" xlink:href="#DejaVuSans-Bold-32"/>
     <use transform="translate(1976.347656 0.65625)" xlink:href="#DejaVuSans-Bold-109"/>
     <use transform="translate(2080.546875 0.65625)" xlink:href="#DejaVuSans-Bold-97"/>
     <use transform="translate(2148.027344 0.65625)" xlink:href="#DejaVuSans-Bold-116"/>
     <use transform="translate(2195.830078 0.65625)" xlink:href="#DejaVuSans-Bold-99"/>
     <use transform="translate(2255.107422 0.65625)" xlink:href="#DejaVuSans-Bold-104"/>
     <use transform="translate(2326.298828 0.65625)" xlink:href="#DejaVuSans-Bold-105"/>
     <use transform="translate(2360.576172 0.65625)" xlink:href="#DejaVuSans-Bold-110"/>
     <use transform="translate(2431.767578 0.65625)" xlink:href="#DejaVuSans-Bold-103"/>
     <use transform="translate(2503.349609 0.65625)" xlink:href="#DejaVuSans-Bold-32"/>
     <use transform="translate(2538.164062 0.65625)" xlink:href="#DejaVuSans-Bold-116"/>
     <use transform="translate(2585.966797 0.65625)" xlink:href="#DejaVuSans-Bold-97"/>
     <use transform="translate(2653.447266 0.65625)" xlink:href="#DejaVuSans-Bold-115"/>
     <use transform="translate(2712.96875 0.65625)" xlink:href="#DejaVuSans-Bold-107"/>
    </g>
   </g>
  </g>
 </g>
 <defs>
  <clipPath id="pfa932d9dff">
   <rect height="162" width="288" x="56.67875" y="90.1395"/>
  </clipPath>
  <clipPath id="p9338386c50">
   <rect height="32.4" width="288" x="56.67875" y="36.1395"/>
  </clipPath>
 </defs>
</svg>
