<?xml version="1.0" encoding="utf-8" standalone="no"?>
<!DOCTYPE svg PUBLIC "-//W3C//DTD SVG 1.1//EN"
  "http://www.w3.org/Graphics/SVG/1.1/DTD/svg11.dtd">
<!-- Created with matplotlib (https://matplotlib.org/) -->
<svg height="273.81pt" version="1.1" viewBox="0 0 671.15 273.81" width="671.15pt" xmlns="http://www.w3.org/2000/svg" xmlns:xlink="http://www.w3.org/1999/xlink">
 <defs>
  <style type="text/css">
*{stroke-linecap:butt;stroke-linejoin:round;}
  </style>
 </defs>
 <g id="figure_1">
  <g id="patch_1">
   <path d="M 0 273.81 
L 671.15 273.81 
L 671.15 0 
L 0 0 
z
" style="fill:#ffffff;"/>
  </g>
  <g id="axes_1">
   <g id="patch_2">
    <path d="M 69.31 224.64 
L 404.11 224.64 
L 404.11 7.2 
L 69.31 7.2 
z
" style="fill:#ffffff;"/>
   </g>
   <g id="PolyCollection_1">
    <defs>
     <path d="M 84.528182 -245.603525 
L 84.528182 -245.603525 
L 92.332378 -141.390046 
L 100.136573 -111.718803 
L 107.940769 -103.514401 
L 115.744965 -100.847648 
L 123.549161 -99.556357 
L 131.353357 -98.732254 
L 139.157552 -98.152259 
L 146.961748 -97.780145 
L 154.765944 -97.541716 
L 162.57014 -97.309969 
L 170.374336 -97.166553 
L 178.178531 -97.059155 
L 185.982727 -96.913721 
L 193.786923 -96.837096 
L 201.591119 -96.76518 
L 209.395315 -96.74767 
L 217.19951 -96.665889 
L 225.003706 -96.596294 
L 232.807902 -96.564447 
L 240.612098 -96.493883 
L 248.416294 -96.496902 
L 256.22049 -96.471708 
L 264.024685 -96.414138 
L 271.828881 -96.381205 
L 279.633077 -96.370665 
L 287.437273 -96.326421 
L 295.241469 -96.334237 
L 303.045664 -96.319709 
L 310.84986 -96.292631 
L 318.654056 -96.277306 
L 326.458252 -96.257879 
L 334.262448 -96.212149 
L 342.066643 -96.084755 
L 349.870839 -96.226914 
L 357.675035 -96.200082 
L 365.479231 -96.167616 
L 373.283427 -96.152293 
L 381.087622 -96.176509 
L 388.891818 -96.132101 
L 388.891818 -100.324121 
L 388.891818 -100.324121 
L 381.087622 -100.362144 
L 373.283427 -100.335499 
L 365.479231 -100.355822 
L 357.675035 -100.433862 
L 349.870839 -100.391263 
L 342.066643 -100.871848 
L 334.262448 -100.468605 
L 326.458252 -100.492852 
L 318.654056 -100.477002 
L 310.84986 -100.460489 
L 303.045664 -100.523733 
L 295.241469 -100.579551 
L 287.437273 -100.563113 
L 279.633077 -100.609898 
L 271.828881 -100.661386 
L 264.024685 -100.691993 
L 256.22049 -100.730866 
L 248.416294 -100.791999 
L 240.612098 -100.846527 
L 232.807902 -100.86542 
L 225.003706 -100.926985 
L 217.19951 -100.947736 
L 209.395315 -101.052525 
L 201.591119 -101.158584 
L 193.786923 -101.225768 
L 185.982727 -101.42636 
L 178.178531 -101.474575 
L 170.374336 -101.669008 
L 162.57014 -101.875374 
L 154.765944 -102.114761 
L 146.961748 -102.540753 
L 139.157552 -103.025345 
L 131.353357 -103.767434 
L 123.549161 -105.065871 
L 115.744965 -107.488759 
L 107.940769 -112.961205 
L 100.136573 -129.638912 
L 92.332378 -176.301872 
L 84.528182 -245.603525 
z
" id="mabda57d5bd" style="stroke:#430000;stroke-opacity:0.2;"/>
    </defs>
    <g clip-path="url(#p3306cdf3ac)">
     <use style="fill:#430000;fill-opacity:0.2;stroke:#430000;stroke-opacity:0.2;" x="0" xlink:href="#mabda57d5bd" y="273.81"/>
    </g>
   </g>
   <g id="PolyCollection_2">
    <defs>
     <path d="M 84.528182 -245.603525 
L 84.528182 -245.603525 
L 92.332378 -235.776872 
L 100.136573 -225.596771 
L 107.940769 -211.594675 
L 115.744965 -195.185262 
L 123.549161 -177.820035 
L 131.353357 -164.050695 
L 139.157552 -152.12373 
L 146.961748 -144.23434 
L 154.765944 -136.944841 
L 162.57014 -129.243121 
L 170.374336 -124.949521 
L 178.178531 -121.781962 
L 185.982727 -120.06927 
L 193.786923 -121.152061 
L 201.591119 -121.991916 
L 209.395315 -119.663203 
L 217.19951 -116.356716 
L 225.003706 -114.274163 
L 232.807902 -111.579263 
L 240.612098 -112.922149 
L 248.416294 -109.989362 
L 256.22049 -108.661243 
L 264.024685 -108.326578 
L 271.828881 -107.094528 
L 279.633077 -105.991748 
L 287.437273 -106.982077 
L 295.241469 -104.652825 
L 303.045664 -107.127736 
L 310.84986 -106.613448 
L 318.654056 -103.660653 
L 326.458252 -102.600178 
L 334.262448 -99.509754 
L 342.066643 -99.427377 
L 349.870839 -97.699439 
L 357.675035 -96.987414 
L 365.479231 -97.704962 
L 373.283427 -96.100628 
L 381.087622 -95.60662 
L 388.891818 -94.747529 
L 388.891818 -242.996856 
L 388.891818 -242.996856 
L 381.087622 -243.004726 
L 373.283427 -243.012155 
L 365.479231 -244.824088 
L 357.675035 -243.235344 
L 349.870839 -243.320355 
L 342.066643 -243.473448 
L 334.262448 -243.44345 
L 326.458252 -247.576808 
L 318.654056 -246.35305 
L 310.84986 -247.625652 
L 303.045664 -247.916098 
L 295.241469 -244.296266 
L 287.437273 -246.189725 
L 279.633077 -244.475874 
L 271.828881 -244.617986 
L 264.024685 -244.601061 
L 256.22049 -244.739008 
L 248.416294 -245.049081 
L 240.612098 -247.065062 
L 232.807902 -245.802415 
L 225.003706 -246.028702 
L 217.19951 -247.271551 
L 209.395315 -249.692421 
L 201.591119 -252.560393 
L 193.786923 -251.367214 
L 185.982727 -248.847802 
L 178.178531 -249.288258 
L 170.374336 -249.819065 
L 162.57014 -250.746261 
L 154.765944 -252.946279 
L 146.961748 -253.126778 
L 139.157552 -253.287805 
L 131.353357 -255.063932 
L 123.549161 -256.726364 
L 115.744965 -255.883942 
L 107.940769 -254.193174 
L 100.136573 -250.720493 
L 92.332378 -248.387045 
L 84.528182 -245.603525 
z
" id="mc5e8843b9a" style="stroke:#cf8f17;stroke-opacity:0.2;"/>
    </defs>
    <g clip-path="url(#p3306cdf3ac)">
     <use style="fill:#cf8f17;fill-opacity:0.2;stroke:#cf8f17;stroke-opacity:0.2;" x="0" xlink:href="#mc5e8843b9a" y="273.81"/>
    </g>
   </g>
   <g id="PolyCollection_3">
    <defs>
     <path d="M 84.528182 -245.603525 
L 84.528182 -245.603525 
L 92.332378 -136.649138 
L 100.136573 -111.94812 
L 107.940769 -104.129521 
L 115.744965 -101.381981 
L 123.549161 -99.306938 
L 131.353357 -99.029239 
L 139.157552 -98.370619 
L 146.961748 -97.994766 
L 154.765944 -97.625438 
L 162.57014 -97.352151 
L 170.374336 -97.195524 
L 178.178531 -97.021836 
L 185.982727 -96.876763 
L 193.786923 -96.751634 
L 201.591119 -96.63349 
L 209.395315 -96.559668 
L 217.19951 -96.486757 
L 225.003706 -96.422672 
L 232.807902 -96.357957 
L 240.612098 -96.305495 
L 248.416294 -96.289408 
L 256.22049 -96.092809 
L 264.024685 -96.064334 
L 271.828881 -96.045416 
L 279.633077 -87.086885 
L 287.437273 -95.59046 
L 295.241469 -96.082108 
L 303.045664 -95.081018 
L 310.84986 -96.09351 
L 318.654056 -96.072155 
L 326.458252 -96.024783 
L 334.262448 -96.040543 
L 342.066643 -96.064911 
L 349.870839 -87.543039 
L 357.675035 -88.321229 
L 365.479231 -93.236916 
L 373.283427 -95.537661 
L 381.087622 -95.111003 
L 388.891818 -95.698565 
L 388.891818 -101.363071 
L 388.891818 -101.363071 
L 381.087622 -102.076972 
L 373.283427 -101.386701 
L 365.479231 -104.727904 
L 357.675035 -110.406642 
L 349.870839 -111.571722 
L 342.066643 -100.786963 
L 334.262448 -100.69817 
L 326.458252 -100.94403 
L 318.654056 -101.051014 
L 310.84986 -100.945548 
L 303.045664 -102.542182 
L 295.241469 -101.06259 
L 287.437273 -102.00313 
L 279.633077 -113.037481 
L 271.828881 -101.233135 
L 264.024685 -101.155177 
L 256.22049 -101.296155 
L 248.416294 -101.012554 
L 240.612098 -101.084041 
L 232.807902 -101.156178 
L 225.003706 -101.268554 
L 217.19951 -101.350363 
L 209.395315 -101.468701 
L 201.591119 -101.594228 
L 193.786923 -101.781756 
L 185.982727 -102.028479 
L 178.178531 -102.250815 
L 170.374336 -102.465251 
L 162.57014 -102.751946 
L 154.765944 -103.102225 
L 146.961748 -103.499734 
L 139.157552 -104.108108 
L 131.353357 -104.741264 
L 123.549161 -106.843388 
L 115.744965 -108.186868 
L 107.940769 -113.754063 
L 100.136573 -127.923102 
L 92.332378 -171.704061 
L 84.528182 -245.603525 
z
" id="m08fc58d644" style="stroke:#499ad7;stroke-opacity:0.2;"/>
    </defs>
    <g clip-path="url(#p3306cdf3ac)">
     <use style="fill:#499ad7;fill-opacity:0.2;stroke:#499ad7;stroke-opacity:0.2;" x="0" xlink:href="#m08fc58d644" y="273.81"/>
    </g>
   </g>
   <g id="PolyCollection_4">
    <defs>
     <path d="M 84.528182 -245.603525 
L 84.528182 -245.603525 
L 92.332378 -237.847493 
L 100.136573 -230.844733 
L 107.940769 -215.816759 
L 115.744965 -193.515428 
L 123.549161 -171.097541 
L 131.353357 -149.747957 
L 139.157552 -130.359547 
L 146.961748 -115.955982 
L 154.765944 -105.56633 
L 162.57014 -97.314707 
L 170.374336 -91.194251 
L 178.178531 -86.773688 
L 185.982727 -82.683201 
L 193.786923 -80.124467 
L 201.591119 -78.077055 
L 209.395315 -76.777545 
L 217.19951 -75.883364 
L 225.003706 -75.189206 
L 232.807902 -74.214546 
L 240.612098 -73.813788 
L 248.416294 -73.406485 
L 256.22049 -73.216736 
L 264.024685 -72.476676 
L 271.828881 -72.478229 
L 279.633077 -69.918569 
L 287.437273 -72.379233 
L 295.241469 -71.246191 
L 303.045664 -70.579864 
L 310.84986 -70.864993 
L 318.654056 -69.748395 
L 326.458252 -70.75502 
L 334.262448 -70.500591 
L 342.066643 -70.383974 
L 349.870839 -59.053636 
L 357.675035 -69.929524 
L 365.479231 -69.759621 
L 373.283427 -70.447611 
L 381.087622 -69.515422 
L 388.891818 -67.364232 
L 388.891818 -143.731623 
L 388.891818 -143.731623 
L 381.087622 -138.284269 
L 373.283427 -137.675865 
L 365.479231 -139.261163 
L 357.675035 -141.136896 
L 349.870839 -157.757253 
L 342.066643 -138.672547 
L 334.262448 -140.560294 
L 326.458252 -141.974733 
L 318.654056 -146.832009 
L 310.84986 -145.912071 
L 303.045664 -149.685593 
L 295.241469 -148.940489 
L 287.437273 -153.752102 
L 279.633077 -161.123216 
L 271.828881 -153.049274 
L 264.024685 -153.080974 
L 256.22049 -153.864724 
L 248.416294 -155.085164 
L 240.612098 -155.88975 
L 232.807902 -157.205952 
L 225.003706 -158.191765 
L 217.19951 -160.963864 
L 209.395315 -163.304824 
L 201.591119 -166.674793 
L 193.786923 -170.818043 
L 185.982727 -175.247517 
L 178.178531 -180.408879 
L 170.374336 -187.617668 
L 162.57014 -196.432868 
L 154.765944 -206.536506 
L 146.961748 -216.174452 
L 139.157552 -225.772124 
L 131.353357 -235.272474 
L 123.549161 -242.921685 
L 115.744965 -246.452102 
L 107.940769 -247.063874 
L 100.136573 -246.617381 
L 92.332378 -247.571269 
L 84.528182 -245.603525 
z
" id="m7033d00e3f" style="stroke:#499ad7;stroke-opacity:0.2;"/>
    </defs>
    <g clip-path="url(#p3306cdf3ac)">
     <use style="fill:#499ad7;fill-opacity:0.2;stroke:#499ad7;stroke-opacity:0.2;" x="0" xlink:href="#m7033d00e3f" y="273.81"/>
    </g>
   </g>
   <g id="matplotlib.axis_1">
    <g id="xtick_1">
     <g id="line2d_1">
      <defs>
       <path d="M 0 0 
L 0 3.5 
" id="m45a308fc05" style="stroke:#000000;stroke-width:0.8;"/>
      </defs>
      <g>
       <use style="stroke:#000000;stroke-width:0.8;" x="84.528182" xlink:href="#m45a308fc05" y="224.64"/>
      </g>
     </g>
     <g id="text_1">
      <!-- 0 -->
      <defs>
       <path d="M 31.78125 66.40625 
Q 24.171875 66.40625 20.328125 58.90625 
Q 16.5 51.421875 16.5 36.375 
Q 16.5 21.390625 20.328125 13.890625 
Q 24.171875 6.390625 31.78125 6.390625 
Q 39.453125 6.390625 43.28125 13.890625 
Q 47.125 21.390625 47.125 36.375 
Q 47.125 51.421875 43.28125 58.90625 
Q 39.453125 66.40625 31.78125 66.40625 
z
M 31.78125 74.21875 
Q 44.046875 74.21875 50.515625 64.515625 
Q 56.984375 54.828125 56.984375 36.375 
Q 56.984375 17.96875 50.515625 8.265625 
Q 44.046875 -1.421875 31.78125 -1.421875 
Q 19.53125 -1.421875 13.0625 8.265625 
Q 6.59375 17.96875 6.59375 36.375 
Q 6.59375 54.828125 13.0625 64.515625 
Q 19.53125 74.21875 31.78125 74.21875 
z
" id="DejaVuSans-48"/>
      </defs>
      <g transform="translate(79.438182 243.7975)scale(0.16 -0.16)">
       <use xlink:href="#DejaVuSans-48"/>
      </g>
     </g>
    </g>
    <g id="xtick_2">
     <g id="line2d_2">
      <g>
       <use style="stroke:#000000;stroke-width:0.8;" x="162.57014" xlink:href="#m45a308fc05" y="224.64"/>
      </g>
     </g>
     <g id="text_2">
      <!-- 10 -->
      <defs>
       <path d="M 12.40625 8.296875 
L 28.515625 8.296875 
L 28.515625 63.921875 
L 10.984375 60.40625 
L 10.984375 69.390625 
L 28.421875 72.90625 
L 38.28125 72.90625 
L 38.28125 8.296875 
L 54.390625 8.296875 
L 54.390625 0 
L 12.40625 0 
z
" id="DejaVuSans-49"/>
      </defs>
      <g transform="translate(152.39014 243.7975)scale(0.16 -0.16)">
       <use xlink:href="#DejaVuSans-49"/>
       <use x="63.623047" xlink:href="#DejaVuSans-48"/>
      </g>
     </g>
    </g>
    <g id="xtick_3">
     <g id="line2d_3">
      <g>
       <use style="stroke:#000000;stroke-width:0.8;" x="240.612098" xlink:href="#m45a308fc05" y="224.64"/>
      </g>
     </g>
     <g id="text_3">
      <!-- 20 -->
      <defs>
       <path d="M 19.1875 8.296875 
L 53.609375 8.296875 
L 53.609375 0 
L 7.328125 0 
L 7.328125 8.296875 
Q 12.9375 14.109375 22.625 23.890625 
Q 32.328125 33.6875 34.8125 36.53125 
Q 39.546875 41.84375 41.421875 45.53125 
Q 43.3125 49.21875 43.3125 52.78125 
Q 43.3125 58.59375 39.234375 62.25 
Q 35.15625 65.921875 28.609375 65.921875 
Q 23.96875 65.921875 18.8125 64.3125 
Q 13.671875 62.703125 7.8125 59.421875 
L 7.8125 69.390625 
Q 13.765625 71.78125 18.9375 73 
Q 24.125 74.21875 28.421875 74.21875 
Q 39.75 74.21875 46.484375 68.546875 
Q 53.21875 62.890625 53.21875 53.421875 
Q 53.21875 48.921875 51.53125 44.890625 
Q 49.859375 40.875 45.40625 35.40625 
Q 44.1875 33.984375 37.640625 27.21875 
Q 31.109375 20.453125 19.1875 8.296875 
z
" id="DejaVuSans-50"/>
      </defs>
      <g transform="translate(230.432098 243.7975)scale(0.16 -0.16)">
       <use xlink:href="#DejaVuSans-50"/>
       <use x="63.623047" xlink:href="#DejaVuSans-48"/>
      </g>
     </g>
    </g>
    <g id="xtick_4">
     <g id="line2d_4">
      <g>
       <use style="stroke:#000000;stroke-width:0.8;" x="318.654056" xlink:href="#m45a308fc05" y="224.64"/>
      </g>
     </g>
     <g id="text_4">
      <!-- 30 -->
      <defs>
       <path d="M 40.578125 39.3125 
Q 47.65625 37.796875 51.625 33 
Q 55.609375 28.21875 55.609375 21.1875 
Q 55.609375 10.40625 48.1875 4.484375 
Q 40.765625 -1.421875 27.09375 -1.421875 
Q 22.515625 -1.421875 17.65625 -0.515625 
Q 12.796875 0.390625 7.625 2.203125 
L 7.625 11.71875 
Q 11.71875 9.328125 16.59375 8.109375 
Q 21.484375 6.890625 26.8125 6.890625 
Q 36.078125 6.890625 40.9375 10.546875 
Q 45.796875 14.203125 45.796875 21.1875 
Q 45.796875 27.640625 41.28125 31.265625 
Q 36.765625 34.90625 28.71875 34.90625 
L 20.21875 34.90625 
L 20.21875 43.015625 
L 29.109375 43.015625 
Q 36.375 43.015625 40.234375 45.921875 
Q 44.09375 48.828125 44.09375 54.296875 
Q 44.09375 59.90625 40.109375 62.90625 
Q 36.140625 65.921875 28.71875 65.921875 
Q 24.65625 65.921875 20.015625 65.03125 
Q 15.375 64.15625 9.8125 62.3125 
L 9.8125 71.09375 
Q 15.4375 72.65625 20.34375 73.4375 
Q 25.25 74.21875 29.59375 74.21875 
Q 40.828125 74.21875 47.359375 69.109375 
Q 53.90625 64.015625 53.90625 55.328125 
Q 53.90625 49.265625 50.4375 45.09375 
Q 46.96875 40.921875 40.578125 39.3125 
z
" id="DejaVuSans-51"/>
      </defs>
      <g transform="translate(308.474056 243.7975)scale(0.16 -0.16)">
       <use xlink:href="#DejaVuSans-51"/>
       <use x="63.623047" xlink:href="#DejaVuSans-48"/>
      </g>
     </g>
    </g>
    <g id="xtick_5">
     <g id="line2d_5">
      <g>
       <use style="stroke:#000000;stroke-width:0.8;" x="396.696014" xlink:href="#m45a308fc05" y="224.64"/>
      </g>
     </g>
     <g id="text_5">
      <!-- 40 -->
      <defs>
       <path d="M 37.796875 64.3125 
L 12.890625 25.390625 
L 37.796875 25.390625 
z
M 35.203125 72.90625 
L 47.609375 72.90625 
L 47.609375 25.390625 
L 58.015625 25.390625 
L 58.015625 17.1875 
L 47.609375 17.1875 
L 47.609375 0 
L 37.796875 0 
L 37.796875 17.1875 
L 4.890625 17.1875 
L 4.890625 26.703125 
z
" id="DejaVuSans-52"/>
      </defs>
      <g transform="translate(386.516014 243.7975)scale(0.16 -0.16)">
       <use xlink:href="#DejaVuSans-52"/>
       <use x="63.623047" xlink:href="#DejaVuSans-48"/>
      </g>
     </g>
    </g>
    <g id="text_6">
     <!-- Epoch -->
     <defs>
      <path d="M 9.8125 72.90625 
L 55.90625 72.90625 
L 55.90625 64.59375 
L 19.671875 64.59375 
L 19.671875 43.015625 
L 54.390625 43.015625 
L 54.390625 34.71875 
L 19.671875 34.71875 
L 19.671875 8.296875 
L 56.78125 8.296875 
L 56.78125 0 
L 9.8125 0 
z
" id="DejaVuSans-69"/>
      <path d="M 18.109375 8.203125 
L 18.109375 -20.796875 
L 9.078125 -20.796875 
L 9.078125 54.6875 
L 18.109375 54.6875 
L 18.109375 46.390625 
Q 20.953125 51.265625 25.265625 53.625 
Q 29.59375 56 35.59375 56 
Q 45.5625 56 51.78125 48.09375 
Q 58.015625 40.1875 58.015625 27.296875 
Q 58.015625 14.40625 51.78125 6.484375 
Q 45.5625 -1.421875 35.59375 -1.421875 
Q 29.59375 -1.421875 25.265625 0.953125 
Q 20.953125 3.328125 18.109375 8.203125 
z
M 48.6875 27.296875 
Q 48.6875 37.203125 44.609375 42.84375 
Q 40.53125 48.484375 33.40625 48.484375 
Q 26.265625 48.484375 22.1875 42.84375 
Q 18.109375 37.203125 18.109375 27.296875 
Q 18.109375 17.390625 22.1875 11.75 
Q 26.265625 6.109375 33.40625 6.109375 
Q 40.53125 6.109375 44.609375 11.75 
Q 48.6875 17.390625 48.6875 27.296875 
z
" id="DejaVuSans-112"/>
      <path d="M 30.609375 48.390625 
Q 23.390625 48.390625 19.1875 42.75 
Q 14.984375 37.109375 14.984375 27.296875 
Q 14.984375 17.484375 19.15625 11.84375 
Q 23.34375 6.203125 30.609375 6.203125 
Q 37.796875 6.203125 41.984375 11.859375 
Q 46.1875 17.53125 46.1875 27.296875 
Q 46.1875 37.015625 41.984375 42.703125 
Q 37.796875 48.390625 30.609375 48.390625 
z
M 30.609375 56 
Q 42.328125 56 49.015625 48.375 
Q 55.71875 40.765625 55.71875 27.296875 
Q 55.71875 13.875 49.015625 6.21875 
Q 42.328125 -1.421875 30.609375 -1.421875 
Q 18.84375 -1.421875 12.171875 6.21875 
Q 5.515625 13.875 5.515625 27.296875 
Q 5.515625 40.765625 12.171875 48.375 
Q 18.84375 56 30.609375 56 
z
" id="DejaVuSans-111"/>
      <path d="M 48.78125 52.59375 
L 48.78125 44.1875 
Q 44.96875 46.296875 41.140625 47.34375 
Q 37.3125 48.390625 33.40625 48.390625 
Q 24.65625 48.390625 19.8125 42.84375 
Q 14.984375 37.3125 14.984375 27.296875 
Q 14.984375 17.28125 19.8125 11.734375 
Q 24.65625 6.203125 33.40625 6.203125 
Q 37.3125 6.203125 41.140625 7.25 
Q 44.96875 8.296875 48.78125 10.40625 
L 48.78125 2.09375 
Q 45.015625 0.34375 40.984375 -0.53125 
Q 36.96875 -1.421875 32.421875 -1.421875 
Q 20.0625 -1.421875 12.78125 6.34375 
Q 5.515625 14.109375 5.515625 27.296875 
Q 5.515625 40.671875 12.859375 48.328125 
Q 20.21875 56 33.015625 56 
Q 37.15625 56 41.109375 55.140625 
Q 45.0625 54.296875 48.78125 52.59375 
z
" id="DejaVuSans-99"/>
      <path d="M 54.890625 33.015625 
L 54.890625 0 
L 45.90625 0 
L 45.90625 32.71875 
Q 45.90625 40.484375 42.875 44.328125 
Q 39.84375 48.1875 33.796875 48.1875 
Q 26.515625 48.1875 22.3125 43.546875 
Q 18.109375 38.921875 18.109375 30.90625 
L 18.109375 0 
L 9.078125 0 
L 9.078125 75.984375 
L 18.109375 75.984375 
L 18.109375 46.1875 
Q 21.34375 51.125 25.703125 53.5625 
Q 30.078125 56 35.796875 56 
Q 45.21875 56 50.046875 50.171875 
Q 54.890625 44.34375 54.890625 33.015625 
z
" id="DejaVuSans-104"/>
     </defs>
     <g transform="translate(212.2125 263.2825)scale(0.16 -0.16)">
      <use xlink:href="#DejaVuSans-69"/>
      <use x="63.183594" xlink:href="#DejaVuSans-112"/>
      <use x="126.660156" xlink:href="#DejaVuSans-111"/>
      <use x="187.841797" xlink:href="#DejaVuSans-99"/>
      <use x="242.822266" xlink:href="#DejaVuSans-104"/>
     </g>
    </g>
   </g>
   <g id="matplotlib.axis_2">
    <g id="ytick_1">
     <g id="line2d_6">
      <defs>
       <path d="M 0 0 
L -3.5 0 
" id="maa581df0ce" style="stroke:#000000;stroke-width:0.8;"/>
      </defs>
      <g>
       <use style="stroke:#000000;stroke-width:0.8;" x="69.31" xlink:href="#maa581df0ce" y="189.839394"/>
      </g>
     </g>
     <g id="text_7">
      <!-- 0.00 -->
      <defs>
       <path d="M 10.6875 12.40625 
L 21 12.40625 
L 21 0 
L 10.6875 0 
z
" id="DejaVuSans-46"/>
      </defs>
      <g transform="translate(26.685 195.918144)scale(0.16 -0.16)">
       <use xlink:href="#DejaVuSans-48"/>
       <use x="63.623047" xlink:href="#DejaVuSans-46"/>
       <use x="95.410156" xlink:href="#DejaVuSans-48"/>
       <use x="159.033203" xlink:href="#DejaVuSans-48"/>
      </g>
     </g>
    </g>
    <g id="ytick_2">
     <g id="line2d_7">
      <g>
       <use style="stroke:#000000;stroke-width:0.8;" x="69.31" xlink:href="#maa581df0ce" y="149.431164"/>
      </g>
     </g>
     <g id="text_8">
      <!-- 0.25 -->
      <defs>
       <path d="M 10.796875 72.90625 
L 49.515625 72.90625 
L 49.515625 64.59375 
L 19.828125 64.59375 
L 19.828125 46.734375 
Q 21.96875 47.46875 24.109375 47.828125 
Q 26.265625 48.1875 28.421875 48.1875 
Q 40.625 48.1875 47.75 41.5 
Q 54.890625 34.8125 54.890625 23.390625 
Q 54.890625 11.625 47.5625 5.09375 
Q 40.234375 -1.421875 26.90625 -1.421875 
Q 22.3125 -1.421875 17.546875 -0.640625 
Q 12.796875 0.140625 7.71875 1.703125 
L 7.71875 11.625 
Q 12.109375 9.234375 16.796875 8.0625 
Q 21.484375 6.890625 26.703125 6.890625 
Q 35.15625 6.890625 40.078125 11.328125 
Q 45.015625 15.765625 45.015625 23.390625 
Q 45.015625 31 40.078125 35.4375 
Q 35.15625 39.890625 26.703125 39.890625 
Q 22.75 39.890625 18.8125 39.015625 
Q 14.890625 38.140625 10.796875 36.28125 
z
" id="DejaVuSans-53"/>
      </defs>
      <g transform="translate(26.685 155.509914)scale(0.16 -0.16)">
       <use xlink:href="#DejaVuSans-48"/>
       <use x="63.623047" xlink:href="#DejaVuSans-46"/>
       <use x="95.410156" xlink:href="#DejaVuSans-50"/>
       <use x="159.033203" xlink:href="#DejaVuSans-53"/>
      </g>
     </g>
    </g>
    <g id="ytick_3">
     <g id="line2d_8">
      <g>
       <use style="stroke:#000000;stroke-width:0.8;" x="69.31" xlink:href="#maa581df0ce" y="109.022934"/>
      </g>
     </g>
     <g id="text_9">
      <!-- 0.50 -->
      <g transform="translate(26.685 115.101684)scale(0.16 -0.16)">
       <use xlink:href="#DejaVuSans-48"/>
       <use x="63.623047" xlink:href="#DejaVuSans-46"/>
       <use x="95.410156" xlink:href="#DejaVuSans-53"/>
       <use x="159.033203" xlink:href="#DejaVuSans-48"/>
      </g>
     </g>
    </g>
    <g id="ytick_4">
     <g id="line2d_9">
      <g>
       <use style="stroke:#000000;stroke-width:0.8;" x="69.31" xlink:href="#maa581df0ce" y="68.614705"/>
      </g>
     </g>
     <g id="text_10">
      <!-- 0.75 -->
      <defs>
       <path d="M 8.203125 72.90625 
L 55.078125 72.90625 
L 55.078125 68.703125 
L 28.609375 0 
L 18.3125 0 
L 43.21875 64.59375 
L 8.203125 64.59375 
z
" id="DejaVuSans-55"/>
      </defs>
      <g transform="translate(26.685 74.693455)scale(0.16 -0.16)">
       <use xlink:href="#DejaVuSans-48"/>
       <use x="63.623047" xlink:href="#DejaVuSans-46"/>
       <use x="95.410156" xlink:href="#DejaVuSans-55"/>
       <use x="159.033203" xlink:href="#DejaVuSans-53"/>
      </g>
     </g>
    </g>
    <g id="ytick_5">
     <g id="line2d_10">
      <g>
       <use style="stroke:#000000;stroke-width:0.8;" x="69.31" xlink:href="#maa581df0ce" y="28.206475"/>
      </g>
     </g>
     <g id="text_11">
      <!-- 1.00 -->
      <g transform="translate(26.685 34.285225)scale(0.16 -0.16)">
       <use xlink:href="#DejaVuSans-49"/>
       <use x="63.623047" xlink:href="#DejaVuSans-46"/>
       <use x="95.410156" xlink:href="#DejaVuSans-48"/>
       <use x="159.033203" xlink:href="#DejaVuSans-48"/>
      </g>
     </g>
    </g>
    <g id="text_12">
     <!-- Cross entropy $H$ -->
     <defs>
      <path d="M 64.40625 67.28125 
L 64.40625 56.890625 
Q 59.421875 61.53125 53.78125 63.8125 
Q 48.140625 66.109375 41.796875 66.109375 
Q 29.296875 66.109375 22.65625 58.46875 
Q 16.015625 50.828125 16.015625 36.375 
Q 16.015625 21.96875 22.65625 14.328125 
Q 29.296875 6.6875 41.796875 6.6875 
Q 48.140625 6.6875 53.78125 8.984375 
Q 59.421875 11.28125 64.40625 15.921875 
L 64.40625 5.609375 
Q 59.234375 2.09375 53.4375 0.328125 
Q 47.65625 -1.421875 41.21875 -1.421875 
Q 24.65625 -1.421875 15.125 8.703125 
Q 5.609375 18.84375 5.609375 36.375 
Q 5.609375 53.953125 15.125 64.078125 
Q 24.65625 74.21875 41.21875 74.21875 
Q 47.75 74.21875 53.53125 72.484375 
Q 59.328125 70.75 64.40625 67.28125 
z
" id="DejaVuSans-67"/>
      <path d="M 41.109375 46.296875 
Q 39.59375 47.171875 37.8125 47.578125 
Q 36.03125 48 33.890625 48 
Q 26.265625 48 22.1875 43.046875 
Q 18.109375 38.09375 18.109375 28.8125 
L 18.109375 0 
L 9.078125 0 
L 9.078125 54.6875 
L 18.109375 54.6875 
L 18.109375 46.1875 
Q 20.953125 51.171875 25.484375 53.578125 
Q 30.03125 56 36.53125 56 
Q 37.453125 56 38.578125 55.875 
Q 39.703125 55.765625 41.0625 55.515625 
z
" id="DejaVuSans-114"/>
      <path d="M 44.28125 53.078125 
L 44.28125 44.578125 
Q 40.484375 46.53125 36.375 47.5 
Q 32.28125 48.484375 27.875 48.484375 
Q 21.1875 48.484375 17.84375 46.4375 
Q 14.5 44.390625 14.5 40.28125 
Q 14.5 37.15625 16.890625 35.375 
Q 19.28125 33.59375 26.515625 31.984375 
L 29.59375 31.296875 
Q 39.15625 29.25 43.1875 25.515625 
Q 47.21875 21.78125 47.21875 15.09375 
Q 47.21875 7.46875 41.1875 3.015625 
Q 35.15625 -1.421875 24.609375 -1.421875 
Q 20.21875 -1.421875 15.453125 -0.5625 
Q 10.6875 0.296875 5.421875 2 
L 5.421875 11.28125 
Q 10.40625 8.6875 15.234375 7.390625 
Q 20.0625 6.109375 24.8125 6.109375 
Q 31.15625 6.109375 34.5625 8.28125 
Q 37.984375 10.453125 37.984375 14.40625 
Q 37.984375 18.0625 35.515625 20.015625 
Q 33.0625 21.96875 24.703125 23.78125 
L 21.578125 24.515625 
Q 13.234375 26.265625 9.515625 29.90625 
Q 5.8125 33.546875 5.8125 39.890625 
Q 5.8125 47.609375 11.28125 51.796875 
Q 16.75 56 26.8125 56 
Q 31.78125 56 36.171875 55.265625 
Q 40.578125 54.546875 44.28125 53.078125 
z
" id="DejaVuSans-115"/>
      <path id="DejaVuSans-32"/>
      <path d="M 56.203125 29.59375 
L 56.203125 25.203125 
L 14.890625 25.203125 
Q 15.484375 15.921875 20.484375 11.0625 
Q 25.484375 6.203125 34.421875 6.203125 
Q 39.59375 6.203125 44.453125 7.46875 
Q 49.3125 8.734375 54.109375 11.28125 
L 54.109375 2.78125 
Q 49.265625 0.734375 44.1875 -0.34375 
Q 39.109375 -1.421875 33.890625 -1.421875 
Q 20.796875 -1.421875 13.15625 6.1875 
Q 5.515625 13.8125 5.515625 26.8125 
Q 5.515625 40.234375 12.765625 48.109375 
Q 20.015625 56 32.328125 56 
Q 43.359375 56 49.78125 48.890625 
Q 56.203125 41.796875 56.203125 29.59375 
z
M 47.21875 32.234375 
Q 47.125 39.59375 43.09375 43.984375 
Q 39.0625 48.390625 32.421875 48.390625 
Q 24.90625 48.390625 20.390625 44.140625 
Q 15.875 39.890625 15.1875 32.171875 
z
" id="DejaVuSans-101"/>
      <path d="M 54.890625 33.015625 
L 54.890625 0 
L 45.90625 0 
L 45.90625 32.71875 
Q 45.90625 40.484375 42.875 44.328125 
Q 39.84375 48.1875 33.796875 48.1875 
Q 26.515625 48.1875 22.3125 43.546875 
Q 18.109375 38.921875 18.109375 30.90625 
L 18.109375 0 
L 9.078125 0 
L 9.078125 54.6875 
L 18.109375 54.6875 
L 18.109375 46.1875 
Q 21.34375 51.125 25.703125 53.5625 
Q 30.078125 56 35.796875 56 
Q 45.21875 56 50.046875 50.171875 
Q 54.890625 44.34375 54.890625 33.015625 
z
" id="DejaVuSans-110"/>
      <path d="M 18.3125 70.21875 
L 18.3125 54.6875 
L 36.8125 54.6875 
L 36.8125 47.703125 
L 18.3125 47.703125 
L 18.3125 18.015625 
Q 18.3125 11.328125 20.140625 9.421875 
Q 21.96875 7.515625 27.59375 7.515625 
L 36.8125 7.515625 
L 36.8125 0 
L 27.59375 0 
Q 17.1875 0 13.234375 3.875 
Q 9.28125 7.765625 9.28125 18.015625 
L 9.28125 47.703125 
L 2.6875 47.703125 
L 2.6875 54.6875 
L 9.28125 54.6875 
L 9.28125 70.21875 
z
" id="DejaVuSans-116"/>
      <path d="M 32.171875 -5.078125 
Q 28.375 -14.84375 24.75 -17.8125 
Q 21.140625 -20.796875 15.09375 -20.796875 
L 7.90625 -20.796875 
L 7.90625 -13.28125 
L 13.1875 -13.28125 
Q 16.890625 -13.28125 18.9375 -11.515625 
Q 21 -9.765625 23.484375 -3.21875 
L 25.09375 0.875 
L 2.984375 54.6875 
L 12.5 54.6875 
L 29.59375 11.921875 
L 46.6875 54.6875 
L 56.203125 54.6875 
z
" id="DejaVuSans-121"/>
      <path d="M 16.890625 72.90625 
L 26.8125 72.90625 
L 21 43.015625 
L 56.78125 43.015625 
L 62.59375 72.90625 
L 72.515625 72.90625 
L 58.296875 0 
L 48.390625 0 
L 55.171875 34.71875 
L 19.390625 34.71875 
L 12.59375 0 
L 2.6875 0 
z
" id="DejaVuSans-Oblique-72"/>
     </defs>
     <g transform="translate(19.325 180.32)rotate(-90)scale(0.16 -0.16)">
      <use transform="translate(0 0.78125)" xlink:href="#DejaVuSans-67"/>
      <use transform="translate(69.824219 0.78125)" xlink:href="#DejaVuSans-114"/>
      <use transform="translate(110.9375 0.78125)" xlink:href="#DejaVuSans-111"/>
      <use transform="translate(172.119141 0.78125)" xlink:href="#DejaVuSans-115"/>
      <use transform="translate(224.21875 0.78125)" xlink:href="#DejaVuSans-115"/>
      <use transform="translate(276.318359 0.78125)" xlink:href="#DejaVuSans-32"/>
      <use transform="translate(308.105469 0.78125)" xlink:href="#DejaVuSans-101"/>
      <use transform="translate(369.628906 0.78125)" xlink:href="#DejaVuSans-110"/>
      <use transform="translate(433.007812 0.78125)" xlink:href="#DejaVuSans-116"/>
      <use transform="translate(472.216797 0.78125)" xlink:href="#DejaVuSans-114"/>
      <use transform="translate(513.330078 0.78125)" xlink:href="#DejaVuSans-111"/>
      <use transform="translate(574.511719 0.78125)" xlink:href="#DejaVuSans-112"/>
      <use transform="translate(637.988281 0.78125)" xlink:href="#DejaVuSans-121"/>
      <use transform="translate(697.167969 0.78125)" xlink:href="#DejaVuSans-32"/>
      <use transform="translate(728.955078 0.78125)" xlink:href="#DejaVuSans-Oblique-72"/>
     </g>
    </g>
   </g>
   <g id="line2d_11">
    <path clip-path="url(#p3306cdf3ac)" d="M 84.528182 28.206475 
L 92.332378 114.964041 
L 100.136573 153.131143 
L 107.940769 165.572197 
L 115.744965 169.641796 
L 123.549161 171.498886 
L 131.353357 172.560156 
L 139.157552 173.221198 
L 146.961748 173.649551 
L 154.765944 173.981761 
L 162.57014 174.217329 
L 170.374336 174.392219 
L 178.178531 174.543135 
L 185.982727 174.639959 
L 193.786923 174.778568 
L 201.591119 174.848118 
L 209.395315 174.909903 
L 217.19951 175.003187 
L 225.003706 175.04836 
L 232.807902 175.095067 
L 240.612098 175.139795 
L 248.416294 175.16555 
L 256.22049 175.208713 
L 264.024685 175.256935 
L 271.828881 175.288704 
L 279.633077 175.319718 
L 287.437273 175.365233 
L 295.241469 175.353106 
L 303.045664 175.388279 
L 310.84986 175.43344 
L 318.654056 175.432846 
L 326.458252 175.434634 
L 334.262448 175.469623 
L 342.066643 175.331698 
L 349.870839 175.500912 
L 357.675035 175.493028 
L 365.479231 175.548281 
L 373.283427 175.566104 
L 381.087622 175.540673 
L 388.891818 175.581889 
" style="fill:none;stroke:#430000;stroke-linecap:square;stroke-width:5;"/>
   </g>
   <g id="line2d_12">
    <path clip-path="url(#p3306cdf3ac)" d="M 84.528182 28.206475 
L 92.332378 31.728042 
L 100.136573 35.651368 
L 107.940769 40.916076 
L 115.744965 48.275398 
L 123.549161 56.536801 
L 131.353357 64.252686 
L 139.157552 71.104232 
L 146.961748 75.129441 
L 154.765944 78.86444 
L 162.57014 83.815309 
L 170.374336 86.425707 
L 178.178531 88.27489 
L 185.982727 89.351464 
L 193.786923 87.550362 
L 201.591119 86.533845 
L 209.395315 89.132188 
L 217.19951 91.995867 
L 225.003706 93.658567 
L 232.807902 95.119161 
L 240.612098 93.816395 
L 248.416294 96.290778 
L 256.22049 97.109874 
L 264.024685 97.34618 
L 271.828881 97.953743 
L 279.633077 98.576189 
L 287.437273 97.224099 
L 295.241469 99.335455 
L 303.045664 96.288083 
L 310.84986 96.69045 
L 318.654056 98.803149 
L 326.458252 98.721507 
L 334.262448 102.333398 
L 342.066643 102.359587 
L 349.870839 103.300103 
L 357.675035 103.698621 
L 365.479231 102.545475 
L 373.283427 104.253608 
L 381.087622 104.504327 
L 388.891818 104.937808 
" style="fill:none;stroke:#cf8f17;stroke-linecap:square;stroke-width:5;"/>
   </g>
   <g id="line2d_13">
    <path clip-path="url(#p3306cdf3ac)" d="M 84.528182 28.206475 
L 92.332378 119.633401 
L 100.136573 153.874389 
L 107.940769 164.868208 
L 115.744965 169.025576 
L 123.549161 170.734837 
L 131.353357 171.924748 
L 139.157552 172.570637 
L 146.961748 173.06275 
L 154.765944 173.446168 
L 162.57014 173.757951 
L 170.374336 173.979612 
L 178.178531 174.173674 
L 185.982727 174.357379 
L 193.786923 174.543305 
L 201.591119 174.696141 
L 209.395315 174.795815 
L 217.19951 174.89144 
L 225.003706 174.964387 
L 232.807902 175.052933 
L 240.612098 175.115232 
L 248.416294 175.159019 
L 256.22049 175.115518 
L 264.024685 175.200244 
L 271.828881 175.170725 
L 279.633077 173.747817 
L 287.437273 175.013205 
L 295.241469 175.237651 
L 303.045664 174.9984 
L 310.84986 175.290471 
L 318.654056 175.248415 
L 326.458252 175.325594 
L 334.262448 175.440643 
L 342.066643 175.384063 
L 349.870839 174.252619 
L 357.675035 174.446065 
L 365.479231 174.82759 
L 373.283427 175.347819 
L 381.087622 175.216013 
L 388.891818 175.279182 
" style="fill:none;stroke:#499ad7;stroke-dasharray:5,8.25;stroke-dashoffset:0;stroke-width:5;"/>
   </g>
   <g id="line2d_14">
    <path clip-path="url(#p3306cdf3ac)" d="M 84.528182 28.206475 
L 92.332378 31.100619 
L 100.136573 35.078943 
L 107.940769 42.369683 
L 115.744965 53.826235 
L 123.549161 66.800387 
L 131.353357 81.299785 
L 139.157552 95.744164 
L 146.961748 107.744783 
L 154.765944 117.758582 
L 162.57014 126.936212 
L 170.374336 134.404041 
L 178.178531 140.218717 
L 185.982727 144.844641 
L 193.786923 148.338745 
L 201.591119 151.434076 
L 209.395315 153.768816 
L 217.19951 155.386386 
L 225.003706 157.119515 
L 232.807902 158.099751 
L 240.612098 158.958231 
L 248.416294 159.564176 
L 256.22049 160.26927 
L 264.024685 161.031175 
L 271.828881 161.046249 
L 279.633077 158.289108 
L 287.437273 160.744333 
L 295.241469 163.71666 
L 303.045664 163.677272 
L 310.84986 165.421468 
L 318.654056 165.519798 
L 326.458252 167.445124 
L 334.262448 168.279558 
L 342.066643 169.281739 
L 349.870839 165.404555 
L 357.675035 168.27679 
L 365.479231 169.299608 
L 373.283427 169.748262 
L 381.087622 169.910154 
L 388.891818 168.262073 
" style="fill:none;stroke:#499ad7;stroke-linecap:square;stroke-width:5;"/>
   </g>
   <g id="patch_3">
    <path d="M 69.31 224.64 
L 69.31 7.2 
" style="fill:none;stroke:#000000;stroke-linecap:square;stroke-linejoin:miter;stroke-width:0.8;"/>
   </g>
   <g id="patch_4">
    <path d="M 69.31 224.64 
L 404.11 224.64 
" style="fill:none;stroke:#000000;stroke-linecap:square;stroke-linejoin:miter;stroke-width:0.8;"/>
   </g>
   <g id="legend_1">
    <g id="line2d_15">
     <path d="M 442.51 28.16 
L 474.51 28.16 
" style="fill:none;stroke:#430000;stroke-linecap:square;stroke-width:5;"/>
    </g>
    <g id="line2d_16"/>
    <g id="text_13">
     <!-- $H_{Pred}$    (Pred-only) -->
     <defs>
      <path d="M 16.890625 72.90625 
L 39.703125 72.90625 
Q 49.65625 72.90625 54.875 68.265625 
Q 60.109375 63.625 60.109375 54.6875 
Q 60.109375 42.671875 52.390625 35.984375 
Q 44.671875 29.296875 30.71875 29.296875 
L 18.3125 29.296875 
L 12.59375 0 
L 2.6875 0 
z
M 25.203125 64.796875 
L 19.921875 37.40625 
L 32.328125 37.40625 
Q 40.71875 37.40625 45.203125 41.703125 
Q 49.703125 46 49.703125 54 
Q 49.703125 59.125 46.65625 61.953125 
Q 43.609375 64.796875 38.09375 64.796875 
z
" id="DejaVuSans-Oblique-80"/>
      <path d="M 44.578125 46.390625 
Q 43.21875 47.125 41.453125 47.515625 
Q 39.703125 47.90625 37.703125 47.90625 
Q 30.515625 47.90625 25.140625 42.453125 
Q 19.78125 37.015625 18.015625 27.875 
L 12.5 0 
L 3.515625 0 
L 14.203125 54.6875 
L 23.1875 54.6875 
L 21.484375 46.1875 
Q 25.046875 50.921875 30 53.453125 
Q 34.96875 56 40.578125 56 
Q 42.046875 56 43.453125 55.828125 
Q 44.875 55.671875 46.296875 55.28125 
z
" id="DejaVuSans-Oblique-114"/>
      <path d="M 48.09375 32.234375 
Q 48.25 33.015625 48.3125 33.84375 
Q 48.390625 34.671875 48.390625 35.5 
Q 48.390625 41.453125 44.890625 44.921875 
Q 41.40625 48.390625 35.40625 48.390625 
Q 28.71875 48.390625 23.578125 44.15625 
Q 18.453125 39.9375 15.828125 32.171875 
z
M 55.90625 25.203125 
L 14.109375 25.203125 
Q 13.8125 23.34375 13.71875 22.265625 
Q 13.625 21.1875 13.625 20.40625 
Q 13.625 13.625 17.796875 9.90625 
Q 21.96875 6.203125 29.59375 6.203125 
Q 35.453125 6.203125 40.671875 7.515625 
Q 45.90625 8.84375 50.390625 11.375 
L 48.6875 2.484375 
Q 43.84375 0.53125 38.6875 -0.4375 
Q 33.546875 -1.421875 28.21875 -1.421875 
Q 16.84375 -1.421875 10.71875 4.015625 
Q 4.59375 9.46875 4.59375 19.484375 
Q 4.59375 28.03125 7.640625 35.375 
Q 10.6875 42.71875 16.609375 48.484375 
Q 20.40625 52.09375 25.65625 54.046875 
Q 30.90625 56 36.8125 56 
Q 46.09375 56 51.578125 50.4375 
Q 57.078125 44.875 57.078125 35.5 
Q 57.078125 33.25 56.78125 30.6875 
Q 56.5 28.125 55.90625 25.203125 
z
" id="DejaVuSans-Oblique-101"/>
      <path d="M 41.796875 8.203125 
Q 38.1875 3.46875 33.25 1.015625 
Q 28.328125 -1.421875 22.3125 -1.421875 
Q 14.109375 -1.421875 9.34375 4.171875 
Q 4.59375 9.765625 4.59375 19.484375 
Q 4.59375 27.59375 7.46875 34.9375 
Q 10.359375 42.28125 15.828125 48.09375 
Q 19.4375 51.953125 23.96875 53.96875 
Q 28.515625 56 33.5 56 
Q 38.765625 56 42.796875 53.453125 
Q 46.828125 50.921875 49.03125 46.1875 
L 54.890625 75.984375 
L 63.921875 75.984375 
L 49.125 0 
L 40.09375 0 
z
M 13.921875 21.09375 
Q 13.921875 14.015625 17.109375 10.0625 
Q 20.3125 6.109375 25.984375 6.109375 
Q 30.171875 6.109375 33.765625 8.125 
Q 37.359375 10.15625 40.09375 14.109375 
Q 42.96875 18.21875 44.625 23.578125 
Q 46.296875 28.953125 46.296875 34.1875 
Q 46.296875 40.96875 43.09375 44.765625 
Q 39.890625 48.578125 34.28125 48.578125 
Q 30.03125 48.578125 26.359375 46.578125 
Q 22.703125 44.578125 20.125 40.828125 
Q 17.28125 36.765625 15.59375 31.390625 
Q 13.921875 26.03125 13.921875 21.09375 
z
" id="DejaVuSans-Oblique-100"/>
      <path d="M 31 75.875 
Q 24.46875 64.65625 21.28125 53.65625 
Q 18.109375 42.671875 18.109375 31.390625 
Q 18.109375 20.125 21.3125 9.0625 
Q 24.515625 -2 31 -13.1875 
L 23.1875 -13.1875 
Q 15.875 -1.703125 12.234375 9.375 
Q 8.59375 20.453125 8.59375 31.390625 
Q 8.59375 42.28125 12.203125 53.3125 
Q 15.828125 64.359375 23.1875 75.875 
z
" id="DejaVuSans-40"/>
      <path d="M 19.671875 64.796875 
L 19.671875 37.40625 
L 32.078125 37.40625 
Q 38.96875 37.40625 42.71875 40.96875 
Q 46.484375 44.53125 46.484375 51.125 
Q 46.484375 57.671875 42.71875 61.234375 
Q 38.96875 64.796875 32.078125 64.796875 
z
M 9.8125 72.90625 
L 32.078125 72.90625 
Q 44.34375 72.90625 50.609375 67.359375 
Q 56.890625 61.8125 56.890625 51.125 
Q 56.890625 40.328125 50.609375 34.8125 
Q 44.34375 29.296875 32.078125 29.296875 
L 19.671875 29.296875 
L 19.671875 0 
L 9.8125 0 
z
" id="DejaVuSans-80"/>
      <path d="M 45.40625 46.390625 
L 45.40625 75.984375 
L 54.390625 75.984375 
L 54.390625 0 
L 45.40625 0 
L 45.40625 8.203125 
Q 42.578125 3.328125 38.25 0.953125 
Q 33.9375 -1.421875 27.875 -1.421875 
Q 17.96875 -1.421875 11.734375 6.484375 
Q 5.515625 14.40625 5.515625 27.296875 
Q 5.515625 40.1875 11.734375 48.09375 
Q 17.96875 56 27.875 56 
Q 33.9375 56 38.25 53.625 
Q 42.578125 51.265625 45.40625 46.390625 
z
M 14.796875 27.296875 
Q 14.796875 17.390625 18.875 11.75 
Q 22.953125 6.109375 30.078125 6.109375 
Q 37.203125 6.109375 41.296875 11.75 
Q 45.40625 17.390625 45.40625 27.296875 
Q 45.40625 37.203125 41.296875 42.84375 
Q 37.203125 48.484375 30.078125 48.484375 
Q 22.953125 48.484375 18.875 42.84375 
Q 14.796875 37.203125 14.796875 27.296875 
z
" id="DejaVuSans-100"/>
      <path d="M 4.890625 31.390625 
L 31.203125 31.390625 
L 31.203125 23.390625 
L 4.890625 23.390625 
z
" id="DejaVuSans-45"/>
      <path d="M 9.421875 75.984375 
L 18.40625 75.984375 
L 18.40625 0 
L 9.421875 0 
z
" id="DejaVuSans-108"/>
      <path d="M 8.015625 75.875 
L 15.828125 75.875 
Q 23.140625 64.359375 26.78125 53.3125 
Q 30.421875 42.28125 30.421875 31.390625 
Q 30.421875 20.453125 26.78125 9.375 
Q 23.140625 -1.703125 15.828125 -13.1875 
L 8.015625 -13.1875 
Q 14.5 -2 17.703125 9.0625 
Q 20.90625 20.125 20.90625 31.390625 
Q 20.90625 42.671875 17.703125 53.65625 
Q 14.5 64.65625 8.015625 75.875 
z
" id="DejaVuSans-41"/>
     </defs>
     <g transform="translate(487.31 33.76)scale(0.16 -0.16)">
      <use transform="translate(0 0.015625)" xlink:href="#DejaVuSans-Oblique-72"/>
      <use transform="translate(75.195312 -16.390625)scale(0.7)" xlink:href="#DejaVuSans-Oblique-80"/>
      <use transform="translate(117.407227 -16.390625)scale(0.7)" xlink:href="#DejaVuSans-Oblique-114"/>
      <use transform="translate(146.186523 -16.390625)scale(0.7)" xlink:href="#DejaVuSans-Oblique-101"/>
      <use transform="translate(189.25293 -16.390625)scale(0.7)" xlink:href="#DejaVuSans-Oblique-100"/>
      <use transform="translate(236.420898 0.015625)" xlink:href="#DejaVuSans-32"/>
      <use transform="translate(268.208008 0.015625)" xlink:href="#DejaVuSans-32"/>
      <use transform="translate(299.995117 0.015625)" xlink:href="#DejaVuSans-32"/>
      <use transform="translate(331.782227 0.015625)" xlink:href="#DejaVuSans-32"/>
      <use transform="translate(363.569336 0.015625)" xlink:href="#DejaVuSans-40"/>
      <use transform="translate(402.583008 0.015625)" xlink:href="#DejaVuSans-80"/>
      <use transform="translate(462.885742 0.015625)" xlink:href="#DejaVuSans-114"/>
      <use transform="translate(503.999023 0.015625)" xlink:href="#DejaVuSans-101"/>
      <use transform="translate(565.522461 0.015625)" xlink:href="#DejaVuSans-100"/>
      <use transform="translate(628.999023 0.015625)" xlink:href="#DejaVuSans-45"/>
      <use transform="translate(665.083008 0.015625)" xlink:href="#DejaVuSans-111"/>
      <use transform="translate(726.264648 0.015625)" xlink:href="#DejaVuSans-110"/>
      <use transform="translate(789.643555 0.015625)" xlink:href="#DejaVuSans-108"/>
      <use transform="translate(817.426758 0.015625)" xlink:href="#DejaVuSans-121"/>
      <use transform="translate(876.606445 0.015625)" xlink:href="#DejaVuSans-41"/>
     </g>
    </g>
    <g id="line2d_17">
     <path d="M 442.51 51.68 
L 474.51 51.68 
" style="fill:none;stroke:#cf8f17;stroke-linecap:square;stroke-width:5;"/>
    </g>
    <g id="line2d_18"/>
    <g id="text_14">
     <!-- $H_{M/NM}$   (MNM-only) -->
     <defs>
      <path d="M 16.890625 72.90625 
L 31.6875 72.90625 
L 40.1875 23.78125 
L 68.40625 72.90625 
L 83.59375 72.90625 
L 69.390625 0 
L 59.8125 0 
L 72.21875 63.921875 
L 43.609375 14.015625 
L 33.984375 14.015625 
L 24.703125 64.109375 
L 12.3125 0 
L 2.6875 0 
z
" id="DejaVuSans-Oblique-77"/>
      <path d="M 25.390625 72.90625 
L 33.6875 72.90625 
L 8.296875 -9.28125 
L 0 -9.28125 
z
" id="DejaVuSans-47"/>
      <path d="M 16.890625 72.90625 
L 30.171875 72.90625 
L 50.296875 10.40625 
L 62.5 72.90625 
L 72.125 72.90625 
L 57.90625 0 
L 44.578125 0 
L 24.515625 62.890625 
L 12.3125 0 
L 2.6875 0 
z
" id="DejaVuSans-Oblique-78"/>
      <path d="M 9.8125 72.90625 
L 24.515625 72.90625 
L 43.109375 23.296875 
L 61.8125 72.90625 
L 76.515625 72.90625 
L 76.515625 0 
L 66.890625 0 
L 66.890625 64.015625 
L 48.09375 14.015625 
L 38.1875 14.015625 
L 19.390625 64.015625 
L 19.390625 0 
L 9.8125 0 
z
" id="DejaVuSans-77"/>
      <path d="M 9.8125 72.90625 
L 23.09375 72.90625 
L 55.421875 11.921875 
L 55.421875 72.90625 
L 64.984375 72.90625 
L 64.984375 0 
L 51.703125 0 
L 19.390625 60.984375 
L 19.390625 0 
L 9.8125 0 
z
" id="DejaVuSans-78"/>
     </defs>
     <g transform="translate(487.31 57.28)scale(0.16 -0.16)">
      <use transform="translate(0 0.015625)" xlink:href="#DejaVuSans-Oblique-72"/>
      <use transform="translate(75.195312 -16.390625)scale(0.7)" xlink:href="#DejaVuSans-Oblique-77"/>
      <use transform="translate(135.59082 -16.390625)scale(0.7)" xlink:href="#DejaVuSans-47"/>
      <use transform="translate(159.174805 -16.390625)scale(0.7)" xlink:href="#DejaVuSans-Oblique-78"/>
      <use transform="translate(211.538086 -16.390625)scale(0.7)" xlink:href="#DejaVuSans-Oblique-77"/>
      <use transform="translate(274.667969 0.015625)" xlink:href="#DejaVuSans-32"/>
      <use transform="translate(306.455078 0.015625)" xlink:href="#DejaVuSans-32"/>
      <use transform="translate(338.242188 0.015625)" xlink:href="#DejaVuSans-32"/>
      <use transform="translate(370.029297 0.015625)" xlink:href="#DejaVuSans-40"/>
      <use transform="translate(409.042969 0.015625)" xlink:href="#DejaVuSans-77"/>
      <use transform="translate(495.322266 0.015625)" xlink:href="#DejaVuSans-78"/>
      <use transform="translate(570.126953 0.015625)" xlink:href="#DejaVuSans-77"/>
      <use transform="translate(656.40625 0.015625)" xlink:href="#DejaVuSans-45"/>
      <use transform="translate(692.490234 0.015625)" xlink:href="#DejaVuSans-111"/>
      <use transform="translate(753.671875 0.015625)" xlink:href="#DejaVuSans-110"/>
      <use transform="translate(817.050781 0.015625)" xlink:href="#DejaVuSans-108"/>
      <use transform="translate(844.833984 0.015625)" xlink:href="#DejaVuSans-121"/>
      <use transform="translate(904.013672 0.015625)" xlink:href="#DejaVuSans-41"/>
     </g>
    </g>
    <g id="line2d_19">
     <path d="M 442.51 75.5175 
L 474.51 75.5175 
" style="fill:none;stroke:#499ad7;stroke-dasharray:5,8.25;stroke-dashoffset:0;stroke-width:5;"/>
    </g>
    <g id="line2d_20"/>
    <g id="text_15">
     <!-- $H_{Pred}$    (Pred &amp; MNM) -->
     <defs>
      <path d="M 24.3125 39.203125 
Q 19.875 35.25 17.796875 31.3125 
Q 15.71875 27.390625 15.71875 23.09375 
Q 15.71875 15.96875 20.890625 11.234375 
Q 26.078125 6.5 33.890625 6.5 
Q 38.53125 6.5 42.578125 8.03125 
Q 46.625 9.578125 50.203125 12.703125 
z
M 31.203125 44.671875 
L 56 19.28125 
Q 58.890625 23.640625 60.5 28.59375 
Q 62.109375 33.546875 62.40625 39.109375 
L 71.484375 39.109375 
Q 70.90625 32.671875 68.359375 26.359375 
Q 65.828125 20.0625 61.28125 13.921875 
L 74.90625 0 
L 62.59375 0 
L 55.609375 7.171875 
Q 50.53125 2.828125 44.96875 0.703125 
Q 39.40625 -1.421875 33.015625 -1.421875 
Q 21.234375 -1.421875 13.765625 5.296875 
Q 6.296875 12.015625 6.296875 22.515625 
Q 6.296875 28.765625 9.5625 34.25 
Q 12.84375 39.75 19.390625 44.578125 
Q 17.046875 47.65625 15.8125 50.703125 
Q 14.59375 53.765625 14.59375 56.6875 
Q 14.59375 64.59375 20.015625 69.40625 
Q 25.4375 74.21875 34.421875 74.21875 
Q 38.484375 74.21875 42.5 73.34375 
Q 46.53125 72.46875 50.6875 70.703125 
L 50.6875 61.8125 
Q 46.4375 64.109375 42.578125 65.296875 
Q 38.71875 66.5 35.40625 66.5 
Q 30.28125 66.5 27.078125 63.78125 
Q 23.875 61.078125 23.875 56.78125 
Q 23.875 54.296875 25.3125 51.78125 
Q 26.765625 49.265625 31.203125 44.671875 
z
" id="DejaVuSans-38"/>
     </defs>
     <g transform="translate(487.31 81.1175)scale(0.16 -0.16)">
      <use transform="translate(0 0.015625)" xlink:href="#DejaVuSans-Oblique-72"/>
      <use transform="translate(75.195312 -16.390625)scale(0.7)" xlink:href="#DejaVuSans-Oblique-80"/>
      <use transform="translate(117.407227 -16.390625)scale(0.7)" xlink:href="#DejaVuSans-Oblique-114"/>
      <use transform="translate(146.186523 -16.390625)scale(0.7)" xlink:href="#DejaVuSans-Oblique-101"/>
      <use transform="translate(189.25293 -16.390625)scale(0.7)" xlink:href="#DejaVuSans-Oblique-100"/>
      <use transform="translate(236.420898 0.015625)" xlink:href="#DejaVuSans-32"/>
      <use transform="translate(268.208008 0.015625)" xlink:href="#DejaVuSans-32"/>
      <use transform="translate(299.995117 0.015625)" xlink:href="#DejaVuSans-32"/>
      <use transform="translate(331.782227 0.015625)" xlink:href="#DejaVuSans-32"/>
      <use transform="translate(363.569336 0.015625)" xlink:href="#DejaVuSans-40"/>
      <use transform="translate(402.583008 0.015625)" xlink:href="#DejaVuSans-80"/>
      <use transform="translate(462.885742 0.015625)" xlink:href="#DejaVuSans-114"/>
      <use transform="translate(503.999023 0.015625)" xlink:href="#DejaVuSans-101"/>
      <use transform="translate(565.522461 0.015625)" xlink:href="#DejaVuSans-100"/>
      <use transform="translate(628.999023 0.015625)" xlink:href="#DejaVuSans-32"/>
      <use transform="translate(660.786133 0.015625)" xlink:href="#DejaVuSans-38"/>
      <use transform="translate(738.764648 0.015625)" xlink:href="#DejaVuSans-32"/>
      <use transform="translate(770.551758 0.015625)" xlink:href="#DejaVuSans-77"/>
      <use transform="translate(856.831055 0.015625)" xlink:href="#DejaVuSans-78"/>
      <use transform="translate(931.635742 0.015625)" xlink:href="#DejaVuSans-77"/>
      <use transform="translate(1017.915039 0.015625)" xlink:href="#DejaVuSans-41"/>
     </g>
    </g>
    <g id="line2d_21">
     <path d="M 442.51 99.005 
L 474.51 99.005 
" style="fill:none;stroke:#499ad7;stroke-linecap:square;stroke-width:5;"/>
    </g>
    <g id="line2d_22"/>
    <g id="text_16">
     <!-- $H_{M/NM}$   (Pred &amp; MNM) -->
     <g transform="translate(487.31 104.605)scale(0.16 -0.16)">
      <use transform="translate(0 0.015625)" xlink:href="#DejaVuSans-Oblique-72"/>
      <use transform="translate(75.195312 -16.390625)scale(0.7)" xlink:href="#DejaVuSans-Oblique-77"/>
      <use transform="translate(135.59082 -16.390625)scale(0.7)" xlink:href="#DejaVuSans-47"/>
      <use transform="translate(159.174805 -16.390625)scale(0.7)" xlink:href="#DejaVuSans-Oblique-78"/>
      <use transform="translate(211.538086 -16.390625)scale(0.7)" xlink:href="#DejaVuSans-Oblique-77"/>
      <use transform="translate(274.667969 0.015625)" xlink:href="#DejaVuSans-32"/>
      <use transform="translate(306.455078 0.015625)" xlink:href="#DejaVuSans-32"/>
      <use transform="translate(338.242188 0.015625)" xlink:href="#DejaVuSans-32"/>
      <use transform="translate(370.029297 0.015625)" xlink:href="#DejaVuSans-40"/>
      <use transform="translate(409.042969 0.015625)" xlink:href="#DejaVuSans-80"/>
      <use transform="translate(469.345703 0.015625)" xlink:href="#DejaVuSans-114"/>
      <use transform="translate(510.458984 0.015625)" xlink:href="#DejaVuSans-101"/>
      <use transform="translate(571.982422 0.015625)" xlink:href="#DejaVuSans-100"/>
      <use transform="translate(635.458984 0.015625)" xlink:href="#DejaVuSans-32"/>
      <use transform="translate(667.246094 0.015625)" xlink:href="#DejaVuSans-38"/>
      <use transform="translate(745.224609 0.015625)" xlink:href="#DejaVuSans-32"/>
      <use transform="translate(777.011719 0.015625)" xlink:href="#DejaVuSans-77"/>
      <use transform="translate(863.291016 0.015625)" xlink:href="#DejaVuSans-78"/>
      <use transform="translate(938.095703 0.015625)" xlink:href="#DejaVuSans-77"/>
      <use transform="translate(1024.375 0.015625)" xlink:href="#DejaVuSans-41"/>
     </g>
    </g>
   </g>
  </g>
 </g>
 <defs>
  <clipPath id="p3306cdf3ac">
   <rect height="217.44" width="334.8" x="69.31" y="7.2"/>
  </clipPath>
 </defs>
</svg>
