<?xml version="1.0" encoding="utf-8" standalone="no"?>
<!DOCTYPE svg PUBLIC "-//W3C//DTD SVG 1.1//EN"
  "http://www.w3.org/Graphics/SVG/1.1/DTD/svg11.dtd">
<!-- Created with matplotlib (https://matplotlib.org/) -->
<svg height="157.3475pt" version="1.1" viewBox="0 0 734.739909 157.3475" width="734.739909pt" xmlns="http://www.w3.org/2000/svg" xmlns:xlink="http://www.w3.org/1999/xlink">
 <defs>
  <style type="text/css">
*{stroke-linecap:butt;stroke-linejoin:round;}
  </style>
 </defs>
 <g id="figure_1">
  <g id="patch_1">
   <path d="M 0 157.3475 
L 734.739909 157.3475 
L 734.739909 0 
L 0 0 
z
" style="fill:#ffffff;"/>
  </g>
  <g id="axes_1">
   <g id="patch_2">
    <path d="M 56.5325 115.92 
L 228.224808 115.92 
L 228.224808 7.2 
L 56.5325 7.2 
z
" style="fill:#ffffff;"/>
   </g>
   <g id="PathCollection_1">
    <defs>
     <path d="M 0 3.383948 
C 0.897434 3.383948 1.758231 3.027394 2.392813 2.392813 
C 3.027394 1.758231 3.383948 0.897434 3.383948 0 
C 3.383948 -0.897434 3.027394 -1.758231 2.392813 -2.392813 
C 1.758231 -3.027394 0.897434 -3.383948 0 -3.383948 
C -0.897434 -3.383948 -1.758231 -3.027394 -2.392813 -2.392813 
C -3.027394 -1.758231 -3.383948 -0.897434 -3.383948 0 
C -3.383948 0.897434 -3.027394 1.758231 -2.392813 2.392813 
C -1.758231 3.027394 -0.897434 3.383948 0 3.383948 
z
" id="C0_0_992bf90267"/>
    </defs>
    <g clip-path="url(#p59a9dfc555)">
     <use style="stroke:#000000;stroke-width:2.025;" x="67.044274" xlink:href="#C0_0_992bf90267" y="53.375427"/>
    </g>
    <g clip-path="url(#p59a9dfc555)">
     <use style="stroke:#000000;stroke-width:2.025;" x="74.052123" xlink:href="#C0_0_992bf90267" y="61.412679"/>
    </g>
    <g clip-path="url(#p59a9dfc555)">
     <use style="stroke:#000000;stroke-width:2.025;" x="81.059973" xlink:href="#C0_0_992bf90267" y="68.656087"/>
    </g>
    <g clip-path="url(#p59a9dfc555)">
     <use style="stroke:#000000;stroke-width:2.025;" x="88.067822" xlink:href="#C0_0_992bf90267" y="71.662239"/>
    </g>
    <g clip-path="url(#p59a9dfc555)">
     <use style="stroke:#000000;stroke-width:2.025;" x="95.075671" xlink:href="#C0_0_992bf90267" y="63.209492"/>
    </g>
    <g clip-path="url(#p59a9dfc555)">
     <use style="stroke:#000000;stroke-width:2.025;" x="102.08352" xlink:href="#C0_0_992bf90267" y="68.567398"/>
    </g>
    <g clip-path="url(#p59a9dfc555)">
     <use style="stroke:#000000;stroke-width:2.025;" x="109.09137" xlink:href="#C0_0_992bf90267" y="68.350331"/>
    </g>
    <g clip-path="url(#p59a9dfc555)">
     <use style="stroke:#000000;stroke-width:2.025;" x="116.099219" xlink:href="#C0_0_992bf90267" y="71.90974"/>
    </g>
    <g clip-path="url(#p59a9dfc555)">
     <use style="stroke:#000000;stroke-width:2.025;" x="123.107068" xlink:href="#C0_0_992bf90267" y="78.005451"/>
    </g>
    <g clip-path="url(#p59a9dfc555)">
     <use style="stroke:#000000;stroke-width:2.025;" x="130.114918" xlink:href="#C0_0_992bf90267" y="80.131213"/>
    </g>
    <g clip-path="url(#p59a9dfc555)">
     <use style="stroke:#000000;stroke-width:2.025;" x="137.122767" xlink:href="#C0_0_992bf90267" y="73.813899"/>
    </g>
    <g clip-path="url(#p59a9dfc555)">
     <use style="stroke:#000000;stroke-width:2.025;" x="144.130616" xlink:href="#C0_0_992bf90267" y="71.184568"/>
    </g>
    <g clip-path="url(#p59a9dfc555)">
     <use style="stroke:#000000;stroke-width:2.025;" x="151.138465" xlink:href="#C0_0_992bf90267" y="83.074147"/>
    </g>
    <g clip-path="url(#p59a9dfc555)">
     <use style="stroke:#000000;stroke-width:2.025;" x="158.146315" xlink:href="#C0_0_992bf90267" y="85.957364"/>
    </g>
    <g clip-path="url(#p59a9dfc555)">
     <use style="stroke:#000000;stroke-width:2.025;" x="165.154164" xlink:href="#C0_0_992bf90267" y="83.201981"/>
    </g>
    <g clip-path="url(#p59a9dfc555)">
     <use style="stroke:#000000;stroke-width:2.025;" x="172.162013" xlink:href="#C0_0_992bf90267" y="96.574964"/>
    </g>
    <g clip-path="url(#p59a9dfc555)">
     <use style="stroke:#000000;stroke-width:2.025;" x="179.169863" xlink:href="#C0_0_992bf90267" y="97.625775"/>
    </g>
    <g clip-path="url(#p59a9dfc555)">
     <use style="stroke:#000000;stroke-width:2.025;" x="186.177712" xlink:href="#C0_0_992bf90267" y="101.258345"/>
    </g>
    <g clip-path="url(#p59a9dfc555)">
     <use style="stroke:#000000;stroke-width:2.025;" x="193.185561" xlink:href="#C0_0_992bf90267" y="106.928723"/>
    </g>
    <g clip-path="url(#p59a9dfc555)">
     <use style="stroke:#000000;stroke-width:2.025;" x="200.193411" xlink:href="#C0_0_992bf90267" y="107.681773"/>
    </g>
    <g clip-path="url(#p59a9dfc555)">
     <use style="stroke:#000000;stroke-width:2.025;" x="207.20126" xlink:href="#C0_0_992bf90267" y="107.36045"/>
    </g>
    <g clip-path="url(#p59a9dfc555)">
     <use style="stroke:#000000;stroke-width:2.025;" x="214.209109" xlink:href="#C0_0_992bf90267" y="107.326022"/>
    </g>
   </g>
   <g id="matplotlib.axis_1">
    <g id="xtick_1">
     <g id="line2d_1">
      <defs>
       <path d="M 0 0 
L 0 3.5 
" id="m7a9b876dcc" style="stroke:#000000;stroke-width:0.8;"/>
      </defs>
      <g>
       <use style="stroke:#000000;stroke-width:0.8;" x="81.059973" xlink:href="#m7a9b876dcc" y="115.92"/>
      </g>
     </g>
     <g id="text_1">
      <!-- 5 -->
      <defs>
       <path d="M 10.796875 72.90625 
L 49.515625 72.90625 
L 49.515625 64.59375 
L 19.828125 64.59375 
L 19.828125 46.734375 
Q 21.96875 47.46875 24.109375 47.828125 
Q 26.265625 48.1875 28.421875 48.1875 
Q 40.625 48.1875 47.75 41.5 
Q 54.890625 34.8125 54.890625 23.390625 
Q 54.890625 11.625 47.5625 5.09375 
Q 40.234375 -1.421875 26.90625 -1.421875 
Q 22.3125 -1.421875 17.546875 -0.640625 
Q 12.796875 0.140625 7.71875 1.703125 
L 7.71875 11.625 
Q 12.109375 9.234375 16.796875 8.0625 
Q 21.484375 6.890625 26.703125 6.890625 
Q 35.15625 6.890625 40.078125 11.328125 
Q 45.015625 15.765625 45.015625 23.390625 
Q 45.015625 31 40.078125 35.4375 
Q 35.15625 39.890625 26.703125 39.890625 
Q 22.75 39.890625 18.8125 39.015625 
Q 14.890625 38.140625 10.796875 36.28125 
z
" id="DejaVuSans-53"/>
      </defs>
      <g transform="translate(77.242473 132.038125)scale(0.12 -0.12)">
       <use xlink:href="#DejaVuSans-53"/>
      </g>
     </g>
    </g>
    <g id="xtick_2">
     <g id="line2d_2">
      <g>
       <use style="stroke:#000000;stroke-width:0.8;" x="116.099219" xlink:href="#m7a9b876dcc" y="115.92"/>
      </g>
     </g>
     <g id="text_2">
      <!-- 10 -->
      <defs>
       <path d="M 12.40625 8.296875 
L 28.515625 8.296875 
L 28.515625 63.921875 
L 10.984375 60.40625 
L 10.984375 69.390625 
L 28.421875 72.90625 
L 38.28125 72.90625 
L 38.28125 8.296875 
L 54.390625 8.296875 
L 54.390625 0 
L 12.40625 0 
z
" id="DejaVuSans-49"/>
       <path d="M 31.78125 66.40625 
Q 24.171875 66.40625 20.328125 58.90625 
Q 16.5 51.421875 16.5 36.375 
Q 16.5 21.390625 20.328125 13.890625 
Q 24.171875 6.390625 31.78125 6.390625 
Q 39.453125 6.390625 43.28125 13.890625 
Q 47.125 21.390625 47.125 36.375 
Q 47.125 51.421875 43.28125 58.90625 
Q 39.453125 66.40625 31.78125 66.40625 
z
M 31.78125 74.21875 
Q 44.046875 74.21875 50.515625 64.515625 
Q 56.984375 54.828125 56.984375 36.375 
Q 56.984375 17.96875 50.515625 8.265625 
Q 44.046875 -1.421875 31.78125 -1.421875 
Q 19.53125 -1.421875 13.0625 8.265625 
Q 6.59375 17.96875 6.59375 36.375 
Q 6.59375 54.828125 13.0625 64.515625 
Q 19.53125 74.21875 31.78125 74.21875 
z
" id="DejaVuSans-48"/>
      </defs>
      <g transform="translate(108.464219 132.038125)scale(0.12 -0.12)">
       <use xlink:href="#DejaVuSans-49"/>
       <use x="63.623047" xlink:href="#DejaVuSans-48"/>
      </g>
     </g>
    </g>
    <g id="xtick_3">
     <g id="line2d_3">
      <g>
       <use style="stroke:#000000;stroke-width:0.8;" x="151.138465" xlink:href="#m7a9b876dcc" y="115.92"/>
      </g>
     </g>
     <g id="text_3">
      <!-- 15 -->
      <g transform="translate(143.503465 132.038125)scale(0.12 -0.12)">
       <use xlink:href="#DejaVuSans-49"/>
       <use x="63.623047" xlink:href="#DejaVuSans-53"/>
      </g>
     </g>
    </g>
    <g id="xtick_4">
     <g id="line2d_4">
      <g>
       <use style="stroke:#000000;stroke-width:0.8;" x="186.177712" xlink:href="#m7a9b876dcc" y="115.92"/>
      </g>
     </g>
     <g id="text_4">
      <!-- 20 -->
      <defs>
       <path d="M 19.1875 8.296875 
L 53.609375 8.296875 
L 53.609375 0 
L 7.328125 0 
L 7.328125 8.296875 
Q 12.9375 14.109375 22.625 23.890625 
Q 32.328125 33.6875 34.8125 36.53125 
Q 39.546875 41.84375 41.421875 45.53125 
Q 43.3125 49.21875 43.3125 52.78125 
Q 43.3125 58.59375 39.234375 62.25 
Q 35.15625 65.921875 28.609375 65.921875 
Q 23.96875 65.921875 18.8125 64.3125 
Q 13.671875 62.703125 7.8125 59.421875 
L 7.8125 69.390625 
Q 13.765625 71.78125 18.9375 73 
Q 24.125 74.21875 28.421875 74.21875 
Q 39.75 74.21875 46.484375 68.546875 
Q 53.21875 62.890625 53.21875 53.421875 
Q 53.21875 48.921875 51.53125 44.890625 
Q 49.859375 40.875 45.40625 35.40625 
Q 44.1875 33.984375 37.640625 27.21875 
Q 31.109375 20.453125 19.1875 8.296875 
z
" id="DejaVuSans-50"/>
      </defs>
      <g transform="translate(178.542712 132.038125)scale(0.12 -0.12)">
       <use xlink:href="#DejaVuSans-50"/>
       <use x="63.623047" xlink:href="#DejaVuSans-48"/>
      </g>
     </g>
    </g>
    <g id="text_5">
     <!-- Number of neurons $N$ -->
     <defs>
      <path d="M 9.8125 72.90625 
L 23.09375 72.90625 
L 55.421875 11.921875 
L 55.421875 72.90625 
L 64.984375 72.90625 
L 64.984375 0 
L 51.703125 0 
L 19.390625 60.984375 
L 19.390625 0 
L 9.8125 0 
z
" id="DejaVuSans-78"/>
      <path d="M 8.5 21.578125 
L 8.5 54.6875 
L 17.484375 54.6875 
L 17.484375 21.921875 
Q 17.484375 14.15625 20.5 10.265625 
Q 23.53125 6.390625 29.59375 6.390625 
Q 36.859375 6.390625 41.078125 11.03125 
Q 45.3125 15.671875 45.3125 23.6875 
L 45.3125 54.6875 
L 54.296875 54.6875 
L 54.296875 0 
L 45.3125 0 
L 45.3125 8.40625 
Q 42.046875 3.421875 37.71875 1 
Q 33.40625 -1.421875 27.6875 -1.421875 
Q 18.265625 -1.421875 13.375 4.4375 
Q 8.5 10.296875 8.5 21.578125 
z
M 31.109375 56 
z
" id="DejaVuSans-117"/>
      <path d="M 52 44.1875 
Q 55.375 50.25 60.0625 53.125 
Q 64.75 56 71.09375 56 
Q 79.640625 56 84.28125 50.015625 
Q 88.921875 44.046875 88.921875 33.015625 
L 88.921875 0 
L 79.890625 0 
L 79.890625 32.71875 
Q 79.890625 40.578125 77.09375 44.375 
Q 74.3125 48.1875 68.609375 48.1875 
Q 61.625 48.1875 57.5625 43.546875 
Q 53.515625 38.921875 53.515625 30.90625 
L 53.515625 0 
L 44.484375 0 
L 44.484375 32.71875 
Q 44.484375 40.625 41.703125 44.40625 
Q 38.921875 48.1875 33.109375 48.1875 
Q 26.21875 48.1875 22.15625 43.53125 
Q 18.109375 38.875 18.109375 30.90625 
L 18.109375 0 
L 9.078125 0 
L 9.078125 54.6875 
L 18.109375 54.6875 
L 18.109375 46.1875 
Q 21.1875 51.21875 25.484375 53.609375 
Q 29.78125 56 35.6875 56 
Q 41.65625 56 45.828125 52.96875 
Q 50 49.953125 52 44.1875 
z
" id="DejaVuSans-109"/>
      <path d="M 48.6875 27.296875 
Q 48.6875 37.203125 44.609375 42.84375 
Q 40.53125 48.484375 33.40625 48.484375 
Q 26.265625 48.484375 22.1875 42.84375 
Q 18.109375 37.203125 18.109375 27.296875 
Q 18.109375 17.390625 22.1875 11.75 
Q 26.265625 6.109375 33.40625 6.109375 
Q 40.53125 6.109375 44.609375 11.75 
Q 48.6875 17.390625 48.6875 27.296875 
z
M 18.109375 46.390625 
Q 20.953125 51.265625 25.265625 53.625 
Q 29.59375 56 35.59375 56 
Q 45.5625 56 51.78125 48.09375 
Q 58.015625 40.1875 58.015625 27.296875 
Q 58.015625 14.40625 51.78125 6.484375 
Q 45.5625 -1.421875 35.59375 -1.421875 
Q 29.59375 -1.421875 25.265625 0.953125 
Q 20.953125 3.328125 18.109375 8.203125 
L 18.109375 0 
L 9.078125 0 
L 9.078125 75.984375 
L 18.109375 75.984375 
z
" id="DejaVuSans-98"/>
      <path d="M 56.203125 29.59375 
L 56.203125 25.203125 
L 14.890625 25.203125 
Q 15.484375 15.921875 20.484375 11.0625 
Q 25.484375 6.203125 34.421875 6.203125 
Q 39.59375 6.203125 44.453125 7.46875 
Q 49.3125 8.734375 54.109375 11.28125 
L 54.109375 2.78125 
Q 49.265625 0.734375 44.1875 -0.34375 
Q 39.109375 -1.421875 33.890625 -1.421875 
Q 20.796875 -1.421875 13.15625 6.1875 
Q 5.515625 13.8125 5.515625 26.8125 
Q 5.515625 40.234375 12.765625 48.109375 
Q 20.015625 56 32.328125 56 
Q 43.359375 56 49.78125 48.890625 
Q 56.203125 41.796875 56.203125 29.59375 
z
M 47.21875 32.234375 
Q 47.125 39.59375 43.09375 43.984375 
Q 39.0625 48.390625 32.421875 48.390625 
Q 24.90625 48.390625 20.390625 44.140625 
Q 15.875 39.890625 15.1875 32.171875 
z
" id="DejaVuSans-101"/>
      <path d="M 41.109375 46.296875 
Q 39.59375 47.171875 37.8125 47.578125 
Q 36.03125 48 33.890625 48 
Q 26.265625 48 22.1875 43.046875 
Q 18.109375 38.09375 18.109375 28.8125 
L 18.109375 0 
L 9.078125 0 
L 9.078125 54.6875 
L 18.109375 54.6875 
L 18.109375 46.1875 
Q 20.953125 51.171875 25.484375 53.578125 
Q 30.03125 56 36.53125 56 
Q 37.453125 56 38.578125 55.875 
Q 39.703125 55.765625 41.0625 55.515625 
z
" id="DejaVuSans-114"/>
      <path id="DejaVuSans-32"/>
      <path d="M 30.609375 48.390625 
Q 23.390625 48.390625 19.1875 42.75 
Q 14.984375 37.109375 14.984375 27.296875 
Q 14.984375 17.484375 19.15625 11.84375 
Q 23.34375 6.203125 30.609375 6.203125 
Q 37.796875 6.203125 41.984375 11.859375 
Q 46.1875 17.53125 46.1875 27.296875 
Q 46.1875 37.015625 41.984375 42.703125 
Q 37.796875 48.390625 30.609375 48.390625 
z
M 30.609375 56 
Q 42.328125 56 49.015625 48.375 
Q 55.71875 40.765625 55.71875 27.296875 
Q 55.71875 13.875 49.015625 6.21875 
Q 42.328125 -1.421875 30.609375 -1.421875 
Q 18.84375 -1.421875 12.171875 6.21875 
Q 5.515625 13.875 5.515625 27.296875 
Q 5.515625 40.765625 12.171875 48.375 
Q 18.84375 56 30.609375 56 
z
" id="DejaVuSans-111"/>
      <path d="M 37.109375 75.984375 
L 37.109375 68.5 
L 28.515625 68.5 
Q 23.6875 68.5 21.796875 66.546875 
Q 19.921875 64.59375 19.921875 59.515625 
L 19.921875 54.6875 
L 34.71875 54.6875 
L 34.71875 47.703125 
L 19.921875 47.703125 
L 19.921875 0 
L 10.890625 0 
L 10.890625 47.703125 
L 2.296875 47.703125 
L 2.296875 54.6875 
L 10.890625 54.6875 
L 10.890625 58.5 
Q 10.890625 67.625 15.140625 71.796875 
Q 19.390625 75.984375 28.609375 75.984375 
z
" id="DejaVuSans-102"/>
      <path d="M 54.890625 33.015625 
L 54.890625 0 
L 45.90625 0 
L 45.90625 32.71875 
Q 45.90625 40.484375 42.875 44.328125 
Q 39.84375 48.1875 33.796875 48.1875 
Q 26.515625 48.1875 22.3125 43.546875 
Q 18.109375 38.921875 18.109375 30.90625 
L 18.109375 0 
L 9.078125 0 
L 9.078125 54.6875 
L 18.109375 54.6875 
L 18.109375 46.1875 
Q 21.34375 51.125 25.703125 53.5625 
Q 30.078125 56 35.796875 56 
Q 45.21875 56 50.046875 50.171875 
Q 54.890625 44.34375 54.890625 33.015625 
z
" id="DejaVuSans-110"/>
      <path d="M 44.28125 53.078125 
L 44.28125 44.578125 
Q 40.484375 46.53125 36.375 47.5 
Q 32.28125 48.484375 27.875 48.484375 
Q 21.1875 48.484375 17.84375 46.4375 
Q 14.5 44.390625 14.5 40.28125 
Q 14.5 37.15625 16.890625 35.375 
Q 19.28125 33.59375 26.515625 31.984375 
L 29.59375 31.296875 
Q 39.15625 29.25 43.1875 25.515625 
Q 47.21875 21.78125 47.21875 15.09375 
Q 47.21875 7.46875 41.1875 3.015625 
Q 35.15625 -1.421875 24.609375 -1.421875 
Q 20.21875 -1.421875 15.453125 -0.5625 
Q 10.6875 0.296875 5.421875 2 
L 5.421875 11.28125 
Q 10.40625 8.6875 15.234375 7.390625 
Q 20.0625 6.109375 24.8125 6.109375 
Q 31.15625 6.109375 34.5625 8.28125 
Q 37.984375 10.453125 37.984375 14.40625 
Q 37.984375 18.0625 35.515625 20.015625 
Q 33.0625 21.96875 24.703125 23.78125 
L 21.578125 24.515625 
Q 13.234375 26.265625 9.515625 29.90625 
Q 5.8125 33.546875 5.8125 39.890625 
Q 5.8125 47.609375 11.28125 51.796875 
Q 16.75 56 26.8125 56 
Q 31.78125 56 36.171875 55.265625 
Q 40.578125 54.546875 44.28125 53.078125 
z
" id="DejaVuSans-115"/>
      <path d="M 16.890625 72.90625 
L 30.171875 72.90625 
L 50.296875 10.40625 
L 62.5 72.90625 
L 72.125 72.90625 
L 57.90625 0 
L 44.578125 0 
L 24.515625 62.890625 
L 12.3125 0 
L 2.6875 0 
z
" id="DejaVuSans-Oblique-78"/>
     </defs>
     <g transform="translate(77.878654 147.651875)scale(0.12 -0.12)">
      <use transform="translate(0 0.015625)" xlink:href="#DejaVuSans-78"/>
      <use transform="translate(74.804688 0.015625)" xlink:href="#DejaVuSans-117"/>
      <use transform="translate(138.183594 0.015625)" xlink:href="#DejaVuSans-109"/>
      <use transform="translate(235.595703 0.015625)" xlink:href="#DejaVuSans-98"/>
      <use transform="translate(299.072266 0.015625)" xlink:href="#DejaVuSans-101"/>
      <use transform="translate(360.595703 0.015625)" xlink:href="#DejaVuSans-114"/>
      <use transform="translate(401.708984 0.015625)" xlink:href="#DejaVuSans-32"/>
      <use transform="translate(433.496094 0.015625)" xlink:href="#DejaVuSans-111"/>
      <use transform="translate(494.677734 0.015625)" xlink:href="#DejaVuSans-102"/>
      <use transform="translate(529.882812 0.015625)" xlink:href="#DejaVuSans-32"/>
      <use transform="translate(561.669922 0.015625)" xlink:href="#DejaVuSans-110"/>
      <use transform="translate(625.048828 0.015625)" xlink:href="#DejaVuSans-101"/>
      <use transform="translate(686.572266 0.015625)" xlink:href="#DejaVuSans-117"/>
      <use transform="translate(749.951172 0.015625)" xlink:href="#DejaVuSans-114"/>
      <use transform="translate(791.064453 0.015625)" xlink:href="#DejaVuSans-111"/>
      <use transform="translate(852.246094 0.015625)" xlink:href="#DejaVuSans-110"/>
      <use transform="translate(915.625 0.015625)" xlink:href="#DejaVuSans-115"/>
      <use transform="translate(967.724609 0.015625)" xlink:href="#DejaVuSans-32"/>
      <use transform="translate(999.511719 0.015625)" xlink:href="#DejaVuSans-Oblique-78"/>
     </g>
    </g>
   </g>
   <g id="matplotlib.axis_2">
    <g id="ytick_1">
     <g id="line2d_5">
      <defs>
       <path d="M 0 0 
L -3.5 0 
" id="m1b25e58896" style="stroke:#000000;stroke-width:0.8;"/>
      </defs>
      <g>
       <use style="stroke:#000000;stroke-width:0.8;" x="56.5325" xlink:href="#m1b25e58896" y="108.81995"/>
      </g>
     </g>
     <g id="text_6">
      <!-- 0.00 -->
      <defs>
       <path d="M 10.6875 12.40625 
L 21 12.40625 
L 21 0 
L 10.6875 0 
z
" id="DejaVuSans-46"/>
      </defs>
      <g transform="translate(22.81375 113.379012)scale(0.12 -0.12)">
       <use xlink:href="#DejaVuSans-48"/>
       <use x="63.623047" xlink:href="#DejaVuSans-46"/>
       <use x="95.410156" xlink:href="#DejaVuSans-48"/>
       <use x="159.033203" xlink:href="#DejaVuSans-48"/>
      </g>
     </g>
    </g>
    <g id="ytick_2">
     <g id="line2d_6">
      <g>
       <use style="stroke:#000000;stroke-width:0.8;" x="56.5325" xlink:href="#m1b25e58896" y="63.430489"/>
      </g>
     </g>
     <g id="text_7">
      <!-- 0.05 -->
      <g transform="translate(22.81375 67.989552)scale(0.12 -0.12)">
       <use xlink:href="#DejaVuSans-48"/>
       <use x="63.623047" xlink:href="#DejaVuSans-46"/>
       <use x="95.410156" xlink:href="#DejaVuSans-48"/>
       <use x="159.033203" xlink:href="#DejaVuSans-53"/>
      </g>
     </g>
    </g>
    <g id="ytick_3">
     <g id="line2d_7">
      <g>
       <use style="stroke:#000000;stroke-width:0.8;" x="56.5325" xlink:href="#m1b25e58896" y="18.041028"/>
      </g>
     </g>
     <g id="text_8">
      <!-- 0.10 -->
      <g transform="translate(22.81375 22.600091)scale(0.12 -0.12)">
       <use xlink:href="#DejaVuSans-48"/>
       <use x="63.623047" xlink:href="#DejaVuSans-46"/>
       <use x="95.410156" xlink:href="#DejaVuSans-49"/>
       <use x="159.033203" xlink:href="#DejaVuSans-48"/>
      </g>
     </g>
    </g>
    <g id="text_9">
     <!-- Cross entropy $H$ -->
     <defs>
      <path d="M 64.40625 67.28125 
L 64.40625 56.890625 
Q 59.421875 61.53125 53.78125 63.8125 
Q 48.140625 66.109375 41.796875 66.109375 
Q 29.296875 66.109375 22.65625 58.46875 
Q 16.015625 50.828125 16.015625 36.375 
Q 16.015625 21.96875 22.65625 14.328125 
Q 29.296875 6.6875 41.796875 6.6875 
Q 48.140625 6.6875 53.78125 8.984375 
Q 59.421875 11.28125 64.40625 15.921875 
L 64.40625 5.609375 
Q 59.234375 2.09375 53.4375 0.328125 
Q 47.65625 -1.421875 41.21875 -1.421875 
Q 24.65625 -1.421875 15.125 8.703125 
Q 5.609375 18.84375 5.609375 36.375 
Q 5.609375 53.953125 15.125 64.078125 
Q 24.65625 74.21875 41.21875 74.21875 
Q 47.75 74.21875 53.53125 72.484375 
Q 59.328125 70.75 64.40625 67.28125 
z
" id="DejaVuSans-67"/>
      <path d="M 18.3125 70.21875 
L 18.3125 54.6875 
L 36.8125 54.6875 
L 36.8125 47.703125 
L 18.3125 47.703125 
L 18.3125 18.015625 
Q 18.3125 11.328125 20.140625 9.421875 
Q 21.96875 7.515625 27.59375 7.515625 
L 36.8125 7.515625 
L 36.8125 0 
L 27.59375 0 
Q 17.1875 0 13.234375 3.875 
Q 9.28125 7.765625 9.28125 18.015625 
L 9.28125 47.703125 
L 2.6875 47.703125 
L 2.6875 54.6875 
L 9.28125 54.6875 
L 9.28125 70.21875 
z
" id="DejaVuSans-116"/>
      <path d="M 18.109375 8.203125 
L 18.109375 -20.796875 
L 9.078125 -20.796875 
L 9.078125 54.6875 
L 18.109375 54.6875 
L 18.109375 46.390625 
Q 20.953125 51.265625 25.265625 53.625 
Q 29.59375 56 35.59375 56 
Q 45.5625 56 51.78125 48.09375 
Q 58.015625 40.1875 58.015625 27.296875 
Q 58.015625 14.40625 51.78125 6.484375 
Q 45.5625 -1.421875 35.59375 -1.421875 
Q 29.59375 -1.421875 25.265625 0.953125 
Q 20.953125 3.328125 18.109375 8.203125 
z
M 48.6875 27.296875 
Q 48.6875 37.203125 44.609375 42.84375 
Q 40.53125 48.484375 33.40625 48.484375 
Q 26.265625 48.484375 22.1875 42.84375 
Q 18.109375 37.203125 18.109375 27.296875 
Q 18.109375 17.390625 22.1875 11.75 
Q 26.265625 6.109375 33.40625 6.109375 
Q 40.53125 6.109375 44.609375 11.75 
Q 48.6875 17.390625 48.6875 27.296875 
z
" id="DejaVuSans-112"/>
      <path d="M 32.171875 -5.078125 
Q 28.375 -14.84375 24.75 -17.8125 
Q 21.140625 -20.796875 15.09375 -20.796875 
L 7.90625 -20.796875 
L 7.90625 -13.28125 
L 13.1875 -13.28125 
Q 16.890625 -13.28125 18.9375 -11.515625 
Q 21 -9.765625 23.484375 -3.21875 
L 25.09375 0.875 
L 2.984375 54.6875 
L 12.5 54.6875 
L 29.59375 11.921875 
L 46.6875 54.6875 
L 56.203125 54.6875 
z
" id="DejaVuSans-121"/>
      <path d="M 16.890625 72.90625 
L 26.8125 72.90625 
L 21 43.015625 
L 56.78125 43.015625 
L 62.59375 72.90625 
L 72.515625 72.90625 
L 58.296875 0 
L 48.390625 0 
L 55.171875 34.71875 
L 19.390625 34.71875 
L 12.59375 0 
L 2.6875 0 
z
" id="DejaVuSans-Oblique-72"/>
     </defs>
     <g transform="translate(16.29375 109.86)rotate(-90)scale(0.12 -0.12)">
      <use transform="translate(0 0.78125)" xlink:href="#DejaVuSans-67"/>
      <use transform="translate(69.824219 0.78125)" xlink:href="#DejaVuSans-114"/>
      <use transform="translate(110.9375 0.78125)" xlink:href="#DejaVuSans-111"/>
      <use transform="translate(172.119141 0.78125)" xlink:href="#DejaVuSans-115"/>
      <use transform="translate(224.21875 0.78125)" xlink:href="#DejaVuSans-115"/>
      <use transform="translate(276.318359 0.78125)" xlink:href="#DejaVuSans-32"/>
      <use transform="translate(308.105469 0.78125)" xlink:href="#DejaVuSans-101"/>
      <use transform="translate(369.628906 0.78125)" xlink:href="#DejaVuSans-110"/>
      <use transform="translate(433.007812 0.78125)" xlink:href="#DejaVuSans-116"/>
      <use transform="translate(472.216797 0.78125)" xlink:href="#DejaVuSans-114"/>
      <use transform="translate(513.330078 0.78125)" xlink:href="#DejaVuSans-111"/>
      <use transform="translate(574.511719 0.78125)" xlink:href="#DejaVuSans-112"/>
      <use transform="translate(637.988281 0.78125)" xlink:href="#DejaVuSans-121"/>
      <use transform="translate(697.167969 0.78125)" xlink:href="#DejaVuSans-32"/>
      <use transform="translate(728.955078 0.78125)" xlink:href="#DejaVuSans-Oblique-72"/>
     </g>
    </g>
   </g>
   <g id="line2d_8">
    <path clip-path="url(#p59a9dfc555)" d="M 67.044274 94.609035 
L 67.044274 12.141818 
" style="fill:none;stroke:#000000;stroke-linecap:square;stroke-width:2.7;"/>
   </g>
   <g id="line2d_9">
    <path clip-path="url(#p59a9dfc555)" d="M 74.052123 74.456479 
L 74.052123 48.368878 
" style="fill:none;stroke:#000000;stroke-linecap:square;stroke-width:2.7;"/>
   </g>
   <g id="line2d_10">
    <path clip-path="url(#p59a9dfc555)" d="M 81.059973 79.016311 
L 81.059973 58.295862 
" style="fill:none;stroke:#000000;stroke-linecap:square;stroke-width:2.7;"/>
   </g>
   <g id="line2d_11">
    <path clip-path="url(#p59a9dfc555)" d="M 88.067822 87.835395 
L 88.067822 55.489082 
" style="fill:none;stroke:#000000;stroke-linecap:square;stroke-width:2.7;"/>
   </g>
   <g id="line2d_12">
    <path clip-path="url(#p59a9dfc555)" d="M 95.075671 81.045015 
L 95.075671 45.373969 
" style="fill:none;stroke:#000000;stroke-linecap:square;stroke-width:2.7;"/>
   </g>
   <g id="line2d_13">
    <path clip-path="url(#p59a9dfc555)" d="M 102.08352 84.17192 
L 102.08352 52.962877 
" style="fill:none;stroke:#000000;stroke-linecap:square;stroke-width:2.7;"/>
   </g>
   <g id="line2d_14">
    <path clip-path="url(#p59a9dfc555)" d="M 109.09137 79.890791 
L 109.09137 56.80987 
" style="fill:none;stroke:#000000;stroke-linecap:square;stroke-width:2.7;"/>
   </g>
   <g id="line2d_15">
    <path clip-path="url(#p59a9dfc555)" d="M 116.099219 76.012937 
L 116.099219 67.806542 
" style="fill:none;stroke:#000000;stroke-linecap:square;stroke-width:2.7;"/>
   </g>
   <g id="line2d_16">
    <path clip-path="url(#p59a9dfc555)" d="M 123.107068 83.676087 
L 123.107068 72.334815 
" style="fill:none;stroke:#000000;stroke-linecap:square;stroke-width:2.7;"/>
   </g>
   <g id="line2d_17">
    <path clip-path="url(#p59a9dfc555)" d="M 130.114918 83.461466 
L 130.114918 76.800959 
" style="fill:none;stroke:#000000;stroke-linecap:square;stroke-width:2.7;"/>
   </g>
   <g id="line2d_18">
    <path clip-path="url(#p59a9dfc555)" d="M 137.122767 83.855984 
L 137.122767 63.771815 
" style="fill:none;stroke:#000000;stroke-linecap:square;stroke-width:2.7;"/>
   </g>
   <g id="line2d_19">
    <path clip-path="url(#p59a9dfc555)" d="M 144.130616 85.693468 
L 144.130616 56.675668 
" style="fill:none;stroke:#000000;stroke-linecap:square;stroke-width:2.7;"/>
   </g>
   <g id="line2d_20">
    <path clip-path="url(#p59a9dfc555)" d="M 151.138465 87.277323 
L 151.138465 78.87097 
" style="fill:none;stroke:#000000;stroke-linecap:square;stroke-width:2.7;"/>
   </g>
   <g id="line2d_21">
    <path clip-path="url(#p59a9dfc555)" d="M 158.146315 88.665506 
L 158.146315 83.249221 
" style="fill:none;stroke:#000000;stroke-linecap:square;stroke-width:2.7;"/>
   </g>
   <g id="line2d_22">
    <path clip-path="url(#p59a9dfc555)" d="M 165.154164 87.629086 
L 165.154164 78.774875 
" style="fill:none;stroke:#000000;stroke-linecap:square;stroke-width:2.7;"/>
   </g>
   <g id="line2d_23">
    <path clip-path="url(#p59a9dfc555)" d="M 172.162013 105.575964 
L 172.162013 87.573963 
" style="fill:none;stroke:#000000;stroke-linecap:square;stroke-width:2.7;"/>
   </g>
   <g id="line2d_24">
    <path clip-path="url(#p59a9dfc555)" d="M 179.169863 105.52739 
L 179.169863 89.724161 
" style="fill:none;stroke:#000000;stroke-linecap:square;stroke-width:2.7;"/>
   </g>
   <g id="line2d_25">
    <path clip-path="url(#p59a9dfc555)" d="M 186.177712 108.421393 
L 186.177712 94.095296 
" style="fill:none;stroke:#000000;stroke-linecap:square;stroke-width:2.7;"/>
   </g>
   <g id="line2d_26">
    <path clip-path="url(#p59a9dfc555)" d="M 193.185561 107.714518 
L 193.185561 106.142928 
" style="fill:none;stroke:#000000;stroke-linecap:square;stroke-width:2.7;"/>
   </g>
   <g id="line2d_27">
    <path clip-path="url(#p59a9dfc555)" d="M 200.193411 108.093824 
L 200.193411 107.269722 
" style="fill:none;stroke:#000000;stroke-linecap:square;stroke-width:2.7;"/>
   </g>
   <g id="line2d_28">
    <path clip-path="url(#p59a9dfc555)" d="M 207.20126 107.819408 
L 207.20126 106.901491 
" style="fill:none;stroke:#000000;stroke-linecap:square;stroke-width:2.7;"/>
   </g>
   <g id="line2d_29">
    <path clip-path="url(#p59a9dfc555)" d="M 214.209109 107.888763 
L 214.209109 106.76328 
" style="fill:none;stroke:#000000;stroke-linecap:square;stroke-width:2.7;"/>
   </g>
   <g id="patch_3">
    <path d="M 56.5325 115.92 
L 56.5325 7.2 
" style="fill:none;stroke:#000000;stroke-linecap:square;stroke-linejoin:miter;stroke-width:0.8;"/>
   </g>
   <g id="patch_4">
    <path d="M 56.5325 115.92 
L 228.224808 115.92 
" style="fill:none;stroke:#000000;stroke-linecap:square;stroke-linejoin:miter;stroke-width:0.8;"/>
   </g>
  </g>
  <g id="axes_2">
   <g id="patch_5">
    <path d="M 305.486346 115.92 
L 477.178654 115.92 
L 477.178654 7.2 
L 305.486346 7.2 
z
" style="fill:#ffffff;"/>
   </g>
   <g id="PolyCollection_1">
    <defs>
     <path d="M 313.290542 -145.205682 
L 313.290542 -145.205682 
L 314.867147 -48.84368 
L 316.443752 -51.153797 
L 318.020358 -49.876863 
L 319.596963 -49.347747 
L 321.173568 -49.308652 
L 322.750173 -49.089018 
L 324.326778 -49.942129 
L 325.903384 -49.775787 
L 327.479989 -49.705318 
L 329.056594 -48.68056 
L 330.633199 -48.271483 
L 332.209805 -47.717673 
L 333.78641 -47.008982 
L 335.363015 -47.271403 
L 336.93962 -47.526004 
L 338.516225 -47.59837 
L 340.092831 -47.554697 
L 341.669436 -47.499229 
L 343.246041 -47.604059 
L 344.822646 -47.511628 
L 346.399251 -47.528107 
L 347.975857 -47.460245 
L 349.552462 -47.422952 
L 351.129067 -47.363341 
L 352.705672 -47.301477 
L 354.282277 -47.281507 
L 355.858883 -47.29945 
L 357.435488 -47.246503 
L 359.012093 -47.229468 
L 360.588698 -47.248514 
L 362.165304 -47.156573 
L 363.741909 -47.178286 
L 365.318514 -47.146544 
L 366.895119 -47.176054 
L 368.471724 -47.13792 
L 370.04833 -47.169683 
L 371.624935 -47.140912 
L 373.20154 -47.092117 
L 374.778145 -47.076123 
L 376.35475 -47.081895 
L 377.931356 -47.118035 
L 379.507961 -47.055252 
L 381.084566 -47.072215 
L 382.661171 -47.070259 
L 384.237777 -47.009107 
L 385.814382 -47.01655 
L 387.390987 -47.035825 
L 388.967592 -47.026228 
L 390.544197 -47.009067 
L 392.120803 -47.033497 
L 393.697408 -47.003311 
L 395.274013 -46.998255 
L 396.850618 -47.031076 
L 398.427223 -46.992896 
L 400.003829 -46.985431 
L 401.580434 -46.999749 
L 403.157039 -46.982176 
L 404.733644 -46.974265 
L 406.31025 -46.993961 
L 407.886855 -46.997657 
L 409.46346 -47.015363 
L 411.040065 -46.966039 
L 412.61667 -46.967178 
L 414.193276 -46.959753 
L 415.769881 -46.965097 
L 417.346486 -46.925191 
L 418.923091 -46.927312 
L 420.499696 -46.963178 
L 422.076302 -46.967003 
L 423.652907 -46.97146 
L 425.229512 -46.982623 
L 426.806117 -46.959003 
L 428.382723 -46.951411 
L 429.959328 -46.924886 
L 431.535933 -46.939256 
L 433.112538 -46.947074 
L 434.689143 -46.952384 
L 436.265749 -46.964283 
L 437.842354 -46.946455 
L 439.418959 -46.965852 
L 440.995564 -46.956794 
L 442.572169 -46.942832 
L 444.148775 -46.945366 
L 445.72538 -46.953781 
L 447.301985 -46.948559 
L 448.87859 -46.937217 
L 450.455195 -46.944585 
L 452.031801 -46.928574 
L 453.608406 -46.924634 
L 455.185011 -46.940924 
L 456.761616 -46.94944 
L 458.338222 -46.941963 
L 459.914827 -46.935554 
L 461.491432 -46.929019 
L 463.068037 -46.940166 
L 464.644642 -46.955311 
L 466.221248 -46.922947 
L 467.797853 -46.926828 
L 469.374458 -46.930343 
L 469.374458 -47.371638 
L 469.374458 -47.371638 
L 467.797853 -47.447718 
L 466.221248 -47.384065 
L 464.644642 -47.376868 
L 463.068037 -47.419546 
L 461.491432 -47.379171 
L 459.914827 -47.403673 
L 458.338222 -47.434852 
L 456.761616 -47.349814 
L 455.185011 -47.381441 
L 453.608406 -47.397334 
L 452.031801 -47.398992 
L 450.455195 -47.399456 
L 448.87859 -47.424178 
L 447.301985 -47.431147 
L 445.72538 -47.39469 
L 444.148775 -47.444807 
L 442.572169 -47.406433 
L 440.995564 -47.409252 
L 439.418959 -47.451203 
L 437.842354 -47.430474 
L 436.265749 -47.44784 
L 434.689143 -47.444628 
L 433.112538 -47.487142 
L 431.535933 -47.462822 
L 429.959328 -47.525444 
L 428.382723 -47.491209 
L 426.806117 -47.46208 
L 425.229512 -47.474275 
L 423.652907 -47.486763 
L 422.076302 -47.483986 
L 420.499696 -47.5046 
L 418.923091 -47.545028 
L 417.346486 -47.59048 
L 415.769881 -47.528472 
L 414.193276 -47.603412 
L 412.61667 -47.551068 
L 411.040065 -47.578015 
L 409.46346 -47.540798 
L 407.886855 -47.573391 
L 406.31025 -47.605329 
L 404.733644 -47.649124 
L 403.157039 -47.626625 
L 401.580434 -47.612908 
L 400.003829 -47.646064 
L 398.427223 -47.673796 
L 396.850618 -47.65154 
L 395.274013 -47.681483 
L 393.697408 -47.69721 
L 392.120803 -47.651955 
L 390.544197 -47.774588 
L 388.967592 -47.74466 
L 387.390987 -47.768652 
L 385.814382 -47.819136 
L 384.237777 -47.855885 
L 382.661171 -47.780592 
L 381.084566 -47.852588 
L 379.507961 -47.838566 
L 377.931356 -47.87805 
L 376.35475 -47.977734 
L 374.778145 -47.934829 
L 373.20154 -48.00324 
L 371.624935 -48.002126 
L 370.04833 -48.018378 
L 368.471724 -48.125963 
L 366.895119 -48.1374 
L 365.318514 -48.224354 
L 363.741909 -48.258378 
L 362.165304 -48.363249 
L 360.588698 -48.403759 
L 359.012093 -48.48514 
L 357.435488 -48.577535 
L 355.858883 -48.780394 
L 354.282277 -48.746712 
L 352.705672 -48.896707 
L 351.129067 -49.049493 
L 349.552462 -49.200129 
L 347.975857 -49.331051 
L 346.399251 -49.507411 
L 344.822646 -49.905683 
L 343.246041 -49.937361 
L 341.669436 -50.569606 
L 340.092831 -50.753105 
L 338.516225 -51.074299 
L 336.93962 -51.777569 
L 335.363015 -52.605595 
L 333.78641 -53.60847 
L 332.209805 -53.137061 
L 330.633199 -53.223018 
L 329.056594 -53.546273 
L 327.479989 -52.952384 
L 325.903384 -54.209922 
L 324.326778 -55.136105 
L 322.750173 -56.062988 
L 321.173568 -54.824518 
L 319.596963 -54.153612 
L 318.020358 -53.648872 
L 316.443752 -55.630207 
L 314.867147 -77.816133 
L 313.290542 -145.205682 
z
" id="m85eec60c15" style="stroke:#949494;stroke-opacity:0.2;"/>
    </defs>
    <g clip-path="url(#pd228c1da75)">
     <use style="fill:#949494;fill-opacity:0.2;stroke:#949494;stroke-opacity:0.2;" x="0" xlink:href="#m85eec60c15" y="157.3475"/>
    </g>
   </g>
   <g id="PolyCollection_2">
    <defs>
     <path d="M 313.290542 -145.205682 
L 313.290542 -145.205682 
L 314.867147 -107.290187 
L 316.443752 -100.261233 
L 318.020358 -89.265795 
L 319.596963 -76.49335 
L 321.173568 -65.549166 
L 322.750173 -55.42955 
L 324.326778 -49.436464 
L 325.903384 -47.129549 
L 327.479989 -47.119098 
L 329.056594 -46.867257 
L 330.633199 -46.769466 
L 332.209805 -46.71754 
L 333.78641 -46.845704 
L 335.363015 -47.370735 
L 336.93962 -47.431233 
L 338.516225 -47.386729 
L 340.092831 -47.322866 
L 341.669436 -47.334913 
L 343.246041 -47.310868 
L 344.822646 -46.897802 
L 346.399251 -47.287125 
L 347.975857 -47.266142 
L 349.552462 -47.058757 
L 351.129067 -47.251414 
L 352.705672 -47.244248 
L 354.282277 -47.216906 
L 355.858883 -47.219287 
L 357.435488 -47.208237 
L 359.012093 -47.171929 
L 360.588698 -47.164196 
L 362.165304 -47.144807 
L 363.741909 -47.128856 
L 365.318514 -46.837608 
L 366.895119 -47.115281 
L 368.471724 -47.086639 
L 370.04833 -47.084469 
L 371.624935 -47.079629 
L 373.20154 -47.071039 
L 374.778145 -46.369318 
L 376.35475 -47.058266 
L 377.931356 -47.047835 
L 379.507961 -47.041257 
L 381.084566 -47.02854 
L 382.661171 -47.023538 
L 384.237777 -47.020788 
L 385.814382 -47.014699 
L 387.390987 -47.00988 
L 388.967592 -47.005311 
L 390.544197 -46.9995 
L 392.120803 -46.993281 
L 393.697408 -46.990706 
L 395.274013 -46.995568 
L 396.850618 -46.985844 
L 398.427223 -46.948896 
L 400.003829 -46.673596 
L 401.580434 -46.976899 
L 403.157039 -46.970672 
L 404.733644 -46.87565 
L 406.31025 -46.96554 
L 407.886855 -46.894798 
L 409.46346 -46.954544 
L 411.040065 -46.958507 
L 412.61667 -46.596106 
L 414.193276 -46.954135 
L 415.769881 -46.938853 
L 417.346486 -46.948656 
L 418.923091 -46.947296 
L 420.499696 -46.944079 
L 422.076302 -46.942516 
L 423.652907 -46.944876 
L 425.229512 -46.940764 
L 426.806117 -46.940717 
L 428.382723 -46.941641 
L 429.959328 -46.937298 
L 431.535933 -46.906758 
L 433.112538 -46.936809 
L 434.689143 -46.940555 
L 436.265749 -46.933695 
L 437.842354 -46.931328 
L 439.418959 -46.9328 
L 440.995564 -46.929523 
L 442.572169 -46.927425 
L 444.148775 -46.926213 
L 445.72538 -46.928056 
L 447.301985 -46.924879 
L 448.87859 -46.924507 
L 450.455195 -46.923267 
L 452.031801 -46.925737 
L 453.608406 -46.925824 
L 455.185011 -46.921572 
L 456.761616 -46.917837 
L 458.338222 -46.913842 
L 459.914827 -46.916015 
L 461.491432 -46.91689 
L 463.068037 -46.564462 
L 464.644642 -46.913614 
L 466.221248 -46.914942 
L 467.797853 -46.910274 
L 469.374458 -46.910707 
L 469.374458 -47.01371 
L 469.374458 -47.01371 
L 467.797853 -47.012976 
L 466.221248 -47.021032 
L 464.644642 -47.020076 
L 463.068037 -47.646677 
L 461.491432 -47.026604 
L 459.914827 -47.026277 
L 458.338222 -47.020889 
L 456.761616 -47.024244 
L 455.185011 -47.022641 
L 453.608406 -47.026755 
L 452.031801 -47.035358 
L 450.455195 -47.030268 
L 448.87859 -47.033383 
L 447.301985 -47.030534 
L 445.72538 -47.037738 
L 444.148775 -47.035918 
L 442.572169 -47.039399 
L 440.995564 -47.045775 
L 439.418959 -47.042306 
L 437.842354 -47.041646 
L 436.265749 -47.044755 
L 434.689143 -47.056743 
L 433.112538 -47.050914 
L 431.535933 -47.122994 
L 429.959328 -47.058073 
L 428.382723 -47.060398 
L 426.806117 -47.075329 
L 425.229512 -47.064093 
L 423.652907 -47.061514 
L 422.076302 -47.066526 
L 420.499696 -47.077269 
L 418.923091 -47.07337 
L 417.346486 -47.08026 
L 415.769881 -47.135482 
L 414.193276 -47.111301 
L 412.61667 -47.703786 
L 411.040065 -47.087303 
L 409.46346 -47.10166 
L 407.886855 -47.248648 
L 406.31025 -47.109181 
L 404.733644 -47.319528 
L 403.157039 -47.122505 
L 401.580434 -47.126421 
L 400.003829 -47.683485 
L 398.427223 -47.232895 
L 396.850618 -47.136228 
L 395.274013 -47.157843 
L 393.697408 -47.151046 
L 392.120803 -47.160675 
L 390.544197 -47.179854 
L 388.967592 -47.181119 
L 387.390987 -47.195806 
L 385.814382 -47.2093 
L 384.237777 -47.21432 
L 382.661171 -47.23378 
L 381.084566 -47.253786 
L 379.507961 -47.262647 
L 377.931356 -47.303247 
L 376.35475 -47.299338 
L 374.778145 -48.501158 
L 373.20154 -47.336549 
L 371.624935 -47.349682 
L 370.04833 -47.386527 
L 368.471724 -47.422788 
L 366.895119 -47.462913 
L 365.318514 -48.023783 
L 363.741909 -47.507891 
L 362.165304 -47.54441 
L 360.588698 -47.595593 
L 359.012093 -47.663001 
L 357.435488 -47.719518 
L 355.858883 -47.774931 
L 354.282277 -47.843096 
L 352.705672 -47.912116 
L 351.129067 -48.033694 
L 349.552462 -48.699974 
L 347.975857 -48.319568 
L 346.399251 -48.465398 
L 344.822646 -49.707444 
L 343.246041 -48.919757 
L 341.669436 -49.17006 
L 340.092831 -49.475265 
L 338.516225 -50.165594 
L 336.93962 -50.217938 
L 335.363015 -51.067355 
L 333.78641 -52.686117 
L 332.209805 -54.227509 
L 330.633199 -55.662024 
L 329.056594 -58.521076 
L 327.479989 -62.388952 
L 325.903384 -68.330097 
L 324.326778 -74.314826 
L 322.750173 -84.01654 
L 321.173568 -96.117068 
L 319.596963 -105.36119 
L 318.020358 -110.596437 
L 316.443752 -114.303959 
L 314.867147 -122.084078 
L 313.290542 -145.205682 
z
" id="m6bf8547e51" style="stroke:#029e73;stroke-opacity:0.2;"/>
    </defs>
    <g clip-path="url(#pd228c1da75)">
     <use style="fill:#029e73;fill-opacity:0.2;stroke:#029e73;stroke-opacity:0.2;" x="0" xlink:href="#m6bf8547e51" y="157.3475"/>
    </g>
   </g>
   <g id="PolyCollection_3">
    <defs>
     <path d="M 313.290542 -145.205682 
L 313.290542 -145.205682 
L 314.867147 -123.439923 
L 316.443752 -117.171685 
L 318.020358 -111.18441 
L 319.596963 -102.747334 
L 321.173568 -96.046917 
L 322.750173 -89.004705 
L 324.326778 -81.815643 
L 325.903384 -75.490997 
L 327.479989 -71.550366 
L 329.056594 -69.393108 
L 330.633199 -67.450036 
L 332.209805 -66.330736 
L 333.78641 -65.708174 
L 335.363015 -65.272921 
L 336.93962 -64.758346 
L 338.516225 -64.168028 
L 340.092831 -63.687179 
L 341.669436 -63.314225 
L 343.246041 -62.863529 
L 344.822646 -62.440185 
L 346.399251 -62.3194 
L 347.975857 -62.145754 
L 349.552462 -61.719599 
L 351.129067 -61.7755 
L 352.705672 -61.553281 
L 354.282277 -61.431929 
L 355.858883 -61.296428 
L 357.435488 -61.206226 
L 359.012093 -61.139708 
L 360.588698 -61.03505 
L 362.165304 -60.982489 
L 363.741909 -60.801055 
L 365.318514 -60.635103 
L 366.895119 -60.672449 
L 368.471724 -60.627493 
L 370.04833 -60.53586 
L 371.624935 -60.518579 
L 373.20154 -60.562185 
L 374.778145 -60.307698 
L 376.35475 -60.356219 
L 377.931356 -60.315839 
L 379.507961 -60.246886 
L 381.084566 -60.25323 
L 382.661171 -60.245377 
L 384.237777 -60.183097 
L 385.814382 -60.197285 
L 387.390987 -60.086334 
L 388.967592 -60.107278 
L 390.544197 -60.135086 
L 392.120803 -60.005541 
L 393.697408 -60.064834 
L 395.274013 -60.011845 
L 396.850618 -60.011439 
L 398.427223 -59.93616 
L 400.003829 -59.919174 
L 401.580434 -59.928286 
L 403.157039 -59.898226 
L 404.733644 -60.042369 
L 406.31025 -59.936476 
L 407.886855 -59.872016 
L 409.46346 -59.806342 
L 411.040065 -59.850067 
L 412.61667 -59.716339 
L 414.193276 -59.763338 
L 415.769881 -59.804887 
L 417.346486 -59.778356 
L 418.923091 -59.81822 
L 420.499696 -59.823188 
L 422.076302 -59.786989 
L 423.652907 -59.762476 
L 425.229512 -59.754082 
L 426.806117 -59.739553 
L 428.382723 -59.794029 
L 429.959328 -59.73468 
L 431.535933 -59.737636 
L 433.112538 -59.700762 
L 434.689143 -59.684183 
L 436.265749 -59.705802 
L 437.842354 -59.669057 
L 439.418959 -59.700313 
L 440.995564 -59.608198 
L 442.572169 -59.660282 
L 444.148775 -59.627021 
L 445.72538 -59.717273 
L 447.301985 -59.665703 
L 448.87859 -59.711532 
L 450.455195 -59.661917 
L 452.031801 -59.61058 
L 453.608406 -59.690209 
L 455.185011 -59.633784 
L 456.761616 -59.571917 
L 458.338222 -59.558468 
L 459.914827 -59.626596 
L 461.491432 -59.647159 
L 463.068037 -59.614884 
L 464.644642 -59.649892 
L 466.221248 -59.664248 
L 467.797853 -59.468661 
L 469.374458 -59.561863 
L 469.374458 -62.021399 
L 469.374458 -62.021399 
L 467.797853 -61.958914 
L 466.221248 -61.958764 
L 464.644642 -61.963763 
L 463.068037 -62.038767 
L 461.491432 -61.949223 
L 459.914827 -62.00178 
L 458.338222 -62.039584 
L 456.761616 -62.050143 
L 455.185011 -62.021855 
L 453.608406 -61.948683 
L 452.031801 -62.031438 
L 450.455195 -62.044595 
L 448.87859 -61.997283 
L 447.301985 -62.0662 
L 445.72538 -62.048998 
L 444.148775 -61.999989 
L 442.572169 -62.011843 
L 440.995564 -62.00597 
L 439.418959 -62.059833 
L 437.842354 -61.980005 
L 436.265749 -62.05987 
L 434.689143 -61.964497 
L 433.112538 -62.086382 
L 431.535933 -62.236456 
L 429.959328 -61.985679 
L 428.382723 -62.067515 
L 426.806117 -62.057937 
L 425.229512 -61.997298 
L 423.652907 -62.151127 
L 422.076302 -62.085318 
L 420.499696 -62.02576 
L 418.923091 -62.078749 
L 417.346486 -62.007266 
L 415.769881 -62.152781 
L 414.193276 -62.171194 
L 412.61667 -62.414374 
L 411.040065 -62.121076 
L 409.46346 -62.157051 
L 407.886855 -62.122047 
L 406.31025 -62.157497 
L 404.733644 -62.294146 
L 403.157039 -62.18585 
L 401.580434 -62.171808 
L 400.003829 -62.318889 
L 398.427223 -62.308915 
L 396.850618 -62.216579 
L 395.274013 -62.273034 
L 393.697408 -62.206202 
L 392.120803 -62.262482 
L 390.544197 -62.216869 
L 388.967592 -62.31092 
L 387.390987 -62.331202 
L 385.814382 -62.341439 
L 384.237777 -62.322026 
L 382.661171 -62.367752 
L 381.084566 -62.391214 
L 379.507961 -62.480614 
L 377.931356 -62.545298 
L 376.35475 -62.540797 
L 374.778145 -63.002109 
L 373.20154 -62.592665 
L 371.624935 -62.696949 
L 370.04833 -62.675495 
L 368.471724 -62.719074 
L 366.895119 -62.873475 
L 365.318514 -63.315727 
L 363.741909 -63.040627 
L 362.165304 -63.084848 
L 360.588698 -63.208098 
L 359.012093 -63.336314 
L 357.435488 -63.511726 
L 355.858883 -63.771656 
L 354.282277 -63.831657 
L 352.705672 -64.124868 
L 351.129067 -64.279832 
L 349.552462 -64.979154 
L 347.975857 -64.748583 
L 346.399251 -65.197688 
L 344.822646 -66.248243 
L 343.246041 -66.335741 
L 341.669436 -66.717741 
L 340.092831 -67.690526 
L 338.516225 -68.569079 
L 336.93962 -69.824526 
L 335.363015 -71.793181 
L 333.78641 -74.304759 
L 332.209805 -77.80298 
L 330.633199 -81.621168 
L 329.056594 -85.803033 
L 327.479989 -91.208698 
L 325.903384 -96.04576 
L 324.326778 -102.015483 
L 322.750173 -109.222129 
L 321.173568 -115.295617 
L 319.596963 -120.268954 
L 318.020358 -123.165411 
L 316.443752 -126.859124 
L 314.867147 -133.037038 
L 313.290542 -145.205682 
z
" id="mfd5984f62b" style="stroke:#de8f05;stroke-opacity:0.2;"/>
    </defs>
    <g clip-path="url(#pd228c1da75)">
     <use style="fill:#de8f05;fill-opacity:0.2;stroke:#de8f05;stroke-opacity:0.2;" x="0" xlink:href="#mfd5984f62b" y="157.3475"/>
    </g>
   </g>
   <g id="PolyCollection_4">
    <defs>
     <path d="M 313.290542 -145.205682 
L 313.290542 -145.205682 
L 314.867147 -124.437979 
L 316.443752 -118.566119 
L 318.020358 -111.435489 
L 319.596963 -101.928641 
L 321.173568 -91.701778 
L 322.750173 -83.346916 
L 324.326778 -75.57237 
L 325.903384 -68.835953 
L 327.479989 -63.423878 
L 329.056594 -59.656762 
L 330.633199 -56.910808 
L 332.209805 -54.499222 
L 333.78641 -52.249621 
L 335.363015 -51.038417 
L 336.93962 -50.042757 
L 338.516225 -49.44305 
L 340.092831 -49.067431 
L 341.669436 -48.867463 
L 343.246041 -48.803653 
L 344.822646 -48.699879 
L 346.399251 -48.542359 
L 347.975857 -48.583093 
L 349.552462 -48.401195 
L 351.129067 -48.378939 
L 352.705672 -48.207264 
L 354.282277 -48.118863 
L 355.858883 -48.040456 
L 357.435488 -47.981939 
L 359.012093 -47.932209 
L 360.588698 -47.869895 
L 362.165304 -47.828058 
L 363.741909 -47.817238 
L 365.318514 -47.716444 
L 366.895119 -47.688798 
L 368.471724 -47.691338 
L 370.04833 -47.629279 
L 371.624935 -47.646139 
L 373.20154 -47.592495 
L 374.778145 -47.519152 
L 376.35475 -47.525645 
L 377.931356 -47.492019 
L 379.507961 -47.484731 
L 381.084566 -47.457364 
L 382.661171 -47.456538 
L 384.237777 -47.438199 
L 385.814382 -47.436371 
L 387.390987 -47.388669 
L 388.967592 -47.412758 
L 390.544197 -47.419014 
L 392.120803 -47.369947 
L 393.697408 -47.415136 
L 395.274013 -47.336098 
L 396.850618 -47.340663 
L 398.427223 -47.242749 
L 400.003829 -47.33996 
L 401.580434 -47.309581 
L 403.157039 -47.301342 
L 404.733644 -47.310246 
L 406.31025 -47.297898 
L 407.886855 -47.28869 
L 409.46346 -47.269964 
L 411.040065 -47.273508 
L 412.61667 -47.268182 
L 414.193276 -47.264498 
L 415.769881 -47.262046 
L 417.346486 -47.246912 
L 418.923091 -47.260871 
L 420.499696 -47.25562 
L 422.076302 -47.219227 
L 423.652907 -47.233904 
L 425.229512 -47.218434 
L 426.806117 -47.206437 
L 428.382723 -47.227152 
L 429.959328 -47.155922 
L 431.535933 -47.212318 
L 433.112538 -47.209482 
L 434.689143 -47.190354 
L 436.265749 -47.215633 
L 437.842354 -47.195208 
L 439.418959 -47.07132 
L 440.995564 -47.182039 
L 442.572169 -47.055323 
L 444.148775 -47.195892 
L 445.72538 -47.209283 
L 447.301985 -47.177784 
L 448.87859 -47.204649 
L 450.455195 -47.184877 
L 452.031801 -47.13165 
L 453.608406 -47.181904 
L 455.185011 -47.127661 
L 456.761616 -47.18218 
L 458.338222 -47.191814 
L 459.914827 -47.151899 
L 461.491432 -47.094711 
L 463.068037 -47.044175 
L 464.644642 -47.183189 
L 466.221248 -47.148885 
L 467.797853 -47.156622 
L 469.374458 -47.15591 
L 469.374458 -47.396299 
L 469.374458 -47.396299 
L 467.797853 -47.475466 
L 466.221248 -47.566878 
L 464.644642 -47.428876 
L 463.068037 -47.666129 
L 461.491432 -47.552666 
L 459.914827 -47.42644 
L 458.338222 -47.4296 
L 456.761616 -47.446581 
L 455.185011 -47.651397 
L 453.608406 -47.529601 
L 452.031801 -47.615282 
L 450.455195 -47.472096 
L 448.87859 -47.488883 
L 447.301985 -47.480477 
L 445.72538 -47.477983 
L 444.148775 -47.464149 
L 442.572169 -47.820371 
L 440.995564 -47.483641 
L 439.418959 -47.790727 
L 437.842354 -47.478788 
L 436.265749 -47.569306 
L 434.689143 -47.473203 
L 433.112538 -47.46527 
L 431.535933 -47.535579 
L 429.959328 -47.644753 
L 428.382723 -47.537039 
L 426.806117 -47.52524 
L 425.229512 -47.524149 
L 423.652907 -47.641105 
L 422.076302 -47.618271 
L 420.499696 -47.58163 
L 418.923091 -47.558066 
L 417.346486 -47.561596 
L 415.769881 -47.58071 
L 414.193276 -47.566746 
L 412.61667 -47.69677 
L 411.040065 -47.621253 
L 409.46346 -47.580238 
L 407.886855 -47.772997 
L 406.31025 -47.605926 
L 404.733644 -47.718767 
L 403.157039 -47.677752 
L 401.580434 -47.674698 
L 400.003829 -47.7306 
L 398.427223 -47.915279 
L 396.850618 -47.707937 
L 395.274013 -47.725561 
L 393.697408 -47.818387 
L 392.120803 -47.767588 
L 390.544197 -47.831896 
L 388.967592 -47.865764 
L 387.390987 -47.849006 
L 385.814382 -47.838777 
L 384.237777 -47.892513 
L 382.661171 -47.964837 
L 381.084566 -48.011732 
L 379.507961 -48.034162 
L 377.931356 -48.024268 
L 376.35475 -48.136027 
L 374.778145 -48.428528 
L 373.20154 -48.244044 
L 371.624935 -48.281348 
L 370.04833 -48.327475 
L 368.471724 -48.358989 
L 366.895119 -48.547662 
L 365.318514 -48.592861 
L 363.741909 -48.612431 
L 362.165304 -48.711004 
L 360.588698 -48.845265 
L 359.012093 -49.033219 
L 357.435488 -49.14122 
L 355.858883 -49.380784 
L 354.282277 -49.599729 
L 352.705672 -49.970562 
L 351.129067 -50.056363 
L 349.552462 -50.451709 
L 347.975857 -50.766044 
L 346.399251 -51.693088 
L 344.822646 -52.752783 
L 343.246041 -54.091076 
L 341.669436 -55.350006 
L 340.092831 -57.469062 
L 338.516225 -59.803284 
L 336.93962 -62.36803 
L 335.363015 -65.271201 
L 333.78641 -68.209706 
L 332.209805 -71.693104 
L 330.633199 -75.659962 
L 329.056594 -80.395493 
L 327.479989 -85.91854 
L 325.903384 -91.292678 
L 324.326778 -97.453632 
L 322.750173 -105.187181 
L 321.173568 -112.853464 
L 319.596963 -119.062768 
L 318.020358 -123.40813 
L 316.443752 -127.342088 
L 314.867147 -132.815774 
L 313.290542 -145.205682 
z
" id="m7fe12c10a6" style="stroke:#0173b2;stroke-opacity:0.2;"/>
    </defs>
    <g clip-path="url(#pd228c1da75)">
     <use style="fill:#0173b2;fill-opacity:0.2;stroke:#0173b2;stroke-opacity:0.2;" x="0" xlink:href="#m7fe12c10a6" y="157.3475"/>
    </g>
   </g>
   <g id="matplotlib.axis_3">
    <g id="xtick_5">
     <g id="line2d_30">
      <g>
       <use style="stroke:#000000;stroke-width:0.8;" x="313.290542" xlink:href="#m7a9b876dcc" y="115.92"/>
      </g>
     </g>
     <g id="text_10">
      <!-- 0 -->
      <g transform="translate(309.473042 132.038125)scale(0.12 -0.12)">
       <use xlink:href="#DejaVuSans-48"/>
      </g>
     </g>
    </g>
    <g id="xtick_6">
     <g id="line2d_31">
      <g>
       <use style="stroke:#000000;stroke-width:0.8;" x="352.705672" xlink:href="#m7a9b876dcc" y="115.92"/>
      </g>
     </g>
     <g id="text_11">
      <!-- 5 -->
      <g transform="translate(348.888172 132.038125)scale(0.12 -0.12)">
       <use xlink:href="#DejaVuSans-53"/>
      </g>
     </g>
    </g>
    <g id="xtick_7">
     <g id="line2d_32">
      <g>
       <use style="stroke:#000000;stroke-width:0.8;" x="392.120803" xlink:href="#m7a9b876dcc" y="115.92"/>
      </g>
     </g>
     <g id="text_12">
      <!-- 10 -->
      <g transform="translate(384.485803 132.038125)scale(0.12 -0.12)">
       <use xlink:href="#DejaVuSans-49"/>
       <use x="63.623047" xlink:href="#DejaVuSans-48"/>
      </g>
     </g>
    </g>
    <g id="xtick_8">
     <g id="line2d_33">
      <g>
       <use style="stroke:#000000;stroke-width:0.8;" x="431.535933" xlink:href="#m7a9b876dcc" y="115.92"/>
      </g>
     </g>
     <g id="text_13">
      <!-- 15 -->
      <g transform="translate(423.900933 132.038125)scale(0.12 -0.12)">
       <use xlink:href="#DejaVuSans-49"/>
       <use x="63.623047" xlink:href="#DejaVuSans-53"/>
      </g>
     </g>
    </g>
    <g id="xtick_9">
     <g id="line2d_34">
      <g>
       <use style="stroke:#000000;stroke-width:0.8;" x="470.951063" xlink:href="#m7a9b876dcc" y="115.92"/>
      </g>
     </g>
     <g id="text_14">
      <!-- 20 -->
      <g transform="translate(463.316063 132.038125)scale(0.12 -0.12)">
       <use xlink:href="#DejaVuSans-50"/>
       <use x="63.623047" xlink:href="#DejaVuSans-48"/>
      </g>
     </g>
    </g>
    <g id="text_15">
     <!-- Epoch -->
     <defs>
      <path d="M 9.8125 72.90625 
L 55.90625 72.90625 
L 55.90625 64.59375 
L 19.671875 64.59375 
L 19.671875 43.015625 
L 54.390625 43.015625 
L 54.390625 34.71875 
L 19.671875 34.71875 
L 19.671875 8.296875 
L 56.78125 8.296875 
L 56.78125 0 
L 9.8125 0 
z
" id="DejaVuSans-69"/>
      <path d="M 48.78125 52.59375 
L 48.78125 44.1875 
Q 44.96875 46.296875 41.140625 47.34375 
Q 37.3125 48.390625 33.40625 48.390625 
Q 24.65625 48.390625 19.8125 42.84375 
Q 14.984375 37.3125 14.984375 27.296875 
Q 14.984375 17.28125 19.8125 11.734375 
Q 24.65625 6.203125 33.40625 6.203125 
Q 37.3125 6.203125 41.140625 7.25 
Q 44.96875 8.296875 48.78125 10.40625 
L 48.78125 2.09375 
Q 45.015625 0.34375 40.984375 -0.53125 
Q 36.96875 -1.421875 32.421875 -1.421875 
Q 20.0625 -1.421875 12.78125 6.34375 
Q 5.515625 14.109375 5.515625 27.296875 
Q 5.515625 40.671875 12.859375 48.328125 
Q 20.21875 56 33.015625 56 
Q 37.15625 56 41.109375 55.140625 
Q 45.0625 54.296875 48.78125 52.59375 
z
" id="DejaVuSans-99"/>
      <path d="M 54.890625 33.015625 
L 54.890625 0 
L 45.90625 0 
L 45.90625 32.71875 
Q 45.90625 40.484375 42.875 44.328125 
Q 39.84375 48.1875 33.796875 48.1875 
Q 26.515625 48.1875 22.3125 43.546875 
Q 18.109375 38.921875 18.109375 30.90625 
L 18.109375 0 
L 9.078125 0 
L 9.078125 75.984375 
L 18.109375 75.984375 
L 18.109375 46.1875 
Q 21.34375 51.125 25.703125 53.5625 
Q 30.078125 56 35.796875 56 
Q 45.21875 56 50.046875 50.171875 
Q 54.890625 44.34375 54.890625 33.015625 
z
" id="DejaVuSans-104"/>
     </defs>
     <g transform="translate(372.959375 147.651875)scale(0.12 -0.12)">
      <use xlink:href="#DejaVuSans-69"/>
      <use x="63.183594" xlink:href="#DejaVuSans-112"/>
      <use x="126.660156" xlink:href="#DejaVuSans-111"/>
      <use x="187.841797" xlink:href="#DejaVuSans-99"/>
      <use x="242.822266" xlink:href="#DejaVuSans-104"/>
     </g>
    </g>
   </g>
   <g id="matplotlib.axis_4">
    <g id="ytick_4">
     <g id="line2d_35">
      <g>
       <use style="stroke:#000000;stroke-width:0.8;" x="305.486346" xlink:href="#m1b25e58896" y="110.693972"/>
      </g>
     </g>
     <g id="text_16">
      <!-- 0.0 -->
      <g transform="translate(279.402596 115.253035)scale(0.12 -0.12)">
       <use xlink:href="#DejaVuSans-48"/>
       <use x="63.623047" xlink:href="#DejaVuSans-46"/>
       <use x="95.410156" xlink:href="#DejaVuSans-48"/>
      </g>
     </g>
    </g>
    <g id="ytick_5">
     <g id="line2d_36">
      <g>
       <use style="stroke:#000000;stroke-width:0.8;" x="305.486346" xlink:href="#m1b25e58896" y="61.417895"/>
      </g>
     </g>
     <g id="text_17">
      <!-- 0.5 -->
      <g transform="translate(279.402596 65.976958)scale(0.12 -0.12)">
       <use xlink:href="#DejaVuSans-48"/>
       <use x="63.623047" xlink:href="#DejaVuSans-46"/>
       <use x="95.410156" xlink:href="#DejaVuSans-53"/>
      </g>
     </g>
    </g>
    <g id="ytick_6">
     <g id="line2d_37">
      <g>
       <use style="stroke:#000000;stroke-width:0.8;" x="305.486346" xlink:href="#m1b25e58896" y="12.141818"/>
      </g>
     </g>
     <g id="text_18">
      <!-- 1.0 -->
      <g transform="translate(279.402596 16.700881)scale(0.12 -0.12)">
       <use xlink:href="#DejaVuSans-49"/>
       <use x="63.623047" xlink:href="#DejaVuSans-46"/>
       <use x="95.410156" xlink:href="#DejaVuSans-48"/>
      </g>
     </g>
    </g>
    <g id="text_19">
     <!-- Cross entropy $H$ -->
     <g transform="translate(272.882596 109.86)rotate(-90)scale(0.12 -0.12)">
      <use transform="translate(0 0.78125)" xlink:href="#DejaVuSans-67"/>
      <use transform="translate(69.824219 0.78125)" xlink:href="#DejaVuSans-114"/>
      <use transform="translate(110.9375 0.78125)" xlink:href="#DejaVuSans-111"/>
      <use transform="translate(172.119141 0.78125)" xlink:href="#DejaVuSans-115"/>
      <use transform="translate(224.21875 0.78125)" xlink:href="#DejaVuSans-115"/>
      <use transform="translate(276.318359 0.78125)" xlink:href="#DejaVuSans-32"/>
      <use transform="translate(308.105469 0.78125)" xlink:href="#DejaVuSans-101"/>
      <use transform="translate(369.628906 0.78125)" xlink:href="#DejaVuSans-110"/>
      <use transform="translate(433.007812 0.78125)" xlink:href="#DejaVuSans-116"/>
      <use transform="translate(472.216797 0.78125)" xlink:href="#DejaVuSans-114"/>
      <use transform="translate(513.330078 0.78125)" xlink:href="#DejaVuSans-111"/>
      <use transform="translate(574.511719 0.78125)" xlink:href="#DejaVuSans-112"/>
      <use transform="translate(637.988281 0.78125)" xlink:href="#DejaVuSans-121"/>
      <use transform="translate(697.167969 0.78125)" xlink:href="#DejaVuSans-32"/>
      <use transform="translate(728.955078 0.78125)" xlink:href="#DejaVuSans-Oblique-72"/>
     </g>
    </g>
   </g>
   <g id="line2d_38">
    <path clip-path="url(#pd228c1da75)" d="M 313.290542 12.141818 
L 314.867147 94.017593 
L 316.443752 103.955498 
L 318.020358 105.584632 
L 319.596963 105.596821 
L 321.173568 105.280915 
L 322.750173 104.771497 
L 324.326778 104.808383 
L 325.903384 105.354645 
L 327.479989 106.018649 
L 329.056594 106.234083 
L 330.633199 106.600249 
L 332.209805 106.920133 
L 333.78641 107.038774 
L 335.363015 107.409001 
L 336.93962 107.695713 
L 338.516225 108.011166 
L 340.092831 108.193599 
L 341.669436 108.313083 
L 343.246041 108.57679 
L 344.822646 108.638844 
L 346.399251 108.829741 
L 347.975857 108.951852 
L 349.552462 109.03596 
L 351.129067 109.141083 
L 352.705672 109.248408 
L 354.282277 109.333391 
L 355.858883 109.307578 
L 357.435488 109.435481 
L 359.012093 109.490196 
L 360.588698 109.521364 
L 362.165304 109.587589 
L 363.741909 109.629168 
L 365.318514 109.662051 
L 366.895119 109.690773 
L 368.471724 109.715558 
L 370.04833 109.75347 
L 371.624935 109.775981 
L 373.20154 109.799822 
L 374.778145 109.842024 
L 376.35475 109.817686 
L 377.931356 109.849458 
L 379.507961 109.900591 
L 381.084566 109.885099 
L 382.661171 109.922074 
L 384.237777 109.915004 
L 385.814382 109.929657 
L 387.390987 109.945261 
L 388.967592 109.962056 
L 390.544197 109.955673 
L 392.120803 110.004774 
L 393.697408 109.997239 
L 395.274013 110.007631 
L 396.850618 110.006192 
L 398.427223 110.014154 
L 400.003829 110.031753 
L 401.580434 110.041171 
L 403.157039 110.043099 
L 404.733644 110.035805 
L 406.31025 110.047855 
L 407.886855 110.061976 
L 409.46346 110.069419 
L 411.040065 110.075473 
L 412.61667 110.088377 
L 414.193276 110.065918 
L 415.769881 110.100715 
L 417.346486 110.089664 
L 418.923091 110.11133 
L 420.499696 110.113611 
L 422.076302 110.122006 
L 423.652907 110.118389 
L 425.229512 110.119051 
L 426.806117 110.136959 
L 428.382723 110.12619 
L 429.959328 110.122335 
L 431.535933 110.146461 
L 433.112538 110.130392 
L 434.689143 110.148994 
L 436.265749 110.141438 
L 437.842354 110.159036 
L 439.418959 110.138973 
L 440.995564 110.164477 
L 442.572169 110.172868 
L 444.148775 110.152414 
L 445.72538 110.173265 
L 447.301985 110.157647 
L 448.87859 110.166803 
L 450.455195 110.17548 
L 452.031801 110.183717 
L 453.608406 110.186516 
L 455.185011 110.186318 
L 456.761616 110.197873 
L 458.338222 110.159093 
L 459.914827 110.177886 
L 461.491432 110.193405 
L 463.068037 110.167644 
L 464.644642 110.181411 
L 466.221248 110.193994 
L 467.797853 110.160227 
L 469.374458 110.196509 
" style="fill:none;stroke:#949494;stroke-linecap:square;stroke-width:3;"/>
   </g>
   <g id="line2d_39">
    <path clip-path="url(#pd228c1da75)" d="M 313.290542 12.141818 
L 314.867147 42.660368 
L 316.443752 50.064904 
L 318.020358 57.416384 
L 319.596963 66.42023 
L 321.173568 76.514383 
L 322.750173 87.624455 
L 324.326778 95.471855 
L 325.903384 99.617677 
L 327.479989 102.593475 
L 329.056594 104.653333 
L 330.633199 106.131755 
L 332.209805 106.874975 
L 333.78641 107.58159 
L 335.363015 108.128455 
L 336.93962 108.522915 
L 338.516225 108.571338 
L 340.092831 108.948435 
L 341.669436 109.095014 
L 343.246041 109.232188 
L 344.822646 109.044877 
L 346.399251 109.471239 
L 347.975857 109.554645 
L 349.552462 109.468135 
L 351.129067 109.704946 
L 352.705672 109.769318 
L 354.282277 109.817499 
L 355.858883 109.850391 
L 357.435488 109.883622 
L 359.012093 109.930035 
L 360.588698 109.967606 
L 362.165304 110.002892 
L 363.741909 110.029126 
L 365.318514 109.916804 
L 366.895119 110.058403 
L 368.471724 110.092786 
L 370.04833 110.112002 
L 371.624935 110.132845 
L 373.20154 110.143706 
L 374.778145 109.912262 
L 376.35475 110.168698 
L 377.931356 110.171959 
L 379.507961 110.195548 
L 381.084566 110.206337 
L 382.661171 110.218841 
L 384.237777 110.229946 
L 385.814382 110.235501 
L 387.390987 110.244657 
L 388.967592 110.254285 
L 390.544197 110.257823 
L 392.120803 110.270522 
L 393.697408 110.276624 
L 395.274013 110.270794 
L 396.850618 110.286464 
L 398.427223 110.256605 
L 400.003829 110.168959 
L 401.580434 110.29584 
L 403.157039 110.300911 
L 404.733644 110.249911 
L 406.31025 110.31014 
L 407.886855 110.275777 
L 409.46346 110.319398 
L 411.040065 110.324595 
L 412.61667 110.197554 
L 414.193276 110.314782 
L 415.769881 110.310333 
L 417.346486 110.333042 
L 418.923091 110.337167 
L 420.499696 110.336826 
L 422.076302 110.342979 
L 423.652907 110.344305 
L 425.229512 110.345071 
L 426.806117 110.339477 
L 428.382723 110.34648 
L 429.959328 110.349814 
L 431.535933 110.332624 
L 433.112538 110.353639 
L 434.689143 110.348851 
L 436.265749 110.358275 
L 437.842354 110.361013 
L 439.418959 110.359947 
L 440.995564 110.359851 
L 442.572169 110.364088 
L 444.148775 110.366435 
L 445.72538 110.364603 
L 447.301985 110.369794 
L 448.87859 110.368555 
L 450.455195 110.370732 
L 452.031801 110.366952 
L 453.608406 110.37121 
L 455.185011 110.375393 
L 456.761616 110.37646 
L 458.338222 110.380134 
L 459.914827 110.376354 
L 461.491432 110.375753 
L 463.068037 110.24193 
L 464.644642 110.380655 
L 466.221248 110.379513 
L 467.797853 110.385875 
L 469.374458 110.385292 
" style="fill:none;stroke:#029e73;stroke-linecap:square;stroke-width:3;"/>
   </g>
   <g id="line2d_40">
    <path clip-path="url(#pd228c1da75)" d="M 313.290542 12.141818 
L 314.867147 29.109019 
L 316.443752 35.332095 
L 318.020358 40.172589 
L 319.596963 45.839356 
L 321.173568 51.676233 
L 322.750173 58.234083 
L 324.326778 65.431937 
L 325.903384 71.579121 
L 327.479989 75.967968 
L 329.056594 79.749429 
L 330.633199 82.811898 
L 332.209805 85.280642 
L 333.78641 87.341034 
L 335.363015 88.814449 
L 336.93962 90.056064 
L 338.516225 90.978947 
L 340.092831 91.658648 
L 341.669436 92.331517 
L 343.246041 92.747865 
L 344.822646 93.003286 
L 346.399251 93.588956 
L 347.975857 93.900332 
L 349.552462 93.998124 
L 351.129067 94.319834 
L 352.705672 94.508426 
L 354.282277 94.715707 
L 355.858883 94.813458 
L 357.435488 94.988524 
L 359.012093 95.109489 
L 360.588698 95.225926 
L 362.165304 95.313832 
L 363.741909 95.426659 
L 365.318514 95.372085 
L 366.895119 95.574538 
L 368.471724 95.674217 
L 370.04833 95.741823 
L 371.624935 95.739736 
L 373.20154 95.770075 
L 374.778145 95.692596 
L 376.35475 95.898992 
L 377.931356 95.916932 
L 379.507961 95.98375 
L 381.084566 96.025278 
L 382.661171 96.040935 
L 384.237777 96.094938 
L 385.814382 96.078138 
L 387.390987 96.138732 
L 388.967592 96.138401 
L 390.544197 96.171523 
L 392.120803 96.213488 
L 393.697408 96.211982 
L 395.274013 96.20506 
L 396.850618 96.233491 
L 398.427223 96.224963 
L 400.003829 96.228468 
L 401.580434 96.297453 
L 403.157039 96.305462 
L 404.733644 96.179242 
L 406.31025 96.300513 
L 407.886855 96.350469 
L 409.46346 96.365804 
L 411.040065 96.361929 
L 412.61667 96.282144 
L 414.193276 96.380234 
L 415.769881 96.368666 
L 417.346486 96.454689 
L 418.923091 96.399016 
L 420.499696 96.423026 
L 422.076302 96.411347 
L 423.652907 96.390698 
L 425.229512 96.47181 
L 426.806117 96.448755 
L 428.382723 96.416728 
L 429.959328 96.48732 
L 431.535933 96.360454 
L 433.112538 96.453928 
L 434.689143 96.52316 
L 436.265749 96.464664 
L 437.842354 96.522969 
L 439.418959 96.467427 
L 440.995564 96.540416 
L 442.572169 96.511438 
L 444.148775 96.533995 
L 445.72538 96.464364 
L 447.301985 96.481548 
L 448.87859 96.493093 
L 450.455195 96.494244 
L 452.031801 96.526491 
L 453.608406 96.528054 
L 455.185011 96.51968 
L 456.761616 96.53647 
L 458.338222 96.548474 
L 459.914827 96.533312 
L 461.491432 96.549309 
L 463.068037 96.520675 
L 464.644642 96.540672 
L 466.221248 96.535994 
L 467.797853 96.633712 
L 469.374458 96.555869 
" style="fill:none;stroke:#de8f05;stroke-linecap:square;stroke-width:3;"/>
   </g>
   <g id="line2d_41">
    <path clip-path="url(#pd228c1da75)" d="M 313.290542 12.141818 
L 314.867147 28.720623 
L 316.443752 34.393396 
L 318.020358 39.92569 
L 319.596963 46.851796 
L 321.173568 55.069879 
L 322.750173 63.080452 
L 324.326778 70.834499 
L 325.903384 77.283184 
L 327.479989 82.676291 
L 329.056594 87.321373 
L 330.633199 91.062115 
L 332.209805 94.251337 
L 333.78641 97.117837 
L 335.363015 99.192691 
L 336.93962 101.142107 
L 338.516225 102.724333 
L 340.092831 104.079253 
L 341.669436 105.238765 
L 343.246041 105.900135 
L 344.822646 106.621169 
L 346.399251 107.229777 
L 347.975857 107.672931 
L 349.552462 107.921048 
L 351.129067 108.129849 
L 352.705672 108.258587 
L 354.282277 108.488204 
L 355.858883 108.63688 
L 357.435488 108.78592 
L 359.012093 108.864786 
L 360.588698 108.98992 
L 362.165304 109.077969 
L 363.741909 109.132665 
L 365.318514 109.192847 
L 366.895119 109.22927 
L 368.471724 109.322337 
L 370.04833 109.369123 
L 371.624935 109.383757 
L 373.20154 109.42923 
L 374.778145 109.37366 
L 376.35475 109.516664 
L 377.931356 109.589356 
L 379.507961 109.588053 
L 381.084566 109.612952 
L 382.661171 109.636812 
L 384.237777 109.682144 
L 385.814382 109.709926 
L 387.390987 109.728663 
L 388.967592 109.708239 
L 390.544197 109.722045 
L 392.120803 109.778733 
L 393.697408 109.730738 
L 395.274013 109.81667 
L 396.850618 109.8232 
L 398.427223 109.768486 
L 400.003829 109.81222 
L 401.580434 109.855361 
L 403.157039 109.857953 
L 404.733644 109.832994 
L 406.31025 109.895588 
L 407.886855 109.816657 
L 409.46346 109.922399 
L 411.040065 109.900119 
L 412.61667 109.865024 
L 414.193276 109.931878 
L 415.769881 109.926122 
L 417.346486 109.943246 
L 418.923091 109.938031 
L 420.499696 109.928875 
L 422.076302 109.928751 
L 423.652907 109.909996 
L 425.229512 109.976209 
L 426.806117 109.981662 
L 428.382723 109.965405 
L 429.959328 109.947162 
L 431.535933 109.973552 
L 433.112538 110.010124 
L 434.689143 110.015721 
L 436.265749 109.95503 
L 437.842354 110.010502 
L 439.418959 109.916476 
L 440.995564 110.01466 
L 442.572169 109.909653 
L 444.148775 110.017479 
L 445.72538 110.003867 
L 447.301985 110.01837 
L 448.87859 110.000734 
L 450.455195 110.019014 
L 452.031801 109.974034 
L 453.608406 109.991748 
L 455.185011 109.957971 
L 456.761616 110.03312 
L 458.338222 110.036793 
L 459.914827 110.05833 
L 461.491432 110.023811 
L 463.068037 109.992348 
L 464.644642 110.041468 
L 466.221248 109.989618 
L 467.797853 110.031456 
L 469.374458 110.071395 
" style="fill:none;stroke:#0173b2;stroke-linecap:square;stroke-width:3;"/>
   </g>
   <g id="patch_6">
    <path d="M 305.486346 115.92 
L 305.486346 7.2 
" style="fill:none;stroke:#000000;stroke-linecap:square;stroke-linejoin:miter;stroke-width:0.8;"/>
   </g>
   <g id="patch_7">
    <path d="M 305.486346 115.92 
L 477.178654 115.92 
" style="fill:none;stroke:#000000;stroke-linecap:square;stroke-linejoin:miter;stroke-width:0.8;"/>
   </g>
   <g id="legend_1">
    <g id="line2d_42">
     <path d="M 402.1325 23.839125 
L 426.1325 23.839125 
" style="fill:none;stroke:#949494;stroke-linecap:square;stroke-width:3;"/>
    </g>
    <g id="line2d_43"/>
    <g id="text_20">
     <!-- 0 -->
     <g transform="translate(435.7325 28.039125)scale(0.12 -0.12)">
      <use xlink:href="#DejaVuSans-48"/>
     </g>
    </g>
    <g id="line2d_44">
     <path d="M 402.1325 41.452875 
L 426.1325 41.452875 
" style="fill:none;stroke:#029e73;stroke-linecap:square;stroke-width:3;"/>
    </g>
    <g id="line2d_45"/>
    <g id="text_21">
     <!-- D -->
     <defs>
      <path d="M 19.671875 64.796875 
L 19.671875 8.109375 
L 31.59375 8.109375 
Q 46.6875 8.109375 53.6875 14.9375 
Q 60.6875 21.78125 60.6875 36.53125 
Q 60.6875 51.171875 53.6875 57.984375 
Q 46.6875 64.796875 31.59375 64.796875 
z
M 9.8125 72.90625 
L 30.078125 72.90625 
Q 51.265625 72.90625 61.171875 64.09375 
Q 71.09375 55.28125 71.09375 36.53125 
Q 71.09375 17.671875 61.125 8.828125 
Q 51.171875 0 30.078125 0 
L 9.8125 0 
z
" id="DejaVuSans-68"/>
     </defs>
     <g transform="translate(435.7325 45.652875)scale(0.12 -0.12)">
      <use xlink:href="#DejaVuSans-68"/>
     </g>
    </g>
    <g id="line2d_46">
     <path d="M 402.1325 59.066625 
L 426.1325 59.066625 
" style="fill:none;stroke:#de8f05;stroke-linecap:square;stroke-width:3;"/>
    </g>
    <g id="line2d_47"/>
    <g id="text_22">
     <!-- C -->
     <g transform="translate(435.7325 63.266625)scale(0.12 -0.12)">
      <use xlink:href="#DejaVuSans-67"/>
     </g>
    </g>
    <g id="line2d_48">
     <path d="M 402.1325 76.680375 
L 426.1325 76.680375 
" style="fill:none;stroke:#0173b2;stroke-linecap:square;stroke-width:3;"/>
    </g>
    <g id="line2d_49"/>
    <g id="text_23">
     <!-- B -->
     <defs>
      <path d="M 19.671875 34.8125 
L 19.671875 8.109375 
L 35.5 8.109375 
Q 43.453125 8.109375 47.28125 11.40625 
Q 51.125 14.703125 51.125 21.484375 
Q 51.125 28.328125 47.28125 31.5625 
Q 43.453125 34.8125 35.5 34.8125 
z
M 19.671875 64.796875 
L 19.671875 42.828125 
L 34.28125 42.828125 
Q 41.5 42.828125 45.03125 45.53125 
Q 48.578125 48.25 48.578125 53.8125 
Q 48.578125 59.328125 45.03125 62.0625 
Q 41.5 64.796875 34.28125 64.796875 
z
M 9.8125 72.90625 
L 35.015625 72.90625 
Q 46.296875 72.90625 52.390625 68.21875 
Q 58.5 63.53125 58.5 54.890625 
Q 58.5 48.1875 55.375 44.234375 
Q 52.25 40.28125 46.1875 39.3125 
Q 53.46875 37.75 57.5 32.78125 
Q 61.53125 27.828125 61.53125 20.40625 
Q 61.53125 10.640625 54.890625 5.3125 
Q 48.25 0 35.984375 0 
L 9.8125 0 
z
" id="DejaVuSans-66"/>
     </defs>
     <g transform="translate(435.7325 80.880375)scale(0.12 -0.12)">
      <use xlink:href="#DejaVuSans-66"/>
     </g>
    </g>
   </g>
  </g>
  <g id="axes_3">
   <g id="patch_8">
    <path d="M 554.440192 115.92 
L 726.1325 115.92 
L 726.1325 7.2 
L 554.440192 7.2 
z
" style="fill:#ffffff;"/>
   </g>
   <g id="PolyCollection_5">
    <defs>
     <path d="M 562.244388 -46.369318 
L 562.244388 -46.369318 
L 563.820993 -55.075757 
L 565.397599 -60.228136 
L 566.974204 -64.221839 
L 568.550809 -68.203632 
L 570.127414 -73.422933 
L 571.704019 -79.772831 
L 573.280625 -86.420129 
L 574.85723 -92.349908 
L 576.433835 -97.522694 
L 578.01044 -102.365552 
L 579.587045 -106.584773 
L 581.163651 -110.122358 
L 582.740256 -113.167285 
L 584.316861 -115.840856 
L 585.893466 -118.119729 
L 587.470072 -120.140444 
L 589.046677 -121.792387 
L 590.623282 -123.289566 
L 592.199887 -124.542587 
L 593.776492 -125.585016 
L 595.353098 -126.46646 
L 596.929703 -127.147409 
L 598.506308 -127.692034 
L 600.082913 -128.118416 
L 601.659518 -128.431453 
L 603.236124 -128.663908 
L 604.812729 -128.807405 
L 606.389334 -128.879643 
L 607.965939 -128.886694 
L 609.542545 -128.844619 
L 611.11915 -128.764667 
L 612.695755 -128.652113 
L 614.27236 -128.491031 
L 615.848965 -128.317335 
L 617.425571 -128.09462 
L 619.002176 -127.856606 
L 620.578781 -127.611808 
L 622.155386 -127.326867 
L 623.731991 -127.036026 
L 625.308597 -126.732397 
L 626.885202 -126.414581 
L 628.461807 -126.075426 
L 630.038412 -125.725219 
L 631.615017 -125.363332 
L 633.191623 -124.995183 
L 634.768228 -124.650503 
L 636.344833 -124.256098 
L 637.921438 -123.861691 
L 639.498044 -123.45467 
L 641.074649 -123.075148 
L 642.651254 -122.667654 
L 644.227859 -122.252142 
L 645.804464 -121.83321 
L 647.38107 -121.423755 
L 648.957675 -121.004195 
L 650.53428 -120.613665 
L 652.110885 -120.167101 
L 653.68749 -120.047756 
L 655.264096 -119.610558 
L 656.840701 -119.16131 
L 658.417306 -118.72982 
L 659.993911 -118.284688 
L 661.570517 -117.843495 
L 663.147122 -117.411569 
L 664.723727 -116.967422 
L 666.300332 -116.548987 
L 667.876937 -116.110669 
L 669.453543 -115.696772 
L 671.030148 -115.266673 
L 672.606753 -114.838105 
L 674.183358 -114.405122 
L 675.759963 -113.975486 
L 677.336569 -113.55611 
L 678.913174 -113.136114 
L 680.489779 -112.726617 
L 682.066384 -112.290036 
L 683.64299 -111.899569 
L 685.219595 -111.500871 
L 686.7962 -111.077466 
L 688.372805 -110.721967 
L 689.94941 -110.314372 
L 691.526016 -109.942748 
L 693.102621 -109.542385 
L 694.679226 -109.173035 
L 696.255831 -108.760178 
L 697.832436 -108.364406 
L 699.409042 -107.95995 
L 700.985647 -107.572794 
L 702.562252 -107.206652 
L 704.138857 -106.808772 
L 705.715462 -106.454982 
L 707.292068 -106.08108 
L 708.868673 -105.720102 
L 710.445278 -105.346833 
L 712.021883 -105.212884 
L 713.598489 -104.845688 
L 715.175094 -104.467523 
L 716.751699 -104.103527 
L 718.328304 -103.729622 
L 718.328304 -119.486694 
L 718.328304 -119.486694 
L 716.751699 -119.852344 
L 715.175094 -120.219488 
L 713.598489 -120.579441 
L 712.021883 -120.965691 
L 710.445278 -121.333326 
L 708.868673 -121.726299 
L 707.292068 -122.106172 
L 705.715462 -122.506956 
L 704.138857 -122.880365 
L 702.562252 -123.288997 
L 700.985647 -123.697112 
L 699.409042 -124.042618 
L 697.832436 -124.449931 
L 696.255831 -124.834468 
L 694.679226 -125.240186 
L 693.102621 -125.61356 
L 691.526016 -126.022141 
L 689.94941 -126.442088 
L 688.372805 -126.855585 
L 686.7962 -127.147047 
L 685.219595 -127.579749 
L 683.64299 -127.993503 
L 682.066384 -128.346612 
L 680.489779 -128.757966 
L 678.913174 -129.165065 
L 677.336569 -129.592368 
L 675.759963 -129.986556 
L 674.183358 -130.412334 
L 672.606753 -130.842105 
L 671.030148 -131.270691 
L 669.453543 -131.696309 
L 667.876937 -132.128808 
L 666.300332 -132.563241 
L 664.723727 -133.002879 
L 663.147122 -133.428381 
L 661.570517 -133.848839 
L 659.993911 -134.279567 
L 658.417306 -134.711488 
L 656.840701 -135.151867 
L 655.264096 -135.588813 
L 653.68749 -136.033938 
L 652.110885 -136.503582 
L 650.53428 -136.928805 
L 648.957675 -137.370077 
L 647.38107 -137.77484 
L 645.804464 -138.187496 
L 644.227859 -138.607072 
L 642.651254 -139.02025 
L 641.074649 -139.428423 
L 639.498044 -139.820977 
L 637.921438 -140.225093 
L 636.344833 -140.616382 
L 634.768228 -141.005914 
L 633.191623 -141.385698 
L 631.615017 -141.756459 
L 630.038412 -142.112288 
L 628.461807 -142.462511 
L 626.885202 -142.818745 
L 625.308597 -143.137351 
L 623.731991 -143.449786 
L 622.155386 -143.763382 
L 620.578781 -144.048184 
L 619.002176 -144.271083 
L 617.425571 -144.494248 
L 615.848965 -144.689949 
L 614.27236 -144.882491 
L 612.695755 -145.024513 
L 611.11915 -145.128965 
L 609.542545 -145.181308 
L 607.965939 -145.205682 
L 606.389334 -145.145401 
L 604.812729 -145.044739 
L 603.236124 -144.872358 
L 601.659518 -144.644347 
L 600.082913 -144.308454 
L 598.506308 -143.879456 
L 596.929703 -143.34684 
L 595.353098 -142.6946 
L 593.776492 -141.883818 
L 592.199887 -140.90824 
L 590.623282 -139.715816 
L 589.046677 -138.311964 
L 587.470072 -136.642715 
L 585.893466 -134.676044 
L 584.316861 -132.411262 
L 582.740256 -129.81095 
L 581.163651 -126.844952 
L 579.587045 -123.453583 
L 578.01044 -119.637505 
L 576.433835 -115.320347 
L 574.85723 -110.174801 
L 573.280625 -104.043648 
L 571.704019 -97.080734 
L 570.127414 -89.46433 
L 568.550809 -81.463703 
L 566.974204 -73.527941 
L 565.397599 -67.212957 
L 563.820993 -60.775981 
L 562.244388 -46.369318 
z
" id="m80fc5ec4ef" style="stroke:#d55e00;stroke-opacity:0.2;"/>
    </defs>
    <g clip-path="url(#p1c8b6027d1)">
     <use style="fill:#d55e00;fill-opacity:0.2;stroke:#d55e00;stroke-opacity:0.2;" x="0" xlink:href="#m80fc5ec4ef" y="157.3475"/>
    </g>
   </g>
   <g id="matplotlib.axis_5">
    <g id="xtick_10">
     <g id="line2d_50">
      <g>
       <use style="stroke:#000000;stroke-width:0.8;" x="562.244388" xlink:href="#m7a9b876dcc" y="115.92"/>
      </g>
     </g>
     <g id="text_24">
      <!-- 0 -->
      <g transform="translate(558.426888 132.038125)scale(0.12 -0.12)">
       <use xlink:href="#DejaVuSans-48"/>
      </g>
     </g>
    </g>
    <g id="xtick_11">
     <g id="line2d_51">
      <g>
       <use style="stroke:#000000;stroke-width:0.8;" x="601.659518" xlink:href="#m7a9b876dcc" y="115.92"/>
      </g>
     </g>
     <g id="text_25">
      <!-- 5 -->
      <g transform="translate(597.842018 132.038125)scale(0.12 -0.12)">
       <use xlink:href="#DejaVuSans-53"/>
      </g>
     </g>
    </g>
    <g id="xtick_12">
     <g id="line2d_52">
      <g>
       <use style="stroke:#000000;stroke-width:0.8;" x="641.074649" xlink:href="#m7a9b876dcc" y="115.92"/>
      </g>
     </g>
     <g id="text_26">
      <!-- 10 -->
      <g transform="translate(633.439649 132.038125)scale(0.12 -0.12)">
       <use xlink:href="#DejaVuSans-49"/>
       <use x="63.623047" xlink:href="#DejaVuSans-48"/>
      </g>
     </g>
    </g>
    <g id="xtick_13">
     <g id="line2d_53">
      <g>
       <use style="stroke:#000000;stroke-width:0.8;" x="680.489779" xlink:href="#m7a9b876dcc" y="115.92"/>
      </g>
     </g>
     <g id="text_27">
      <!-- 15 -->
      <g transform="translate(672.854779 132.038125)scale(0.12 -0.12)">
       <use xlink:href="#DejaVuSans-49"/>
       <use x="63.623047" xlink:href="#DejaVuSans-53"/>
      </g>
     </g>
    </g>
    <g id="xtick_14">
     <g id="line2d_54">
      <g>
       <use style="stroke:#000000;stroke-width:0.8;" x="719.904909" xlink:href="#m7a9b876dcc" y="115.92"/>
      </g>
     </g>
     <g id="text_28">
      <!-- 20 -->
      <g transform="translate(712.269909 132.038125)scale(0.12 -0.12)">
       <use xlink:href="#DejaVuSans-50"/>
       <use x="63.623047" xlink:href="#DejaVuSans-48"/>
      </g>
     </g>
    </g>
    <g id="text_29">
     <!-- Epoch -->
     <g transform="translate(621.913221 147.651875)scale(0.12 -0.12)">
      <use xlink:href="#DejaVuSans-69"/>
      <use x="63.183594" xlink:href="#DejaVuSans-112"/>
      <use x="126.660156" xlink:href="#DejaVuSans-111"/>
      <use x="187.841797" xlink:href="#DejaVuSans-99"/>
      <use x="242.822266" xlink:href="#DejaVuSans-104"/>
     </g>
    </g>
   </g>
   <g id="matplotlib.axis_6">
    <g id="ytick_7">
     <g id="line2d_55">
      <g>
       <use style="stroke:#000000;stroke-width:0.8;" x="554.440192" xlink:href="#m1b25e58896" y="110.978182"/>
      </g>
     </g>
     <g id="text_30">
      <!-- 1.0 -->
      <g transform="translate(528.356442 115.537244)scale(0.12 -0.12)">
       <use xlink:href="#DejaVuSans-49"/>
       <use x="63.623047" xlink:href="#DejaVuSans-46"/>
       <use x="95.410156" xlink:href="#DejaVuSans-48"/>
      </g>
     </g>
    </g>
    <g id="ytick_8">
     <g id="line2d_56">
      <g>
       <use style="stroke:#000000;stroke-width:0.8;" x="554.440192" xlink:href="#m1b25e58896" y="83.369968"/>
      </g>
     </g>
     <g id="text_31">
      <!-- 1.2 -->
      <g transform="translate(528.356442 87.92903)scale(0.12 -0.12)">
       <use xlink:href="#DejaVuSans-49"/>
       <use x="63.623047" xlink:href="#DejaVuSans-46"/>
       <use x="95.410156" xlink:href="#DejaVuSans-50"/>
      </g>
     </g>
    </g>
    <g id="ytick_9">
     <g id="line2d_57">
      <g>
       <use style="stroke:#000000;stroke-width:0.8;" x="554.440192" xlink:href="#m1b25e58896" y="55.761754"/>
      </g>
     </g>
     <g id="text_32">
      <!-- 1.4 -->
      <defs>
       <path d="M 37.796875 64.3125 
L 12.890625 25.390625 
L 37.796875 25.390625 
z
M 35.203125 72.90625 
L 47.609375 72.90625 
L 47.609375 25.390625 
L 58.015625 25.390625 
L 58.015625 17.1875 
L 47.609375 17.1875 
L 47.609375 0 
L 37.796875 0 
L 37.796875 17.1875 
L 4.890625 17.1875 
L 4.890625 26.703125 
z
" id="DejaVuSans-52"/>
      </defs>
      <g transform="translate(528.356442 60.320816)scale(0.12 -0.12)">
       <use xlink:href="#DejaVuSans-49"/>
       <use x="63.623047" xlink:href="#DejaVuSans-46"/>
       <use x="95.410156" xlink:href="#DejaVuSans-52"/>
      </g>
     </g>
    </g>
    <g id="ytick_10">
     <g id="line2d_58">
      <g>
       <use style="stroke:#000000;stroke-width:0.8;" x="554.440192" xlink:href="#m1b25e58896" y="28.153539"/>
      </g>
     </g>
     <g id="text_33">
      <!-- 1.6 -->
      <defs>
       <path d="M 33.015625 40.375 
Q 26.375 40.375 22.484375 35.828125 
Q 18.609375 31.296875 18.609375 23.390625 
Q 18.609375 15.53125 22.484375 10.953125 
Q 26.375 6.390625 33.015625 6.390625 
Q 39.65625 6.390625 43.53125 10.953125 
Q 47.40625 15.53125 47.40625 23.390625 
Q 47.40625 31.296875 43.53125 35.828125 
Q 39.65625 40.375 33.015625 40.375 
z
M 52.59375 71.296875 
L 52.59375 62.3125 
Q 48.875 64.0625 45.09375 64.984375 
Q 41.3125 65.921875 37.59375 65.921875 
Q 27.828125 65.921875 22.671875 59.328125 
Q 17.53125 52.734375 16.796875 39.40625 
Q 19.671875 43.65625 24.015625 45.921875 
Q 28.375 48.1875 33.59375 48.1875 
Q 44.578125 48.1875 50.953125 41.515625 
Q 57.328125 34.859375 57.328125 23.390625 
Q 57.328125 12.15625 50.6875 5.359375 
Q 44.046875 -1.421875 33.015625 -1.421875 
Q 20.359375 -1.421875 13.671875 8.265625 
Q 6.984375 17.96875 6.984375 36.375 
Q 6.984375 53.65625 15.1875 63.9375 
Q 23.390625 74.21875 37.203125 74.21875 
Q 40.921875 74.21875 44.703125 73.484375 
Q 48.484375 72.75 52.59375 71.296875 
z
" id="DejaVuSans-54"/>
      </defs>
      <g transform="translate(528.356442 32.712602)scale(0.12 -0.12)">
       <use xlink:href="#DejaVuSans-49"/>
       <use x="63.623047" xlink:href="#DejaVuSans-46"/>
       <use x="95.410156" xlink:href="#DejaVuSans-54"/>
      </g>
     </g>
    </g>
    <g id="text_34">
     <!-- L1 regularisation -->
     <defs>
      <path d="M 9.8125 72.90625 
L 19.671875 72.90625 
L 19.671875 8.296875 
L 55.171875 8.296875 
L 55.171875 0 
L 9.8125 0 
z
" id="DejaVuSans-76"/>
      <path d="M 45.40625 27.984375 
Q 45.40625 37.75 41.375 43.109375 
Q 37.359375 48.484375 30.078125 48.484375 
Q 22.859375 48.484375 18.828125 43.109375 
Q 14.796875 37.75 14.796875 27.984375 
Q 14.796875 18.265625 18.828125 12.890625 
Q 22.859375 7.515625 30.078125 7.515625 
Q 37.359375 7.515625 41.375 12.890625 
Q 45.40625 18.265625 45.40625 27.984375 
z
M 54.390625 6.78125 
Q 54.390625 -7.171875 48.1875 -13.984375 
Q 42 -20.796875 29.203125 -20.796875 
Q 24.46875 -20.796875 20.265625 -20.09375 
Q 16.0625 -19.390625 12.109375 -17.921875 
L 12.109375 -9.1875 
Q 16.0625 -11.328125 19.921875 -12.34375 
Q 23.78125 -13.375 27.78125 -13.375 
Q 36.625 -13.375 41.015625 -8.765625 
Q 45.40625 -4.15625 45.40625 5.171875 
L 45.40625 9.625 
Q 42.625 4.78125 38.28125 2.390625 
Q 33.9375 0 27.875 0 
Q 17.828125 0 11.671875 7.65625 
Q 5.515625 15.328125 5.515625 27.984375 
Q 5.515625 40.671875 11.671875 48.328125 
Q 17.828125 56 27.875 56 
Q 33.9375 56 38.28125 53.609375 
Q 42.625 51.21875 45.40625 46.390625 
L 45.40625 54.6875 
L 54.390625 54.6875 
z
" id="DejaVuSans-103"/>
      <path d="M 9.421875 75.984375 
L 18.40625 75.984375 
L 18.40625 0 
L 9.421875 0 
z
" id="DejaVuSans-108"/>
      <path d="M 34.28125 27.484375 
Q 23.390625 27.484375 19.1875 25 
Q 14.984375 22.515625 14.984375 16.5 
Q 14.984375 11.71875 18.140625 8.90625 
Q 21.296875 6.109375 26.703125 6.109375 
Q 34.1875 6.109375 38.703125 11.40625 
Q 43.21875 16.703125 43.21875 25.484375 
L 43.21875 27.484375 
z
M 52.203125 31.203125 
L 52.203125 0 
L 43.21875 0 
L 43.21875 8.296875 
Q 40.140625 3.328125 35.546875 0.953125 
Q 30.953125 -1.421875 24.3125 -1.421875 
Q 15.921875 -1.421875 10.953125 3.296875 
Q 6 8.015625 6 15.921875 
Q 6 25.140625 12.171875 29.828125 
Q 18.359375 34.515625 30.609375 34.515625 
L 43.21875 34.515625 
L 43.21875 35.40625 
Q 43.21875 41.609375 39.140625 45 
Q 35.0625 48.390625 27.6875 48.390625 
Q 23 48.390625 18.546875 47.265625 
Q 14.109375 46.140625 10.015625 43.890625 
L 10.015625 52.203125 
Q 14.9375 54.109375 19.578125 55.046875 
Q 24.21875 56 28.609375 56 
Q 40.484375 56 46.34375 49.84375 
Q 52.203125 43.703125 52.203125 31.203125 
z
" id="DejaVuSans-97"/>
      <path d="M 9.421875 54.6875 
L 18.40625 54.6875 
L 18.40625 0 
L 9.421875 0 
z
M 9.421875 75.984375 
L 18.40625 75.984375 
L 18.40625 64.59375 
L 9.421875 64.59375 
z
" id="DejaVuSans-105"/>
     </defs>
     <g transform="translate(521.860817 112.168125)rotate(-90)scale(0.12 -0.12)">
      <use xlink:href="#DejaVuSans-76"/>
      <use x="55.712891" xlink:href="#DejaVuSans-49"/>
      <use x="119.335938" xlink:href="#DejaVuSans-32"/>
      <use x="151.123047" xlink:href="#DejaVuSans-114"/>
      <use x="192.205078" xlink:href="#DejaVuSans-101"/>
      <use x="253.728516" xlink:href="#DejaVuSans-103"/>
      <use x="317.205078" xlink:href="#DejaVuSans-117"/>
      <use x="380.583984" xlink:href="#DejaVuSans-108"/>
      <use x="408.367188" xlink:href="#DejaVuSans-97"/>
      <use x="469.646484" xlink:href="#DejaVuSans-114"/>
      <use x="510.759766" xlink:href="#DejaVuSans-105"/>
      <use x="538.542969" xlink:href="#DejaVuSans-115"/>
      <use x="590.642578" xlink:href="#DejaVuSans-97"/>
      <use x="651.921875" xlink:href="#DejaVuSans-116"/>
      <use x="691.130859" xlink:href="#DejaVuSans-105"/>
      <use x="718.914062" xlink:href="#DejaVuSans-111"/>
      <use x="780.095703" xlink:href="#DejaVuSans-110"/>
     </g>
    </g>
   </g>
   <g id="line2d_59">
    <path clip-path="url(#p1c8b6027d1)" d="M 562.244388 110.978182 
L 563.820993 99.421631 
L 565.397599 93.626953 
L 566.974204 88.47261 
L 568.550809 82.513833 
L 570.127414 75.903869 
L 571.704019 68.920718 
L 573.280625 62.115611 
L 574.85723 56.085146 
L 576.433835 50.92598 
L 578.01044 46.345971 
L 579.587045 42.328322 
L 581.163651 38.863845 
L 582.740256 35.858382 
L 584.316861 33.221441 
L 585.893466 30.949614 
L 587.470072 28.955921 
L 589.046677 27.295325 
L 590.623282 25.844809 
L 592.199887 24.622087 
L 593.776492 23.613083 
L 595.353098 22.76697 
L 596.929703 22.100375 
L 598.506308 21.561755 
L 600.082913 21.134065 
L 601.659518 20.8096 
L 603.236124 20.579367 
L 604.812729 20.421428 
L 606.389334 20.334978 
L 607.965939 20.301312 
L 609.542545 20.334536 
L 611.11915 20.400684 
L 612.695755 20.509187 
L 614.27236 20.660739 
L 615.848965 20.843858 
L 617.425571 21.053066 
L 619.002176 21.283655 
L 620.578781 21.517504 
L 622.155386 21.802375 
L 623.731991 22.104594 
L 625.308597 22.412626 
L 626.885202 22.730837 
L 628.461807 23.078532 
L 630.038412 23.428746 
L 631.615017 23.787605 
L 633.191623 24.157059 
L 634.768228 24.519291 
L 636.344833 24.91126 
L 637.921438 25.304108 
L 639.498044 25.709677 
L 641.074649 26.095715 
L 642.651254 26.503548 
L 644.227859 26.917893 
L 645.804464 27.337147 
L 647.38107 27.748202 
L 648.957675 28.160364 
L 650.53428 28.576265 
L 652.110885 29.012159 
L 653.68749 29.306653 
L 655.264096 29.747815 
L 656.840701 30.190912 
L 658.417306 30.626846 
L 659.993911 31.065373 
L 661.570517 31.501333 
L 663.147122 31.927525 
L 664.723727 32.36235 
L 666.300332 32.791386 
L 667.876937 33.227761 
L 669.453543 33.650959 
L 671.030148 34.078818 
L 672.606753 34.507395 
L 674.183358 34.938772 
L 675.759963 35.366479 
L 677.336569 35.773261 
L 678.913174 36.19691 
L 680.489779 36.605209 
L 682.066384 37.029176 
L 683.64299 37.400964 
L 685.219595 37.80719 
L 686.7962 38.235244 
L 688.372805 38.558724 
L 689.94941 38.96927 
L 691.526016 39.365055 
L 693.102621 39.769527 
L 694.679226 40.140889 
L 696.255831 40.550177 
L 697.832436 40.940332 
L 699.409042 41.346216 
L 700.985647 41.712547 
L 702.562252 42.099676 
L 704.138857 42.502932 
L 705.715462 42.866531 
L 707.292068 43.253874 
L 708.868673 43.6243 
L 710.445278 44.007421 
L 712.021883 44.258213 
L 713.598489 44.634936 
L 715.175094 45.003995 
L 716.751699 45.369564 
L 718.328304 45.739342 
" style="fill:none;stroke:#d55e00;stroke-linecap:square;stroke-width:3;"/>
   </g>
   <g id="patch_9">
    <path d="M 554.440192 115.92 
L 554.440192 7.2 
" style="fill:none;stroke:#000000;stroke-linecap:square;stroke-linejoin:miter;stroke-width:0.8;"/>
   </g>
   <g id="patch_10">
    <path d="M 554.440192 115.92 
L 726.1325 115.92 
" style="fill:none;stroke:#000000;stroke-linecap:square;stroke-linejoin:miter;stroke-width:0.8;"/>
   </g>
   <g id="legend_2">
    <g id="line2d_60">
     <path d="M 667.41125 98.424375 
L 691.41125 98.424375 
" style="fill:none;stroke:#d55e00;stroke-linecap:square;stroke-width:3;"/>
    </g>
    <g id="line2d_61"/>
    <g id="text_35">
     <!-- L1 -->
     <g transform="translate(701.01125 102.624375)scale(0.12 -0.12)">
      <use xlink:href="#DejaVuSans-76"/>
      <use x="55.712891" xlink:href="#DejaVuSans-49"/>
     </g>
    </g>
   </g>
  </g>
 </g>
 <defs>
  <clipPath id="p59a9dfc555">
   <rect height="108.72" width="171.692308" x="56.5325" y="7.2"/>
  </clipPath>
  <clipPath id="pd228c1da75">
   <rect height="108.72" width="171.692308" x="305.486346" y="7.2"/>
  </clipPath>
  <clipPath id="p1c8b6027d1">
   <rect height="108.72" width="171.692308" x="554.440192" y="7.2"/>
  </clipPath>
 </defs>
</svg>
