<?xml version="1.0" encoding="utf-8" standalone="no"?>
<!DOCTYPE svg PUBLIC "-//W3C//DTD SVG 1.1//EN"
  "http://www.w3.org/Graphics/SVG/1.1/DTD/svg11.dtd">
<!-- Created with matplotlib (https://matplotlib.org/) -->
<svg height="509.4075pt" version="1.1" viewBox="0 0 461.308799 509.4075" width="461.308799pt" xmlns="http://www.w3.org/2000/svg" xmlns:xlink="http://www.w3.org/1999/xlink">
 <defs>
  <style type="text/css">
*{stroke-linecap:butt;stroke-linejoin:round;}
  </style>
 </defs>
 <g id="figure_1">
  <g id="patch_1">
   <path d="M 0 509.4075 
L 461.308799 509.4075 
L 461.308799 0 
L 0 0 
z
" style="fill:#ffffff;"/>
  </g>
  <g id="axes_1">
   <g id="patch_2">
    <path d="M 59.13 199.3095 
L 393.93 199.3095 
L 393.93 25.3575 
L 59.13 25.3575 
z
" style="fill:#ffffff;"/>
   </g>
   <g id="PolyCollection_1">
    <defs>
     <path d="M 74.348182 -492.754243 
L 74.348182 -448.109285 
L 77.971558 -368.517832 
L 81.594935 -356.002629 
L 85.218312 -349.679548 
L 88.841688 -346.645256 
L 92.465065 -345.166662 
L 96.088442 -344.269406 
L 99.711818 -343.702875 
L 103.335195 -343.220927 
L 106.958571 -342.873023 
L 110.581948 -342.629184 
L 114.205325 -342.424972 
L 117.828701 -342.248918 
L 121.452078 -342.054267 
L 125.075455 -341.993745 
L 128.698831 -341.816124 
L 132.322208 -341.728082 
L 135.945584 -341.662715 
L 139.568961 -341.612027 
L 143.192338 -341.469657 
L 146.815714 -341.469857 
L 150.439091 -341.458704 
L 154.062468 -341.343613 
L 157.685844 -341.32632 
L 161.309221 -341.278118 
L 164.932597 -341.245459 
L 168.555974 -341.237446 
L 172.179351 -341.172601 
L 175.802727 -341.240317 
L 179.426104 -341.10995 
L 183.049481 -341.164267 
L 186.672857 -341.165672 
L 190.296234 -341.070659 
L 193.91961 -341.056511 
L 197.542987 -341.033832 
L 201.166364 -341.01155 
L 204.78974 -341.013645 
L 208.413117 -340.947758 
L 212.036494 -341.009227 
L 215.65987 -341.007055 
L 219.283247 -340.956234 
L 222.906623 -340.918469 
L 226.53 -340.953189 
L 230.153377 -340.892449 
L 233.776753 -340.883296 
L 237.40013 -340.866102 
L 241.023506 -340.831739 
L 244.646883 -340.855443 
L 248.27026 -340.803566 
L 251.893636 -340.846026 
L 255.517013 -340.827393 
L 259.14039 -340.858259 
L 262.763766 -340.824555 
L 266.387143 -340.806657 
L 270.010519 -340.776111 
L 273.633896 -340.833514 
L 277.257273 -340.786392 
L 280.880649 -340.804703 
L 284.504026 -340.841203 
L 288.127403 -340.810404 
L 291.750779 -340.802322 
L 295.374156 -340.837508 
L 298.997532 -340.784613 
L 302.620909 -340.792091 
L 306.244286 -340.848015 
L 309.867662 -340.781866 
L 313.491039 -340.759483 
L 317.114416 -340.78178 
L 320.737792 -340.72495 
L 324.361169 -340.670547 
L 327.984545 -340.676331 
L 331.607922 -340.83817 
L 335.231299 -340.779926 
L 338.854675 -340.703488 
L 342.478052 -340.779436 
L 346.101429 -340.691191 
L 349.724805 -340.737294 
L 353.348182 -340.776791 
L 356.971558 -340.766672 
L 360.594935 -340.776922 
L 360.594935 -341.737511 
L 360.594935 -341.737511 
L 356.971558 -341.708161 
L 353.348182 -341.734732 
L 349.724805 -341.746955 
L 346.101429 -341.84044 
L 342.478052 -341.708632 
L 338.854675 -341.749181 
L 335.231299 -341.745817 
L 331.607922 -341.830841 
L 327.984545 -341.823265 
L 324.361169 -341.731185 
L 320.737792 -341.828261 
L 317.114416 -341.764056 
L 313.491039 -341.874144 
L 309.867662 -341.727406 
L 306.244286 -341.809924 
L 302.620909 -341.717136 
L 298.997532 -341.853288 
L 295.374156 -341.812619 
L 291.750779 -341.756021 
L 288.127403 -341.79224 
L 284.504026 -341.90775 
L 280.880649 -341.863009 
L 277.257273 -341.812678 
L 273.633896 -341.841862 
L 270.010519 -341.786431 
L 266.387143 -341.80352 
L 262.763766 -341.873269 
L 259.14039 -341.897212 
L 255.517013 -341.873519 
L 251.893636 -341.918093 
L 248.27026 -341.934931 
L 244.646883 -342.030734 
L 241.023506 -341.939015 
L 237.40013 -342.013053 
L 233.776753 -341.999444 
L 230.153377 -342.021991 
L 226.53 -342.004556 
L 222.906623 -342.119162 
L 219.283247 -342.092174 
L 215.65987 -341.997506 
L 212.036494 -342.138562 
L 208.413117 -342.287598 
L 204.78974 -342.208392 
L 201.166364 -342.172183 
L 197.542987 -342.215107 
L 193.91961 -342.343576 
L 190.296234 -342.25839 
L 186.672857 -342.391396 
L 183.049481 -342.308351 
L 179.426104 -342.393426 
L 175.802727 -342.514757 
L 172.179351 -342.518592 
L 168.555974 -342.531301 
L 164.932597 -342.615758 
L 161.309221 -342.665452 
L 157.685844 -342.806303 
L 154.062468 -342.763789 
L 150.439091 -342.862354 
L 146.815714 -342.963113 
L 143.192338 -343.122101 
L 139.568961 -343.170716 
L 135.945584 -343.364829 
L 132.322208 -343.467122 
L 128.698831 -343.656835 
L 125.075455 -343.806039 
L 121.452078 -343.881111 
L 117.828701 -344.185739 
L 114.205325 -344.464485 
L 110.581948 -344.775211 
L 106.958571 -345.165223 
L 103.335195 -345.685321 
L 99.711818 -346.08438 
L 96.088442 -346.954918 
L 92.465065 -348.018828 
L 88.841688 -349.834402 
L 85.218312 -353.060702 
L 81.594935 -361.503615 
L 77.971558 -405.588743 
L 74.348182 -492.754243 
z
" id="mcf8d12ec21" style="stroke:#430000;stroke-opacity:0.2;"/>
    </defs>
    <g clip-path="url(#pc20504447b)">
     <use style="fill:#430000;fill-opacity:0.2;stroke:#430000;stroke-opacity:0.2;" x="0" xlink:href="#mcf8d12ec21" y="509.4075"/>
    </g>
   </g>
   <g id="PolyCollection_2">
    <defs>
     <path d="M 74.348182 -492.400775 
L 74.348182 -443.550839 
L 77.971558 -368.153467 
L 81.594935 -355.736401 
L 85.218312 -349.94144 
L 88.841688 -347.130364 
L 92.465065 -345.690722 
L 96.088442 -344.801934 
L 99.711818 -344.117021 
L 103.335195 -343.67991 
L 106.958571 -343.345286 
L 110.581948 -343.091574 
L 114.205325 -342.530568 
L 117.828701 -342.487183 
L 121.452078 -342.43514 
L 125.075455 -342.474245 
L 128.698831 -342.45634 
L 132.322208 -342.539239 
L 135.945584 -342.593414 
L 139.568961 -342.680252 
L 143.192338 -342.329977 
L 146.815714 -342.39226 
L 150.439091 -342.214811 
L 154.062468 -341.968357 
L 157.685844 -341.930439 
L 161.309221 -341.958059 
L 164.932597 -341.833462 
L 168.555974 -341.71645 
L 172.179351 -341.518707 
L 175.802727 -341.551748 
L 179.426104 -341.47722 
L 183.049481 -340.618373 
L 186.672857 -340.720589 
L 190.296234 -341.037031 
L 193.91961 -341.113578 
L 197.542987 -341.145187 
L 201.166364 -341.151523 
L 204.78974 -341.055187 
L 208.413117 -341.032469 
L 212.036494 -341.035994 
L 215.65987 -341.123037 
L 219.283247 -341.074249 
L 222.906623 -340.938927 
L 226.53 -340.93148 
L 230.153377 -340.87786 
L 233.776753 -340.880062 
L 237.40013 -340.931295 
L 241.023506 -340.89861 
L 244.646883 -340.850219 
L 248.27026 -340.826348 
L 251.893636 -340.793481 
L 255.517013 -340.274781 
L 259.14039 -340.888953 
L 262.763766 -340.906481 
L 266.387143 -340.894528 
L 270.010519 -340.802935 
L 273.633896 -340.792484 
L 277.257273 -340.757017 
L 280.880649 -340.772445 
L 284.504026 -340.754994 
L 288.127403 -340.690575 
L 291.750779 -340.704865 
L 295.374156 -340.725204 
L 298.997532 -340.697499 
L 302.620909 -340.646843 
L 306.244286 -340.734459 
L 309.867662 -340.635633 
L 313.491039 -340.675497 
L 317.114416 -340.684133 
L 320.737792 -340.459898 
L 324.361169 -340.56206 
L 327.984545 -340.254666 
L 331.607922 -340.659908 
L 335.231299 -340.658512 
L 338.854675 -340.644207 
L 342.478052 -340.59599 
L 346.101429 -340.577929 
L 349.724805 -340.614153 
L 353.348182 -340.699965 
L 356.971558 -340.66677 
L 360.594935 -340.602036 
L 360.594935 -341.649672 
L 360.594935 -341.649672 
L 356.971558 -341.639372 
L 353.348182 -341.690021 
L 349.724805 -341.661953 
L 346.101429 -341.729538 
L 342.478052 -341.657033 
L 338.854675 -341.758585 
L 335.231299 -341.750418 
L 331.607922 -341.783933 
L 327.984545 -342.324805 
L 324.361169 -341.980263 
L 320.737792 -342.27845 
L 317.114416 -341.719286 
L 313.491039 -341.717035 
L 309.867662 -341.748328 
L 306.244286 -341.723968 
L 302.620909 -341.761552 
L 298.997532 -341.794944 
L 295.374156 -341.750813 
L 291.750779 -341.736988 
L 288.127403 -341.767024 
L 284.504026 -341.760736 
L 280.880649 -341.777286 
L 277.257273 -341.827294 
L 273.633896 -341.827797 
L 270.010519 -341.857141 
L 266.387143 -341.851867 
L 262.763766 -342.048512 
L 259.14039 -341.861684 
L 255.517013 -343.370476 
L 251.893636 -341.9028 
L 248.27026 -341.919359 
L 244.646883 -341.868256 
L 241.023506 -341.944679 
L 237.40013 -341.932973 
L 233.776753 -342.028919 
L 230.153377 -342.02936 
L 226.53 -342.070474 
L 222.906623 -342.134764 
L 219.283247 -342.191078 
L 215.65987 -342.282856 
L 212.036494 -342.381833 
L 208.413117 -342.608676 
L 204.78974 -342.725044 
L 201.166364 -342.670686 
L 197.542987 -342.872753 
L 193.91961 -342.973866 
L 190.296234 -343.412176 
L 186.672857 -343.943274 
L 183.049481 -343.878991 
L 179.426104 -342.492045 
L 175.802727 -342.651122 
L 172.179351 -343.05571 
L 168.555974 -342.876041 
L 164.932597 -342.993397 
L 161.309221 -343.171778 
L 157.685844 -343.390747 
L 154.062468 -343.709102 
L 150.439091 -343.654838 
L 146.815714 -344.269904 
L 143.192338 -345.003739 
L 139.568961 -344.698548 
L 135.945584 -344.854128 
L 132.322208 -344.906401 
L 128.698831 -344.691459 
L 125.075455 -344.512564 
L 121.452078 -344.566211 
L 117.828701 -345.036015 
L 114.205325 -345.471398 
L 110.581948 -344.767931 
L 106.958571 -345.058746 
L 103.335195 -345.399781 
L 99.711818 -345.848929 
L 96.088442 -346.554311 
L 92.465065 -347.544041 
L 88.841688 -349.068897 
L 85.218312 -352.579491 
L 81.594935 -361.749699 
L 77.971558 -398.857982 
L 74.348182 -492.400775 
z
" id="m9c371fb341" style="stroke:#499ad7;stroke-opacity:0.2;"/>
    </defs>
    <g clip-path="url(#pc20504447b)">
     <use style="fill:#499ad7;fill-opacity:0.2;stroke:#499ad7;stroke-opacity:0.2;" x="0" xlink:href="#m9c371fb341" y="509.4075"/>
    </g>
   </g>
   <g id="matplotlib.axis_1">
    <g id="xtick_1">
     <g id="line2d_1">
      <defs>
       <path d="M 0 0 
L 0 3.5 
" id="mb68cea190c" style="stroke:#000000;stroke-width:0.8;"/>
      </defs>
      <g>
       <use style="stroke:#000000;stroke-width:0.8;" x="74.348182" xlink:href="#mb68cea190c" y="199.3095"/>
      </g>
     </g>
     <g id="text_1">
      <!-- 0 -->
      <defs>
       <path d="M 31.78125 66.40625 
Q 24.171875 66.40625 20.328125 58.90625 
Q 16.5 51.421875 16.5 36.375 
Q 16.5 21.390625 20.328125 13.890625 
Q 24.171875 6.390625 31.78125 6.390625 
Q 39.453125 6.390625 43.28125 13.890625 
Q 47.125 21.390625 47.125 36.375 
Q 47.125 51.421875 43.28125 58.90625 
Q 39.453125 66.40625 31.78125 66.40625 
z
M 31.78125 74.21875 
Q 44.046875 74.21875 50.515625 64.515625 
Q 56.984375 54.828125 56.984375 36.375 
Q 56.984375 17.96875 50.515625 8.265625 
Q 44.046875 -1.421875 31.78125 -1.421875 
Q 19.53125 -1.421875 13.0625 8.265625 
Q 6.59375 17.96875 6.59375 36.375 
Q 6.59375 54.828125 13.0625 64.515625 
Q 19.53125 74.21875 31.78125 74.21875 
z
" id="DejaVuSans-48"/>
      </defs>
      <g transform="translate(69.258182 218.467)scale(0.16 -0.16)">
       <use xlink:href="#DejaVuSans-48"/>
      </g>
     </g>
    </g>
    <g id="xtick_2">
     <g id="line2d_2">
      <g>
       <use style="stroke:#000000;stroke-width:0.8;" x="146.815714" xlink:href="#mb68cea190c" y="199.3095"/>
      </g>
     </g>
     <g id="text_2">
      <!-- 20 -->
      <defs>
       <path d="M 19.1875 8.296875 
L 53.609375 8.296875 
L 53.609375 0 
L 7.328125 0 
L 7.328125 8.296875 
Q 12.9375 14.109375 22.625 23.890625 
Q 32.328125 33.6875 34.8125 36.53125 
Q 39.546875 41.84375 41.421875 45.53125 
Q 43.3125 49.21875 43.3125 52.78125 
Q 43.3125 58.59375 39.234375 62.25 
Q 35.15625 65.921875 28.609375 65.921875 
Q 23.96875 65.921875 18.8125 64.3125 
Q 13.671875 62.703125 7.8125 59.421875 
L 7.8125 69.390625 
Q 13.765625 71.78125 18.9375 73 
Q 24.125 74.21875 28.421875 74.21875 
Q 39.75 74.21875 46.484375 68.546875 
Q 53.21875 62.890625 53.21875 53.421875 
Q 53.21875 48.921875 51.53125 44.890625 
Q 49.859375 40.875 45.40625 35.40625 
Q 44.1875 33.984375 37.640625 27.21875 
Q 31.109375 20.453125 19.1875 8.296875 
z
" id="DejaVuSans-50"/>
      </defs>
      <g transform="translate(136.635714 218.467)scale(0.16 -0.16)">
       <use xlink:href="#DejaVuSans-50"/>
       <use x="63.623047" xlink:href="#DejaVuSans-48"/>
      </g>
     </g>
    </g>
    <g id="xtick_3">
     <g id="line2d_3">
      <g>
       <use style="stroke:#000000;stroke-width:0.8;" x="219.283247" xlink:href="#mb68cea190c" y="199.3095"/>
      </g>
     </g>
     <g id="text_3">
      <!-- 40 -->
      <defs>
       <path d="M 37.796875 64.3125 
L 12.890625 25.390625 
L 37.796875 25.390625 
z
M 35.203125 72.90625 
L 47.609375 72.90625 
L 47.609375 25.390625 
L 58.015625 25.390625 
L 58.015625 17.1875 
L 47.609375 17.1875 
L 47.609375 0 
L 37.796875 0 
L 37.796875 17.1875 
L 4.890625 17.1875 
L 4.890625 26.703125 
z
" id="DejaVuSans-52"/>
      </defs>
      <g transform="translate(209.103247 218.467)scale(0.16 -0.16)">
       <use xlink:href="#DejaVuSans-52"/>
       <use x="63.623047" xlink:href="#DejaVuSans-48"/>
      </g>
     </g>
    </g>
    <g id="xtick_4">
     <g id="line2d_4">
      <g>
       <use style="stroke:#000000;stroke-width:0.8;" x="291.750779" xlink:href="#mb68cea190c" y="199.3095"/>
      </g>
     </g>
     <g id="text_4">
      <!-- 60 -->
      <defs>
       <path d="M 33.015625 40.375 
Q 26.375 40.375 22.484375 35.828125 
Q 18.609375 31.296875 18.609375 23.390625 
Q 18.609375 15.53125 22.484375 10.953125 
Q 26.375 6.390625 33.015625 6.390625 
Q 39.65625 6.390625 43.53125 10.953125 
Q 47.40625 15.53125 47.40625 23.390625 
Q 47.40625 31.296875 43.53125 35.828125 
Q 39.65625 40.375 33.015625 40.375 
z
M 52.59375 71.296875 
L 52.59375 62.3125 
Q 48.875 64.0625 45.09375 64.984375 
Q 41.3125 65.921875 37.59375 65.921875 
Q 27.828125 65.921875 22.671875 59.328125 
Q 17.53125 52.734375 16.796875 39.40625 
Q 19.671875 43.65625 24.015625 45.921875 
Q 28.375 48.1875 33.59375 48.1875 
Q 44.578125 48.1875 50.953125 41.515625 
Q 57.328125 34.859375 57.328125 23.390625 
Q 57.328125 12.15625 50.6875 5.359375 
Q 44.046875 -1.421875 33.015625 -1.421875 
Q 20.359375 -1.421875 13.671875 8.265625 
Q 6.984375 17.96875 6.984375 36.375 
Q 6.984375 53.65625 15.1875 63.9375 
Q 23.390625 74.21875 37.203125 74.21875 
Q 40.921875 74.21875 44.703125 73.484375 
Q 48.484375 72.75 52.59375 71.296875 
z
" id="DejaVuSans-54"/>
      </defs>
      <g transform="translate(281.570779 218.467)scale(0.16 -0.16)">
       <use xlink:href="#DejaVuSans-54"/>
       <use x="63.623047" xlink:href="#DejaVuSans-48"/>
      </g>
     </g>
    </g>
    <g id="xtick_5">
     <g id="line2d_5">
      <g>
       <use style="stroke:#000000;stroke-width:0.8;" x="364.218312" xlink:href="#mb68cea190c" y="199.3095"/>
      </g>
     </g>
     <g id="text_5">
      <!-- 80 -->
      <defs>
       <path d="M 31.78125 34.625 
Q 24.75 34.625 20.71875 30.859375 
Q 16.703125 27.09375 16.703125 20.515625 
Q 16.703125 13.921875 20.71875 10.15625 
Q 24.75 6.390625 31.78125 6.390625 
Q 38.8125 6.390625 42.859375 10.171875 
Q 46.921875 13.96875 46.921875 20.515625 
Q 46.921875 27.09375 42.890625 30.859375 
Q 38.875 34.625 31.78125 34.625 
z
M 21.921875 38.8125 
Q 15.578125 40.375 12.03125 44.71875 
Q 8.5 49.078125 8.5 55.328125 
Q 8.5 64.0625 14.71875 69.140625 
Q 20.953125 74.21875 31.78125 74.21875 
Q 42.671875 74.21875 48.875 69.140625 
Q 55.078125 64.0625 55.078125 55.328125 
Q 55.078125 49.078125 51.53125 44.71875 
Q 48 40.375 41.703125 38.8125 
Q 48.828125 37.15625 52.796875 32.3125 
Q 56.78125 27.484375 56.78125 20.515625 
Q 56.78125 9.90625 50.3125 4.234375 
Q 43.84375 -1.421875 31.78125 -1.421875 
Q 19.734375 -1.421875 13.25 4.234375 
Q 6.78125 9.90625 6.78125 20.515625 
Q 6.78125 27.484375 10.78125 32.3125 
Q 14.796875 37.15625 21.921875 38.8125 
z
M 18.3125 54.390625 
Q 18.3125 48.734375 21.84375 45.5625 
Q 25.390625 42.390625 31.78125 42.390625 
Q 38.140625 42.390625 41.71875 45.5625 
Q 45.3125 48.734375 45.3125 54.390625 
Q 45.3125 60.0625 41.71875 63.234375 
Q 38.140625 66.40625 31.78125 66.40625 
Q 25.390625 66.40625 21.84375 63.234375 
Q 18.3125 60.0625 18.3125 54.390625 
z
" id="DejaVuSans-56"/>
      </defs>
      <g transform="translate(354.038312 218.467)scale(0.16 -0.16)">
       <use xlink:href="#DejaVuSans-56"/>
       <use x="63.623047" xlink:href="#DejaVuSans-48"/>
      </g>
     </g>
    </g>
    <g id="text_6">
     <!-- Epoch -->
     <defs>
      <path d="M 9.8125 72.90625 
L 55.90625 72.90625 
L 55.90625 64.59375 
L 19.671875 64.59375 
L 19.671875 43.015625 
L 54.390625 43.015625 
L 54.390625 34.71875 
L 19.671875 34.71875 
L 19.671875 8.296875 
L 56.78125 8.296875 
L 56.78125 0 
L 9.8125 0 
z
" id="DejaVuSans-69"/>
      <path d="M 18.109375 8.203125 
L 18.109375 -20.796875 
L 9.078125 -20.796875 
L 9.078125 54.6875 
L 18.109375 54.6875 
L 18.109375 46.390625 
Q 20.953125 51.265625 25.265625 53.625 
Q 29.59375 56 35.59375 56 
Q 45.5625 56 51.78125 48.09375 
Q 58.015625 40.1875 58.015625 27.296875 
Q 58.015625 14.40625 51.78125 6.484375 
Q 45.5625 -1.421875 35.59375 -1.421875 
Q 29.59375 -1.421875 25.265625 0.953125 
Q 20.953125 3.328125 18.109375 8.203125 
z
M 48.6875 27.296875 
Q 48.6875 37.203125 44.609375 42.84375 
Q 40.53125 48.484375 33.40625 48.484375 
Q 26.265625 48.484375 22.1875 42.84375 
Q 18.109375 37.203125 18.109375 27.296875 
Q 18.109375 17.390625 22.1875 11.75 
Q 26.265625 6.109375 33.40625 6.109375 
Q 40.53125 6.109375 44.609375 11.75 
Q 48.6875 17.390625 48.6875 27.296875 
z
" id="DejaVuSans-112"/>
      <path d="M 30.609375 48.390625 
Q 23.390625 48.390625 19.1875 42.75 
Q 14.984375 37.109375 14.984375 27.296875 
Q 14.984375 17.484375 19.15625 11.84375 
Q 23.34375 6.203125 30.609375 6.203125 
Q 37.796875 6.203125 41.984375 11.859375 
Q 46.1875 17.53125 46.1875 27.296875 
Q 46.1875 37.015625 41.984375 42.703125 
Q 37.796875 48.390625 30.609375 48.390625 
z
M 30.609375 56 
Q 42.328125 56 49.015625 48.375 
Q 55.71875 40.765625 55.71875 27.296875 
Q 55.71875 13.875 49.015625 6.21875 
Q 42.328125 -1.421875 30.609375 -1.421875 
Q 18.84375 -1.421875 12.171875 6.21875 
Q 5.515625 13.875 5.515625 27.296875 
Q 5.515625 40.765625 12.171875 48.375 
Q 18.84375 56 30.609375 56 
z
" id="DejaVuSans-111"/>
      <path d="M 48.78125 52.59375 
L 48.78125 44.1875 
Q 44.96875 46.296875 41.140625 47.34375 
Q 37.3125 48.390625 33.40625 48.390625 
Q 24.65625 48.390625 19.8125 42.84375 
Q 14.984375 37.3125 14.984375 27.296875 
Q 14.984375 17.28125 19.8125 11.734375 
Q 24.65625 6.203125 33.40625 6.203125 
Q 37.3125 6.203125 41.140625 7.25 
Q 44.96875 8.296875 48.78125 10.40625 
L 48.78125 2.09375 
Q 45.015625 0.34375 40.984375 -0.53125 
Q 36.96875 -1.421875 32.421875 -1.421875 
Q 20.0625 -1.421875 12.78125 6.34375 
Q 5.515625 14.109375 5.515625 27.296875 
Q 5.515625 40.671875 12.859375 48.328125 
Q 20.21875 56 33.015625 56 
Q 37.15625 56 41.109375 55.140625 
Q 45.0625 54.296875 48.78125 52.59375 
z
" id="DejaVuSans-99"/>
      <path d="M 54.890625 33.015625 
L 54.890625 0 
L 45.90625 0 
L 45.90625 32.71875 
Q 45.90625 40.484375 42.875 44.328125 
Q 39.84375 48.1875 33.796875 48.1875 
Q 26.515625 48.1875 22.3125 43.546875 
Q 18.109375 38.921875 18.109375 30.90625 
L 18.109375 0 
L 9.078125 0 
L 9.078125 75.984375 
L 18.109375 75.984375 
L 18.109375 46.1875 
Q 21.34375 51.125 25.703125 53.5625 
Q 30.078125 56 35.796875 56 
Q 45.21875 56 50.046875 50.171875 
Q 54.890625 44.34375 54.890625 33.015625 
z
" id="DejaVuSans-104"/>
     </defs>
     <g transform="translate(202.0325 237.952)scale(0.16 -0.16)">
      <use xlink:href="#DejaVuSans-69"/>
      <use x="63.183594" xlink:href="#DejaVuSans-112"/>
      <use x="126.660156" xlink:href="#DejaVuSans-111"/>
      <use x="187.841797" xlink:href="#DejaVuSans-99"/>
      <use x="242.822266" xlink:href="#DejaVuSans-104"/>
     </g>
    </g>
   </g>
   <g id="matplotlib.axis_2">
    <g id="ytick_1">
     <g id="line2d_6">
      <defs>
       <path d="M 0 0 
L -3.5 0 
" id="m9ed77172c6" style="stroke:#000000;stroke-width:0.8;"/>
      </defs>
      <g>
       <use style="stroke:#000000;stroke-width:0.8;" x="59.13" xlink:href="#m9ed77172c6" y="196.859472"/>
      </g>
     </g>
     <g id="text_7">
      <!-- 0 -->
      <g transform="translate(41.95 202.938222)scale(0.16 -0.16)">
       <use xlink:href="#DejaVuSans-48"/>
      </g>
     </g>
    </g>
    <g id="ytick_2">
     <g id="line2d_7">
      <g>
       <use style="stroke:#000000;stroke-width:0.8;" x="59.13" xlink:href="#m9ed77172c6" y="147.858908"/>
      </g>
     </g>
     <g id="text_8">
      <!-- 1 -->
      <defs>
       <path d="M 12.40625 8.296875 
L 28.515625 8.296875 
L 28.515625 63.921875 
L 10.984375 60.40625 
L 10.984375 69.390625 
L 28.421875 72.90625 
L 38.28125 72.90625 
L 38.28125 8.296875 
L 54.390625 8.296875 
L 54.390625 0 
L 12.40625 0 
z
" id="DejaVuSans-49"/>
      </defs>
      <g transform="translate(41.95 153.937658)scale(0.16 -0.16)">
       <use xlink:href="#DejaVuSans-49"/>
      </g>
     </g>
    </g>
    <g id="ytick_3">
     <g id="line2d_8">
      <g>
       <use style="stroke:#000000;stroke-width:0.8;" x="59.13" xlink:href="#m9ed77172c6" y="98.858345"/>
      </g>
     </g>
     <g id="text_9">
      <!-- 2 -->
      <g transform="translate(41.95 104.937095)scale(0.16 -0.16)">
       <use xlink:href="#DejaVuSans-50"/>
      </g>
     </g>
    </g>
    <g id="ytick_4">
     <g id="line2d_9">
      <g>
       <use style="stroke:#000000;stroke-width:0.8;" x="59.13" xlink:href="#m9ed77172c6" y="49.857782"/>
      </g>
     </g>
     <g id="text_10">
      <!-- 3 -->
      <defs>
       <path d="M 40.578125 39.3125 
Q 47.65625 37.796875 51.625 33 
Q 55.609375 28.21875 55.609375 21.1875 
Q 55.609375 10.40625 48.1875 4.484375 
Q 40.765625 -1.421875 27.09375 -1.421875 
Q 22.515625 -1.421875 17.65625 -0.515625 
Q 12.796875 0.390625 7.625 2.203125 
L 7.625 11.71875 
Q 11.71875 9.328125 16.59375 8.109375 
Q 21.484375 6.890625 26.8125 6.890625 
Q 36.078125 6.890625 40.9375 10.546875 
Q 45.796875 14.203125 45.796875 21.1875 
Q 45.796875 27.640625 41.28125 31.265625 
Q 36.765625 34.90625 28.71875 34.90625 
L 20.21875 34.90625 
L 20.21875 43.015625 
L 29.109375 43.015625 
Q 36.375 43.015625 40.234375 45.921875 
Q 44.09375 48.828125 44.09375 54.296875 
Q 44.09375 59.90625 40.109375 62.90625 
Q 36.140625 65.921875 28.71875 65.921875 
Q 24.65625 65.921875 20.015625 65.03125 
Q 15.375 64.15625 9.8125 62.3125 
L 9.8125 71.09375 
Q 15.4375 72.65625 20.34375 73.4375 
Q 25.25 74.21875 29.59375 74.21875 
Q 40.828125 74.21875 47.359375 69.109375 
Q 53.90625 64.015625 53.90625 55.328125 
Q 53.90625 49.265625 50.4375 45.09375 
Q 46.96875 40.921875 40.578125 39.3125 
z
" id="DejaVuSans-51"/>
      </defs>
      <g transform="translate(41.95 55.936532)scale(0.16 -0.16)">
       <use xlink:href="#DejaVuSans-51"/>
      </g>
     </g>
    </g>
    <g id="text_11">
     <!-- Prediction loss -->
     <defs>
      <path d="M 19.671875 64.796875 
L 19.671875 37.40625 
L 32.078125 37.40625 
Q 38.96875 37.40625 42.71875 40.96875 
Q 46.484375 44.53125 46.484375 51.125 
Q 46.484375 57.671875 42.71875 61.234375 
Q 38.96875 64.796875 32.078125 64.796875 
z
M 9.8125 72.90625 
L 32.078125 72.90625 
Q 44.34375 72.90625 50.609375 67.359375 
Q 56.890625 61.8125 56.890625 51.125 
Q 56.890625 40.328125 50.609375 34.8125 
Q 44.34375 29.296875 32.078125 29.296875 
L 19.671875 29.296875 
L 19.671875 0 
L 9.8125 0 
z
" id="DejaVuSans-80"/>
      <path d="M 41.109375 46.296875 
Q 39.59375 47.171875 37.8125 47.578125 
Q 36.03125 48 33.890625 48 
Q 26.265625 48 22.1875 43.046875 
Q 18.109375 38.09375 18.109375 28.8125 
L 18.109375 0 
L 9.078125 0 
L 9.078125 54.6875 
L 18.109375 54.6875 
L 18.109375 46.1875 
Q 20.953125 51.171875 25.484375 53.578125 
Q 30.03125 56 36.53125 56 
Q 37.453125 56 38.578125 55.875 
Q 39.703125 55.765625 41.0625 55.515625 
z
" id="DejaVuSans-114"/>
      <path d="M 56.203125 29.59375 
L 56.203125 25.203125 
L 14.890625 25.203125 
Q 15.484375 15.921875 20.484375 11.0625 
Q 25.484375 6.203125 34.421875 6.203125 
Q 39.59375 6.203125 44.453125 7.46875 
Q 49.3125 8.734375 54.109375 11.28125 
L 54.109375 2.78125 
Q 49.265625 0.734375 44.1875 -0.34375 
Q 39.109375 -1.421875 33.890625 -1.421875 
Q 20.796875 -1.421875 13.15625 6.1875 
Q 5.515625 13.8125 5.515625 26.8125 
Q 5.515625 40.234375 12.765625 48.109375 
Q 20.015625 56 32.328125 56 
Q 43.359375 56 49.78125 48.890625 
Q 56.203125 41.796875 56.203125 29.59375 
z
M 47.21875 32.234375 
Q 47.125 39.59375 43.09375 43.984375 
Q 39.0625 48.390625 32.421875 48.390625 
Q 24.90625 48.390625 20.390625 44.140625 
Q 15.875 39.890625 15.1875 32.171875 
z
" id="DejaVuSans-101"/>
      <path d="M 45.40625 46.390625 
L 45.40625 75.984375 
L 54.390625 75.984375 
L 54.390625 0 
L 45.40625 0 
L 45.40625 8.203125 
Q 42.578125 3.328125 38.25 0.953125 
Q 33.9375 -1.421875 27.875 -1.421875 
Q 17.96875 -1.421875 11.734375 6.484375 
Q 5.515625 14.40625 5.515625 27.296875 
Q 5.515625 40.1875 11.734375 48.09375 
Q 17.96875 56 27.875 56 
Q 33.9375 56 38.25 53.625 
Q 42.578125 51.265625 45.40625 46.390625 
z
M 14.796875 27.296875 
Q 14.796875 17.390625 18.875 11.75 
Q 22.953125 6.109375 30.078125 6.109375 
Q 37.203125 6.109375 41.296875 11.75 
Q 45.40625 17.390625 45.40625 27.296875 
Q 45.40625 37.203125 41.296875 42.84375 
Q 37.203125 48.484375 30.078125 48.484375 
Q 22.953125 48.484375 18.875 42.84375 
Q 14.796875 37.203125 14.796875 27.296875 
z
" id="DejaVuSans-100"/>
      <path d="M 9.421875 54.6875 
L 18.40625 54.6875 
L 18.40625 0 
L 9.421875 0 
z
M 9.421875 75.984375 
L 18.40625 75.984375 
L 18.40625 64.59375 
L 9.421875 64.59375 
z
" id="DejaVuSans-105"/>
      <path d="M 18.3125 70.21875 
L 18.3125 54.6875 
L 36.8125 54.6875 
L 36.8125 47.703125 
L 18.3125 47.703125 
L 18.3125 18.015625 
Q 18.3125 11.328125 20.140625 9.421875 
Q 21.96875 7.515625 27.59375 7.515625 
L 36.8125 7.515625 
L 36.8125 0 
L 27.59375 0 
Q 17.1875 0 13.234375 3.875 
Q 9.28125 7.765625 9.28125 18.015625 
L 9.28125 47.703125 
L 2.6875 47.703125 
L 2.6875 54.6875 
L 9.28125 54.6875 
L 9.28125 70.21875 
z
" id="DejaVuSans-116"/>
      <path d="M 54.890625 33.015625 
L 54.890625 0 
L 45.90625 0 
L 45.90625 32.71875 
Q 45.90625 40.484375 42.875 44.328125 
Q 39.84375 48.1875 33.796875 48.1875 
Q 26.515625 48.1875 22.3125 43.546875 
Q 18.109375 38.921875 18.109375 30.90625 
L 18.109375 0 
L 9.078125 0 
L 9.078125 54.6875 
L 18.109375 54.6875 
L 18.109375 46.1875 
Q 21.34375 51.125 25.703125 53.5625 
Q 30.078125 56 35.796875 56 
Q 45.21875 56 50.046875 50.171875 
Q 54.890625 44.34375 54.890625 33.015625 
z
" id="DejaVuSans-110"/>
      <path id="DejaVuSans-32"/>
      <path d="M 9.421875 75.984375 
L 18.40625 75.984375 
L 18.40625 0 
L 9.421875 0 
z
" id="DejaVuSans-108"/>
      <path d="M 44.28125 53.078125 
L 44.28125 44.578125 
Q 40.484375 46.53125 36.375 47.5 
Q 32.28125 48.484375 27.875 48.484375 
Q 21.1875 48.484375 17.84375 46.4375 
Q 14.5 44.390625 14.5 40.28125 
Q 14.5 37.15625 16.890625 35.375 
Q 19.28125 33.59375 26.515625 31.984375 
L 29.59375 31.296875 
Q 39.15625 29.25 43.1875 25.515625 
Q 47.21875 21.78125 47.21875 15.09375 
Q 47.21875 7.46875 41.1875 3.015625 
Q 35.15625 -1.421875 24.609375 -1.421875 
Q 20.21875 -1.421875 15.453125 -0.5625 
Q 10.6875 0.296875 5.421875 2 
L 5.421875 11.28125 
Q 10.40625 8.6875 15.234375 7.390625 
Q 20.0625 6.109375 24.8125 6.109375 
Q 31.15625 6.109375 34.5625 8.28125 
Q 37.984375 10.453125 37.984375 14.40625 
Q 37.984375 18.0625 35.515625 20.015625 
Q 33.0625 21.96875 24.703125 23.78125 
L 21.578125 24.515625 
Q 13.234375 26.265625 9.515625 29.90625 
Q 5.8125 33.546875 5.8125 39.890625 
Q 5.8125 47.609375 11.28125 51.796875 
Q 16.75 56 26.8125 56 
Q 31.78125 56 36.171875 55.265625 
Q 40.578125 54.546875 44.28125 53.078125 
z
" id="DejaVuSans-115"/>
     </defs>
     <g transform="translate(19.3575 170.3835)rotate(-90)scale(0.16 -0.16)">
      <use xlink:href="#DejaVuSans-80"/>
      <use x="60.287109" xlink:href="#DejaVuSans-114"/>
      <use x="101.369141" xlink:href="#DejaVuSans-101"/>
      <use x="162.892578" xlink:href="#DejaVuSans-100"/>
      <use x="226.369141" xlink:href="#DejaVuSans-105"/>
      <use x="254.152344" xlink:href="#DejaVuSans-99"/>
      <use x="309.132812" xlink:href="#DejaVuSans-116"/>
      <use x="348.341797" xlink:href="#DejaVuSans-105"/>
      <use x="376.125" xlink:href="#DejaVuSans-111"/>
      <use x="437.306641" xlink:href="#DejaVuSans-110"/>
      <use x="500.685547" xlink:href="#DejaVuSans-32"/>
      <use x="532.472656" xlink:href="#DejaVuSans-108"/>
      <use x="560.255859" xlink:href="#DejaVuSans-111"/>
      <use x="621.4375" xlink:href="#DejaVuSans-115"/>
      <use x="673.537109" xlink:href="#DejaVuSans-115"/>
     </g>
    </g>
   </g>
   <g id="line2d_10">
    <path clip-path="url(#pc20504447b)" d="M 74.348182 169.304733 
L 378.711818 169.304733 
" style="fill:none;stroke:#000000;stroke-linecap:square;stroke-opacity:0.8;stroke-width:1.5;"/>
   </g>
   <g id="line2d_11">
    <path clip-path="url(#pc20504447b)" d="M 74.348182 38.975736 
L 77.971558 122.354212 
L 81.594935 150.654378 
L 85.218312 158.037375 
L 88.841688 161.167671 
L 92.465065 162.814755 
L 96.088442 163.795338 
L 99.711818 164.513873 
L 103.335195 164.954376 
L 106.958571 165.388377 
L 110.581948 165.705303 
L 114.205325 165.962772 
L 117.828701 166.190172 
L 121.452078 166.439811 
L 125.075455 166.507608 
L 128.698831 166.671021 
L 132.322208 166.809898 
L 135.945584 166.893728 
L 139.568961 167.016129 
L 143.192338 167.111621 
L 146.815714 167.191015 
L 150.439091 167.246971 
L 154.062468 167.353799 
L 157.685844 167.341188 
L 161.309221 167.435715 
L 164.932597 167.476892 
L 168.555974 167.523127 
L 172.179351 167.561904 
L 175.802727 167.529963 
L 179.426104 167.655812 
L 183.049481 167.671191 
L 186.672857 167.628966 
L 190.296234 167.742976 
L 193.91961 167.707457 
L 197.542987 167.783031 
L 201.166364 167.815634 
L 204.78974 167.796482 
L 208.413117 167.789822 
L 212.036494 167.833605 
L 215.65987 167.905219 
L 219.283247 167.883296 
L 222.906623 167.888685 
L 226.53 167.928627 
L 230.153377 167.95028 
L 233.776753 167.96613 
L 237.40013 167.967923 
L 241.023506 168.022123 
L 244.646883 167.964412 
L 248.27026 168.038252 
L 251.893636 168.02544 
L 255.517013 168.057044 
L 259.14039 168.029764 
L 262.763766 168.058588 
L 266.387143 168.102412 
L 270.010519 168.126229 
L 273.633896 168.069812 
L 277.257273 168.107965 
L 280.880649 168.073644 
L 284.504026 168.033024 
L 288.127403 168.106178 
L 291.750779 168.128328 
L 295.374156 168.082437 
L 298.997532 168.088549 
L 302.620909 168.152886 
L 306.244286 168.07853 
L 309.867662 168.152864 
L 313.491039 168.090687 
L 317.114416 168.134582 
L 320.737792 168.130894 
L 324.361169 168.206634 
L 327.984545 168.157702 
L 331.607922 168.072995 
L 335.231299 168.144628 
L 338.854675 168.181165 
L 342.478052 168.163466 
L 346.101429 168.141684 
L 349.724805 168.165376 
L 353.348182 168.151739 
L 356.971558 168.170083 
L 360.594935 168.150283 
" style="fill:none;stroke:#430000;stroke-linecap:square;stroke-width:5;"/>
   </g>
   <g id="line2d_12">
    <path clip-path="url(#pc20504447b)" d="M 74.348182 41.431693 
L 77.971558 125.901776 
L 81.594935 150.66445 
L 85.218312 158.147035 
L 88.841688 161.307869 
L 92.465065 162.790118 
L 96.088442 163.729378 
L 99.711818 164.424525 
L 103.335195 164.867655 
L 106.958571 165.205484 
L 110.581948 165.477747 
L 114.205325 165.406517 
L 117.828701 165.645901 
L 121.452078 165.906825 
L 125.075455 165.914095 
L 128.698831 165.8336 
L 132.322208 165.68468 
L 135.945584 165.683729 
L 139.568961 165.7181 
L 143.192338 165.740642 
L 146.815714 166.076418 
L 150.439091 166.472675 
L 154.062468 166.56877 
L 157.685844 166.746907 
L 161.309221 166.842581 
L 164.932597 166.99407 
L 168.555974 167.111254 
L 172.179351 167.120292 
L 175.802727 167.306065 
L 179.426104 167.422868 
L 183.049481 167.158818 
L 186.672857 167.075569 
L 190.296234 167.182896 
L 193.91961 167.363778 
L 197.542987 167.39853 
L 201.166364 167.496396 
L 204.78974 167.517385 
L 208.413117 167.586928 
L 212.036494 167.698587 
L 215.65987 167.704554 
L 219.283247 167.774837 
L 222.906623 167.870654 
L 226.53 167.906523 
L 230.153377 167.95389 
L 233.776753 167.953009 
L 237.40013 167.975366 
L 241.023506 167.985856 
L 244.646883 168.048262 
L 248.27026 168.034646 
L 251.893636 168.05936 
L 255.517013 167.584871 
L 259.14039 168.032182 
L 262.763766 167.930004 
L 266.387143 168.034303 
L 270.010519 168.077462 
L 273.633896 168.097359 
L 277.257273 168.115344 
L 280.880649 168.132635 
L 284.504026 168.149635 
L 288.127403 168.1787 
L 291.750779 168.186574 
L 295.374156 168.169491 
L 298.997532 168.161279 
L 302.620909 168.203303 
L 306.244286 168.178286 
L 309.867662 168.21552 
L 313.491039 168.211234 
L 317.114416 168.20579 
L 320.737792 168.038326 
L 324.361169 168.136339 
L 327.984545 168.117765 
L 331.607922 168.185579 
L 335.231299 168.203035 
L 338.854675 168.206104 
L 342.478052 168.280989 
L 346.101429 168.253766 
L 349.724805 168.269447 
L 353.348182 168.212507 
L 356.971558 168.254429 
L 360.594935 168.281646 
" style="fill:none;stroke:#499ad7;stroke-dasharray:18.5,8;stroke-dashoffset:0;stroke-width:5;"/>
   </g>
   <g id="patch_3">
    <path d="M 59.13 199.3095 
L 59.13 25.3575 
" style="fill:none;stroke:#000000;stroke-linecap:square;stroke-linejoin:miter;stroke-width:0.8;"/>
   </g>
   <g id="patch_4">
    <path d="M 59.13 199.3095 
L 393.93 199.3095 
" style="fill:none;stroke:#000000;stroke-linecap:square;stroke-linejoin:miter;stroke-width:0.8;"/>
   </g>
   <g id="text_12">
    <!-- optimal -->
    <defs>
     <path d="M 52 44.1875 
Q 55.375 50.25 60.0625 53.125 
Q 64.75 56 71.09375 56 
Q 79.640625 56 84.28125 50.015625 
Q 88.921875 44.046875 88.921875 33.015625 
L 88.921875 0 
L 79.890625 0 
L 79.890625 32.71875 
Q 79.890625 40.578125 77.09375 44.375 
Q 74.3125 48.1875 68.609375 48.1875 
Q 61.625 48.1875 57.5625 43.546875 
Q 53.515625 38.921875 53.515625 30.90625 
L 53.515625 0 
L 44.484375 0 
L 44.484375 32.71875 
Q 44.484375 40.625 41.703125 44.40625 
Q 38.921875 48.1875 33.109375 48.1875 
Q 26.21875 48.1875 22.15625 43.53125 
Q 18.109375 38.875 18.109375 30.90625 
L 18.109375 0 
L 9.078125 0 
L 9.078125 54.6875 
L 18.109375 54.6875 
L 18.109375 46.1875 
Q 21.1875 51.21875 25.484375 53.609375 
Q 29.78125 56 35.6875 56 
Q 41.65625 56 45.828125 52.96875 
Q 50 49.953125 52 44.1875 
z
" id="DejaVuSans-109"/>
     <path d="M 34.28125 27.484375 
Q 23.390625 27.484375 19.1875 25 
Q 14.984375 22.515625 14.984375 16.5 
Q 14.984375 11.71875 18.140625 8.90625 
Q 21.296875 6.109375 26.703125 6.109375 
Q 34.1875 6.109375 38.703125 11.40625 
Q 43.21875 16.703125 43.21875 25.484375 
L 43.21875 27.484375 
z
M 52.203125 31.203125 
L 52.203125 0 
L 43.21875 0 
L 43.21875 8.296875 
Q 40.140625 3.328125 35.546875 0.953125 
Q 30.953125 -1.421875 24.3125 -1.421875 
Q 15.921875 -1.421875 10.953125 3.296875 
Q 6 8.015625 6 15.921875 
Q 6 25.140625 12.171875 29.828125 
Q 18.359375 34.515625 30.609375 34.515625 
L 43.21875 34.515625 
L 43.21875 35.40625 
Q 43.21875 41.609375 39.140625 45 
Q 35.0625 48.390625 27.6875 48.390625 
Q 23 48.390625 18.546875 47.265625 
Q 14.109375 46.140625 10.015625 43.890625 
L 10.015625 52.203125 
Q 14.9375 54.109375 19.578125 55.046875 
Q 24.21875 56 28.609375 56 
Q 40.484375 56 46.34375 49.84375 
Q 52.203125 43.703125 52.203125 31.203125 
z
" id="DejaVuSans-97"/>
    </defs>
    <g transform="translate(382.335195 169.304733)scale(0.16 -0.16)">
     <use xlink:href="#DejaVuSans-111"/>
     <use x="61.181641" xlink:href="#DejaVuSans-112"/>
     <use x="124.658203" xlink:href="#DejaVuSans-116"/>
     <use x="163.867188" xlink:href="#DejaVuSans-105"/>
     <use x="191.650391" xlink:href="#DejaVuSans-109"/>
     <use x="289.0625" xlink:href="#DejaVuSans-97"/>
     <use x="350.341797" xlink:href="#DejaVuSans-108"/>
    </g>
   </g>
   <g id="text_13">
    <!-- Prediction task convergence -->
    <defs>
     <path d="M 9.1875 72.90625 
L 40.375 72.90625 
Q 54.296875 72.90625 61.734375 66.71875 
Q 69.1875 60.546875 69.1875 49.125 
Q 69.1875 37.640625 61.734375 31.46875 
Q 54.296875 25.296875 40.375 25.296875 
L 27.984375 25.296875 
L 27.984375 0 
L 9.1875 0 
z
M 27.984375 59.28125 
L 27.984375 38.921875 
L 38.375 38.921875 
Q 43.84375 38.921875 46.828125 41.578125 
Q 49.8125 44.234375 49.8125 49.125 
Q 49.8125 54 46.828125 56.640625 
Q 43.84375 59.28125 38.375 59.28125 
z
" id="DejaVuSans-Bold-80"/>
     <path d="M 49.03125 39.796875 
Q 46.734375 40.875 44.453125 41.375 
Q 42.1875 41.890625 39.890625 41.890625 
Q 33.15625 41.890625 29.515625 37.5625 
Q 25.875 33.25 25.875 25.203125 
L 25.875 0 
L 8.40625 0 
L 8.40625 54.6875 
L 25.875 54.6875 
L 25.875 45.703125 
Q 29.25 51.078125 33.609375 53.53125 
Q 37.984375 56 44.09375 56 
Q 44.96875 56 45.984375 55.921875 
Q 47.015625 55.859375 48.96875 55.609375 
z
" id="DejaVuSans-Bold-114"/>
     <path d="M 62.984375 27.484375 
L 62.984375 22.515625 
L 22.125 22.515625 
Q 22.75 16.359375 26.5625 13.28125 
Q 30.375 10.203125 37.203125 10.203125 
Q 42.71875 10.203125 48.5 11.84375 
Q 54.296875 13.484375 60.40625 16.796875 
L 60.40625 3.328125 
Q 54.203125 0.984375 48 -0.21875 
Q 41.796875 -1.421875 35.59375 -1.421875 
Q 20.75 -1.421875 12.515625 6.125 
Q 4.296875 13.671875 4.296875 27.296875 
Q 4.296875 40.671875 12.375 48.328125 
Q 20.453125 56 34.625 56 
Q 47.515625 56 55.25 48.234375 
Q 62.984375 40.484375 62.984375 27.484375 
z
M 45.015625 33.296875 
Q 45.015625 38.28125 42.109375 41.328125 
Q 39.203125 44.390625 34.515625 44.390625 
Q 29.4375 44.390625 26.265625 41.53125 
Q 23.09375 38.671875 22.3125 33.296875 
z
" id="DejaVuSans-Bold-101"/>
     <path d="M 45.609375 46.6875 
L 45.609375 75.984375 
L 63.1875 75.984375 
L 63.1875 0 
L 45.609375 0 
L 45.609375 7.90625 
Q 42 3.078125 37.640625 0.828125 
Q 33.296875 -1.421875 27.59375 -1.421875 
Q 17.484375 -1.421875 10.984375 6.609375 
Q 4.5 14.65625 4.5 27.296875 
Q 4.5 39.9375 10.984375 47.96875 
Q 17.484375 56 27.59375 56 
Q 33.25 56 37.625 53.734375 
Q 42 51.46875 45.609375 46.6875 
z
M 34.078125 11.28125 
Q 39.703125 11.28125 42.65625 15.375 
Q 45.609375 19.484375 45.609375 27.296875 
Q 45.609375 35.109375 42.65625 39.203125 
Q 39.703125 43.3125 34.078125 43.3125 
Q 28.515625 43.3125 25.5625 39.203125 
Q 22.609375 35.109375 22.609375 27.296875 
Q 22.609375 19.484375 25.5625 15.375 
Q 28.515625 11.28125 34.078125 11.28125 
z
" id="DejaVuSans-Bold-100"/>
     <path d="M 8.40625 54.6875 
L 25.875 54.6875 
L 25.875 0 
L 8.40625 0 
z
M 8.40625 75.984375 
L 25.875 75.984375 
L 25.875 61.71875 
L 8.40625 61.71875 
z
" id="DejaVuSans-Bold-105"/>
     <path d="M 52.59375 52.984375 
L 52.59375 38.71875 
Q 49.03125 41.15625 45.4375 42.328125 
Q 41.84375 43.5 37.984375 43.5 
Q 30.671875 43.5 26.59375 39.234375 
Q 22.515625 34.96875 22.515625 27.296875 
Q 22.515625 19.625 26.59375 15.34375 
Q 30.671875 11.078125 37.984375 11.078125 
Q 42.09375 11.078125 45.78125 12.296875 
Q 49.46875 13.53125 52.59375 15.921875 
L 52.59375 1.609375 
Q 48.484375 0.09375 44.265625 -0.65625 
Q 40.046875 -1.421875 35.796875 -1.421875 
Q 21 -1.421875 12.640625 6.171875 
Q 4.296875 13.765625 4.296875 27.296875 
Q 4.296875 40.828125 12.640625 48.40625 
Q 21 56 35.796875 56 
Q 40.09375 56 44.265625 55.25 
Q 48.4375 54.5 52.59375 52.984375 
z
" id="DejaVuSans-Bold-99"/>
     <path d="M 27.484375 70.21875 
L 27.484375 54.6875 
L 45.515625 54.6875 
L 45.515625 42.1875 
L 27.484375 42.1875 
L 27.484375 19 
Q 27.484375 15.1875 29 13.84375 
Q 30.515625 12.5 35.015625 12.5 
L 44 12.5 
L 44 0 
L 29 0 
Q 18.65625 0 14.328125 4.3125 
Q 10.015625 8.640625 10.015625 19 
L 10.015625 42.1875 
L 1.3125 42.1875 
L 1.3125 54.6875 
L 10.015625 54.6875 
L 10.015625 70.21875 
z
" id="DejaVuSans-Bold-116"/>
     <path d="M 34.421875 43.5 
Q 28.609375 43.5 25.5625 39.328125 
Q 22.515625 35.15625 22.515625 27.296875 
Q 22.515625 19.4375 25.5625 15.25 
Q 28.609375 11.078125 34.421875 11.078125 
Q 40.140625 11.078125 43.15625 15.25 
Q 46.1875 19.4375 46.1875 27.296875 
Q 46.1875 35.15625 43.15625 39.328125 
Q 40.140625 43.5 34.421875 43.5 
z
M 34.421875 56 
Q 48.53125 56 56.46875 48.375 
Q 64.40625 40.765625 64.40625 27.296875 
Q 64.40625 13.8125 56.46875 6.1875 
Q 48.53125 -1.421875 34.421875 -1.421875 
Q 20.265625 -1.421875 12.28125 6.1875 
Q 4.296875 13.8125 4.296875 27.296875 
Q 4.296875 40.765625 12.28125 48.375 
Q 20.265625 56 34.421875 56 
z
" id="DejaVuSans-Bold-111"/>
     <path d="M 63.375 33.296875 
L 63.375 0 
L 45.796875 0 
L 45.796875 5.421875 
L 45.796875 25.484375 
Q 45.796875 32.5625 45.484375 35.25 
Q 45.171875 37.9375 44.390625 39.203125 
Q 43.359375 40.921875 41.59375 41.875 
Q 39.84375 42.828125 37.59375 42.828125 
Q 32.125 42.828125 29 38.59375 
Q 25.875 34.375 25.875 26.90625 
L 25.875 0 
L 8.40625 0 
L 8.40625 54.6875 
L 25.875 54.6875 
L 25.875 46.6875 
Q 29.828125 51.46875 34.265625 53.734375 
Q 38.71875 56 44.09375 56 
Q 53.5625 56 58.46875 50.1875 
Q 63.375 44.390625 63.375 33.296875 
z
" id="DejaVuSans-Bold-110"/>
     <path id="DejaVuSans-Bold-32"/>
     <path d="M 32.90625 24.609375 
Q 27.4375 24.609375 24.671875 22.75 
Q 21.921875 20.90625 21.921875 17.28125 
Q 21.921875 13.96875 24.140625 12.078125 
Q 26.375 10.203125 30.328125 10.203125 
Q 35.25 10.203125 38.625 13.734375 
Q 42 17.28125 42 22.609375 
L 42 24.609375 
z
M 59.625 31.203125 
L 59.625 0 
L 42 0 
L 42 8.109375 
Q 38.484375 3.125 34.078125 0.84375 
Q 29.6875 -1.421875 23.390625 -1.421875 
Q 14.890625 -1.421875 9.59375 3.53125 
Q 4.296875 8.5 4.296875 16.40625 
Q 4.296875 26.03125 10.90625 30.515625 
Q 17.53125 35.015625 31.6875 35.015625 
L 42 35.015625 
L 42 36.375 
Q 42 40.53125 38.71875 42.453125 
Q 35.453125 44.390625 28.515625 44.390625 
Q 22.90625 44.390625 18.0625 43.265625 
Q 13.234375 42.140625 9.078125 39.890625 
L 9.078125 53.21875 
Q 14.703125 54.59375 20.359375 55.296875 
Q 26.03125 56 31.6875 56 
Q 46.484375 56 53.046875 50.171875 
Q 59.625 44.34375 59.625 31.203125 
z
" id="DejaVuSans-Bold-97"/>
     <path d="M 51.125 52.984375 
L 51.125 39.703125 
Q 45.515625 42.046875 40.28125 43.21875 
Q 35.0625 44.390625 30.421875 44.390625 
Q 25.4375 44.390625 23.015625 43.140625 
Q 20.609375 41.890625 20.609375 39.3125 
Q 20.609375 37.203125 22.4375 36.078125 
Q 24.265625 34.96875 29 34.421875 
L 32.078125 33.984375 
Q 45.515625 32.28125 50.140625 28.375 
Q 54.78125 24.46875 54.78125 16.109375 
Q 54.78125 7.375 48.328125 2.96875 
Q 41.890625 -1.421875 29.109375 -1.421875 
Q 23.6875 -1.421875 17.890625 -0.5625 
Q 12.109375 0.296875 6 2 
L 6 15.28125 
Q 11.234375 12.75 16.71875 11.46875 
Q 22.21875 10.203125 27.875 10.203125 
Q 33.015625 10.203125 35.59375 11.609375 
Q 38.1875 13.03125 38.1875 15.828125 
Q 38.1875 18.171875 36.40625 19.3125 
Q 34.625 20.453125 29.296875 21.09375 
L 26.21875 21.484375 
Q 14.546875 22.953125 9.859375 26.90625 
Q 5.171875 30.859375 5.171875 38.921875 
Q 5.171875 47.609375 11.125 51.796875 
Q 17.09375 56 29.390625 56 
Q 34.234375 56 39.546875 55.265625 
Q 44.875 54.546875 51.125 52.984375 
z
" id="DejaVuSans-Bold-115"/>
     <path d="M 8.40625 75.984375 
L 25.875 75.984375 
L 25.875 34.625 
L 46 54.6875 
L 66.3125 54.6875 
L 39.59375 29.59375 
L 68.40625 0 
L 47.21875 0 
L 25.875 22.796875 
L 25.875 0 
L 8.40625 0 
z
" id="DejaVuSans-Bold-107"/>
     <path d="M 1.515625 54.6875 
L 19 54.6875 
L 32.625 16.890625 
L 46.1875 54.6875 
L 63.71875 54.6875 
L 42.1875 0 
L 23 0 
z
" id="DejaVuSans-Bold-118"/>
     <path d="M 45.609375 9.28125 
Q 42 4.5 37.640625 2.25 
Q 33.296875 0 27.59375 0 
Q 17.578125 0 11.03125 7.875 
Q 4.5 15.765625 4.5 27.984375 
Q 4.5 40.234375 11.03125 48.0625 
Q 17.578125 55.90625 27.59375 55.90625 
Q 33.296875 55.90625 37.640625 53.65625 
Q 42 51.421875 45.609375 46.578125 
L 45.609375 54.6875 
L 63.1875 54.6875 
L 63.1875 5.515625 
Q 63.1875 -7.671875 54.859375 -14.625 
Q 46.53125 -21.578125 30.71875 -21.578125 
Q 25.59375 -21.578125 20.796875 -20.796875 
Q 16.015625 -20.015625 11.1875 -18.40625 
L 11.1875 -4.78125 
Q 15.765625 -7.421875 20.15625 -8.71875 
Q 24.5625 -10.015625 29 -10.015625 
Q 37.59375 -10.015625 41.59375 -6.25 
Q 45.609375 -2.484375 45.609375 5.515625 
z
M 34.078125 43.3125 
Q 28.65625 43.3125 25.625 39.296875 
Q 22.609375 35.296875 22.609375 27.984375 
Q 22.609375 20.453125 25.53125 16.578125 
Q 28.46875 12.703125 34.078125 12.703125 
Q 39.546875 12.703125 42.578125 16.703125 
Q 45.609375 20.703125 45.609375 27.984375 
Q 45.609375 35.296875 42.578125 39.296875 
Q 39.546875 43.3125 34.078125 43.3125 
z
" id="DejaVuSans-Bold-103"/>
    </defs>
    <g transform="translate(97.91625 19.3575)scale(0.16 -0.16)">
     <use xlink:href="#DejaVuSans-Bold-80"/>
     <use x="73.291016" xlink:href="#DejaVuSans-Bold-114"/>
     <use x="122.607422" xlink:href="#DejaVuSans-Bold-101"/>
     <use x="190.429688" xlink:href="#DejaVuSans-Bold-100"/>
     <use x="262.011719" xlink:href="#DejaVuSans-Bold-105"/>
     <use x="296.289062" xlink:href="#DejaVuSans-Bold-99"/>
     <use x="355.566406" xlink:href="#DejaVuSans-Bold-116"/>
     <use x="403.369141" xlink:href="#DejaVuSans-Bold-105"/>
     <use x="437.646484" xlink:href="#DejaVuSans-Bold-111"/>
     <use x="506.347656" xlink:href="#DejaVuSans-Bold-110"/>
     <use x="577.539062" xlink:href="#DejaVuSans-Bold-32"/>
     <use x="612.353516" xlink:href="#DejaVuSans-Bold-116"/>
     <use x="660.15625" xlink:href="#DejaVuSans-Bold-97"/>
     <use x="727.636719" xlink:href="#DejaVuSans-Bold-115"/>
     <use x="787.158203" xlink:href="#DejaVuSans-Bold-107"/>
     <use x="853.662109" xlink:href="#DejaVuSans-Bold-32"/>
     <use x="888.476562" xlink:href="#DejaVuSans-Bold-99"/>
     <use x="947.753906" xlink:href="#DejaVuSans-Bold-111"/>
     <use x="1016.455078" xlink:href="#DejaVuSans-Bold-110"/>
     <use x="1087.646484" xlink:href="#DejaVuSans-Bold-118"/>
     <use x="1152.832031" xlink:href="#DejaVuSans-Bold-101"/>
     <use x="1220.654297" xlink:href="#DejaVuSans-Bold-114"/>
     <use x="1269.970703" xlink:href="#DejaVuSans-Bold-103"/>
     <use x="1341.552734" xlink:href="#DejaVuSans-Bold-101"/>
     <use x="1409.375" xlink:href="#DejaVuSans-Bold-110"/>
     <use x="1480.566406" xlink:href="#DejaVuSans-Bold-99"/>
     <use x="1539.84375" xlink:href="#DejaVuSans-Bold-101"/>
    </g>
   </g>
  </g>
  <g id="axes_2">
   <g id="patch_5">
    <path d="M 59.13 460.2375 
L 393.93 460.2375 
L 393.93 286.2855 
L 59.13 286.2855 
z
" style="fill:#ffffff;"/>
   </g>
   <g id="PolyCollection_3">
    <defs>
     <path d="M 74.348182 -181.657078 
L 74.348182 -180.943021 
L 77.971558 -180.974579 
L 81.594935 -180.971499 
L 85.218312 -180.969709 
L 88.841688 -180.968373 
L 92.465065 -180.967495 
L 96.088442 -180.966941 
L 99.711818 -180.964254 
L 103.335195 -180.966999 
L 106.958571 -180.966731 
L 110.581948 -180.966829 
L 114.205325 -180.967407 
L 117.828701 -180.967838 
L 121.452078 -180.96865 
L 125.075455 -180.968609 
L 128.698831 -180.969433 
L 132.322208 -180.97007 
L 135.945584 -180.971224 
L 139.568961 -180.971561 
L 143.192338 -180.971737 
L 146.815714 -180.972581 
L 150.439091 -180.973069 
L 154.062468 -180.973606 
L 157.685844 -180.974108 
L 161.309221 -180.974811 
L 164.932597 -180.97164 
L 168.555974 -180.976007 
L 172.179351 -180.980997 
L 175.802727 -180.980412 
L 179.426104 -180.980131 
L 183.049481 -180.980795 
L 186.672857 -180.98151 
L 190.296234 -180.982553 
L 193.91961 -180.983272 
L 197.542987 -180.983964 
L 201.166364 -180.984756 
L 204.78974 -180.985642 
L 208.413117 -180.986633 
L 212.036494 -180.98783 
L 215.65987 -180.988853 
L 219.283247 -180.990069 
L 222.906623 -180.990932 
L 226.53 -180.992244 
L 230.153377 -180.993311 
L 233.776753 -180.991542 
L 237.40013 -180.995477 
L 241.023506 -180.997304 
L 244.646883 -180.998481 
L 248.27026 -181.000117 
L 251.893636 -180.998017 
L 255.517013 -180.998475 
L 259.14039 -180.998106 
L 262.763766 -180.9987 
L 266.387143 -180.998894 
L 270.010519 -180.999772 
L 273.633896 -180.999355 
L 277.257273 -180.999825 
L 280.880649 -180.999477 
L 284.504026 -180.999958 
L 288.127403 -180.997791 
L 291.750779 -180.997367 
L 295.374156 -180.997929 
L 298.997532 -180.999572 
L 302.620909 -181.000152 
L 306.244286 -180.999987 
L 309.867662 -180.999879 
L 313.491039 -181.00024 
L 317.114416 -180.999152 
L 320.737792 -180.999868 
L 324.361169 -181.000024 
L 327.984545 -180.999848 
L 331.607922 -181.000088 
L 335.231299 -181.000042 
L 338.854675 -180.999877 
L 342.478052 -180.999454 
L 346.101429 -180.99956 
L 349.724805 -180.999394 
L 353.348182 -180.99954 
L 356.971558 -181.002017 
L 360.594935 -181.00064 
L 360.594935 -181.377153 
L 360.594935 -181.377153 
L 356.971558 -181.376296 
L 353.348182 -181.374664 
L 349.724805 -181.372769 
L 346.101429 -181.372405 
L 342.478052 -181.372059 
L 338.854675 -181.37216 
L 335.231299 -181.372034 
L 331.607922 -181.372092 
L 327.984545 -181.371853 
L 324.361169 -181.37206 
L 320.737792 -181.372023 
L 317.114416 -181.372002 
L 313.491039 -181.372416 
L 309.867662 -181.37236 
L 306.244286 -181.372364 
L 302.620909 -181.370802 
L 298.997532 -181.370844 
L 295.374156 -181.371149 
L 291.750779 -181.371177 
L 288.127403 -181.371614 
L 284.504026 -181.372744 
L 280.880649 -181.37303 
L 277.257273 -181.373905 
L 273.633896 -181.374722 
L 270.010519 -181.375449 
L 266.387143 -181.37614 
L 262.763766 -181.376838 
L 259.14039 -181.377062 
L 255.517013 -181.378115 
L 251.893636 -181.378896 
L 248.27026 -181.379938 
L 244.646883 -181.380521 
L 241.023506 -181.382 
L 237.40013 -181.383041 
L 233.776753 -181.384265 
L 230.153377 -181.385751 
L 226.53 -181.387426 
L 222.906623 -181.388909 
L 219.283247 -181.390089 
L 215.65987 -181.391907 
L 212.036494 -181.393856 
L 208.413117 -181.395424 
L 204.78974 -181.397633 
L 201.166364 -181.400283 
L 197.542987 -181.402842 
L 193.91961 -181.405503 
L 190.296234 -181.408904 
L 186.672857 -181.410509 
L 183.049481 -181.413144 
L 179.426104 -181.416034 
L 175.802727 -181.417915 
L 172.179351 -181.421891 
L 168.555974 -181.425427 
L 164.932597 -181.429263 
L 161.309221 -181.432463 
L 157.685844 -181.436434 
L 154.062468 -181.440268 
L 150.439091 -181.444459 
L 146.815714 -181.449188 
L 143.192338 -181.454388 
L 139.568961 -181.459823 
L 135.945584 -181.465724 
L 132.322208 -181.472168 
L 128.698831 -181.4789 
L 125.075455 -181.486228 
L 121.452078 -181.493952 
L 117.828701 -181.502657 
L 114.205325 -181.511853 
L 110.581948 -181.52171 
L 106.958571 -181.532277 
L 103.335195 -181.544063 
L 99.711818 -181.556762 
L 96.088442 -181.57065 
L 92.465065 -181.585695 
L 88.841688 -181.602122 
L 85.218312 -181.62013 
L 81.594935 -181.640019 
L 77.971558 -181.660815 
L 74.348182 -181.657078 
z
" id="md6248dd346" style="stroke:#cf8f17;stroke-opacity:0.2;"/>
    </defs>
    <g clip-path="url(#p89cc5bc3d9)">
     <use style="fill:#cf8f17;fill-opacity:0.2;stroke:#cf8f17;stroke-opacity:0.2;" x="0" xlink:href="#md6248dd346" y="509.4075"/>
    </g>
   </g>
   <g id="PolyCollection_4">
    <defs>
     <path d="M 74.348182 -181.828463 
L 74.348182 -180.887407 
L 77.971558 -180.753023 
L 81.594935 -180.703745 
L 85.218312 -180.807769 
L 88.841688 -180.759843 
L 92.465065 -180.593834 
L 96.088442 -180.644555 
L 99.711818 -180.462994 
L 103.335195 -180.385424 
L 106.958571 -179.924495 
L 110.581948 -178.055314 
L 114.205325 -168.587883 
L 117.828701 -150.172766 
L 121.452078 -143.246591 
L 125.075455 -134.535477 
L 128.698831 -124.672174 
L 132.322208 -106.294094 
L 135.945584 -90.297377 
L 139.568961 -74.78025 
L 143.192338 -65.97276 
L 146.815714 -56.608221 
L 150.439091 -47.999742 
L 154.062468 -46.057358 
L 157.685844 -43.218433 
L 161.309221 -42.342806 
L 164.932597 -42.853894 
L 168.555974 -41.771177 
L 172.179351 -37.417891 
L 175.802727 -39.961809 
L 179.426104 -39.485419 
L 183.049481 -35.286358 
L 186.672857 -34.310505 
L 190.296234 -39.268133 
L 193.91961 -37.164481 
L 197.542987 -36.458575 
L 201.166364 -37.06285 
L 204.78974 -36.86777 
L 208.413117 -35.742015 
L 212.036494 -34.603223 
L 215.65987 -34.28295 
L 219.283247 -33.833533 
L 222.906623 -33.948464 
L 226.53 -33.566015 
L 230.153377 -33.527677 
L 233.776753 -33.428953 
L 237.40013 -33.318472 
L 241.023506 -33.460784 
L 244.646883 -33.457308 
L 248.27026 -33.237087 
L 251.893636 -32.930046 
L 255.517013 -31.034818 
L 259.14039 -32.277212 
L 262.763766 -34.550569 
L 266.387143 -34.193974 
L 270.010519 -34.16104 
L 273.633896 -34.361323 
L 277.257273 -33.511865 
L 280.880649 -33.036872 
L 284.504026 -32.686313 
L 288.127403 -32.674211 
L 291.750779 -32.493624 
L 295.374156 -32.842249 
L 298.997532 -32.806533 
L 302.620909 -32.529827 
L 306.244286 -32.699918 
L 309.867662 -32.83702 
L 313.491039 -32.57363 
L 317.114416 -32.64313 
L 320.737792 -34.771872 
L 324.361169 -34.00017 
L 327.984545 -32.548278 
L 331.607922 -32.914519 
L 335.231299 -33.155509 
L 338.854675 -32.881223 
L 342.478052 -32.470569 
L 346.101429 -32.57164 
L 349.724805 -32.448813 
L 353.348182 -32.521411 
L 356.971558 -32.322113 
L 360.594935 -32.479411 
L 360.594935 -102.077133 
L 360.594935 -102.077133 
L 356.971558 -101.986288 
L 353.348182 -102.140963 
L 349.724805 -102.048112 
L 346.101429 -102.223208 
L 342.478052 -102.068931 
L 338.854675 -102.388043 
L 335.231299 -102.523182 
L 331.607922 -102.396092 
L 327.984545 -111.753269 
L 324.361169 -105.102693 
L 320.737792 -114.944257 
L 317.114416 -102.174687 
L 313.491039 -102.121447 
L 309.867662 -102.341693 
L 306.244286 -102.196956 
L 302.620909 -102.093101 
L 298.997532 -102.252964 
L 295.374156 -102.28084 
L 291.750779 -102.114232 
L 288.127403 -102.184768 
L 284.504026 -102.197235 
L 280.880649 -102.412335 
L 277.257273 -102.975793 
L 273.633896 -104.681635 
L 270.010519 -104.881955 
L 266.387143 -105.021659 
L 262.763766 -106.377357 
L 259.14039 -114.338646 
L 255.517013 -129.891092 
L 251.893636 -111.481819 
L 248.27026 -111.683396 
L 244.646883 -111.730311 
L 241.023506 -111.786246 
L 237.40013 -111.843036 
L 233.776753 -111.770004 
L 230.153377 -111.958579 
L 226.53 -111.947676 
L 222.906623 -112.151023 
L 219.283247 -112.249493 
L 215.65987 -112.224691 
L 212.036494 -112.407276 
L 208.413117 -113.208835 
L 204.78974 -116.371272 
L 201.166364 -122.580245 
L 197.542987 -128.064881 
L 193.91961 -122.226954 
L 190.296234 -129.994888 
L 186.672857 -147.786146 
L 183.049481 -129.937431 
L 179.426104 -115.00551 
L 175.802727 -115.427365 
L 172.179351 -128.545794 
L 168.555974 -117.159673 
L 164.932597 -121.891209 
L 161.309221 -127.691841 
L 157.685844 -134.841824 
L 154.062468 -139.677979 
L 150.439091 -146.011016 
L 146.815714 -150.894042 
L 143.192338 -158.4202 
L 139.568961 -166.440411 
L 135.945584 -179.110778 
L 132.322208 -185.632061 
L 128.698831 -191.522264 
L 125.075455 -195.254107 
L 121.452078 -194.907388 
L 117.828701 -194.087171 
L 114.205325 -186.483184 
L 110.581948 -182.514365 
L 106.958571 -181.866898 
L 103.335195 -181.817323 
L 99.711818 -181.947031 
L 96.088442 -181.800817 
L 92.465065 -182.011564 
L 88.841688 -181.845048 
L 85.218312 -181.848439 
L 81.594935 -182.034661 
L 77.971558 -182.022488 
L 74.348182 -181.828463 
z
" id="mc1af856ead" style="stroke:#499ad7;stroke-opacity:0.2;"/>
    </defs>
    <g clip-path="url(#p89cc5bc3d9)">
     <use style="fill:#499ad7;fill-opacity:0.2;stroke:#499ad7;stroke-opacity:0.2;" x="0" xlink:href="#mc1af856ead" y="509.4075"/>
    </g>
   </g>
   <g id="patch_6">
    <path clip-path="url(#p89cc5bc3d9)" d="M 327.984545 336.787694 
L 333.41961 348.010403 
L 327.986357 348.010403 
L 327.986357 381.678532 
L 327.982734 381.678532 
L 327.982734 348.010403 
L 322.549481 348.010403 
z
" style="stroke:#000000;stroke-linejoin:miter;stroke-width:1.5;"/>
   </g>
   <g id="patch_7">
    <path clip-path="url(#p89cc5bc3d9)" d="M 327.984545 426.569371 
L 322.549481 415.346661 
L 327.982734 415.346661 
L 327.982734 381.678532 
L 327.986357 381.678532 
L 327.986357 415.346661 
L 333.41961 415.346661 
z
" style="stroke:#000000;stroke-linejoin:miter;stroke-width:1.5;"/>
   </g>
   <g id="matplotlib.axis_3">
    <g id="xtick_6">
     <g id="line2d_13">
      <g>
       <use style="stroke:#000000;stroke-width:0.8;" x="74.348182" xlink:href="#mb68cea190c" y="460.2375"/>
      </g>
     </g>
     <g id="text_14">
      <!-- 0 -->
      <g transform="translate(69.258182 479.395)scale(0.16 -0.16)">
       <use xlink:href="#DejaVuSans-48"/>
      </g>
     </g>
    </g>
    <g id="xtick_7">
     <g id="line2d_14">
      <g>
       <use style="stroke:#000000;stroke-width:0.8;" x="146.815714" xlink:href="#mb68cea190c" y="460.2375"/>
      </g>
     </g>
     <g id="text_15">
      <!-- 20 -->
      <g transform="translate(136.635714 479.395)scale(0.16 -0.16)">
       <use xlink:href="#DejaVuSans-50"/>
       <use x="63.623047" xlink:href="#DejaVuSans-48"/>
      </g>
     </g>
    </g>
    <g id="xtick_8">
     <g id="line2d_15">
      <g>
       <use style="stroke:#000000;stroke-width:0.8;" x="219.283247" xlink:href="#mb68cea190c" y="460.2375"/>
      </g>
     </g>
     <g id="text_16">
      <!-- 40 -->
      <g transform="translate(209.103247 479.395)scale(0.16 -0.16)">
       <use xlink:href="#DejaVuSans-52"/>
       <use x="63.623047" xlink:href="#DejaVuSans-48"/>
      </g>
     </g>
    </g>
    <g id="xtick_9">
     <g id="line2d_16">
      <g>
       <use style="stroke:#000000;stroke-width:0.8;" x="291.750779" xlink:href="#mb68cea190c" y="460.2375"/>
      </g>
     </g>
     <g id="text_17">
      <!-- 60 -->
      <g transform="translate(281.570779 479.395)scale(0.16 -0.16)">
       <use xlink:href="#DejaVuSans-54"/>
       <use x="63.623047" xlink:href="#DejaVuSans-48"/>
      </g>
     </g>
    </g>
    <g id="xtick_10">
     <g id="line2d_17">
      <g>
       <use style="stroke:#000000;stroke-width:0.8;" x="364.218312" xlink:href="#mb68cea190c" y="460.2375"/>
      </g>
     </g>
     <g id="text_18">
      <!-- 80 -->
      <g transform="translate(354.038312 479.395)scale(0.16 -0.16)">
       <use xlink:href="#DejaVuSans-56"/>
       <use x="63.623047" xlink:href="#DejaVuSans-48"/>
      </g>
     </g>
    </g>
    <g id="text_19">
     <!-- Epoch -->
     <g transform="translate(202.0325 498.88)scale(0.16 -0.16)">
      <use xlink:href="#DejaVuSans-69"/>
      <use x="63.183594" xlink:href="#DejaVuSans-112"/>
      <use x="126.660156" xlink:href="#DejaVuSans-111"/>
      <use x="187.841797" xlink:href="#DejaVuSans-99"/>
      <use x="242.822266" xlink:href="#DejaVuSans-104"/>
     </g>
    </g>
   </g>
   <g id="matplotlib.axis_4">
    <g id="ytick_5">
     <g id="line2d_18">
      <g>
       <use style="stroke:#000000;stroke-width:0.8;" x="59.13" xlink:href="#m9ed77172c6" y="454.626145"/>
      </g>
     </g>
     <g id="text_20">
      <!-- 0.0 -->
      <defs>
       <path d="M 10.6875 12.40625 
L 21 12.40625 
L 21 0 
L 10.6875 0 
z
" id="DejaVuSans-46"/>
      </defs>
      <g transform="translate(26.685 460.704895)scale(0.16 -0.16)">
       <use xlink:href="#DejaVuSans-48"/>
       <use x="63.623047" xlink:href="#DejaVuSans-46"/>
       <use x="95.410156" xlink:href="#DejaVuSans-48"/>
      </g>
     </g>
    </g>
    <g id="ytick_6">
     <g id="line2d_19">
      <g>
       <use style="stroke:#000000;stroke-width:0.8;" x="59.13" xlink:href="#m9ed77172c6" y="398.512597"/>
      </g>
     </g>
     <g id="text_21">
      <!-- 0.5 -->
      <defs>
       <path d="M 10.796875 72.90625 
L 49.515625 72.90625 
L 49.515625 64.59375 
L 19.828125 64.59375 
L 19.828125 46.734375 
Q 21.96875 47.46875 24.109375 47.828125 
Q 26.265625 48.1875 28.421875 48.1875 
Q 40.625 48.1875 47.75 41.5 
Q 54.890625 34.8125 54.890625 23.390625 
Q 54.890625 11.625 47.5625 5.09375 
Q 40.234375 -1.421875 26.90625 -1.421875 
Q 22.3125 -1.421875 17.546875 -0.640625 
Q 12.796875 0.140625 7.71875 1.703125 
L 7.71875 11.625 
Q 12.109375 9.234375 16.796875 8.0625 
Q 21.484375 6.890625 26.703125 6.890625 
Q 35.15625 6.890625 40.078125 11.328125 
Q 45.015625 15.765625 45.015625 23.390625 
Q 45.015625 31 40.078125 35.4375 
Q 35.15625 39.890625 26.703125 39.890625 
Q 22.75 39.890625 18.8125 39.015625 
Q 14.890625 38.140625 10.796875 36.28125 
z
" id="DejaVuSans-53"/>
      </defs>
      <g transform="translate(26.685 404.591347)scale(0.16 -0.16)">
       <use xlink:href="#DejaVuSans-48"/>
       <use x="63.623047" xlink:href="#DejaVuSans-46"/>
       <use x="95.410156" xlink:href="#DejaVuSans-53"/>
      </g>
     </g>
    </g>
    <g id="ytick_7">
     <g id="line2d_20">
      <g>
       <use style="stroke:#000000;stroke-width:0.8;" x="59.13" xlink:href="#m9ed77172c6" y="342.399048"/>
      </g>
     </g>
     <g id="text_22">
      <!-- 1.0 -->
      <g transform="translate(26.685 348.477798)scale(0.16 -0.16)">
       <use xlink:href="#DejaVuSans-49"/>
       <use x="63.623047" xlink:href="#DejaVuSans-46"/>
       <use x="95.410156" xlink:href="#DejaVuSans-48"/>
      </g>
     </g>
    </g>
    <g id="ytick_8">
     <g id="line2d_21">
      <g>
       <use style="stroke:#000000;stroke-width:0.8;" x="59.13" xlink:href="#m9ed77172c6" y="286.2855"/>
      </g>
     </g>
     <g id="text_23">
      <!-- 1.5 -->
      <g transform="translate(26.685 292.36425)scale(0.16 -0.16)">
       <use xlink:href="#DejaVuSans-49"/>
       <use x="63.623047" xlink:href="#DejaVuSans-46"/>
       <use x="95.410156" xlink:href="#DejaVuSans-53"/>
      </g>
     </g>
    </g>
    <g id="text_24">
     <!-- Categorisation loss -->
     <defs>
      <path d="M 64.40625 67.28125 
L 64.40625 56.890625 
Q 59.421875 61.53125 53.78125 63.8125 
Q 48.140625 66.109375 41.796875 66.109375 
Q 29.296875 66.109375 22.65625 58.46875 
Q 16.015625 50.828125 16.015625 36.375 
Q 16.015625 21.96875 22.65625 14.328125 
Q 29.296875 6.6875 41.796875 6.6875 
Q 48.140625 6.6875 53.78125 8.984375 
Q 59.421875 11.28125 64.40625 15.921875 
L 64.40625 5.609375 
Q 59.234375 2.09375 53.4375 0.328125 
Q 47.65625 -1.421875 41.21875 -1.421875 
Q 24.65625 -1.421875 15.125 8.703125 
Q 5.609375 18.84375 5.609375 36.375 
Q 5.609375 53.953125 15.125 64.078125 
Q 24.65625 74.21875 41.21875 74.21875 
Q 47.75 74.21875 53.53125 72.484375 
Q 59.328125 70.75 64.40625 67.28125 
z
" id="DejaVuSans-67"/>
      <path d="M 45.40625 27.984375 
Q 45.40625 37.75 41.375 43.109375 
Q 37.359375 48.484375 30.078125 48.484375 
Q 22.859375 48.484375 18.828125 43.109375 
Q 14.796875 37.75 14.796875 27.984375 
Q 14.796875 18.265625 18.828125 12.890625 
Q 22.859375 7.515625 30.078125 7.515625 
Q 37.359375 7.515625 41.375 12.890625 
Q 45.40625 18.265625 45.40625 27.984375 
z
M 54.390625 6.78125 
Q 54.390625 -7.171875 48.1875 -13.984375 
Q 42 -20.796875 29.203125 -20.796875 
Q 24.46875 -20.796875 20.265625 -20.09375 
Q 16.0625 -19.390625 12.109375 -17.921875 
L 12.109375 -9.1875 
Q 16.0625 -11.328125 19.921875 -12.34375 
Q 23.78125 -13.375 27.78125 -13.375 
Q 36.625 -13.375 41.015625 -8.765625 
Q 45.40625 -4.15625 45.40625 5.171875 
L 45.40625 9.625 
Q 42.625 4.78125 38.28125 2.390625 
Q 33.9375 0 27.875 0 
Q 17.828125 0 11.671875 7.65625 
Q 5.515625 15.328125 5.515625 27.984375 
Q 5.515625 40.671875 11.671875 48.328125 
Q 17.828125 56 27.875 56 
Q 33.9375 56 38.28125 53.609375 
Q 42.625 51.21875 45.40625 46.390625 
L 45.40625 54.6875 
L 54.390625 54.6875 
z
" id="DejaVuSans-103"/>
     </defs>
     <g transform="translate(19.3575 449.68275)rotate(-90)scale(0.16 -0.16)">
      <use xlink:href="#DejaVuSans-67"/>
      <use x="69.824219" xlink:href="#DejaVuSans-97"/>
      <use x="131.103516" xlink:href="#DejaVuSans-116"/>
      <use x="170.3125" xlink:href="#DejaVuSans-101"/>
      <use x="231.835938" xlink:href="#DejaVuSans-103"/>
      <use x="295.3125" xlink:href="#DejaVuSans-111"/>
      <use x="356.494141" xlink:href="#DejaVuSans-114"/>
      <use x="397.607422" xlink:href="#DejaVuSans-105"/>
      <use x="425.390625" xlink:href="#DejaVuSans-115"/>
      <use x="477.490234" xlink:href="#DejaVuSans-97"/>
      <use x="538.769531" xlink:href="#DejaVuSans-116"/>
      <use x="577.978516" xlink:href="#DejaVuSans-105"/>
      <use x="605.761719" xlink:href="#DejaVuSans-111"/>
      <use x="666.943359" xlink:href="#DejaVuSans-110"/>
      <use x="730.322266" xlink:href="#DejaVuSans-32"/>
      <use x="762.109375" xlink:href="#DejaVuSans-108"/>
      <use x="789.892578" xlink:href="#DejaVuSans-111"/>
      <use x="851.074219" xlink:href="#DejaVuSans-115"/>
      <use x="903.173828" xlink:href="#DejaVuSans-115"/>
     </g>
    </g>
   </g>
   <g id="line2d_22">
    <path clip-path="url(#p89cc5bc3d9)" d="M 74.348182 454.626145 
L 378.711818 454.626145 
" style="fill:none;stroke:#000000;stroke-linecap:square;stroke-opacity:0.8;stroke-width:1.5;"/>
   </g>
   <g id="line2d_23">
    <path clip-path="url(#p89cc5bc3d9)" d="M 74.348182 328.407664 
L 378.711818 328.407664 
" style="fill:none;stroke:#000000;stroke-linecap:square;stroke-opacity:0.8;stroke-width:1.5;"/>
   </g>
   <g id="line2d_24">
    <path clip-path="url(#p89cc5bc3d9)" d="M 74.348182 328.10745 
L 77.971558 328.089803 
L 81.594935 328.101741 
L 85.218312 328.11258 
L 88.841688 328.122252 
L 92.465065 328.130905 
L 96.088442 328.138705 
L 99.711818 328.146992 
L 103.335195 328.151969 
L 106.958571 328.157996 
L 110.581948 328.16323 
L 114.205325 328.16787 
L 117.828701 328.172253 
L 121.452078 328.176199 
L 125.075455 328.180082 
L 128.698831 328.183333 
L 132.322208 328.186381 
L 135.945584 328.189026 
L 139.568961 328.191808 
L 143.192338 328.194438 
L 146.815714 328.196616 
L 150.439091 328.198736 
L 154.062468 328.200563 
L 157.685844 328.202229 
L 161.309221 328.203863 
L 164.932597 328.207049 
L 168.555974 328.206783 
L 172.179351 328.206056 
L 175.802727 328.208336 
L 179.426104 328.209417 
L 183.049481 328.210531 
L 186.672857 328.21149 
L 190.296234 328.211771 
L 193.91961 328.213113 
L 197.542987 328.214097 
L 201.166364 328.21498 
L 204.78974 328.215863 
L 208.413117 328.216471 
L 212.036494 328.216657 
L 215.65987 328.21712 
L 219.283247 328.217421 
L 222.906623 328.21758 
L 226.53 328.217665 
L 230.153377 328.217969 
L 233.776753 328.219596 
L 237.40013 328.218241 
L 241.023506 328.217848 
L 244.646883 328.217999 
L 248.27026 328.217473 
L 251.893636 328.219044 
L 255.517013 328.219205 
L 259.14039 328.219916 
L 262.763766 328.219731 
L 266.387143 328.219983 
L 270.010519 328.219889 
L 273.633896 328.220461 
L 277.257273 328.220635 
L 280.880649 328.221246 
L 284.504026 328.221149 
L 288.127403 328.222797 
L 291.750779 328.223228 
L 295.374156 328.222961 
L 298.997532 328.222292 
L 302.620909 328.222023 
L 306.244286 328.221324 
L 309.867662 328.221381 
L 313.491039 328.221172 
L 317.114416 328.221923 
L 320.737792 328.221554 
L 324.361169 328.221458 
L 327.984545 328.221649 
L 331.607922 328.22141 
L 335.231299 328.221462 
L 338.854675 328.221482 
L 342.478052 328.221744 
L 346.101429 328.221518 
L 349.724805 328.221419 
L 353.348182 328.220398 
L 356.971558 328.218344 
L 360.594935 328.218604 
" style="fill:none;stroke:#cf8f17;stroke-linecap:square;stroke-width:5;"/>
   </g>
   <g id="line2d_25">
    <path clip-path="url(#p89cc5bc3d9)" d="M 74.348182 328.049565 
L 77.971558 328.019745 
L 81.594935 328.038297 
L 85.218312 328.079396 
L 88.841688 328.105054 
L 92.465065 328.104801 
L 96.088442 328.184814 
L 99.711818 328.202487 
L 103.335195 328.306127 
L 106.958571 328.511803 
L 110.581948 329.12266 
L 114.205325 331.871967 
L 117.828701 337.277531 
L 121.452078 340.330511 
L 125.075455 344.512708 
L 128.698831 351.310281 
L 132.322208 363.444423 
L 135.945584 374.703422 
L 139.568961 388.797169 
L 143.192338 397.21102 
L 146.815714 405.656368 
L 150.439091 412.402121 
L 154.062468 416.539831 
L 157.685844 420.377371 
L 161.309221 424.390176 
L 164.932597 427.034949 
L 168.555974 429.942075 
L 172.179351 426.425657 
L 175.802727 431.712913 
L 179.426104 432.162035 
L 183.049481 426.795606 
L 186.672857 418.359175 
L 190.296234 424.77599 
L 193.91961 429.711783 
L 197.542987 427.145772 
L 201.166364 429.585953 
L 204.78974 432.787979 
L 208.413117 434.932075 
L 212.036494 435.902251 
L 215.65987 436.153679 
L 219.283247 436.365987 
L 222.906623 436.357756 
L 226.53 436.650654 
L 230.153377 436.664372 
L 233.776753 436.808021 
L 237.40013 436.826746 
L 241.023506 436.783985 
L 244.646883 436.81369 
L 248.27026 436.947259 
L 251.893636 437.201567 
L 255.517013 428.944545 
L 259.14039 436.099571 
L 262.763766 438.943537 
L 266.387143 439.799684 
L 270.010519 439.886003 
L 273.633896 439.886021 
L 277.257273 441.163671 
L 280.880649 441.682896 
L 284.504026 441.965726 
L 288.127403 441.978011 
L 291.750779 442.103572 
L 295.374156 441.845955 
L 298.997532 441.877752 
L 302.620909 442.096036 
L 306.244286 441.959063 
L 309.867662 441.818144 
L 313.491039 442.059961 
L 317.114416 441.998591 
L 320.737792 434.549435 
L 324.361169 439.856069 
L 327.984545 437.256727 
L 331.607922 441.752195 
L 335.231299 441.568154 
L 338.854675 441.772867 
L 342.478052 442.13775 
L 346.101429 442.010076 
L 349.724805 442.159038 
L 353.348182 442.076313 
L 356.971558 442.253299 
L 360.594935 442.129228 
" style="fill:none;stroke:#499ad7;stroke-linecap:square;stroke-width:5;"/>
   </g>
   <g id="patch_8">
    <path d="M 59.13 460.2375 
L 59.13 286.2855 
" style="fill:none;stroke:#000000;stroke-linecap:square;stroke-linejoin:miter;stroke-width:0.8;"/>
   </g>
   <g id="patch_9">
    <path d="M 59.13 460.2375 
L 393.93 460.2375 
" style="fill:none;stroke:#000000;stroke-linecap:square;stroke-linejoin:miter;stroke-width:0.8;"/>
   </g>
   <g id="text_25">
    <!-- optimal -->
    <g transform="translate(382.335195 454.626145)scale(0.16 -0.16)">
     <use xlink:href="#DejaVuSans-111"/>
     <use x="61.181641" xlink:href="#DejaVuSans-112"/>
     <use x="124.658203" xlink:href="#DejaVuSans-116"/>
     <use x="163.867188" xlink:href="#DejaVuSans-105"/>
     <use x="191.650391" xlink:href="#DejaVuSans-109"/>
     <use x="289.0625" xlink:href="#DejaVuSans-97"/>
     <use x="350.341797" xlink:href="#DejaVuSans-108"/>
    </g>
   </g>
   <g id="text_26">
    <!-- naive -->
    <defs>
     <path d="M 2.984375 54.6875 
L 12.5 54.6875 
L 29.59375 8.796875 
L 46.6875 54.6875 
L 56.203125 54.6875 
L 35.6875 0 
L 23.484375 0 
z
" id="DejaVuSans-118"/>
    </defs>
    <g transform="translate(382.335195 328.407664)scale(0.16 -0.16)">
     <use xlink:href="#DejaVuSans-110"/>
     <use x="63.378906" xlink:href="#DejaVuSans-97"/>
     <use x="124.658203" xlink:href="#DejaVuSans-105"/>
     <use x="152.441406" xlink:href="#DejaVuSans-118"/>
     <use x="211.621094" xlink:href="#DejaVuSans-101"/>
    </g>
   </g>
   <g id="text_27">
    <!-- eavesdropping -->
    <g transform="translate(335.231299 369.373387)scale(0.16 -0.16)">
     <use xlink:href="#DejaVuSans-101"/>
     <use x="61.523438" xlink:href="#DejaVuSans-97"/>
     <use x="122.802734" xlink:href="#DejaVuSans-118"/>
     <use x="181.982422" xlink:href="#DejaVuSans-101"/>
     <use x="243.505859" xlink:href="#DejaVuSans-115"/>
     <use x="295.605469" xlink:href="#DejaVuSans-100"/>
     <use x="359.082031" xlink:href="#DejaVuSans-114"/>
     <use x="400.164062" xlink:href="#DejaVuSans-111"/>
     <use x="461.345703" xlink:href="#DejaVuSans-112"/>
     <use x="524.822266" xlink:href="#DejaVuSans-112"/>
     <use x="588.298828" xlink:href="#DejaVuSans-105"/>
     <use x="616.082031" xlink:href="#DejaVuSans-110"/>
     <use x="679.460938" xlink:href="#DejaVuSans-103"/>
    </g>
    <!-- effect -->
    <defs>
     <path d="M 37.109375 75.984375 
L 37.109375 68.5 
L 28.515625 68.5 
Q 23.6875 68.5 21.796875 66.546875 
Q 19.921875 64.59375 19.921875 59.515625 
L 19.921875 54.6875 
L 34.71875 54.6875 
L 34.71875 47.703125 
L 19.921875 47.703125 
L 19.921875 0 
L 10.890625 0 
L 10.890625 47.703125 
L 2.296875 47.703125 
L 2.296875 54.6875 
L 10.890625 54.6875 
L 10.890625 58.5 
Q 10.890625 67.625 15.140625 71.796875 
Q 19.390625 75.984375 28.609375 75.984375 
z
" id="DejaVuSans-102"/>
    </defs>
    <g transform="translate(335.231299 387.289887)scale(0.16 -0.16)">
     <use xlink:href="#DejaVuSans-101"/>
     <use x="61.523438" xlink:href="#DejaVuSans-102"/>
     <use x="96.728516" xlink:href="#DejaVuSans-102"/>
     <use x="131.933594" xlink:href="#DejaVuSans-101"/>
     <use x="193.457031" xlink:href="#DejaVuSans-99"/>
     <use x="248.4375" xlink:href="#DejaVuSans-116"/>
    </g>
   </g>
   <g id="text_28">
    <!-- Categorisation task convergence -->
    <defs>
     <path d="M 67 4 
Q 61.8125 1.3125 56.203125 -0.046875 
Q 50.59375 -1.421875 44.484375 -1.421875 
Q 26.265625 -1.421875 15.625 8.765625 
Q 4.984375 18.953125 4.984375 36.375 
Q 4.984375 53.859375 15.625 64.03125 
Q 26.265625 74.21875 44.484375 74.21875 
Q 50.59375 74.21875 56.203125 72.84375 
Q 61.8125 71.484375 67 68.796875 
L 67 53.71875 
Q 61.765625 57.28125 56.6875 58.9375 
Q 51.609375 60.59375 46 60.59375 
Q 35.9375 60.59375 30.171875 54.140625 
Q 24.421875 47.703125 24.421875 36.375 
Q 24.421875 25.09375 30.171875 18.640625 
Q 35.9375 12.203125 46 12.203125 
Q 51.609375 12.203125 56.6875 13.859375 
Q 61.765625 15.53125 67 19.09375 
z
" id="DejaVuSans-Bold-67"/>
    </defs>
    <g transform="translate(77.7725 280.2855)scale(0.16 -0.16)">
     <use xlink:href="#DejaVuSans-Bold-67"/>
     <use x="73.388672" xlink:href="#DejaVuSans-Bold-97"/>
     <use x="140.869141" xlink:href="#DejaVuSans-Bold-116"/>
     <use x="188.671875" xlink:href="#DejaVuSans-Bold-101"/>
     <use x="256.494141" xlink:href="#DejaVuSans-Bold-103"/>
     <use x="328.076172" xlink:href="#DejaVuSans-Bold-111"/>
     <use x="396.777344" xlink:href="#DejaVuSans-Bold-114"/>
     <use x="446.09375" xlink:href="#DejaVuSans-Bold-105"/>
     <use x="480.371094" xlink:href="#DejaVuSans-Bold-115"/>
     <use x="539.892578" xlink:href="#DejaVuSans-Bold-97"/>
     <use x="607.373047" xlink:href="#DejaVuSans-Bold-116"/>
     <use x="655.175781" xlink:href="#DejaVuSans-Bold-105"/>
     <use x="689.453125" xlink:href="#DejaVuSans-Bold-111"/>
     <use x="758.154297" xlink:href="#DejaVuSans-Bold-110"/>
     <use x="829.345703" xlink:href="#DejaVuSans-Bold-32"/>
     <use x="864.160156" xlink:href="#DejaVuSans-Bold-116"/>
     <use x="911.962891" xlink:href="#DejaVuSans-Bold-97"/>
     <use x="979.443359" xlink:href="#DejaVuSans-Bold-115"/>
     <use x="1038.964844" xlink:href="#DejaVuSans-Bold-107"/>
     <use x="1105.46875" xlink:href="#DejaVuSans-Bold-32"/>
     <use x="1140.283203" xlink:href="#DejaVuSans-Bold-99"/>
     <use x="1199.560547" xlink:href="#DejaVuSans-Bold-111"/>
     <use x="1268.261719" xlink:href="#DejaVuSans-Bold-110"/>
     <use x="1339.453125" xlink:href="#DejaVuSans-Bold-118"/>
     <use x="1404.638672" xlink:href="#DejaVuSans-Bold-101"/>
     <use x="1472.460938" xlink:href="#DejaVuSans-Bold-114"/>
     <use x="1521.777344" xlink:href="#DejaVuSans-Bold-103"/>
     <use x="1593.359375" xlink:href="#DejaVuSans-Bold-101"/>
     <use x="1661.181641" xlink:href="#DejaVuSans-Bold-110"/>
     <use x="1732.373047" xlink:href="#DejaVuSans-Bold-99"/>
     <use x="1791.650391" xlink:href="#DejaVuSans-Bold-101"/>
    </g>
   </g>
  </g>
 </g>
 <defs>
  <clipPath id="pc20504447b">
   <rect height="173.952" width="334.8" x="59.13" y="25.3575"/>
  </clipPath>
  <clipPath id="p89cc5bc3d9">
   <rect height="173.952" width="334.8" x="59.13" y="286.2855"/>
  </clipPath>
 </defs>
</svg>
