<?xml version="1.0" encoding="utf-8" standalone="no"?>
<!DOCTYPE svg PUBLIC "-//W3C//DTD SVG 1.1//EN"
  "http://www.w3.org/Graphics/SVG/1.1/DTD/svg11.dtd">
<!-- Created with matplotlib (https://matplotlib.org/) -->
<svg height="237.6075pt" version="1.1" viewBox="0 0 434.770195 237.6075" width="434.770195pt" xmlns="http://www.w3.org/2000/svg" xmlns:xlink="http://www.w3.org/1999/xlink">
 <defs>
  <style type="text/css">
*{stroke-linecap:butt;stroke-linejoin:round;}
  </style>
 </defs>
 <g id="figure_1">
  <g id="patch_1">
   <path d="M 0 237.6075 
L 434.770195 237.6075 
L 434.770195 0 
L 0 0 
z
" style="fill:#ffffff;"/>
  </g>
  <g id="axes_1">
   <g id="patch_2">
    <path d="M 43.865 188.4375 
L 378.665 188.4375 
L 378.665 25.3575 
L 43.865 25.3575 
z
" style="fill:#ffffff;"/>
   </g>
   <g id="PolyCollection_1">
    <defs>
     <path d="M 59.083182 -215.393771 
L 59.083182 -188.170034 
L 62.706558 -105.249305 
L 66.329935 -96.407 
L 69.953312 -91.216905 
L 73.576688 -88.248159 
L 77.200065 -85.991036 
L 80.823442 -84.368625 
L 84.446818 -83.361995 
L 88.070195 -82.647823 
L 91.693571 -82.194625 
L 95.316948 -81.925806 
L 98.940325 -81.729305 
L 102.563701 -81.534694 
L 106.187078 -81.219856 
L 109.810455 -81.119016 
L 113.433831 -81.029534 
L 117.057208 -80.910699 
L 120.680584 -80.927237 
L 124.303961 -80.807129 
L 127.927338 -80.706096 
L 131.550714 -80.6026 
L 135.174091 -80.638154 
L 138.797468 -80.434327 
L 142.420844 -80.366927 
L 146.044221 -80.395773 
L 149.667597 -80.358746 
L 153.290974 -80.26384 
L 156.914351 -80.22787 
L 160.537727 -80.166888 
L 164.161104 -80.172921 
L 167.784481 -80.174763 
L 171.407857 -80.060461 
L 175.031234 -79.999019 
L 178.65461 -79.914988 
L 182.277987 -80.013985 
L 185.901364 -79.956276 
L 189.52474 -79.974652 
L 193.148117 -79.864233 
L 196.771494 -79.8343 
L 200.39487 -79.886213 
L 204.018247 -79.798006 
L 207.641623 -79.829124 
L 211.265 -79.748323 
L 214.888377 -79.75625 
L 218.511753 -79.794748 
L 222.13513 -79.729387 
L 225.758506 -79.726472 
L 229.381883 -79.727102 
L 233.00526 -79.599374 
L 236.628636 -79.611055 
L 240.252013 -79.665444 
L 243.87539 -79.664223 
L 247.498766 -79.663464 
L 251.122143 -79.696899 
L 254.745519 -79.602036 
L 258.368896 -79.611906 
L 261.992273 -79.651979 
L 265.615649 -79.638905 
L 269.239026 -79.586617 
L 272.862403 -79.54922 
L 276.485779 -79.564107 
L 280.109156 -79.468995 
L 283.732532 -79.501423 
L 287.355909 -79.551324 
L 290.979286 -79.557683 
L 294.602662 -79.558499 
L 298.226039 -79.574602 
L 301.849416 -79.523763 
L 305.472792 -79.479759 
L 309.096169 -79.337368 
L 312.719545 -79.473555 
L 316.342922 -79.475083 
L 319.966299 -79.397752 
L 323.589675 -79.446239 
L 327.213052 -79.411068 
L 330.836429 -79.404942 
L 334.459805 -79.426127 
L 338.083182 -79.338567 
L 341.706558 -79.483096 
L 345.329935 -79.355712 
L 345.329935 -80.897555 
L 345.329935 -80.897555 
L 341.706558 -80.823599 
L 338.083182 -80.856624 
L 334.459805 -81.010489 
L 330.836429 -80.897585 
L 327.213052 -80.988625 
L 323.589675 -80.961412 
L 319.966299 -81.055322 
L 316.342922 -80.941954 
L 312.719545 -80.924108 
L 309.096169 -80.995974 
L 305.472792 -80.817094 
L 301.849416 -81.096255 
L 298.226039 -81.058102 
L 294.602662 -81.085426 
L 290.979286 -81.115978 
L 287.355909 -81.135232 
L 283.732532 -81.162922 
L 280.109156 -81.250471 
L 276.485779 -81.114451 
L 272.862403 -81.107932 
L 269.239026 -81.124175 
L 265.615649 -81.18021 
L 261.992273 -81.125401 
L 258.368896 -81.173597 
L 254.745519 -81.161752 
L 251.122143 -81.323164 
L 247.498766 -81.21942 
L 243.87539 -81.327903 
L 240.252013 -81.33849 
L 236.628636 -81.321923 
L 233.00526 -81.46407 
L 229.381883 -81.443647 
L 225.758506 -81.402069 
L 222.13513 -81.529849 
L 218.511753 -81.573376 
L 214.888377 -81.483844 
L 211.265 -81.621424 
L 207.641623 -81.53239 
L 204.018247 -81.618771 
L 200.39487 -81.711277 
L 196.771494 -81.670358 
L 193.148117 -81.740777 
L 189.52474 -81.789883 
L 185.901364 -81.84584 
L 182.277987 -81.829857 
L 178.65461 -81.878298 
L 175.031234 -82.022638 
L 171.407857 -81.960204 
L 167.784481 -81.97053 
L 164.161104 -81.995214 
L 160.537727 -81.975356 
L 156.914351 -82.116446 
L 153.290974 -82.221075 
L 149.667597 -82.145161 
L 146.044221 -82.2799 
L 142.420844 -82.362983 
L 138.797468 -82.477679 
L 135.174091 -82.444711 
L 131.550714 -82.519774 
L 127.927338 -82.658116 
L 124.303961 -82.778291 
L 120.680584 -82.904831 
L 117.057208 -82.920676 
L 113.433831 -83.072287 
L 109.810455 -83.206745 
L 106.187078 -83.445025 
L 102.563701 -83.586102 
L 98.940325 -83.899862 
L 95.316948 -84.244284 
L 91.693571 -84.642438 
L 88.070195 -85.135118 
L 84.446818 -85.712249 
L 80.823442 -86.693886 
L 77.200065 -88.131473 
L 73.576688 -90.472159 
L 69.953312 -93.649564 
L 66.329935 -99.85325 
L 62.706558 -129.181976 
L 59.083182 -215.393771 
z
" id="md5bfd04798" style="stroke:#430000;stroke-opacity:0.2;"/>
    </defs>
    <g clip-path="url(#p9955755247)">
     <use style="fill:#430000;fill-opacity:0.2;stroke:#430000;stroke-opacity:0.2;" x="0" xlink:href="#md5bfd04798" y="237.6075"/>
    </g>
   </g>
   <g id="PolyCollection_2">
    <defs>
     <path d="M 59.083182 -212.765135 
L 59.083182 -200.223568 
L 62.706558 -107.863418 
L 66.329935 -96.742136 
L 69.953312 -91.066599 
L 73.576688 -87.528593 
L 77.200065 -85.320183 
L 80.823442 -83.786235 
L 84.446818 -82.95357 
L 88.070195 -82.419931 
L 91.693571 -82.119231 
L 95.316948 -81.829422 
L 98.940325 -81.485891 
L 102.563701 -81.241814 
L 106.187078 -81.170894 
L 109.810455 -80.97012 
L 113.433831 -80.861458 
L 117.057208 -81.031649 
L 120.680584 -80.943708 
L 124.303961 -80.803533 
L 127.927338 -80.780881 
L 131.550714 -80.503378 
L 135.174091 -80.501412 
L 138.797468 -80.389483 
L 142.420844 -80.236363 
L 146.044221 -80.149173 
L 149.667597 -79.970682 
L 153.290974 -79.94411 
L 156.914351 -79.811967 
L 160.537727 -79.916898 
L 164.161104 -79.747584 
L 167.784481 -79.746663 
L 171.407857 -79.760272 
L 175.031234 -79.730543 
L 178.65461 -79.227855 
L 182.277987 -79.67513 
L 185.901364 -79.463751 
L 189.52474 -79.333913 
L 193.148117 -79.54241 
L 196.771494 -79.418587 
L 200.39487 -79.451216 
L 204.018247 -79.5361 
L 207.641623 -79.431407 
L 211.265 -79.560245 
L 214.888377 -79.355752 
L 218.511753 -79.494565 
L 222.13513 -78.227222 
L 225.758506 -78.669717 
L 229.381883 -78.733738 
L 233.00526 -79.316494 
L 236.628636 -79.06621 
L 240.252013 -79.05293 
L 243.87539 -79.35718 
L 247.498766 -78.521658 
L 251.122143 -79.145359 
L 254.745519 -79.223128 
L 258.368896 -78.538681 
L 261.992273 -79.089333 
L 265.615649 -79.389574 
L 269.239026 -78.85179 
L 272.862403 -79.273066 
L 276.485779 -78.421898 
L 280.109156 -79.313331 
L 283.732532 -79.255935 
L 287.355909 -79.227339 
L 290.979286 -79.255451 
L 294.602662 -79.273122 
L 298.226039 -78.614011 
L 301.849416 -79.201875 
L 305.472792 -78.79288 
L 309.096169 -78.443625 
L 312.719545 -78.572573 
L 316.342922 -78.72242 
L 319.966299 -79.19347 
L 323.589675 -79.094979 
L 327.213052 -79.060678 
L 330.836429 -78.583496 
L 334.459805 -75.011546 
L 338.083182 -79.160887 
L 341.706558 -79.102114 
L 345.329935 -79.088567 
L 345.329935 -79.930057 
L 345.329935 -79.930057 
L 341.706558 -79.936611 
L 338.083182 -79.987116 
L 334.459805 -87.346148 
L 330.836429 -81.13462 
L 327.213052 -80.240777 
L 323.589675 -80.247435 
L 319.966299 -79.951183 
L 316.342922 -81.200476 
L 312.719545 -81.592692 
L 309.096169 -81.591345 
L 305.472792 -80.987605 
L 301.849416 -80.348662 
L 298.226039 -81.626867 
L 294.602662 -80.13966 
L 290.979286 -80.154751 
L 287.355909 -80.169465 
L 283.732532 -80.298711 
L 280.109156 -80.395291 
L 276.485779 -81.960074 
L 272.862403 -80.40107 
L 269.239026 -81.379578 
L 265.615649 -80.405838 
L 261.992273 -80.990867 
L 258.368896 -82.521046 
L 254.745519 -80.688966 
L 251.122143 -80.626777 
L 247.498766 -81.783947 
L 243.87539 -80.289194 
L 240.252013 -80.866593 
L 236.628636 -80.928609 
L 233.00526 -80.566953 
L 229.381883 -81.46741 
L 225.758506 -81.677816 
L 222.13513 -82.650063 
L 218.511753 -80.444095 
L 214.888377 -80.813246 
L 211.265 -80.47337 
L 207.641623 -80.708275 
L 204.018247 -80.687597 
L 200.39487 -80.737951 
L 196.771494 -80.793349 
L 193.148117 -80.708065 
L 189.52474 -81.259311 
L 185.901364 -80.964059 
L 182.277987 -80.806472 
L 178.65461 -81.85963 
L 175.031234 -80.874741 
L 171.407857 -80.990357 
L 167.784481 -81.041646 
L 164.161104 -81.377386 
L 160.537727 -81.454248 
L 156.914351 -81.642523 
L 153.290974 -81.626181 
L 149.667597 -81.775214 
L 146.044221 -81.982349 
L 142.420844 -81.957616 
L 138.797468 -81.882259 
L 135.174091 -81.953741 
L 131.550714 -81.990652 
L 127.927338 -81.9516 
L 124.303961 -81.987709 
L 120.680584 -82.328801 
L 117.057208 -82.457803 
L 113.433831 -82.832739 
L 109.810455 -83.229322 
L 106.187078 -83.186528 
L 102.563701 -83.355569 
L 98.940325 -83.210964 
L 95.316948 -83.177013 
L 91.693571 -83.496854 
L 88.070195 -84.032302 
L 84.446818 -84.792336 
L 80.823442 -85.645512 
L 77.200065 -87.336956 
L 73.576688 -90.047689 
L 69.953312 -93.760698 
L 66.329935 -100.423103 
L 62.706558 -125.558719 
L 59.083182 -212.765135 
z
" id="me0f089cc1e" style="stroke:#499ad7;stroke-opacity:0.2;"/>
    </defs>
    <g clip-path="url(#p9955755247)">
     <use style="fill:#499ad7;fill-opacity:0.2;stroke:#499ad7;stroke-opacity:0.2;" x="0" xlink:href="#me0f089cc1e" y="237.6075"/>
    </g>
   </g>
   <g id="matplotlib.axis_1">
    <g id="xtick_1">
     <g id="line2d_1">
      <defs>
       <path d="M 0 0 
L 0 3.5 
" id="m1cb78072cc" style="stroke:#000000;stroke-width:0.8;"/>
      </defs>
      <g>
       <use style="stroke:#000000;stroke-width:0.8;" x="59.083182" xlink:href="#m1cb78072cc" y="188.4375"/>
      </g>
     </g>
     <g id="text_1">
      <!-- 0 -->
      <defs>
       <path d="M 31.78125 66.40625 
Q 24.171875 66.40625 20.328125 58.90625 
Q 16.5 51.421875 16.5 36.375 
Q 16.5 21.390625 20.328125 13.890625 
Q 24.171875 6.390625 31.78125 6.390625 
Q 39.453125 6.390625 43.28125 13.890625 
Q 47.125 21.390625 47.125 36.375 
Q 47.125 51.421875 43.28125 58.90625 
Q 39.453125 66.40625 31.78125 66.40625 
z
M 31.78125 74.21875 
Q 44.046875 74.21875 50.515625 64.515625 
Q 56.984375 54.828125 56.984375 36.375 
Q 56.984375 17.96875 50.515625 8.265625 
Q 44.046875 -1.421875 31.78125 -1.421875 
Q 19.53125 -1.421875 13.0625 8.265625 
Q 6.59375 17.96875 6.59375 36.375 
Q 6.59375 54.828125 13.0625 64.515625 
Q 19.53125 74.21875 31.78125 74.21875 
z
" id="DejaVuSans-48"/>
      </defs>
      <g transform="translate(53.993182 207.595)scale(0.16 -0.16)">
       <use xlink:href="#DejaVuSans-48"/>
      </g>
     </g>
    </g>
    <g id="xtick_2">
     <g id="line2d_2">
      <g>
       <use style="stroke:#000000;stroke-width:0.8;" x="131.550714" xlink:href="#m1cb78072cc" y="188.4375"/>
      </g>
     </g>
     <g id="text_2">
      <!-- 20 -->
      <defs>
       <path d="M 19.1875 8.296875 
L 53.609375 8.296875 
L 53.609375 0 
L 7.328125 0 
L 7.328125 8.296875 
Q 12.9375 14.109375 22.625 23.890625 
Q 32.328125 33.6875 34.8125 36.53125 
Q 39.546875 41.84375 41.421875 45.53125 
Q 43.3125 49.21875 43.3125 52.78125 
Q 43.3125 58.59375 39.234375 62.25 
Q 35.15625 65.921875 28.609375 65.921875 
Q 23.96875 65.921875 18.8125 64.3125 
Q 13.671875 62.703125 7.8125 59.421875 
L 7.8125 69.390625 
Q 13.765625 71.78125 18.9375 73 
Q 24.125 74.21875 28.421875 74.21875 
Q 39.75 74.21875 46.484375 68.546875 
Q 53.21875 62.890625 53.21875 53.421875 
Q 53.21875 48.921875 51.53125 44.890625 
Q 49.859375 40.875 45.40625 35.40625 
Q 44.1875 33.984375 37.640625 27.21875 
Q 31.109375 20.453125 19.1875 8.296875 
z
" id="DejaVuSans-50"/>
      </defs>
      <g transform="translate(121.370714 207.595)scale(0.16 -0.16)">
       <use xlink:href="#DejaVuSans-50"/>
       <use x="63.623047" xlink:href="#DejaVuSans-48"/>
      </g>
     </g>
    </g>
    <g id="xtick_3">
     <g id="line2d_3">
      <g>
       <use style="stroke:#000000;stroke-width:0.8;" x="204.018247" xlink:href="#m1cb78072cc" y="188.4375"/>
      </g>
     </g>
     <g id="text_3">
      <!-- 40 -->
      <defs>
       <path d="M 37.796875 64.3125 
L 12.890625 25.390625 
L 37.796875 25.390625 
z
M 35.203125 72.90625 
L 47.609375 72.90625 
L 47.609375 25.390625 
L 58.015625 25.390625 
L 58.015625 17.1875 
L 47.609375 17.1875 
L 47.609375 0 
L 37.796875 0 
L 37.796875 17.1875 
L 4.890625 17.1875 
L 4.890625 26.703125 
z
" id="DejaVuSans-52"/>
      </defs>
      <g transform="translate(193.838247 207.595)scale(0.16 -0.16)">
       <use xlink:href="#DejaVuSans-52"/>
       <use x="63.623047" xlink:href="#DejaVuSans-48"/>
      </g>
     </g>
    </g>
    <g id="xtick_4">
     <g id="line2d_4">
      <g>
       <use style="stroke:#000000;stroke-width:0.8;" x="276.485779" xlink:href="#m1cb78072cc" y="188.4375"/>
      </g>
     </g>
     <g id="text_4">
      <!-- 60 -->
      <defs>
       <path d="M 33.015625 40.375 
Q 26.375 40.375 22.484375 35.828125 
Q 18.609375 31.296875 18.609375 23.390625 
Q 18.609375 15.53125 22.484375 10.953125 
Q 26.375 6.390625 33.015625 6.390625 
Q 39.65625 6.390625 43.53125 10.953125 
Q 47.40625 15.53125 47.40625 23.390625 
Q 47.40625 31.296875 43.53125 35.828125 
Q 39.65625 40.375 33.015625 40.375 
z
M 52.59375 71.296875 
L 52.59375 62.3125 
Q 48.875 64.0625 45.09375 64.984375 
Q 41.3125 65.921875 37.59375 65.921875 
Q 27.828125 65.921875 22.671875 59.328125 
Q 17.53125 52.734375 16.796875 39.40625 
Q 19.671875 43.65625 24.015625 45.921875 
Q 28.375 48.1875 33.59375 48.1875 
Q 44.578125 48.1875 50.953125 41.515625 
Q 57.328125 34.859375 57.328125 23.390625 
Q 57.328125 12.15625 50.6875 5.359375 
Q 44.046875 -1.421875 33.015625 -1.421875 
Q 20.359375 -1.421875 13.671875 8.265625 
Q 6.984375 17.96875 6.984375 36.375 
Q 6.984375 53.65625 15.1875 63.9375 
Q 23.390625 74.21875 37.203125 74.21875 
Q 40.921875 74.21875 44.703125 73.484375 
Q 48.484375 72.75 52.59375 71.296875 
z
" id="DejaVuSans-54"/>
      </defs>
      <g transform="translate(266.305779 207.595)scale(0.16 -0.16)">
       <use xlink:href="#DejaVuSans-54"/>
       <use x="63.623047" xlink:href="#DejaVuSans-48"/>
      </g>
     </g>
    </g>
    <g id="xtick_5">
     <g id="line2d_5">
      <g>
       <use style="stroke:#000000;stroke-width:0.8;" x="348.953312" xlink:href="#m1cb78072cc" y="188.4375"/>
      </g>
     </g>
     <g id="text_5">
      <!-- 80 -->
      <defs>
       <path d="M 31.78125 34.625 
Q 24.75 34.625 20.71875 30.859375 
Q 16.703125 27.09375 16.703125 20.515625 
Q 16.703125 13.921875 20.71875 10.15625 
Q 24.75 6.390625 31.78125 6.390625 
Q 38.8125 6.390625 42.859375 10.171875 
Q 46.921875 13.96875 46.921875 20.515625 
Q 46.921875 27.09375 42.890625 30.859375 
Q 38.875 34.625 31.78125 34.625 
z
M 21.921875 38.8125 
Q 15.578125 40.375 12.03125 44.71875 
Q 8.5 49.078125 8.5 55.328125 
Q 8.5 64.0625 14.71875 69.140625 
Q 20.953125 74.21875 31.78125 74.21875 
Q 42.671875 74.21875 48.875 69.140625 
Q 55.078125 64.0625 55.078125 55.328125 
Q 55.078125 49.078125 51.53125 44.71875 
Q 48 40.375 41.703125 38.8125 
Q 48.828125 37.15625 52.796875 32.3125 
Q 56.78125 27.484375 56.78125 20.515625 
Q 56.78125 9.90625 50.3125 4.234375 
Q 43.84375 -1.421875 31.78125 -1.421875 
Q 19.734375 -1.421875 13.25 4.234375 
Q 6.78125 9.90625 6.78125 20.515625 
Q 6.78125 27.484375 10.78125 32.3125 
Q 14.796875 37.15625 21.921875 38.8125 
z
M 18.3125 54.390625 
Q 18.3125 48.734375 21.84375 45.5625 
Q 25.390625 42.390625 31.78125 42.390625 
Q 38.140625 42.390625 41.71875 45.5625 
Q 45.3125 48.734375 45.3125 54.390625 
Q 45.3125 60.0625 41.71875 63.234375 
Q 38.140625 66.40625 31.78125 66.40625 
Q 25.390625 66.40625 21.84375 63.234375 
Q 18.3125 60.0625 18.3125 54.390625 
z
" id="DejaVuSans-56"/>
      </defs>
      <g transform="translate(338.773312 207.595)scale(0.16 -0.16)">
       <use xlink:href="#DejaVuSans-56"/>
       <use x="63.623047" xlink:href="#DejaVuSans-48"/>
      </g>
     </g>
    </g>
    <g id="text_6">
     <!-- Epoch -->
     <defs>
      <path d="M 9.8125 72.90625 
L 55.90625 72.90625 
L 55.90625 64.59375 
L 19.671875 64.59375 
L 19.671875 43.015625 
L 54.390625 43.015625 
L 54.390625 34.71875 
L 19.671875 34.71875 
L 19.671875 8.296875 
L 56.78125 8.296875 
L 56.78125 0 
L 9.8125 0 
z
" id="DejaVuSans-69"/>
      <path d="M 18.109375 8.203125 
L 18.109375 -20.796875 
L 9.078125 -20.796875 
L 9.078125 54.6875 
L 18.109375 54.6875 
L 18.109375 46.390625 
Q 20.953125 51.265625 25.265625 53.625 
Q 29.59375 56 35.59375 56 
Q 45.5625 56 51.78125 48.09375 
Q 58.015625 40.1875 58.015625 27.296875 
Q 58.015625 14.40625 51.78125 6.484375 
Q 45.5625 -1.421875 35.59375 -1.421875 
Q 29.59375 -1.421875 25.265625 0.953125 
Q 20.953125 3.328125 18.109375 8.203125 
z
M 48.6875 27.296875 
Q 48.6875 37.203125 44.609375 42.84375 
Q 40.53125 48.484375 33.40625 48.484375 
Q 26.265625 48.484375 22.1875 42.84375 
Q 18.109375 37.203125 18.109375 27.296875 
Q 18.109375 17.390625 22.1875 11.75 
Q 26.265625 6.109375 33.40625 6.109375 
Q 40.53125 6.109375 44.609375 11.75 
Q 48.6875 17.390625 48.6875 27.296875 
z
" id="DejaVuSans-112"/>
      <path d="M 30.609375 48.390625 
Q 23.390625 48.390625 19.1875 42.75 
Q 14.984375 37.109375 14.984375 27.296875 
Q 14.984375 17.484375 19.15625 11.84375 
Q 23.34375 6.203125 30.609375 6.203125 
Q 37.796875 6.203125 41.984375 11.859375 
Q 46.1875 17.53125 46.1875 27.296875 
Q 46.1875 37.015625 41.984375 42.703125 
Q 37.796875 48.390625 30.609375 48.390625 
z
M 30.609375 56 
Q 42.328125 56 49.015625 48.375 
Q 55.71875 40.765625 55.71875 27.296875 
Q 55.71875 13.875 49.015625 6.21875 
Q 42.328125 -1.421875 30.609375 -1.421875 
Q 18.84375 -1.421875 12.171875 6.21875 
Q 5.515625 13.875 5.515625 27.296875 
Q 5.515625 40.765625 12.171875 48.375 
Q 18.84375 56 30.609375 56 
z
" id="DejaVuSans-111"/>
      <path d="M 48.78125 52.59375 
L 48.78125 44.1875 
Q 44.96875 46.296875 41.140625 47.34375 
Q 37.3125 48.390625 33.40625 48.390625 
Q 24.65625 48.390625 19.8125 42.84375 
Q 14.984375 37.3125 14.984375 27.296875 
Q 14.984375 17.28125 19.8125 11.734375 
Q 24.65625 6.203125 33.40625 6.203125 
Q 37.3125 6.203125 41.140625 7.25 
Q 44.96875 8.296875 48.78125 10.40625 
L 48.78125 2.09375 
Q 45.015625 0.34375 40.984375 -0.53125 
Q 36.96875 -1.421875 32.421875 -1.421875 
Q 20.0625 -1.421875 12.78125 6.34375 
Q 5.515625 14.109375 5.515625 27.296875 
Q 5.515625 40.671875 12.859375 48.328125 
Q 20.21875 56 33.015625 56 
Q 37.15625 56 41.109375 55.140625 
Q 45.0625 54.296875 48.78125 52.59375 
z
" id="DejaVuSans-99"/>
      <path d="M 54.890625 33.015625 
L 54.890625 0 
L 45.90625 0 
L 45.90625 32.71875 
Q 45.90625 40.484375 42.875 44.328125 
Q 39.84375 48.1875 33.796875 48.1875 
Q 26.515625 48.1875 22.3125 43.546875 
Q 18.109375 38.921875 18.109375 30.90625 
L 18.109375 0 
L 9.078125 0 
L 9.078125 75.984375 
L 18.109375 75.984375 
L 18.109375 46.1875 
Q 21.34375 51.125 25.703125 53.5625 
Q 30.078125 56 35.796875 56 
Q 45.21875 56 50.046875 50.171875 
Q 54.890625 44.34375 54.890625 33.015625 
z
" id="DejaVuSans-104"/>
     </defs>
     <g transform="translate(186.7675 227.08)scale(0.16 -0.16)">
      <use xlink:href="#DejaVuSans-69"/>
      <use x="63.183594" xlink:href="#DejaVuSans-112"/>
      <use x="126.660156" xlink:href="#DejaVuSans-111"/>
      <use x="187.841797" xlink:href="#DejaVuSans-99"/>
      <use x="242.822266" xlink:href="#DejaVuSans-104"/>
     </g>
    </g>
   </g>
   <g id="matplotlib.axis_2">
    <g id="ytick_1">
     <g id="line2d_6">
      <defs>
       <path d="M 0 0 
L -3.5 0 
" id="m7b157d5867" style="stroke:#000000;stroke-width:0.8;"/>
      </defs>
      <g>
       <use style="stroke:#000000;stroke-width:0.8;" x="43.865" xlink:href="#m7b157d5867" y="186.140599"/>
      </g>
     </g>
     <g id="text_7">
      <!-- 0 -->
      <g transform="translate(26.685 192.219349)scale(0.16 -0.16)">
       <use xlink:href="#DejaVuSans-48"/>
      </g>
     </g>
    </g>
    <g id="ytick_2">
     <g id="line2d_7">
      <g>
       <use style="stroke:#000000;stroke-width:0.8;" x="43.865" xlink:href="#m7b157d5867" y="140.20257"/>
      </g>
     </g>
     <g id="text_8">
      <!-- 1 -->
      <defs>
       <path d="M 12.40625 8.296875 
L 28.515625 8.296875 
L 28.515625 63.921875 
L 10.984375 60.40625 
L 10.984375 69.390625 
L 28.421875 72.90625 
L 38.28125 72.90625 
L 38.28125 8.296875 
L 54.390625 8.296875 
L 54.390625 0 
L 12.40625 0 
z
" id="DejaVuSans-49"/>
      </defs>
      <g transform="translate(26.685 146.28132)scale(0.16 -0.16)">
       <use xlink:href="#DejaVuSans-49"/>
      </g>
     </g>
    </g>
    <g id="ytick_3">
     <g id="line2d_8">
      <g>
       <use style="stroke:#000000;stroke-width:0.8;" x="43.865" xlink:href="#m7b157d5867" y="94.264542"/>
      </g>
     </g>
     <g id="text_9">
      <!-- 2 -->
      <g transform="translate(26.685 100.343292)scale(0.16 -0.16)">
       <use xlink:href="#DejaVuSans-50"/>
      </g>
     </g>
    </g>
    <g id="ytick_4">
     <g id="line2d_9">
      <g>
       <use style="stroke:#000000;stroke-width:0.8;" x="43.865" xlink:href="#m7b157d5867" y="48.326514"/>
      </g>
     </g>
     <g id="text_10">
      <!-- 3 -->
      <defs>
       <path d="M 40.578125 39.3125 
Q 47.65625 37.796875 51.625 33 
Q 55.609375 28.21875 55.609375 21.1875 
Q 55.609375 10.40625 48.1875 4.484375 
Q 40.765625 -1.421875 27.09375 -1.421875 
Q 22.515625 -1.421875 17.65625 -0.515625 
Q 12.796875 0.390625 7.625 2.203125 
L 7.625 11.71875 
Q 11.71875 9.328125 16.59375 8.109375 
Q 21.484375 6.890625 26.8125 6.890625 
Q 36.078125 6.890625 40.9375 10.546875 
Q 45.796875 14.203125 45.796875 21.1875 
Q 45.796875 27.640625 41.28125 31.265625 
Q 36.765625 34.90625 28.71875 34.90625 
L 20.21875 34.90625 
L 20.21875 43.015625 
L 29.109375 43.015625 
Q 36.375 43.015625 40.234375 45.921875 
Q 44.09375 48.828125 44.09375 54.296875 
Q 44.09375 59.90625 40.109375 62.90625 
Q 36.140625 65.921875 28.71875 65.921875 
Q 24.65625 65.921875 20.015625 65.03125 
Q 15.375 64.15625 9.8125 62.3125 
L 9.8125 71.09375 
Q 15.4375 72.65625 20.34375 73.4375 
Q 25.25 74.21875 29.59375 74.21875 
Q 40.828125 74.21875 47.359375 69.109375 
Q 53.90625 64.015625 53.90625 55.328125 
Q 53.90625 49.265625 50.4375 45.09375 
Q 46.96875 40.921875 40.578125 39.3125 
z
" id="DejaVuSans-51"/>
      </defs>
      <g transform="translate(26.685 54.405264)scale(0.16 -0.16)">
       <use xlink:href="#DejaVuSans-51"/>
      </g>
     </g>
    </g>
    <g id="text_11">
     <!-- Prediction loss -->
     <defs>
      <path d="M 19.671875 64.796875 
L 19.671875 37.40625 
L 32.078125 37.40625 
Q 38.96875 37.40625 42.71875 40.96875 
Q 46.484375 44.53125 46.484375 51.125 
Q 46.484375 57.671875 42.71875 61.234375 
Q 38.96875 64.796875 32.078125 64.796875 
z
M 9.8125 72.90625 
L 32.078125 72.90625 
Q 44.34375 72.90625 50.609375 67.359375 
Q 56.890625 61.8125 56.890625 51.125 
Q 56.890625 40.328125 50.609375 34.8125 
Q 44.34375 29.296875 32.078125 29.296875 
L 19.671875 29.296875 
L 19.671875 0 
L 9.8125 0 
z
" id="DejaVuSans-80"/>
      <path d="M 41.109375 46.296875 
Q 39.59375 47.171875 37.8125 47.578125 
Q 36.03125 48 33.890625 48 
Q 26.265625 48 22.1875 43.046875 
Q 18.109375 38.09375 18.109375 28.8125 
L 18.109375 0 
L 9.078125 0 
L 9.078125 54.6875 
L 18.109375 54.6875 
L 18.109375 46.1875 
Q 20.953125 51.171875 25.484375 53.578125 
Q 30.03125 56 36.53125 56 
Q 37.453125 56 38.578125 55.875 
Q 39.703125 55.765625 41.0625 55.515625 
z
" id="DejaVuSans-114"/>
      <path d="M 56.203125 29.59375 
L 56.203125 25.203125 
L 14.890625 25.203125 
Q 15.484375 15.921875 20.484375 11.0625 
Q 25.484375 6.203125 34.421875 6.203125 
Q 39.59375 6.203125 44.453125 7.46875 
Q 49.3125 8.734375 54.109375 11.28125 
L 54.109375 2.78125 
Q 49.265625 0.734375 44.1875 -0.34375 
Q 39.109375 -1.421875 33.890625 -1.421875 
Q 20.796875 -1.421875 13.15625 6.1875 
Q 5.515625 13.8125 5.515625 26.8125 
Q 5.515625 40.234375 12.765625 48.109375 
Q 20.015625 56 32.328125 56 
Q 43.359375 56 49.78125 48.890625 
Q 56.203125 41.796875 56.203125 29.59375 
z
M 47.21875 32.234375 
Q 47.125 39.59375 43.09375 43.984375 
Q 39.0625 48.390625 32.421875 48.390625 
Q 24.90625 48.390625 20.390625 44.140625 
Q 15.875 39.890625 15.1875 32.171875 
z
" id="DejaVuSans-101"/>
      <path d="M 45.40625 46.390625 
L 45.40625 75.984375 
L 54.390625 75.984375 
L 54.390625 0 
L 45.40625 0 
L 45.40625 8.203125 
Q 42.578125 3.328125 38.25 0.953125 
Q 33.9375 -1.421875 27.875 -1.421875 
Q 17.96875 -1.421875 11.734375 6.484375 
Q 5.515625 14.40625 5.515625 27.296875 
Q 5.515625 40.1875 11.734375 48.09375 
Q 17.96875 56 27.875 56 
Q 33.9375 56 38.25 53.625 
Q 42.578125 51.265625 45.40625 46.390625 
z
M 14.796875 27.296875 
Q 14.796875 17.390625 18.875 11.75 
Q 22.953125 6.109375 30.078125 6.109375 
Q 37.203125 6.109375 41.296875 11.75 
Q 45.40625 17.390625 45.40625 27.296875 
Q 45.40625 37.203125 41.296875 42.84375 
Q 37.203125 48.484375 30.078125 48.484375 
Q 22.953125 48.484375 18.875 42.84375 
Q 14.796875 37.203125 14.796875 27.296875 
z
" id="DejaVuSans-100"/>
      <path d="M 9.421875 54.6875 
L 18.40625 54.6875 
L 18.40625 0 
L 9.421875 0 
z
M 9.421875 75.984375 
L 18.40625 75.984375 
L 18.40625 64.59375 
L 9.421875 64.59375 
z
" id="DejaVuSans-105"/>
      <path d="M 18.3125 70.21875 
L 18.3125 54.6875 
L 36.8125 54.6875 
L 36.8125 47.703125 
L 18.3125 47.703125 
L 18.3125 18.015625 
Q 18.3125 11.328125 20.140625 9.421875 
Q 21.96875 7.515625 27.59375 7.515625 
L 36.8125 7.515625 
L 36.8125 0 
L 27.59375 0 
Q 17.1875 0 13.234375 3.875 
Q 9.28125 7.765625 9.28125 18.015625 
L 9.28125 47.703125 
L 2.6875 47.703125 
L 2.6875 54.6875 
L 9.28125 54.6875 
L 9.28125 70.21875 
z
" id="DejaVuSans-116"/>
      <path d="M 54.890625 33.015625 
L 54.890625 0 
L 45.90625 0 
L 45.90625 32.71875 
Q 45.90625 40.484375 42.875 44.328125 
Q 39.84375 48.1875 33.796875 48.1875 
Q 26.515625 48.1875 22.3125 43.546875 
Q 18.109375 38.921875 18.109375 30.90625 
L 18.109375 0 
L 9.078125 0 
L 9.078125 54.6875 
L 18.109375 54.6875 
L 18.109375 46.1875 
Q 21.34375 51.125 25.703125 53.5625 
Q 30.078125 56 35.796875 56 
Q 45.21875 56 50.046875 50.171875 
Q 54.890625 44.34375 54.890625 33.015625 
z
" id="DejaVuSans-110"/>
      <path id="DejaVuSans-32"/>
      <path d="M 9.421875 75.984375 
L 18.40625 75.984375 
L 18.40625 0 
L 9.421875 0 
z
" id="DejaVuSans-108"/>
      <path d="M 44.28125 53.078125 
L 44.28125 44.578125 
Q 40.484375 46.53125 36.375 47.5 
Q 32.28125 48.484375 27.875 48.484375 
Q 21.1875 48.484375 17.84375 46.4375 
Q 14.5 44.390625 14.5 40.28125 
Q 14.5 37.15625 16.890625 35.375 
Q 19.28125 33.59375 26.515625 31.984375 
L 29.59375 31.296875 
Q 39.15625 29.25 43.1875 25.515625 
Q 47.21875 21.78125 47.21875 15.09375 
Q 47.21875 7.46875 41.1875 3.015625 
Q 35.15625 -1.421875 24.609375 -1.421875 
Q 20.21875 -1.421875 15.453125 -0.5625 
Q 10.6875 0.296875 5.421875 2 
L 5.421875 11.28125 
Q 10.40625 8.6875 15.234375 7.390625 
Q 20.0625 6.109375 24.8125 6.109375 
Q 31.15625 6.109375 34.5625 8.28125 
Q 37.984375 10.453125 37.984375 14.40625 
Q 37.984375 18.0625 35.515625 20.015625 
Q 33.0625 21.96875 24.703125 23.78125 
L 21.578125 24.515625 
Q 13.234375 26.265625 9.515625 29.90625 
Q 5.8125 33.546875 5.8125 39.890625 
Q 5.8125 47.609375 11.28125 51.796875 
Q 16.75 56 26.8125 56 
Q 31.78125 56 36.171875 55.265625 
Q 40.578125 54.546875 44.28125 53.078125 
z
" id="DejaVuSans-115"/>
     </defs>
     <g transform="translate(19.3575 164.9475)rotate(-90)scale(0.16 -0.16)">
      <use xlink:href="#DejaVuSans-80"/>
      <use x="60.287109" xlink:href="#DejaVuSans-114"/>
      <use x="101.369141" xlink:href="#DejaVuSans-101"/>
      <use x="162.892578" xlink:href="#DejaVuSans-100"/>
      <use x="226.369141" xlink:href="#DejaVuSans-105"/>
      <use x="254.152344" xlink:href="#DejaVuSans-99"/>
      <use x="309.132812" xlink:href="#DejaVuSans-116"/>
      <use x="348.341797" xlink:href="#DejaVuSans-105"/>
      <use x="376.125" xlink:href="#DejaVuSans-111"/>
      <use x="437.306641" xlink:href="#DejaVuSans-110"/>
      <use x="500.685547" xlink:href="#DejaVuSans-32"/>
      <use x="532.472656" xlink:href="#DejaVuSans-108"/>
      <use x="560.255859" xlink:href="#DejaVuSans-111"/>
      <use x="621.4375" xlink:href="#DejaVuSans-115"/>
      <use x="673.537109" xlink:href="#DejaVuSans-115"/>
     </g>
    </g>
   </g>
   <g id="line2d_10">
    <path clip-path="url(#p9955755247)" d="M 59.083182 160.308031 
L 363.446818 160.308031 
" style="fill:none;stroke:#000000;stroke-linecap:square;stroke-opacity:0.8;stroke-width:1.5;"/>
   </g>
   <g id="line2d_11">
    <path clip-path="url(#p9955755247)" d="M 59.083182 35.825597 
L 62.706558 120.391859 
L 66.329935 139.477375 
L 69.953312 145.174265 
L 73.576688 148.247341 
L 77.200065 150.546246 
L 80.823442 152.076245 
L 84.446818 153.070378 
L 88.070195 153.716029 
L 91.693571 154.188969 
L 95.316948 154.522455 
L 98.940325 154.792917 
L 102.563701 155.047102 
L 106.187078 155.275059 
L 109.810455 155.444619 
L 113.433831 155.55659 
L 117.057208 155.691812 
L 120.680584 155.691466 
L 124.303961 155.81479 
L 127.927338 155.925394 
L 131.550714 156.046313 
L 135.174091 156.066067 
L 138.797468 156.151497 
L 142.420844 156.242545 
L 146.044221 156.269663 
L 149.667597 156.355547 
L 153.290974 156.365042 
L 156.914351 156.435342 
L 160.537727 156.536378 
L 164.161104 156.523433 
L 167.784481 156.534854 
L 171.407857 156.597167 
L 175.031234 156.596671 
L 178.65461 156.710857 
L 182.277987 156.685579 
L 185.901364 156.706442 
L 189.52474 156.725233 
L 193.148117 156.804995 
L 196.771494 156.855171 
L 200.39487 156.808755 
L 204.018247 156.899111 
L 207.641623 156.926743 
L 211.265 156.922627 
L 214.888377 156.987453 
L 218.511753 156.923438 
L 222.13513 156.977882 
L 225.758506 157.043229 
L 229.381883 157.022125 
L 233.00526 157.075778 
L 236.628636 157.141011 
L 240.252013 157.105533 
L 243.87539 157.111437 
L 247.498766 157.166058 
L 251.122143 157.097468 
L 254.745519 157.225606 
L 258.368896 157.214749 
L 261.992273 157.21881 
L 265.615649 157.197943 
L 269.239026 157.252104 
L 272.862403 157.278924 
L 276.485779 157.268221 
L 280.109156 157.247767 
L 283.732532 157.275327 
L 287.355909 157.264222 
L 290.979286 157.270669 
L 294.602662 157.285537 
L 298.226039 157.291148 
L 301.849416 157.297491 
L 305.472792 157.459073 
L 309.096169 157.440829 
L 312.719545 157.408669 
L 316.342922 157.398981 
L 319.966299 157.380963 
L 323.589675 157.403674 
L 327.213052 157.407654 
L 330.836429 157.456236 
L 334.459805 157.389192 
L 338.083182 157.509904 
L 341.706558 157.454153 
L 345.329935 157.480867 
" style="fill:none;stroke:#430000;stroke-dasharray:18.5,8;stroke-dashoffset:0;stroke-width:5;"/>
   </g>
   <g id="line2d_12">
    <path clip-path="url(#p9955755247)" d="M 59.083182 31.113148 
L 62.706558 120.896431 
L 66.329935 139.024881 
L 69.953312 145.193851 
L 73.576688 148.819359 
L 77.200065 151.27893 
L 80.823442 152.891626 
L 84.446818 153.734547 
L 88.070195 154.381383 
L 91.693571 154.799458 
L 95.316948 155.104282 
L 98.940325 155.259072 
L 102.563701 155.308809 
L 106.187078 155.428789 
L 109.810455 155.507779 
L 113.433831 155.760401 
L 117.057208 155.862774 
L 120.680584 155.971245 
L 124.303961 156.211879 
L 127.927338 156.24126 
L 131.550714 156.360485 
L 135.174091 156.379924 
L 138.797468 156.471629 
L 142.420844 156.510511 
L 146.044221 156.541739 
L 149.667597 156.734552 
L 153.290974 156.822354 
L 156.914351 156.880255 
L 160.537727 156.921927 
L 164.161104 157.045015 
L 167.784481 157.213345 
L 171.407857 157.232185 
L 175.031234 157.304858 
L 178.65461 157.063758 
L 182.277987 157.366699 
L 185.901364 157.393595 
L 189.52474 157.310888 
L 193.148117 157.482262 
L 196.771494 157.501532 
L 200.39487 157.512916 
L 204.018247 157.495651 
L 207.641623 157.537659 
L 211.265 157.590692 
L 214.888377 157.523001 
L 218.511753 157.63817 
L 222.13513 157.168858 
L 225.758506 157.433734 
L 229.381883 157.506926 
L 233.00526 157.665776 
L 236.628636 157.610091 
L 240.252013 157.647738 
L 243.87539 157.784313 
L 247.498766 157.454697 
L 251.122143 157.721432 
L 254.745519 157.651453 
L 258.368896 157.077636 
L 261.992273 157.5674 
L 265.615649 157.709794 
L 269.239026 157.491816 
L 272.862403 157.770432 
L 276.485779 157.416514 
L 280.109156 157.753189 
L 283.732532 157.830177 
L 287.355909 157.909098 
L 290.979286 157.902399 
L 294.602662 157.901109 
L 298.226039 157.487061 
L 301.849416 157.832231 
L 305.472792 157.717257 
L 309.096169 157.590015 
L 312.719545 157.524868 
L 316.342922 157.646052 
L 319.966299 158.035174 
L 323.589675 157.936293 
L 327.213052 157.956772 
L 330.836429 157.748442 
L 334.459805 156.428653 
L 338.083182 158.033499 
L 341.706558 158.088138 
L 345.329935 158.098188 
" style="fill:none;stroke:#499ad7;stroke-dasharray:18.5,8;stroke-dashoffset:0;stroke-width:5;"/>
   </g>
   <g id="patch_3">
    <path d="M 43.865 188.4375 
L 43.865 25.3575 
" style="fill:none;stroke:#000000;stroke-linecap:square;stroke-linejoin:miter;stroke-width:0.8;"/>
   </g>
   <g id="patch_4">
    <path d="M 43.865 188.4375 
L 378.665 188.4375 
" style="fill:none;stroke:#000000;stroke-linecap:square;stroke-linejoin:miter;stroke-width:0.8;"/>
   </g>
   <g id="text_12">
    <!-- optimal -->
    <defs>
     <path d="M 52 44.1875 
Q 55.375 50.25 60.0625 53.125 
Q 64.75 56 71.09375 56 
Q 79.640625 56 84.28125 50.015625 
Q 88.921875 44.046875 88.921875 33.015625 
L 88.921875 0 
L 79.890625 0 
L 79.890625 32.71875 
Q 79.890625 40.578125 77.09375 44.375 
Q 74.3125 48.1875 68.609375 48.1875 
Q 61.625 48.1875 57.5625 43.546875 
Q 53.515625 38.921875 53.515625 30.90625 
L 53.515625 0 
L 44.484375 0 
L 44.484375 32.71875 
Q 44.484375 40.625 41.703125 44.40625 
Q 38.921875 48.1875 33.109375 48.1875 
Q 26.21875 48.1875 22.15625 43.53125 
Q 18.109375 38.875 18.109375 30.90625 
L 18.109375 0 
L 9.078125 0 
L 9.078125 54.6875 
L 18.109375 54.6875 
L 18.109375 46.1875 
Q 21.1875 51.21875 25.484375 53.609375 
Q 29.78125 56 35.6875 56 
Q 41.65625 56 45.828125 52.96875 
Q 50 49.953125 52 44.1875 
z
" id="DejaVuSans-109"/>
     <path d="M 34.28125 27.484375 
Q 23.390625 27.484375 19.1875 25 
Q 14.984375 22.515625 14.984375 16.5 
Q 14.984375 11.71875 18.140625 8.90625 
Q 21.296875 6.109375 26.703125 6.109375 
Q 34.1875 6.109375 38.703125 11.40625 
Q 43.21875 16.703125 43.21875 25.484375 
L 43.21875 27.484375 
z
M 52.203125 31.203125 
L 52.203125 0 
L 43.21875 0 
L 43.21875 8.296875 
Q 40.140625 3.328125 35.546875 0.953125 
Q 30.953125 -1.421875 24.3125 -1.421875 
Q 15.921875 -1.421875 10.953125 3.296875 
Q 6 8.015625 6 15.921875 
Q 6 25.140625 12.171875 29.828125 
Q 18.359375 34.515625 30.609375 34.515625 
L 43.21875 34.515625 
L 43.21875 35.40625 
Q 43.21875 41.609375 39.140625 45 
Q 35.0625 48.390625 27.6875 48.390625 
Q 23 48.390625 18.546875 47.265625 
Q 14.109375 46.140625 10.015625 43.890625 
L 10.015625 52.203125 
Q 14.9375 54.109375 19.578125 55.046875 
Q 24.21875 56 28.609375 56 
Q 40.484375 56 46.34375 49.84375 
Q 52.203125 43.703125 52.203125 31.203125 
z
" id="DejaVuSans-97"/>
    </defs>
    <g transform="translate(367.070195 160.308031)scale(0.16 -0.16)">
     <use xlink:href="#DejaVuSans-111"/>
     <use x="61.181641" xlink:href="#DejaVuSans-112"/>
     <use x="124.658203" xlink:href="#DejaVuSans-116"/>
     <use x="163.867188" xlink:href="#DejaVuSans-105"/>
     <use x="191.650391" xlink:href="#DejaVuSans-109"/>
     <use x="289.0625" xlink:href="#DejaVuSans-97"/>
     <use x="350.341797" xlink:href="#DejaVuSans-108"/>
    </g>
   </g>
   <g id="text_13">
    <!-- Prediction task convergence -->
    <defs>
     <path d="M 9.1875 72.90625 
L 40.375 72.90625 
Q 54.296875 72.90625 61.734375 66.71875 
Q 69.1875 60.546875 69.1875 49.125 
Q 69.1875 37.640625 61.734375 31.46875 
Q 54.296875 25.296875 40.375 25.296875 
L 27.984375 25.296875 
L 27.984375 0 
L 9.1875 0 
z
M 27.984375 59.28125 
L 27.984375 38.921875 
L 38.375 38.921875 
Q 43.84375 38.921875 46.828125 41.578125 
Q 49.8125 44.234375 49.8125 49.125 
Q 49.8125 54 46.828125 56.640625 
Q 43.84375 59.28125 38.375 59.28125 
z
" id="DejaVuSans-Bold-80"/>
     <path d="M 49.03125 39.796875 
Q 46.734375 40.875 44.453125 41.375 
Q 42.1875 41.890625 39.890625 41.890625 
Q 33.15625 41.890625 29.515625 37.5625 
Q 25.875 33.25 25.875 25.203125 
L 25.875 0 
L 8.40625 0 
L 8.40625 54.6875 
L 25.875 54.6875 
L 25.875 45.703125 
Q 29.25 51.078125 33.609375 53.53125 
Q 37.984375 56 44.09375 56 
Q 44.96875 56 45.984375 55.921875 
Q 47.015625 55.859375 48.96875 55.609375 
z
" id="DejaVuSans-Bold-114"/>
     <path d="M 62.984375 27.484375 
L 62.984375 22.515625 
L 22.125 22.515625 
Q 22.75 16.359375 26.5625 13.28125 
Q 30.375 10.203125 37.203125 10.203125 
Q 42.71875 10.203125 48.5 11.84375 
Q 54.296875 13.484375 60.40625 16.796875 
L 60.40625 3.328125 
Q 54.203125 0.984375 48 -0.21875 
Q 41.796875 -1.421875 35.59375 -1.421875 
Q 20.75 -1.421875 12.515625 6.125 
Q 4.296875 13.671875 4.296875 27.296875 
Q 4.296875 40.671875 12.375 48.328125 
Q 20.453125 56 34.625 56 
Q 47.515625 56 55.25 48.234375 
Q 62.984375 40.484375 62.984375 27.484375 
z
M 45.015625 33.296875 
Q 45.015625 38.28125 42.109375 41.328125 
Q 39.203125 44.390625 34.515625 44.390625 
Q 29.4375 44.390625 26.265625 41.53125 
Q 23.09375 38.671875 22.3125 33.296875 
z
" id="DejaVuSans-Bold-101"/>
     <path d="M 45.609375 46.6875 
L 45.609375 75.984375 
L 63.1875 75.984375 
L 63.1875 0 
L 45.609375 0 
L 45.609375 7.90625 
Q 42 3.078125 37.640625 0.828125 
Q 33.296875 -1.421875 27.59375 -1.421875 
Q 17.484375 -1.421875 10.984375 6.609375 
Q 4.5 14.65625 4.5 27.296875 
Q 4.5 39.9375 10.984375 47.96875 
Q 17.484375 56 27.59375 56 
Q 33.25 56 37.625 53.734375 
Q 42 51.46875 45.609375 46.6875 
z
M 34.078125 11.28125 
Q 39.703125 11.28125 42.65625 15.375 
Q 45.609375 19.484375 45.609375 27.296875 
Q 45.609375 35.109375 42.65625 39.203125 
Q 39.703125 43.3125 34.078125 43.3125 
Q 28.515625 43.3125 25.5625 39.203125 
Q 22.609375 35.109375 22.609375 27.296875 
Q 22.609375 19.484375 25.5625 15.375 
Q 28.515625 11.28125 34.078125 11.28125 
z
" id="DejaVuSans-Bold-100"/>
     <path d="M 8.40625 54.6875 
L 25.875 54.6875 
L 25.875 0 
L 8.40625 0 
z
M 8.40625 75.984375 
L 25.875 75.984375 
L 25.875 61.71875 
L 8.40625 61.71875 
z
" id="DejaVuSans-Bold-105"/>
     <path d="M 52.59375 52.984375 
L 52.59375 38.71875 
Q 49.03125 41.15625 45.4375 42.328125 
Q 41.84375 43.5 37.984375 43.5 
Q 30.671875 43.5 26.59375 39.234375 
Q 22.515625 34.96875 22.515625 27.296875 
Q 22.515625 19.625 26.59375 15.34375 
Q 30.671875 11.078125 37.984375 11.078125 
Q 42.09375 11.078125 45.78125 12.296875 
Q 49.46875 13.53125 52.59375 15.921875 
L 52.59375 1.609375 
Q 48.484375 0.09375 44.265625 -0.65625 
Q 40.046875 -1.421875 35.796875 -1.421875 
Q 21 -1.421875 12.640625 6.171875 
Q 4.296875 13.765625 4.296875 27.296875 
Q 4.296875 40.828125 12.640625 48.40625 
Q 21 56 35.796875 56 
Q 40.09375 56 44.265625 55.25 
Q 48.4375 54.5 52.59375 52.984375 
z
" id="DejaVuSans-Bold-99"/>
     <path d="M 27.484375 70.21875 
L 27.484375 54.6875 
L 45.515625 54.6875 
L 45.515625 42.1875 
L 27.484375 42.1875 
L 27.484375 19 
Q 27.484375 15.1875 29 13.84375 
Q 30.515625 12.5 35.015625 12.5 
L 44 12.5 
L 44 0 
L 29 0 
Q 18.65625 0 14.328125 4.3125 
Q 10.015625 8.640625 10.015625 19 
L 10.015625 42.1875 
L 1.3125 42.1875 
L 1.3125 54.6875 
L 10.015625 54.6875 
L 10.015625 70.21875 
z
" id="DejaVuSans-Bold-116"/>
     <path d="M 34.421875 43.5 
Q 28.609375 43.5 25.5625 39.328125 
Q 22.515625 35.15625 22.515625 27.296875 
Q 22.515625 19.4375 25.5625 15.25 
Q 28.609375 11.078125 34.421875 11.078125 
Q 40.140625 11.078125 43.15625 15.25 
Q 46.1875 19.4375 46.1875 27.296875 
Q 46.1875 35.15625 43.15625 39.328125 
Q 40.140625 43.5 34.421875 43.5 
z
M 34.421875 56 
Q 48.53125 56 56.46875 48.375 
Q 64.40625 40.765625 64.40625 27.296875 
Q 64.40625 13.8125 56.46875 6.1875 
Q 48.53125 -1.421875 34.421875 -1.421875 
Q 20.265625 -1.421875 12.28125 6.1875 
Q 4.296875 13.8125 4.296875 27.296875 
Q 4.296875 40.765625 12.28125 48.375 
Q 20.265625 56 34.421875 56 
z
" id="DejaVuSans-Bold-111"/>
     <path d="M 63.375 33.296875 
L 63.375 0 
L 45.796875 0 
L 45.796875 5.421875 
L 45.796875 25.484375 
Q 45.796875 32.5625 45.484375 35.25 
Q 45.171875 37.9375 44.390625 39.203125 
Q 43.359375 40.921875 41.59375 41.875 
Q 39.84375 42.828125 37.59375 42.828125 
Q 32.125 42.828125 29 38.59375 
Q 25.875 34.375 25.875 26.90625 
L 25.875 0 
L 8.40625 0 
L 8.40625 54.6875 
L 25.875 54.6875 
L 25.875 46.6875 
Q 29.828125 51.46875 34.265625 53.734375 
Q 38.71875 56 44.09375 56 
Q 53.5625 56 58.46875 50.1875 
Q 63.375 44.390625 63.375 33.296875 
z
" id="DejaVuSans-Bold-110"/>
     <path id="DejaVuSans-Bold-32"/>
     <path d="M 32.90625 24.609375 
Q 27.4375 24.609375 24.671875 22.75 
Q 21.921875 20.90625 21.921875 17.28125 
Q 21.921875 13.96875 24.140625 12.078125 
Q 26.375 10.203125 30.328125 10.203125 
Q 35.25 10.203125 38.625 13.734375 
Q 42 17.28125 42 22.609375 
L 42 24.609375 
z
M 59.625 31.203125 
L 59.625 0 
L 42 0 
L 42 8.109375 
Q 38.484375 3.125 34.078125 0.84375 
Q 29.6875 -1.421875 23.390625 -1.421875 
Q 14.890625 -1.421875 9.59375 3.53125 
Q 4.296875 8.5 4.296875 16.40625 
Q 4.296875 26.03125 10.90625 30.515625 
Q 17.53125 35.015625 31.6875 35.015625 
L 42 35.015625 
L 42 36.375 
Q 42 40.53125 38.71875 42.453125 
Q 35.453125 44.390625 28.515625 44.390625 
Q 22.90625 44.390625 18.0625 43.265625 
Q 13.234375 42.140625 9.078125 39.890625 
L 9.078125 53.21875 
Q 14.703125 54.59375 20.359375 55.296875 
Q 26.03125 56 31.6875 56 
Q 46.484375 56 53.046875 50.171875 
Q 59.625 44.34375 59.625 31.203125 
z
" id="DejaVuSans-Bold-97"/>
     <path d="M 51.125 52.984375 
L 51.125 39.703125 
Q 45.515625 42.046875 40.28125 43.21875 
Q 35.0625 44.390625 30.421875 44.390625 
Q 25.4375 44.390625 23.015625 43.140625 
Q 20.609375 41.890625 20.609375 39.3125 
Q 20.609375 37.203125 22.4375 36.078125 
Q 24.265625 34.96875 29 34.421875 
L 32.078125 33.984375 
Q 45.515625 32.28125 50.140625 28.375 
Q 54.78125 24.46875 54.78125 16.109375 
Q 54.78125 7.375 48.328125 2.96875 
Q 41.890625 -1.421875 29.109375 -1.421875 
Q 23.6875 -1.421875 17.890625 -0.5625 
Q 12.109375 0.296875 6 2 
L 6 15.28125 
Q 11.234375 12.75 16.71875 11.46875 
Q 22.21875 10.203125 27.875 10.203125 
Q 33.015625 10.203125 35.59375 11.609375 
Q 38.1875 13.03125 38.1875 15.828125 
Q 38.1875 18.171875 36.40625 19.3125 
Q 34.625 20.453125 29.296875 21.09375 
L 26.21875 21.484375 
Q 14.546875 22.953125 9.859375 26.90625 
Q 5.171875 30.859375 5.171875 38.921875 
Q 5.171875 47.609375 11.125 51.796875 
Q 17.09375 56 29.390625 56 
Q 34.234375 56 39.546875 55.265625 
Q 44.875 54.546875 51.125 52.984375 
z
" id="DejaVuSans-Bold-115"/>
     <path d="M 8.40625 75.984375 
L 25.875 75.984375 
L 25.875 34.625 
L 46 54.6875 
L 66.3125 54.6875 
L 39.59375 29.59375 
L 68.40625 0 
L 47.21875 0 
L 25.875 22.796875 
L 25.875 0 
L 8.40625 0 
z
" id="DejaVuSans-Bold-107"/>
     <path d="M 1.515625 54.6875 
L 19 54.6875 
L 32.625 16.890625 
L 46.1875 54.6875 
L 63.71875 54.6875 
L 42.1875 0 
L 23 0 
z
" id="DejaVuSans-Bold-118"/>
     <path d="M 45.609375 9.28125 
Q 42 4.5 37.640625 2.25 
Q 33.296875 0 27.59375 0 
Q 17.578125 0 11.03125 7.875 
Q 4.5 15.765625 4.5 27.984375 
Q 4.5 40.234375 11.03125 48.0625 
Q 17.578125 55.90625 27.59375 55.90625 
Q 33.296875 55.90625 37.640625 53.65625 
Q 42 51.421875 45.609375 46.578125 
L 45.609375 54.6875 
L 63.1875 54.6875 
L 63.1875 5.515625 
Q 63.1875 -7.671875 54.859375 -14.625 
Q 46.53125 -21.578125 30.71875 -21.578125 
Q 25.59375 -21.578125 20.796875 -20.796875 
Q 16.015625 -20.015625 11.1875 -18.40625 
L 11.1875 -4.78125 
Q 15.765625 -7.421875 20.15625 -8.71875 
Q 24.5625 -10.015625 29 -10.015625 
Q 37.59375 -10.015625 41.59375 -6.25 
Q 45.609375 -2.484375 45.609375 5.515625 
z
M 34.078125 43.3125 
Q 28.65625 43.3125 25.625 39.296875 
Q 22.609375 35.296875 22.609375 27.984375 
Q 22.609375 20.453125 25.53125 16.578125 
Q 28.46875 12.703125 34.078125 12.703125 
Q 39.546875 12.703125 42.578125 16.703125 
Q 45.609375 20.703125 45.609375 27.984375 
Q 45.609375 35.296875 42.578125 39.296875 
Q 39.546875 43.3125 34.078125 43.3125 
z
" id="DejaVuSans-Bold-103"/>
    </defs>
    <g transform="translate(82.65125 19.3575)scale(0.16 -0.16)">
     <use xlink:href="#DejaVuSans-Bold-80"/>
     <use x="73.291016" xlink:href="#DejaVuSans-Bold-114"/>
     <use x="122.607422" xlink:href="#DejaVuSans-Bold-101"/>
     <use x="190.429688" xlink:href="#DejaVuSans-Bold-100"/>
     <use x="262.011719" xlink:href="#DejaVuSans-Bold-105"/>
     <use x="296.289062" xlink:href="#DejaVuSans-Bold-99"/>
     <use x="355.566406" xlink:href="#DejaVuSans-Bold-116"/>
     <use x="403.369141" xlink:href="#DejaVuSans-Bold-105"/>
     <use x="437.646484" xlink:href="#DejaVuSans-Bold-111"/>
     <use x="506.347656" xlink:href="#DejaVuSans-Bold-110"/>
     <use x="577.539062" xlink:href="#DejaVuSans-Bold-32"/>
     <use x="612.353516" xlink:href="#DejaVuSans-Bold-116"/>
     <use x="660.15625" xlink:href="#DejaVuSans-Bold-97"/>
     <use x="727.636719" xlink:href="#DejaVuSans-Bold-115"/>
     <use x="787.158203" xlink:href="#DejaVuSans-Bold-107"/>
     <use x="853.662109" xlink:href="#DejaVuSans-Bold-32"/>
     <use x="888.476562" xlink:href="#DejaVuSans-Bold-99"/>
     <use x="947.753906" xlink:href="#DejaVuSans-Bold-111"/>
     <use x="1016.455078" xlink:href="#DejaVuSans-Bold-110"/>
     <use x="1087.646484" xlink:href="#DejaVuSans-Bold-118"/>
     <use x="1152.832031" xlink:href="#DejaVuSans-Bold-101"/>
     <use x="1220.654297" xlink:href="#DejaVuSans-Bold-114"/>
     <use x="1269.970703" xlink:href="#DejaVuSans-Bold-103"/>
     <use x="1341.552734" xlink:href="#DejaVuSans-Bold-101"/>
     <use x="1409.375" xlink:href="#DejaVuSans-Bold-110"/>
     <use x="1480.566406" xlink:href="#DejaVuSans-Bold-99"/>
     <use x="1539.84375" xlink:href="#DejaVuSans-Bold-101"/>
    </g>
   </g>
  </g>
 </g>
 <defs>
  <clipPath id="p9955755247">
   <rect height="163.08" width="334.8" x="43.865" y="25.3575"/>
  </clipPath>
 </defs>
</svg>
