<?xml version="1.0" encoding="utf-8" standalone="no"?>
<!DOCTYPE svg PUBLIC "-//W3C//DTD SVG 1.1//EN"
  "http://www.w3.org/Graphics/SVG/1.1/DTD/svg11.dtd">
<!-- Created with matplotlib (https://matplotlib.org/) -->
<svg height="229.865pt" version="1.1" viewBox="0 0 428.353945 229.865" width="428.353945pt" xmlns="http://www.w3.org/2000/svg" xmlns:xlink="http://www.w3.org/1999/xlink">
 <defs>
  <style type="text/css">
*{stroke-linecap:butt;stroke-linejoin:round;}
  </style>
 </defs>
 <g id="figure_1">
  <g id="patch_1">
   <path d="M 0 229.865 
L 428.353945 229.865 
L 428.353945 0 
L 0 0 
z
" style="fill:#ffffff;"/>
  </g>
  <g id="axes_1">
   <g id="patch_2">
    <path d="M 37.44875 188.4375 
L 372.24875 188.4375 
L 372.24875 25.3575 
L 37.44875 25.3575 
z
" style="fill:#ffffff;"/>
   </g>
   <g id="PolyCollection_1">
    <defs>
     <path d="M 52.666932 -212.667727 
L 52.666932 -170.813079 
L 56.290308 -96.196093 
L 59.913685 -84.46309 
L 63.537062 -78.535201 
L 67.160438 -75.690552 
L 70.783815 -74.30437 
L 74.407192 -73.463193 
L 78.030568 -72.93207 
L 81.653945 -72.480244 
L 85.277321 -72.154085 
L 88.900698 -71.925485 
L 92.524075 -71.734036 
L 96.147451 -71.568985 
L 99.770828 -71.3865 
L 103.394205 -71.329761 
L 107.017581 -71.163241 
L 110.640958 -71.080702 
L 114.264334 -71.01942 
L 117.887711 -70.971901 
L 121.511088 -70.838429 
L 125.134464 -70.838616 
L 128.757841 -70.82816 
L 132.381218 -70.720263 
L 136.004594 -70.70405 
L 139.627971 -70.658861 
L 143.251347 -70.628242 
L 146.874724 -70.62073 
L 150.498101 -70.559938 
L 154.121477 -70.623423 
L 157.744854 -70.501203 
L 161.368231 -70.552126 
L 164.991607 -70.553443 
L 168.614984 -70.464368 
L 172.23836 -70.451104 
L 175.861737 -70.429842 
L 179.485114 -70.408953 
L 183.10849 -70.410917 
L 186.731867 -70.349148 
L 190.355244 -70.406776 
L 193.97862 -70.404739 
L 197.601997 -70.357095 
L 201.225373 -70.321689 
L 204.84875 -70.35424 
L 208.472127 -70.297296 
L 212.095503 -70.288715 
L 215.71888 -70.272596 
L 219.342256 -70.240381 
L 222.965633 -70.262603 
L 226.58901 -70.213968 
L 230.212386 -70.253775 
L 233.835763 -70.236306 
L 237.45914 -70.265243 
L 241.082516 -70.233645 
L 244.705893 -70.216866 
L 248.329269 -70.188229 
L 251.952646 -70.242045 
L 255.576023 -70.197868 
L 259.199399 -70.215034 
L 262.822776 -70.249253 
L 266.446153 -70.220379 
L 270.069529 -70.212802 
L 273.692906 -70.245789 
L 277.316282 -70.1962 
L 280.939659 -70.203211 
L 284.563036 -70.255639 
L 288.186412 -70.193625 
L 291.809789 -70.17264 
L 295.433166 -70.193544 
L 299.056542 -70.140266 
L 302.679919 -70.089263 
L 306.303295 -70.094685 
L 309.926672 -70.246409 
L 313.550049 -70.191806 
L 317.173425 -70.120145 
L 320.796802 -70.191346 
L 324.420179 -70.108616 
L 328.043555 -70.151838 
L 331.666932 -70.188866 
L 335.290308 -70.17938 
L 338.913685 -70.18899 
L 338.913685 -71.089542 
L 338.913685 -71.089542 
L 335.290308 -71.062026 
L 331.666932 -71.086937 
L 328.043555 -71.098395 
L 324.420179 -71.186038 
L 320.796802 -71.062468 
L 317.173425 -71.100482 
L 313.550049 -71.097329 
L 309.926672 -71.177038 
L 306.303295 -71.169936 
L 302.679919 -71.083611 
L 299.056542 -71.174619 
L 295.433166 -71.114428 
L 291.809789 -71.217635 
L 288.186412 -71.080068 
L 284.563036 -71.157429 
L 280.939659 -71.07044 
L 277.316282 -71.198083 
L 273.692906 -71.159955 
L 270.069529 -71.106895 
L 266.446153 -71.14085 
L 262.822776 -71.24914 
L 259.199399 -71.207196 
L 255.576023 -71.160011 
L 251.952646 -71.18737 
L 248.329269 -71.135404 
L 244.705893 -71.151425 
L 241.082516 -71.216815 
L 237.45914 -71.239262 
L 233.835763 -71.217049 
L 230.212386 -71.258837 
L 226.58901 -71.274622 
L 222.965633 -71.364438 
L 219.342256 -71.278451 
L 215.71888 -71.347862 
L 212.095503 -71.335103 
L 208.472127 -71.356241 
L 204.84875 -71.339896 
L 201.225373 -71.44734 
L 197.601997 -71.422038 
L 193.97862 -71.333287 
L 190.355244 -71.465527 
L 186.731867 -71.605248 
L 183.10849 -71.530992 
L 179.485114 -71.497046 
L 175.861737 -71.537287 
L 172.23836 -71.657727 
L 168.614984 -71.577866 
L 164.991607 -71.702559 
L 161.368231 -71.624704 
L 157.744854 -71.704462 
L 154.121477 -71.81821 
L 150.498101 -71.821805 
L 146.874724 -71.833719 
L 143.251347 -71.912898 
L 139.627971 -71.959486 
L 136.004594 -72.091534 
L 132.381218 -72.051677 
L 128.757841 -72.144082 
L 125.134464 -72.238544 
L 121.511088 -72.387594 
L 117.887711 -72.433171 
L 114.264334 -72.615153 
L 110.640958 -72.711052 
L 107.017581 -72.888908 
L 103.394205 -73.028786 
L 99.770828 -73.099167 
L 96.147451 -73.384755 
L 92.524075 -73.64608 
L 88.900698 -73.937385 
L 85.277321 -74.303021 
L 81.653945 -74.790613 
L 78.030568 -75.164731 
L 74.407192 -75.980861 
L 70.783815 -76.978276 
L 67.160438 -78.680377 
L 63.537062 -81.705033 
L 59.913685 -89.620264 
L 56.290308 -130.950072 
L 52.666932 -212.667727 
z
" id="mbe4d5352fa" style="stroke:#430000;stroke-opacity:0.2;"/>
    </defs>
    <g clip-path="url(#pf533cb9139)">
     <use style="fill:#430000;fill-opacity:0.2;stroke:#430000;stroke-opacity:0.2;" x="0" xlink:href="#mbe4d5352fa" y="229.865"/>
    </g>
   </g>
   <g id="PolyCollection_2">
    <defs>
     <path d="M 52.666932 -212.336352 
L 52.666932 -166.539536 
L 56.290308 -95.8545 
L 59.913685 -84.213501 
L 63.537062 -78.780725 
L 67.160438 -76.145342 
L 70.783815 -74.795677 
L 74.407192 -73.962438 
L 78.030568 -73.320332 
L 81.653945 -72.91054 
L 85.277321 -72.59683 
L 88.900698 -72.358976 
L 92.524075 -71.833032 
L 96.147451 -71.792359 
L 99.770828 -71.743569 
L 103.394205 -71.78023 
L 107.017581 -71.763444 
L 110.640958 -71.841162 
L 114.264334 -71.89195 
L 117.887711 -71.973361 
L 121.511088 -71.644978 
L 125.134464 -71.703369 
L 128.757841 -71.53701 
L 132.381218 -71.30596 
L 136.004594 -71.270412 
L 139.627971 -71.296306 
L 143.251347 -71.179496 
L 146.874724 -71.069797 
L 150.498101 -70.884412 
L 154.121477 -70.915389 
L 157.744854 -70.845518 
L 161.368231 -70.04035 
L 164.991607 -70.136177 
L 168.614984 -70.432841 
L 172.23836 -70.504604 
L 175.861737 -70.534238 
L 179.485114 -70.540177 
L 183.10849 -70.449862 
L 186.731867 -70.428565 
L 190.355244 -70.431869 
L 193.97862 -70.513472 
L 197.601997 -70.467733 
L 201.225373 -70.340869 
L 204.84875 -70.333888 
L 208.472127 -70.283619 
L 212.095503 -70.285683 
L 215.71888 -70.333714 
L 219.342256 -70.303072 
L 222.965633 -70.257705 
L 226.58901 -70.235326 
L 230.212386 -70.204513 
L 233.835763 -69.718233 
L 237.45914 -70.294018 
L 241.082516 -70.310451 
L 244.705893 -70.299245 
L 248.329269 -70.213377 
L 251.952646 -70.203579 
L 255.576023 -70.170328 
L 259.199399 -70.184792 
L 262.822776 -70.168432 
L 266.446153 -70.108039 
L 270.069529 -70.121436 
L 273.692906 -70.140504 
L 277.316282 -70.11453 
L 280.939659 -70.06704 
L 284.563036 -70.149181 
L 288.186412 -70.056531 
L 291.809789 -70.093903 
L 295.433166 -70.102 
L 299.056542 -69.89178 
L 302.679919 -69.987556 
L 306.303295 -69.699374 
L 309.926672 -70.079289 
L 313.550049 -70.07798 
L 317.173425 -70.064569 
L 320.796802 -70.019366 
L 324.420179 -70.002434 
L 328.043555 -70.036394 
L 331.666932 -70.116842 
L 335.290308 -70.085722 
L 338.913685 -70.025034 
L 338.913685 -71.007193 
L 338.913685 -71.007193 
L 335.290308 -70.997537 
L 331.666932 -71.045019 
L 328.043555 -71.018706 
L 324.420179 -71.082067 
L 320.796802 -71.014093 
L 317.173425 -71.109299 
L 313.550049 -71.101642 
L 309.926672 -71.133062 
L 306.303295 -71.640129 
L 302.679919 -71.317121 
L 299.056542 -71.596671 
L 295.433166 -71.072456 
L 291.809789 -71.070345 
L 288.186412 -71.099682 
L 284.563036 -71.076845 
L 280.939659 -71.11208 
L 277.316282 -71.143385 
L 273.692906 -71.102012 
L 270.069529 -71.089051 
L 266.446153 -71.11721 
L 262.822776 -71.111315 
L 259.199399 -71.12683 
L 255.576023 -71.173713 
L 251.952646 -71.174185 
L 248.329269 -71.201695 
L 244.705893 -71.19675 
L 241.082516 -71.381105 
L 237.45914 -71.205953 
L 233.835763 -72.620446 
L 230.212386 -71.2445 
L 226.58901 -71.260024 
L 222.965633 -71.212115 
L 219.342256 -71.283761 
L 215.71888 -71.272787 
L 212.095503 -71.362737 
L 208.472127 -71.36315 
L 204.84875 -71.401694 
L 201.225373 -71.461967 
L 197.601997 -71.51476 
L 193.97862 -71.600802 
L 190.355244 -71.693593 
L 186.731867 -71.906258 
L 183.10849 -72.015354 
L 179.485114 -71.964393 
L 175.861737 -72.153831 
L 172.23836 -72.248624 
L 168.614984 -72.65954 
L 164.991607 -73.157445 
L 161.368231 -73.097179 
L 157.744854 -71.796918 
L 154.121477 -71.946052 
L 150.498101 -72.325353 
L 146.874724 -72.156914 
L 143.251347 -72.266935 
L 139.627971 -72.434167 
L 136.004594 -72.63945 
L 132.381218 -72.937908 
L 128.757841 -72.887036 
L 125.134464 -73.46366 
L 121.511088 -74.15163 
L 117.887711 -73.865513 
L 114.264334 -74.01137 
L 110.640958 -74.060376 
L 107.017581 -73.858868 
L 103.394205 -73.691154 
L 99.770828 -73.741448 
L 96.147451 -74.181889 
L 92.524075 -74.59006 
L 88.900698 -73.93056 
L 85.277321 -74.203199 
L 81.653945 -74.52292 
L 78.030568 -74.943995 
L 74.407192 -75.605291 
L 70.783815 -76.533164 
L 67.160438 -77.962716 
L 63.537062 -81.253897 
L 59.913685 -89.850968 
L 56.290308 -124.639983 
L 52.666932 -212.336352 
z
" id="m735481da58" style="stroke:#499ad7;stroke-opacity:0.2;"/>
    </defs>
    <g clip-path="url(#pf533cb9139)">
     <use style="fill:#499ad7;fill-opacity:0.2;stroke:#499ad7;stroke-opacity:0.2;" x="0" xlink:href="#m735481da58" y="229.865"/>
    </g>
   </g>
   <g id="matplotlib.axis_1">
    <g id="xtick_1">
     <g id="line2d_1">
      <defs>
       <path d="M 0 0 
L 0 3.5 
" id="m251c1c43f2" style="stroke:#000000;stroke-width:0.8;"/>
      </defs>
      <g>
       <use style="stroke:#000000;stroke-width:0.8;" x="52.666932" xlink:href="#m251c1c43f2" y="188.4375"/>
      </g>
     </g>
     <g id="text_1">
      <!-- 0 -->
      <defs>
       <path d="M 31.78125 66.40625 
Q 24.171875 66.40625 20.328125 58.90625 
Q 16.5 51.421875 16.5 36.375 
Q 16.5 21.390625 20.328125 13.890625 
Q 24.171875 6.390625 31.78125 6.390625 
Q 39.453125 6.390625 43.28125 13.890625 
Q 47.125 21.390625 47.125 36.375 
Q 47.125 51.421875 43.28125 58.90625 
Q 39.453125 66.40625 31.78125 66.40625 
z
M 31.78125 74.21875 
Q 44.046875 74.21875 50.515625 64.515625 
Q 56.984375 54.828125 56.984375 36.375 
Q 56.984375 17.96875 50.515625 8.265625 
Q 44.046875 -1.421875 31.78125 -1.421875 
Q 19.53125 -1.421875 13.0625 8.265625 
Q 6.59375 17.96875 6.59375 36.375 
Q 6.59375 54.828125 13.0625 64.515625 
Q 19.53125 74.21875 31.78125 74.21875 
z
" id="DejaVuSans-48"/>
      </defs>
      <g transform="translate(48.849432 204.555625)scale(0.12 -0.12)">
       <use xlink:href="#DejaVuSans-48"/>
      </g>
     </g>
    </g>
    <g id="xtick_2">
     <g id="line2d_2">
      <g>
       <use style="stroke:#000000;stroke-width:0.8;" x="125.134464" xlink:href="#m251c1c43f2" y="188.4375"/>
      </g>
     </g>
     <g id="text_2">
      <!-- 20 -->
      <defs>
       <path d="M 19.1875 8.296875 
L 53.609375 8.296875 
L 53.609375 0 
L 7.328125 0 
L 7.328125 8.296875 
Q 12.9375 14.109375 22.625 23.890625 
Q 32.328125 33.6875 34.8125 36.53125 
Q 39.546875 41.84375 41.421875 45.53125 
Q 43.3125 49.21875 43.3125 52.78125 
Q 43.3125 58.59375 39.234375 62.25 
Q 35.15625 65.921875 28.609375 65.921875 
Q 23.96875 65.921875 18.8125 64.3125 
Q 13.671875 62.703125 7.8125 59.421875 
L 7.8125 69.390625 
Q 13.765625 71.78125 18.9375 73 
Q 24.125 74.21875 28.421875 74.21875 
Q 39.75 74.21875 46.484375 68.546875 
Q 53.21875 62.890625 53.21875 53.421875 
Q 53.21875 48.921875 51.53125 44.890625 
Q 49.859375 40.875 45.40625 35.40625 
Q 44.1875 33.984375 37.640625 27.21875 
Q 31.109375 20.453125 19.1875 8.296875 
z
" id="DejaVuSans-50"/>
      </defs>
      <g transform="translate(117.499464 204.555625)scale(0.12 -0.12)">
       <use xlink:href="#DejaVuSans-50"/>
       <use x="63.623047" xlink:href="#DejaVuSans-48"/>
      </g>
     </g>
    </g>
    <g id="xtick_3">
     <g id="line2d_3">
      <g>
       <use style="stroke:#000000;stroke-width:0.8;" x="197.601997" xlink:href="#m251c1c43f2" y="188.4375"/>
      </g>
     </g>
     <g id="text_3">
      <!-- 40 -->
      <defs>
       <path d="M 37.796875 64.3125 
L 12.890625 25.390625 
L 37.796875 25.390625 
z
M 35.203125 72.90625 
L 47.609375 72.90625 
L 47.609375 25.390625 
L 58.015625 25.390625 
L 58.015625 17.1875 
L 47.609375 17.1875 
L 47.609375 0 
L 37.796875 0 
L 37.796875 17.1875 
L 4.890625 17.1875 
L 4.890625 26.703125 
z
" id="DejaVuSans-52"/>
      </defs>
      <g transform="translate(189.966997 204.555625)scale(0.12 -0.12)">
       <use xlink:href="#DejaVuSans-52"/>
       <use x="63.623047" xlink:href="#DejaVuSans-48"/>
      </g>
     </g>
    </g>
    <g id="xtick_4">
     <g id="line2d_4">
      <g>
       <use style="stroke:#000000;stroke-width:0.8;" x="270.069529" xlink:href="#m251c1c43f2" y="188.4375"/>
      </g>
     </g>
     <g id="text_4">
      <!-- 60 -->
      <defs>
       <path d="M 33.015625 40.375 
Q 26.375 40.375 22.484375 35.828125 
Q 18.609375 31.296875 18.609375 23.390625 
Q 18.609375 15.53125 22.484375 10.953125 
Q 26.375 6.390625 33.015625 6.390625 
Q 39.65625 6.390625 43.53125 10.953125 
Q 47.40625 15.53125 47.40625 23.390625 
Q 47.40625 31.296875 43.53125 35.828125 
Q 39.65625 40.375 33.015625 40.375 
z
M 52.59375 71.296875 
L 52.59375 62.3125 
Q 48.875 64.0625 45.09375 64.984375 
Q 41.3125 65.921875 37.59375 65.921875 
Q 27.828125 65.921875 22.671875 59.328125 
Q 17.53125 52.734375 16.796875 39.40625 
Q 19.671875 43.65625 24.015625 45.921875 
Q 28.375 48.1875 33.59375 48.1875 
Q 44.578125 48.1875 50.953125 41.515625 
Q 57.328125 34.859375 57.328125 23.390625 
Q 57.328125 12.15625 50.6875 5.359375 
Q 44.046875 -1.421875 33.015625 -1.421875 
Q 20.359375 -1.421875 13.671875 8.265625 
Q 6.984375 17.96875 6.984375 36.375 
Q 6.984375 53.65625 15.1875 63.9375 
Q 23.390625 74.21875 37.203125 74.21875 
Q 40.921875 74.21875 44.703125 73.484375 
Q 48.484375 72.75 52.59375 71.296875 
z
" id="DejaVuSans-54"/>
      </defs>
      <g transform="translate(262.434529 204.555625)scale(0.12 -0.12)">
       <use xlink:href="#DejaVuSans-54"/>
       <use x="63.623047" xlink:href="#DejaVuSans-48"/>
      </g>
     </g>
    </g>
    <g id="xtick_5">
     <g id="line2d_5">
      <g>
       <use style="stroke:#000000;stroke-width:0.8;" x="342.537062" xlink:href="#m251c1c43f2" y="188.4375"/>
      </g>
     </g>
     <g id="text_5">
      <!-- 80 -->
      <defs>
       <path d="M 31.78125 34.625 
Q 24.75 34.625 20.71875 30.859375 
Q 16.703125 27.09375 16.703125 20.515625 
Q 16.703125 13.921875 20.71875 10.15625 
Q 24.75 6.390625 31.78125 6.390625 
Q 38.8125 6.390625 42.859375 10.171875 
Q 46.921875 13.96875 46.921875 20.515625 
Q 46.921875 27.09375 42.890625 30.859375 
Q 38.875 34.625 31.78125 34.625 
z
M 21.921875 38.8125 
Q 15.578125 40.375 12.03125 44.71875 
Q 8.5 49.078125 8.5 55.328125 
Q 8.5 64.0625 14.71875 69.140625 
Q 20.953125 74.21875 31.78125 74.21875 
Q 42.671875 74.21875 48.875 69.140625 
Q 55.078125 64.0625 55.078125 55.328125 
Q 55.078125 49.078125 51.53125 44.71875 
Q 48 40.375 41.703125 38.8125 
Q 48.828125 37.15625 52.796875 32.3125 
Q 56.78125 27.484375 56.78125 20.515625 
Q 56.78125 9.90625 50.3125 4.234375 
Q 43.84375 -1.421875 31.78125 -1.421875 
Q 19.734375 -1.421875 13.25 4.234375 
Q 6.78125 9.90625 6.78125 20.515625 
Q 6.78125 27.484375 10.78125 32.3125 
Q 14.796875 37.15625 21.921875 38.8125 
z
M 18.3125 54.390625 
Q 18.3125 48.734375 21.84375 45.5625 
Q 25.390625 42.390625 31.78125 42.390625 
Q 38.140625 42.390625 41.71875 45.5625 
Q 45.3125 48.734375 45.3125 54.390625 
Q 45.3125 60.0625 41.71875 63.234375 
Q 38.140625 66.40625 31.78125 66.40625 
Q 25.390625 66.40625 21.84375 63.234375 
Q 18.3125 60.0625 18.3125 54.390625 
z
" id="DejaVuSans-56"/>
      </defs>
      <g transform="translate(334.902062 204.555625)scale(0.12 -0.12)">
       <use xlink:href="#DejaVuSans-56"/>
       <use x="63.623047" xlink:href="#DejaVuSans-48"/>
      </g>
     </g>
    </g>
    <g id="text_6">
     <!-- Epoch -->
     <defs>
      <path d="M 9.8125 72.90625 
L 55.90625 72.90625 
L 55.90625 64.59375 
L 19.671875 64.59375 
L 19.671875 43.015625 
L 54.390625 43.015625 
L 54.390625 34.71875 
L 19.671875 34.71875 
L 19.671875 8.296875 
L 56.78125 8.296875 
L 56.78125 0 
L 9.8125 0 
z
" id="DejaVuSans-69"/>
      <path d="M 18.109375 8.203125 
L 18.109375 -20.796875 
L 9.078125 -20.796875 
L 9.078125 54.6875 
L 18.109375 54.6875 
L 18.109375 46.390625 
Q 20.953125 51.265625 25.265625 53.625 
Q 29.59375 56 35.59375 56 
Q 45.5625 56 51.78125 48.09375 
Q 58.015625 40.1875 58.015625 27.296875 
Q 58.015625 14.40625 51.78125 6.484375 
Q 45.5625 -1.421875 35.59375 -1.421875 
Q 29.59375 -1.421875 25.265625 0.953125 
Q 20.953125 3.328125 18.109375 8.203125 
z
M 48.6875 27.296875 
Q 48.6875 37.203125 44.609375 42.84375 
Q 40.53125 48.484375 33.40625 48.484375 
Q 26.265625 48.484375 22.1875 42.84375 
Q 18.109375 37.203125 18.109375 27.296875 
Q 18.109375 17.390625 22.1875 11.75 
Q 26.265625 6.109375 33.40625 6.109375 
Q 40.53125 6.109375 44.609375 11.75 
Q 48.6875 17.390625 48.6875 27.296875 
z
" id="DejaVuSans-112"/>
      <path d="M 30.609375 48.390625 
Q 23.390625 48.390625 19.1875 42.75 
Q 14.984375 37.109375 14.984375 27.296875 
Q 14.984375 17.484375 19.15625 11.84375 
Q 23.34375 6.203125 30.609375 6.203125 
Q 37.796875 6.203125 41.984375 11.859375 
Q 46.1875 17.53125 46.1875 27.296875 
Q 46.1875 37.015625 41.984375 42.703125 
Q 37.796875 48.390625 30.609375 48.390625 
z
M 30.609375 56 
Q 42.328125 56 49.015625 48.375 
Q 55.71875 40.765625 55.71875 27.296875 
Q 55.71875 13.875 49.015625 6.21875 
Q 42.328125 -1.421875 30.609375 -1.421875 
Q 18.84375 -1.421875 12.171875 6.21875 
Q 5.515625 13.875 5.515625 27.296875 
Q 5.515625 40.765625 12.171875 48.375 
Q 18.84375 56 30.609375 56 
z
" id="DejaVuSans-111"/>
      <path d="M 48.78125 52.59375 
L 48.78125 44.1875 
Q 44.96875 46.296875 41.140625 47.34375 
Q 37.3125 48.390625 33.40625 48.390625 
Q 24.65625 48.390625 19.8125 42.84375 
Q 14.984375 37.3125 14.984375 27.296875 
Q 14.984375 17.28125 19.8125 11.734375 
Q 24.65625 6.203125 33.40625 6.203125 
Q 37.3125 6.203125 41.140625 7.25 
Q 44.96875 8.296875 48.78125 10.40625 
L 48.78125 2.09375 
Q 45.015625 0.34375 40.984375 -0.53125 
Q 36.96875 -1.421875 32.421875 -1.421875 
Q 20.0625 -1.421875 12.78125 6.34375 
Q 5.515625 14.109375 5.515625 27.296875 
Q 5.515625 40.671875 12.859375 48.328125 
Q 20.21875 56 33.015625 56 
Q 37.15625 56 41.109375 55.140625 
Q 45.0625 54.296875 48.78125 52.59375 
z
" id="DejaVuSans-99"/>
      <path d="M 54.890625 33.015625 
L 54.890625 0 
L 45.90625 0 
L 45.90625 32.71875 
Q 45.90625 40.484375 42.875 44.328125 
Q 39.84375 48.1875 33.796875 48.1875 
Q 26.515625 48.1875 22.3125 43.546875 
Q 18.109375 38.921875 18.109375 30.90625 
L 18.109375 0 
L 9.078125 0 
L 9.078125 75.984375 
L 18.109375 75.984375 
L 18.109375 46.1875 
Q 21.34375 51.125 25.703125 53.5625 
Q 30.078125 56 35.796875 56 
Q 45.21875 56 50.046875 50.171875 
Q 54.890625 44.34375 54.890625 33.015625 
z
" id="DejaVuSans-104"/>
     </defs>
     <g transform="translate(186.475625 220.169375)scale(0.12 -0.12)">
      <use xlink:href="#DejaVuSans-69"/>
      <use x="63.183594" xlink:href="#DejaVuSans-112"/>
      <use x="126.660156" xlink:href="#DejaVuSans-111"/>
      <use x="187.841797" xlink:href="#DejaVuSans-99"/>
      <use x="242.822266" xlink:href="#DejaVuSans-104"/>
     </g>
    </g>
   </g>
   <g id="matplotlib.axis_2">
    <g id="ytick_1">
     <g id="line2d_6">
      <defs>
       <path d="M 0 0 
L -3.5 0 
" id="m11e1259d24" style="stroke:#000000;stroke-width:0.8;"/>
      </defs>
      <g>
       <use style="stroke:#000000;stroke-width:0.8;" x="37.44875" xlink:href="#m11e1259d24" y="186.140599"/>
      </g>
     </g>
     <g id="text_7">
      <!-- 0 -->
      <g transform="translate(22.81375 190.699661)scale(0.12 -0.12)">
       <use xlink:href="#DejaVuSans-48"/>
      </g>
     </g>
    </g>
    <g id="ytick_2">
     <g id="line2d_7">
      <g>
       <use style="stroke:#000000;stroke-width:0.8;" x="37.44875" xlink:href="#m11e1259d24" y="140.20257"/>
      </g>
     </g>
     <g id="text_8">
      <!-- 1 -->
      <defs>
       <path d="M 12.40625 8.296875 
L 28.515625 8.296875 
L 28.515625 63.921875 
L 10.984375 60.40625 
L 10.984375 69.390625 
L 28.421875 72.90625 
L 38.28125 72.90625 
L 38.28125 8.296875 
L 54.390625 8.296875 
L 54.390625 0 
L 12.40625 0 
z
" id="DejaVuSans-49"/>
      </defs>
      <g transform="translate(22.81375 144.761633)scale(0.12 -0.12)">
       <use xlink:href="#DejaVuSans-49"/>
      </g>
     </g>
    </g>
    <g id="ytick_3">
     <g id="line2d_8">
      <g>
       <use style="stroke:#000000;stroke-width:0.8;" x="37.44875" xlink:href="#m11e1259d24" y="94.264542"/>
      </g>
     </g>
     <g id="text_9">
      <!-- 2 -->
      <g transform="translate(22.81375 98.823605)scale(0.12 -0.12)">
       <use xlink:href="#DejaVuSans-50"/>
      </g>
     </g>
    </g>
    <g id="ytick_4">
     <g id="line2d_9">
      <g>
       <use style="stroke:#000000;stroke-width:0.8;" x="37.44875" xlink:href="#m11e1259d24" y="48.326514"/>
      </g>
     </g>
     <g id="text_10">
      <!-- 3 -->
      <defs>
       <path d="M 40.578125 39.3125 
Q 47.65625 37.796875 51.625 33 
Q 55.609375 28.21875 55.609375 21.1875 
Q 55.609375 10.40625 48.1875 4.484375 
Q 40.765625 -1.421875 27.09375 -1.421875 
Q 22.515625 -1.421875 17.65625 -0.515625 
Q 12.796875 0.390625 7.625 2.203125 
L 7.625 11.71875 
Q 11.71875 9.328125 16.59375 8.109375 
Q 21.484375 6.890625 26.8125 6.890625 
Q 36.078125 6.890625 40.9375 10.546875 
Q 45.796875 14.203125 45.796875 21.1875 
Q 45.796875 27.640625 41.28125 31.265625 
Q 36.765625 34.90625 28.71875 34.90625 
L 20.21875 34.90625 
L 20.21875 43.015625 
L 29.109375 43.015625 
Q 36.375 43.015625 40.234375 45.921875 
Q 44.09375 48.828125 44.09375 54.296875 
Q 44.09375 59.90625 40.109375 62.90625 
Q 36.140625 65.921875 28.71875 65.921875 
Q 24.65625 65.921875 20.015625 65.03125 
Q 15.375 64.15625 9.8125 62.3125 
L 9.8125 71.09375 
Q 15.4375 72.65625 20.34375 73.4375 
Q 25.25 74.21875 29.59375 74.21875 
Q 40.828125 74.21875 47.359375 69.109375 
Q 53.90625 64.015625 53.90625 55.328125 
Q 53.90625 49.265625 50.4375 45.09375 
Q 46.96875 40.921875 40.578125 39.3125 
z
" id="DejaVuSans-51"/>
      </defs>
      <g transform="translate(22.81375 52.885577)scale(0.12 -0.12)">
       <use xlink:href="#DejaVuSans-51"/>
      </g>
     </g>
    </g>
    <g id="text_11">
     <!-- Prediction loss -->
     <defs>
      <path d="M 19.671875 64.796875 
L 19.671875 37.40625 
L 32.078125 37.40625 
Q 38.96875 37.40625 42.71875 40.96875 
Q 46.484375 44.53125 46.484375 51.125 
Q 46.484375 57.671875 42.71875 61.234375 
Q 38.96875 64.796875 32.078125 64.796875 
z
M 9.8125 72.90625 
L 32.078125 72.90625 
Q 44.34375 72.90625 50.609375 67.359375 
Q 56.890625 61.8125 56.890625 51.125 
Q 56.890625 40.328125 50.609375 34.8125 
Q 44.34375 29.296875 32.078125 29.296875 
L 19.671875 29.296875 
L 19.671875 0 
L 9.8125 0 
z
" id="DejaVuSans-80"/>
      <path d="M 41.109375 46.296875 
Q 39.59375 47.171875 37.8125 47.578125 
Q 36.03125 48 33.890625 48 
Q 26.265625 48 22.1875 43.046875 
Q 18.109375 38.09375 18.109375 28.8125 
L 18.109375 0 
L 9.078125 0 
L 9.078125 54.6875 
L 18.109375 54.6875 
L 18.109375 46.1875 
Q 20.953125 51.171875 25.484375 53.578125 
Q 30.03125 56 36.53125 56 
Q 37.453125 56 38.578125 55.875 
Q 39.703125 55.765625 41.0625 55.515625 
z
" id="DejaVuSans-114"/>
      <path d="M 56.203125 29.59375 
L 56.203125 25.203125 
L 14.890625 25.203125 
Q 15.484375 15.921875 20.484375 11.0625 
Q 25.484375 6.203125 34.421875 6.203125 
Q 39.59375 6.203125 44.453125 7.46875 
Q 49.3125 8.734375 54.109375 11.28125 
L 54.109375 2.78125 
Q 49.265625 0.734375 44.1875 -0.34375 
Q 39.109375 -1.421875 33.890625 -1.421875 
Q 20.796875 -1.421875 13.15625 6.1875 
Q 5.515625 13.8125 5.515625 26.8125 
Q 5.515625 40.234375 12.765625 48.109375 
Q 20.015625 56 32.328125 56 
Q 43.359375 56 49.78125 48.890625 
Q 56.203125 41.796875 56.203125 29.59375 
z
M 47.21875 32.234375 
Q 47.125 39.59375 43.09375 43.984375 
Q 39.0625 48.390625 32.421875 48.390625 
Q 24.90625 48.390625 20.390625 44.140625 
Q 15.875 39.890625 15.1875 32.171875 
z
" id="DejaVuSans-101"/>
      <path d="M 45.40625 46.390625 
L 45.40625 75.984375 
L 54.390625 75.984375 
L 54.390625 0 
L 45.40625 0 
L 45.40625 8.203125 
Q 42.578125 3.328125 38.25 0.953125 
Q 33.9375 -1.421875 27.875 -1.421875 
Q 17.96875 -1.421875 11.734375 6.484375 
Q 5.515625 14.40625 5.515625 27.296875 
Q 5.515625 40.1875 11.734375 48.09375 
Q 17.96875 56 27.875 56 
Q 33.9375 56 38.25 53.625 
Q 42.578125 51.265625 45.40625 46.390625 
z
M 14.796875 27.296875 
Q 14.796875 17.390625 18.875 11.75 
Q 22.953125 6.109375 30.078125 6.109375 
Q 37.203125 6.109375 41.296875 11.75 
Q 45.40625 17.390625 45.40625 27.296875 
Q 45.40625 37.203125 41.296875 42.84375 
Q 37.203125 48.484375 30.078125 48.484375 
Q 22.953125 48.484375 18.875 42.84375 
Q 14.796875 37.203125 14.796875 27.296875 
z
" id="DejaVuSans-100"/>
      <path d="M 9.421875 54.6875 
L 18.40625 54.6875 
L 18.40625 0 
L 9.421875 0 
z
M 9.421875 75.984375 
L 18.40625 75.984375 
L 18.40625 64.59375 
L 9.421875 64.59375 
z
" id="DejaVuSans-105"/>
      <path d="M 18.3125 70.21875 
L 18.3125 54.6875 
L 36.8125 54.6875 
L 36.8125 47.703125 
L 18.3125 47.703125 
L 18.3125 18.015625 
Q 18.3125 11.328125 20.140625 9.421875 
Q 21.96875 7.515625 27.59375 7.515625 
L 36.8125 7.515625 
L 36.8125 0 
L 27.59375 0 
Q 17.1875 0 13.234375 3.875 
Q 9.28125 7.765625 9.28125 18.015625 
L 9.28125 47.703125 
L 2.6875 47.703125 
L 2.6875 54.6875 
L 9.28125 54.6875 
L 9.28125 70.21875 
z
" id="DejaVuSans-116"/>
      <path d="M 54.890625 33.015625 
L 54.890625 0 
L 45.90625 0 
L 45.90625 32.71875 
Q 45.90625 40.484375 42.875 44.328125 
Q 39.84375 48.1875 33.796875 48.1875 
Q 26.515625 48.1875 22.3125 43.546875 
Q 18.109375 38.921875 18.109375 30.90625 
L 18.109375 0 
L 9.078125 0 
L 9.078125 54.6875 
L 18.109375 54.6875 
L 18.109375 46.1875 
Q 21.34375 51.125 25.703125 53.5625 
Q 30.078125 56 35.796875 56 
Q 45.21875 56 50.046875 50.171875 
Q 54.890625 44.34375 54.890625 33.015625 
z
" id="DejaVuSans-110"/>
      <path id="DejaVuSans-32"/>
      <path d="M 9.421875 75.984375 
L 18.40625 75.984375 
L 18.40625 0 
L 9.421875 0 
z
" id="DejaVuSans-108"/>
      <path d="M 44.28125 53.078125 
L 44.28125 44.578125 
Q 40.484375 46.53125 36.375 47.5 
Q 32.28125 48.484375 27.875 48.484375 
Q 21.1875 48.484375 17.84375 46.4375 
Q 14.5 44.390625 14.5 40.28125 
Q 14.5 37.15625 16.890625 35.375 
Q 19.28125 33.59375 26.515625 31.984375 
L 29.59375 31.296875 
Q 39.15625 29.25 43.1875 25.515625 
Q 47.21875 21.78125 47.21875 15.09375 
Q 47.21875 7.46875 41.1875 3.015625 
Q 35.15625 -1.421875 24.609375 -1.421875 
Q 20.21875 -1.421875 15.453125 -0.5625 
Q 10.6875 0.296875 5.421875 2 
L 5.421875 11.28125 
Q 10.40625 8.6875 15.234375 7.390625 
Q 20.0625 6.109375 24.8125 6.109375 
Q 31.15625 6.109375 34.5625 8.28125 
Q 37.984375 10.453125 37.984375 14.40625 
Q 37.984375 18.0625 35.515625 20.015625 
Q 33.0625 21.96875 24.703125 23.78125 
L 21.578125 24.515625 
Q 13.234375 26.265625 9.515625 29.90625 
Q 5.8125 33.546875 5.8125 39.890625 
Q 5.8125 47.609375 11.28125 51.796875 
Q 16.75 56 26.8125 56 
Q 31.78125 56 36.171875 55.265625 
Q 40.578125 54.546875 44.28125 53.078125 
z
" id="DejaVuSans-115"/>
     </defs>
     <g transform="translate(16.318125 150.435)rotate(-90)scale(0.12 -0.12)">
      <use xlink:href="#DejaVuSans-80"/>
      <use x="60.287109" xlink:href="#DejaVuSans-114"/>
      <use x="101.369141" xlink:href="#DejaVuSans-101"/>
      <use x="162.892578" xlink:href="#DejaVuSans-100"/>
      <use x="226.369141" xlink:href="#DejaVuSans-105"/>
      <use x="254.152344" xlink:href="#DejaVuSans-99"/>
      <use x="309.132812" xlink:href="#DejaVuSans-116"/>
      <use x="348.341797" xlink:href="#DejaVuSans-105"/>
      <use x="376.125" xlink:href="#DejaVuSans-111"/>
      <use x="437.306641" xlink:href="#DejaVuSans-110"/>
      <use x="500.685547" xlink:href="#DejaVuSans-32"/>
      <use x="532.472656" xlink:href="#DejaVuSans-108"/>
      <use x="560.255859" xlink:href="#DejaVuSans-111"/>
      <use x="621.4375" xlink:href="#DejaVuSans-115"/>
      <use x="673.537109" xlink:href="#DejaVuSans-115"/>
     </g>
    </g>
   </g>
   <g id="line2d_10">
    <path clip-path="url(#pf533cb9139)" d="M 52.666932 160.308031 
L 357.030568 160.308031 
" style="fill:none;stroke:#000000;stroke-linecap:square;stroke-opacity:0.8;stroke-width:1.5;"/>
   </g>
   <g id="line2d_11">
    <path clip-path="url(#pf533cb9139)" d="M 52.666932 38.124597 
L 56.290308 116.291918 
L 59.913685 142.823323 
L 63.537062 149.744883 
L 67.160438 152.679535 
L 70.783815 154.223677 
L 74.407192 155.142973 
L 78.030568 155.816599 
L 81.653945 156.229571 
L 85.277321 156.636447 
L 88.900698 156.933565 
L 92.524075 157.174942 
L 96.147451 157.38813 
L 99.770828 157.622167 
L 103.394205 157.685726 
L 107.017581 157.838926 
L 110.640958 157.969123 
L 114.264334 158.047714 
L 117.887711 158.162464 
L 121.511088 158.251988 
L 125.134464 158.32642 
L 128.757841 158.378879 
L 132.381218 158.47903 
L 136.004594 158.467208 
L 139.627971 158.555826 
L 143.251347 158.59443 
L 146.874724 158.637775 
L 150.498101 158.674128 
L 154.121477 158.644184 
L 157.744854 158.762167 
L 161.368231 158.776585 
L 164.991607 158.736999 
L 168.614984 158.843883 
L 172.23836 158.810584 
L 175.861737 158.881435 
L 179.485114 158.912 
L 183.10849 158.894045 
L 186.731867 158.887802 
L 190.355244 158.928849 
L 193.97862 158.995987 
L 197.601997 158.975434 
L 201.225373 158.980486 
L 204.84875 159.017932 
L 208.472127 159.038232 
L 212.095503 159.053091 
L 215.71888 159.054771 
L 219.342256 159.105584 
L 222.965633 159.05148 
L 226.58901 159.120705 
L 230.212386 159.108694 
L 233.835763 159.138322 
L 237.45914 159.112748 
L 241.082516 159.13977 
L 244.705893 159.180855 
L 248.329269 159.203183 
L 251.952646 159.150293 
L 255.576023 159.186061 
L 259.199399 159.153885 
L 262.822776 159.115803 
L 266.446153 159.184386 
L 270.069529 159.205152 
L 273.692906 159.162128 
L 277.316282 159.167859 
L 280.939659 159.228175 
L 284.563036 159.158466 
L 288.186412 159.228154 
L 291.809789 159.169863 
L 295.433166 159.211014 
L 299.056542 159.207557 
L 302.679919 159.278563 
L 306.303295 159.232689 
L 309.926672 159.153276 
L 313.550049 159.220433 
L 317.173425 159.254686 
L 320.796802 159.238093 
L 324.420179 159.217673 
L 328.043555 159.239883 
L 331.666932 159.227099 
L 335.290308 159.244297 
L 338.913685 159.225734 
" style="fill:none;stroke:#430000;stroke-linecap:square;stroke-width:5;"/>
   </g>
   <g id="line2d_12">
    <path clip-path="url(#pf533cb9139)" d="M 52.666932 40.427056 
L 56.290308 119.617759 
L 59.913685 142.832766 
L 63.537062 149.847689 
L 67.160438 152.810971 
L 70.783815 154.20058 
L 74.407192 155.081135 
L 78.030568 155.732836 
L 81.653945 156.14827 
L 85.277321 156.464985 
L 88.900698 156.720232 
L 92.524075 156.653454 
L 96.147451 156.877876 
L 99.770828 157.122492 
L 103.394205 157.129308 
L 107.017581 157.053844 
L 110.640958 156.914231 
L 114.264334 156.91334 
L 117.887711 156.945563 
L 121.511088 156.966696 
L 125.134464 157.281486 
L 128.757841 157.652977 
L 132.381218 157.743066 
L 136.004594 157.910069 
L 139.627971 157.999764 
L 143.251347 158.141785 
L 146.874724 158.251645 
L 150.498101 158.260117 
L 154.121477 158.43428 
L 157.744854 158.543782 
L 161.368231 158.296235 
L 164.991607 158.218189 
L 168.614984 158.318809 
L 172.23836 158.488386 
L 175.861737 158.520965 
L 179.485114 158.612715 
L 183.10849 158.632392 
L 186.731867 158.697589 
L 190.355244 158.802269 
L 193.97862 158.807863 
L 197.601997 158.873753 
L 201.225373 158.963582 
L 204.84875 158.997209 
L 208.472127 159.041615 
L 212.095503 159.04079 
L 215.71888 159.061749 
L 219.342256 159.071583 
L 222.965633 159.13009 
L 226.58901 159.117325 
L 230.212386 159.140493 
L 233.835763 158.69566 
L 237.45914 159.115014 
L 241.082516 159.019222 
L 244.705893 159.117003 
L 248.329269 159.157464 
L 251.952646 159.176118 
L 255.576023 159.192979 
L 259.199399 159.209189 
L 262.822776 159.225127 
L 266.446153 159.252375 
L 270.069529 159.259756 
L 273.692906 159.243742 
L 277.316282 159.236042 
L 280.939659 159.27544 
L 284.563036 159.251987 
L 288.186412 159.286894 
L 291.809789 159.282876 
L 295.433166 159.277772 
L 299.056542 159.120774 
L 302.679919 159.212661 
L 306.303295 159.195248 
L 309.926672 159.258825 
L 313.550049 159.275189 
L 317.173425 159.278066 
L 320.796802 159.348271 
L 324.420179 159.32275 
L 328.043555 159.33745 
L 331.666932 159.284069 
L 335.290308 159.323371 
L 338.913685 159.348887 
" style="fill:none;stroke:#499ad7;stroke-dasharray:18.5,8;stroke-dashoffset:0;stroke-width:5;"/>
   </g>
   <g id="patch_3">
    <path d="M 37.44875 188.4375 
L 37.44875 25.3575 
" style="fill:none;stroke:#000000;stroke-linecap:square;stroke-linejoin:miter;stroke-width:0.8;"/>
   </g>
   <g id="patch_4">
    <path d="M 37.44875 188.4375 
L 372.24875 188.4375 
" style="fill:none;stroke:#000000;stroke-linecap:square;stroke-linejoin:miter;stroke-width:0.8;"/>
   </g>
   <g id="text_12">
    <!-- optimal -->
    <defs>
     <path d="M 52 44.1875 
Q 55.375 50.25 60.0625 53.125 
Q 64.75 56 71.09375 56 
Q 79.640625 56 84.28125 50.015625 
Q 88.921875 44.046875 88.921875 33.015625 
L 88.921875 0 
L 79.890625 0 
L 79.890625 32.71875 
Q 79.890625 40.578125 77.09375 44.375 
Q 74.3125 48.1875 68.609375 48.1875 
Q 61.625 48.1875 57.5625 43.546875 
Q 53.515625 38.921875 53.515625 30.90625 
L 53.515625 0 
L 44.484375 0 
L 44.484375 32.71875 
Q 44.484375 40.625 41.703125 44.40625 
Q 38.921875 48.1875 33.109375 48.1875 
Q 26.21875 48.1875 22.15625 43.53125 
Q 18.109375 38.875 18.109375 30.90625 
L 18.109375 0 
L 9.078125 0 
L 9.078125 54.6875 
L 18.109375 54.6875 
L 18.109375 46.1875 
Q 21.1875 51.21875 25.484375 53.609375 
Q 29.78125 56 35.6875 56 
Q 41.65625 56 45.828125 52.96875 
Q 50 49.953125 52 44.1875 
z
" id="DejaVuSans-109"/>
     <path d="M 34.28125 27.484375 
Q 23.390625 27.484375 19.1875 25 
Q 14.984375 22.515625 14.984375 16.5 
Q 14.984375 11.71875 18.140625 8.90625 
Q 21.296875 6.109375 26.703125 6.109375 
Q 34.1875 6.109375 38.703125 11.40625 
Q 43.21875 16.703125 43.21875 25.484375 
L 43.21875 27.484375 
z
M 52.203125 31.203125 
L 52.203125 0 
L 43.21875 0 
L 43.21875 8.296875 
Q 40.140625 3.328125 35.546875 0.953125 
Q 30.953125 -1.421875 24.3125 -1.421875 
Q 15.921875 -1.421875 10.953125 3.296875 
Q 6 8.015625 6 15.921875 
Q 6 25.140625 12.171875 29.828125 
Q 18.359375 34.515625 30.609375 34.515625 
L 43.21875 34.515625 
L 43.21875 35.40625 
Q 43.21875 41.609375 39.140625 45 
Q 35.0625 48.390625 27.6875 48.390625 
Q 23 48.390625 18.546875 47.265625 
Q 14.109375 46.140625 10.015625 43.890625 
L 10.015625 52.203125 
Q 14.9375 54.109375 19.578125 55.046875 
Q 24.21875 56 28.609375 56 
Q 40.484375 56 46.34375 49.84375 
Q 52.203125 43.703125 52.203125 31.203125 
z
" id="DejaVuSans-97"/>
    </defs>
    <g transform="translate(360.653945 160.308031)scale(0.16 -0.16)">
     <use xlink:href="#DejaVuSans-111"/>
     <use x="61.181641" xlink:href="#DejaVuSans-112"/>
     <use x="124.658203" xlink:href="#DejaVuSans-116"/>
     <use x="163.867188" xlink:href="#DejaVuSans-105"/>
     <use x="191.650391" xlink:href="#DejaVuSans-109"/>
     <use x="289.0625" xlink:href="#DejaVuSans-97"/>
     <use x="350.341797" xlink:href="#DejaVuSans-108"/>
    </g>
   </g>
   <g id="text_13">
    <!-- Prediction task convergence -->
    <defs>
     <path d="M 9.1875 72.90625 
L 40.375 72.90625 
Q 54.296875 72.90625 61.734375 66.71875 
Q 69.1875 60.546875 69.1875 49.125 
Q 69.1875 37.640625 61.734375 31.46875 
Q 54.296875 25.296875 40.375 25.296875 
L 27.984375 25.296875 
L 27.984375 0 
L 9.1875 0 
z
M 27.984375 59.28125 
L 27.984375 38.921875 
L 38.375 38.921875 
Q 43.84375 38.921875 46.828125 41.578125 
Q 49.8125 44.234375 49.8125 49.125 
Q 49.8125 54 46.828125 56.640625 
Q 43.84375 59.28125 38.375 59.28125 
z
" id="DejaVuSans-Bold-80"/>
     <path d="M 49.03125 39.796875 
Q 46.734375 40.875 44.453125 41.375 
Q 42.1875 41.890625 39.890625 41.890625 
Q 33.15625 41.890625 29.515625 37.5625 
Q 25.875 33.25 25.875 25.203125 
L 25.875 0 
L 8.40625 0 
L 8.40625 54.6875 
L 25.875 54.6875 
L 25.875 45.703125 
Q 29.25 51.078125 33.609375 53.53125 
Q 37.984375 56 44.09375 56 
Q 44.96875 56 45.984375 55.921875 
Q 47.015625 55.859375 48.96875 55.609375 
z
" id="DejaVuSans-Bold-114"/>
     <path d="M 62.984375 27.484375 
L 62.984375 22.515625 
L 22.125 22.515625 
Q 22.75 16.359375 26.5625 13.28125 
Q 30.375 10.203125 37.203125 10.203125 
Q 42.71875 10.203125 48.5 11.84375 
Q 54.296875 13.484375 60.40625 16.796875 
L 60.40625 3.328125 
Q 54.203125 0.984375 48 -0.21875 
Q 41.796875 -1.421875 35.59375 -1.421875 
Q 20.75 -1.421875 12.515625 6.125 
Q 4.296875 13.671875 4.296875 27.296875 
Q 4.296875 40.671875 12.375 48.328125 
Q 20.453125 56 34.625 56 
Q 47.515625 56 55.25 48.234375 
Q 62.984375 40.484375 62.984375 27.484375 
z
M 45.015625 33.296875 
Q 45.015625 38.28125 42.109375 41.328125 
Q 39.203125 44.390625 34.515625 44.390625 
Q 29.4375 44.390625 26.265625 41.53125 
Q 23.09375 38.671875 22.3125 33.296875 
z
" id="DejaVuSans-Bold-101"/>
     <path d="M 45.609375 46.6875 
L 45.609375 75.984375 
L 63.1875 75.984375 
L 63.1875 0 
L 45.609375 0 
L 45.609375 7.90625 
Q 42 3.078125 37.640625 0.828125 
Q 33.296875 -1.421875 27.59375 -1.421875 
Q 17.484375 -1.421875 10.984375 6.609375 
Q 4.5 14.65625 4.5 27.296875 
Q 4.5 39.9375 10.984375 47.96875 
Q 17.484375 56 27.59375 56 
Q 33.25 56 37.625 53.734375 
Q 42 51.46875 45.609375 46.6875 
z
M 34.078125 11.28125 
Q 39.703125 11.28125 42.65625 15.375 
Q 45.609375 19.484375 45.609375 27.296875 
Q 45.609375 35.109375 42.65625 39.203125 
Q 39.703125 43.3125 34.078125 43.3125 
Q 28.515625 43.3125 25.5625 39.203125 
Q 22.609375 35.109375 22.609375 27.296875 
Q 22.609375 19.484375 25.5625 15.375 
Q 28.515625 11.28125 34.078125 11.28125 
z
" id="DejaVuSans-Bold-100"/>
     <path d="M 8.40625 54.6875 
L 25.875 54.6875 
L 25.875 0 
L 8.40625 0 
z
M 8.40625 75.984375 
L 25.875 75.984375 
L 25.875 61.71875 
L 8.40625 61.71875 
z
" id="DejaVuSans-Bold-105"/>
     <path d="M 52.59375 52.984375 
L 52.59375 38.71875 
Q 49.03125 41.15625 45.4375 42.328125 
Q 41.84375 43.5 37.984375 43.5 
Q 30.671875 43.5 26.59375 39.234375 
Q 22.515625 34.96875 22.515625 27.296875 
Q 22.515625 19.625 26.59375 15.34375 
Q 30.671875 11.078125 37.984375 11.078125 
Q 42.09375 11.078125 45.78125 12.296875 
Q 49.46875 13.53125 52.59375 15.921875 
L 52.59375 1.609375 
Q 48.484375 0.09375 44.265625 -0.65625 
Q 40.046875 -1.421875 35.796875 -1.421875 
Q 21 -1.421875 12.640625 6.171875 
Q 4.296875 13.765625 4.296875 27.296875 
Q 4.296875 40.828125 12.640625 48.40625 
Q 21 56 35.796875 56 
Q 40.09375 56 44.265625 55.25 
Q 48.4375 54.5 52.59375 52.984375 
z
" id="DejaVuSans-Bold-99"/>
     <path d="M 27.484375 70.21875 
L 27.484375 54.6875 
L 45.515625 54.6875 
L 45.515625 42.1875 
L 27.484375 42.1875 
L 27.484375 19 
Q 27.484375 15.1875 29 13.84375 
Q 30.515625 12.5 35.015625 12.5 
L 44 12.5 
L 44 0 
L 29 0 
Q 18.65625 0 14.328125 4.3125 
Q 10.015625 8.640625 10.015625 19 
L 10.015625 42.1875 
L 1.3125 42.1875 
L 1.3125 54.6875 
L 10.015625 54.6875 
L 10.015625 70.21875 
z
" id="DejaVuSans-Bold-116"/>
     <path d="M 34.421875 43.5 
Q 28.609375 43.5 25.5625 39.328125 
Q 22.515625 35.15625 22.515625 27.296875 
Q 22.515625 19.4375 25.5625 15.25 
Q 28.609375 11.078125 34.421875 11.078125 
Q 40.140625 11.078125 43.15625 15.25 
Q 46.1875 19.4375 46.1875 27.296875 
Q 46.1875 35.15625 43.15625 39.328125 
Q 40.140625 43.5 34.421875 43.5 
z
M 34.421875 56 
Q 48.53125 56 56.46875 48.375 
Q 64.40625 40.765625 64.40625 27.296875 
Q 64.40625 13.8125 56.46875 6.1875 
Q 48.53125 -1.421875 34.421875 -1.421875 
Q 20.265625 -1.421875 12.28125 6.1875 
Q 4.296875 13.8125 4.296875 27.296875 
Q 4.296875 40.765625 12.28125 48.375 
Q 20.265625 56 34.421875 56 
z
" id="DejaVuSans-Bold-111"/>
     <path d="M 63.375 33.296875 
L 63.375 0 
L 45.796875 0 
L 45.796875 5.421875 
L 45.796875 25.484375 
Q 45.796875 32.5625 45.484375 35.25 
Q 45.171875 37.9375 44.390625 39.203125 
Q 43.359375 40.921875 41.59375 41.875 
Q 39.84375 42.828125 37.59375 42.828125 
Q 32.125 42.828125 29 38.59375 
Q 25.875 34.375 25.875 26.90625 
L 25.875 0 
L 8.40625 0 
L 8.40625 54.6875 
L 25.875 54.6875 
L 25.875 46.6875 
Q 29.828125 51.46875 34.265625 53.734375 
Q 38.71875 56 44.09375 56 
Q 53.5625 56 58.46875 50.1875 
Q 63.375 44.390625 63.375 33.296875 
z
" id="DejaVuSans-Bold-110"/>
     <path id="DejaVuSans-Bold-32"/>
     <path d="M 32.90625 24.609375 
Q 27.4375 24.609375 24.671875 22.75 
Q 21.921875 20.90625 21.921875 17.28125 
Q 21.921875 13.96875 24.140625 12.078125 
Q 26.375 10.203125 30.328125 10.203125 
Q 35.25 10.203125 38.625 13.734375 
Q 42 17.28125 42 22.609375 
L 42 24.609375 
z
M 59.625 31.203125 
L 59.625 0 
L 42 0 
L 42 8.109375 
Q 38.484375 3.125 34.078125 0.84375 
Q 29.6875 -1.421875 23.390625 -1.421875 
Q 14.890625 -1.421875 9.59375 3.53125 
Q 4.296875 8.5 4.296875 16.40625 
Q 4.296875 26.03125 10.90625 30.515625 
Q 17.53125 35.015625 31.6875 35.015625 
L 42 35.015625 
L 42 36.375 
Q 42 40.53125 38.71875 42.453125 
Q 35.453125 44.390625 28.515625 44.390625 
Q 22.90625 44.390625 18.0625 43.265625 
Q 13.234375 42.140625 9.078125 39.890625 
L 9.078125 53.21875 
Q 14.703125 54.59375 20.359375 55.296875 
Q 26.03125 56 31.6875 56 
Q 46.484375 56 53.046875 50.171875 
Q 59.625 44.34375 59.625 31.203125 
z
" id="DejaVuSans-Bold-97"/>
     <path d="M 51.125 52.984375 
L 51.125 39.703125 
Q 45.515625 42.046875 40.28125 43.21875 
Q 35.0625 44.390625 30.421875 44.390625 
Q 25.4375 44.390625 23.015625 43.140625 
Q 20.609375 41.890625 20.609375 39.3125 
Q 20.609375 37.203125 22.4375 36.078125 
Q 24.265625 34.96875 29 34.421875 
L 32.078125 33.984375 
Q 45.515625 32.28125 50.140625 28.375 
Q 54.78125 24.46875 54.78125 16.109375 
Q 54.78125 7.375 48.328125 2.96875 
Q 41.890625 -1.421875 29.109375 -1.421875 
Q 23.6875 -1.421875 17.890625 -0.5625 
Q 12.109375 0.296875 6 2 
L 6 15.28125 
Q 11.234375 12.75 16.71875 11.46875 
Q 22.21875 10.203125 27.875 10.203125 
Q 33.015625 10.203125 35.59375 11.609375 
Q 38.1875 13.03125 38.1875 15.828125 
Q 38.1875 18.171875 36.40625 19.3125 
Q 34.625 20.453125 29.296875 21.09375 
L 26.21875 21.484375 
Q 14.546875 22.953125 9.859375 26.90625 
Q 5.171875 30.859375 5.171875 38.921875 
Q 5.171875 47.609375 11.125 51.796875 
Q 17.09375 56 29.390625 56 
Q 34.234375 56 39.546875 55.265625 
Q 44.875 54.546875 51.125 52.984375 
z
" id="DejaVuSans-Bold-115"/>
     <path d="M 8.40625 75.984375 
L 25.875 75.984375 
L 25.875 34.625 
L 46 54.6875 
L 66.3125 54.6875 
L 39.59375 29.59375 
L 68.40625 0 
L 47.21875 0 
L 25.875 22.796875 
L 25.875 0 
L 8.40625 0 
z
" id="DejaVuSans-Bold-107"/>
     <path d="M 1.515625 54.6875 
L 19 54.6875 
L 32.625 16.890625 
L 46.1875 54.6875 
L 63.71875 54.6875 
L 42.1875 0 
L 23 0 
z
" id="DejaVuSans-Bold-118"/>
     <path d="M 45.609375 9.28125 
Q 42 4.5 37.640625 2.25 
Q 33.296875 0 27.59375 0 
Q 17.578125 0 11.03125 7.875 
Q 4.5 15.765625 4.5 27.984375 
Q 4.5 40.234375 11.03125 48.0625 
Q 17.578125 55.90625 27.59375 55.90625 
Q 33.296875 55.90625 37.640625 53.65625 
Q 42 51.421875 45.609375 46.578125 
L 45.609375 54.6875 
L 63.1875 54.6875 
L 63.1875 5.515625 
Q 63.1875 -7.671875 54.859375 -14.625 
Q 46.53125 -21.578125 30.71875 -21.578125 
Q 25.59375 -21.578125 20.796875 -20.796875 
Q 16.015625 -20.015625 11.1875 -18.40625 
L 11.1875 -4.78125 
Q 15.765625 -7.421875 20.15625 -8.71875 
Q 24.5625 -10.015625 29 -10.015625 
Q 37.59375 -10.015625 41.59375 -6.25 
Q 45.609375 -2.484375 45.609375 5.515625 
z
M 34.078125 43.3125 
Q 28.65625 43.3125 25.625 39.296875 
Q 22.609375 35.296875 22.609375 27.984375 
Q 22.609375 20.453125 25.53125 16.578125 
Q 28.46875 12.703125 34.078125 12.703125 
Q 39.546875 12.703125 42.578125 16.703125 
Q 45.609375 20.703125 45.609375 27.984375 
Q 45.609375 35.296875 42.578125 39.296875 
Q 39.546875 43.3125 34.078125 43.3125 
z
" id="DejaVuSans-Bold-103"/>
    </defs>
    <g transform="translate(76.235 19.3575)scale(0.16 -0.16)">
     <use xlink:href="#DejaVuSans-Bold-80"/>
     <use x="73.291016" xlink:href="#DejaVuSans-Bold-114"/>
     <use x="122.607422" xlink:href="#DejaVuSans-Bold-101"/>
     <use x="190.429688" xlink:href="#DejaVuSans-Bold-100"/>
     <use x="262.011719" xlink:href="#DejaVuSans-Bold-105"/>
     <use x="296.289062" xlink:href="#DejaVuSans-Bold-99"/>
     <use x="355.566406" xlink:href="#DejaVuSans-Bold-116"/>
     <use x="403.369141" xlink:href="#DejaVuSans-Bold-105"/>
     <use x="437.646484" xlink:href="#DejaVuSans-Bold-111"/>
     <use x="506.347656" xlink:href="#DejaVuSans-Bold-110"/>
     <use x="577.539062" xlink:href="#DejaVuSans-Bold-32"/>
     <use x="612.353516" xlink:href="#DejaVuSans-Bold-116"/>
     <use x="660.15625" xlink:href="#DejaVuSans-Bold-97"/>
     <use x="727.636719" xlink:href="#DejaVuSans-Bold-115"/>
     <use x="787.158203" xlink:href="#DejaVuSans-Bold-107"/>
     <use x="853.662109" xlink:href="#DejaVuSans-Bold-32"/>
     <use x="888.476562" xlink:href="#DejaVuSans-Bold-99"/>
     <use x="947.753906" xlink:href="#DejaVuSans-Bold-111"/>
     <use x="1016.455078" xlink:href="#DejaVuSans-Bold-110"/>
     <use x="1087.646484" xlink:href="#DejaVuSans-Bold-118"/>
     <use x="1152.832031" xlink:href="#DejaVuSans-Bold-101"/>
     <use x="1220.654297" xlink:href="#DejaVuSans-Bold-114"/>
     <use x="1269.970703" xlink:href="#DejaVuSans-Bold-103"/>
     <use x="1341.552734" xlink:href="#DejaVuSans-Bold-101"/>
     <use x="1409.375" xlink:href="#DejaVuSans-Bold-110"/>
     <use x="1480.566406" xlink:href="#DejaVuSans-Bold-99"/>
     <use x="1539.84375" xlink:href="#DejaVuSans-Bold-101"/>
    </g>
   </g>
  </g>
 </g>
 <defs>
  <clipPath id="pf533cb9139">
   <rect height="163.08" width="334.8" x="37.44875" y="25.3575"/>
  </clipPath>
 </defs>
</svg>
