<?xml version="1.0" encoding="utf-8" standalone="no"?>
<!DOCTYPE svg PUBLIC "-//W3C//DTD SVG 1.1//EN"
  "http://www.w3.org/Graphics/SVG/1.1/DTD/svg11.dtd">
<!-- Created with matplotlib (https://matplotlib.org/) -->
<svg height="237.6075pt" version="1.1" viewBox="0 0 461.308799 237.6075" width="461.308799pt" xmlns="http://www.w3.org/2000/svg" xmlns:xlink="http://www.w3.org/1999/xlink">
 <defs>
  <style type="text/css">
*{stroke-linecap:butt;stroke-linejoin:round;}
  </style>
 </defs>
 <g id="figure_1">
  <g id="patch_1">
   <path d="M 0 237.6075 
L 461.308799 237.6075 
L 461.308799 0 
L 0 0 
z
" style="fill:#ffffff;"/>
  </g>
  <g id="axes_1">
   <g id="patch_2">
    <path d="M 59.13 188.4375 
L 393.93 188.4375 
L 393.93 25.3575 
L 59.13 25.3575 
z
" style="fill:#ffffff;"/>
   </g>
   <g id="PolyCollection_1">
    <defs>
     <path d="M 74.348182 -187.103014 
L 74.348182 -167.794193 
L 77.971558 -167.542463 
L 81.594935 -167.45532 
L 85.218312 -167.426045 
L 88.841688 -167.408009 
L 92.465065 -167.396415 
L 96.088442 -167.388608 
L 99.711818 -167.381999 
L 103.335195 -167.382606 
L 106.958571 -167.376599 
L 110.581948 -167.374023 
L 114.205325 -167.364852 
L 117.828701 -167.361767 
L 121.452078 -168.398425 
L 125.075455 -168.250905 
L 128.698831 -168.245455 
L 132.322208 -168.23949 
L 135.945584 -168.220447 
L 139.568961 -168.220301 
L 143.192338 -168.229398 
L 146.815714 -168.222474 
L 150.439091 -168.207262 
L 154.062468 -168.205279 
L 157.685844 -168.205801 
L 161.309221 -168.197705 
L 164.932597 -168.206043 
L 168.555974 -168.191809 
L 172.179351 -169.903293 
L 175.802727 -172.304682 
L 179.426104 -172.621389 
L 183.049481 -172.642447 
L 186.672857 -172.635516 
L 190.296234 -172.64151 
L 193.91961 -172.646495 
L 197.542987 -172.653286 
L 201.166364 -172.654517 
L 204.78974 -172.66397 
L 208.413117 -172.662652 
L 212.036494 -172.667494 
L 215.65987 -172.671283 
L 219.283247 -172.67506 
L 222.906623 -172.678963 
L 226.53 -172.683181 
L 230.153377 -172.687577 
L 233.776753 -172.691725 
L 237.40013 -172.69625 
L 241.023506 -172.700397 
L 244.646883 -172.704582 
L 248.27026 -172.708586 
L 251.893636 -172.71229 
L 255.517013 -172.715559 
L 259.14039 -172.718615 
L 262.763766 -172.721525 
L 266.387143 -172.724311 
L 270.010519 -172.726791 
L 273.633896 -172.728992 
L 277.257273 -172.730862 
L 280.880649 -172.732665 
L 284.504026 -172.725218 
L 288.127403 -172.735992 
L 291.750779 -172.73775 
L 295.374156 -172.739512 
L 298.997532 -172.741165 
L 302.620909 -172.742787 
L 306.244286 -172.744297 
L 309.867662 -172.745818 
L 313.491039 -172.74727 
L 317.114416 -172.748548 
L 320.737792 -172.749532 
L 324.361169 -172.75021 
L 327.984545 -172.750517 
L 331.607922 -172.751052 
L 335.231299 -172.751504 
L 338.854675 -172.75192 
L 342.478052 -172.752649 
L 346.101429 -172.752685 
L 349.724805 -172.753136 
L 353.348182 -172.753532 
L 356.971558 -172.75392 
L 360.594935 -172.754315 
L 360.594935 -172.794747 
L 360.594935 -172.794747 
L 356.971558 -172.795364 
L 353.348182 -172.795992 
L 349.724805 -172.796645 
L 346.101429 -172.797338 
L 342.478052 -172.798182 
L 338.854675 -172.798865 
L 335.231299 -172.799733 
L 331.607922 -172.800672 
L 327.984545 -172.801725 
L 324.361169 -172.803026 
L 320.737792 -172.804301 
L 317.114416 -172.805761 
L 313.491039 -172.807269 
L 309.867662 -172.80896 
L 306.244286 -172.810701 
L 302.620909 -172.812415 
L 298.997532 -172.814251 
L 295.374156 -172.816055 
L 291.750779 -172.817806 
L 288.127403 -172.820405 
L 284.504026 -172.844447 
L 280.880649 -172.824769 
L 277.257273 -172.827142 
L 273.633896 -172.829691 
L 270.010519 -172.83227 
L 266.387143 -172.834927 
L 262.763766 -172.837739 
L 259.14039 -172.84033 
L 255.517013 -172.84309 
L 251.893636 -172.846025 
L 248.27026 -172.849144 
L 244.646883 -172.85258 
L 241.023506 -172.856177 
L 237.40013 -172.86012 
L 233.776753 -172.870405 
L 230.153377 -172.87029 
L 226.53 -172.875867 
L 222.906623 -172.881952 
L 219.283247 -172.888093 
L 215.65987 -172.894736 
L 212.036494 -172.901607 
L 208.413117 -172.908162 
L 204.78974 -172.925637 
L 201.166364 -172.923792 
L 197.542987 -172.933566 
L 193.91961 -172.939064 
L 190.296234 -172.947343 
L 186.672857 -172.969798 
L 183.049481 -172.98502 
L 179.426104 -173.029807 
L 175.802727 -173.60212 
L 172.179351 -177.447614 
L 168.555974 -180.175302 
L 164.932597 -180.185669 
L 161.309221 -180.179825 
L 157.685844 -180.185651 
L 154.062468 -180.18558 
L 150.439091 -180.187198 
L 146.815714 -180.197798 
L 143.192338 -180.202664 
L 139.568961 -180.196552 
L 135.945584 -180.1969 
L 132.322208 -180.209998 
L 128.698831 -180.214168 
L 125.075455 -180.217541 
L 121.452078 -180.385299 
L 117.828701 -183.828861 
L 114.205325 -183.833016 
L 110.581948 -183.837879 
L 106.958571 -183.839309 
L 103.335195 -183.842482 
L 99.711818 -183.842255 
L 96.088442 -183.845748 
L 92.465065 -183.849816 
L 88.841688 -183.855904 
L 85.218312 -183.865259 
L 81.594935 -183.880393 
L 77.971558 -183.924539 
L 74.348182 -187.103014 
z
" id="mc2d9858a2b" style="stroke:#cf8f17;stroke-opacity:0.2;"/>
    </defs>
    <g clip-path="url(#p9fda921f90)">
     <use style="fill:#cf8f17;fill-opacity:0.2;stroke:#cf8f17;stroke-opacity:0.2;" x="0" xlink:href="#mc2d9858a2b" y="237.6075"/>
    </g>
   </g>
   <g id="PolyCollection_2">
    <defs>
     <path d="M 74.348182 -185.275807 
L 74.348182 -168.50968 
L 77.971558 -168.125764 
L 81.594935 -168.044846 
L 85.218312 -168.81038 
L 88.841688 -168.762694 
L 92.465065 -168.639585 
L 96.088442 -168.477332 
L 99.711818 -168.212612 
L 103.335195 -167.79801 
L 106.958571 -166.915911 
L 110.581948 -165.261792 
L 114.205325 -160.785034 
L 117.828701 -145.652956 
L 121.452078 -136.946639 
L 125.075455 -132.07844 
L 128.698831 -127.620963 
L 132.322208 -121.561297 
L 135.945584 -114.046407 
L 139.568961 -109.231992 
L 143.192338 -105.848269 
L 146.815714 -100.036784 
L 150.439091 -94.613361 
L 154.062468 -90.196596 
L 157.685844 -85.715646 
L 161.309221 -81.411348 
L 164.932597 -76.570372 
L 168.555974 -66.909394 
L 172.179351 -56.850894 
L 175.802727 -52.416972 
L 179.426104 -48.94511 
L 183.049481 -45.726026 
L 186.672857 -42.912265 
L 190.296234 -42.06774 
L 193.91961 -39.159555 
L 197.542987 -40.951664 
L 201.166364 -39.987342 
L 204.78974 -42.080067 
L 208.413117 -41.012433 
L 212.036494 -42.188438 
L 215.65987 -42.288213 
L 219.283247 -42.826948 
L 222.906623 -39.136422 
L 226.53 -42.01991 
L 230.153377 -42.090006 
L 233.776753 -41.534472 
L 237.40013 -38.382279 
L 241.023506 -37.430373 
L 244.646883 -33.425351 
L 248.27026 -42.074146 
L 251.893636 -38.774931 
L 255.517013 -41.753632 
L 259.14039 -41.349433 
L 262.763766 -39.55687 
L 266.387143 -42.494502 
L 270.010519 -44.812683 
L 273.633896 -24.88426 
L 277.257273 -38.064576 
L 280.880649 -41.696793 
L 284.504026 -40.829814 
L 288.127403 -42.847577 
L 291.750779 -39.142012 
L 295.374156 -44.209423 
L 298.997532 -44.361658 
L 302.620909 -44.161915 
L 306.244286 -44.104879 
L 309.867662 -44.520837 
L 313.491039 -40.835146 
L 317.114416 -44.62092 
L 320.737792 -30.429743 
L 324.361169 -38.412227 
L 327.984545 -38.676976 
L 331.607922 -39.255187 
L 335.231299 -44.292255 
L 338.854675 -38.847155 
L 342.478052 -44.074158 
L 346.101429 -32.482869 
L 349.724805 -16.451221 
L 353.348182 -37.463906 
L 356.971558 -43.602213 
L 360.594935 -43.504748 
L 360.594935 -85.088477 
L 360.594935 -85.088477 
L 356.971558 -85.926447 
L 353.348182 -100.19818 
L 349.724805 -151.305627 
L 346.101429 -108.770054 
L 342.478052 -83.788674 
L 338.854675 -100.057292 
L 335.231299 -84.417648 
L 331.607922 -100.78882 
L 327.984545 -100.524214 
L 324.361169 -100.798439 
L 320.737792 -113.707244 
L 317.114416 -85.45998 
L 313.491039 -104.527708 
L 309.867662 -84.26673 
L 306.244286 -84.197445 
L 302.620909 -84.922681 
L 298.997532 -86.952168 
L 295.374156 -89.443232 
L 291.750779 -107.760911 
L 288.127403 -91.43718 
L 284.504026 -113.759694 
L 280.880649 -94.833205 
L 277.257273 -111.097787 
L 273.633896 -132.055608 
L 270.010519 -84.593447 
L 266.387143 -90.171424 
L 262.763766 -101.459969 
L 259.14039 -91.409982 
L 255.517013 -92.045416 
L 251.893636 -105.642203 
L 248.27026 -92.499483 
L 244.646883 -114.549102 
L 241.023506 -106.685839 
L 237.40013 -108.298005 
L 233.776753 -92.272369 
L 230.153377 -95.644813 
L 226.53 -93.19922 
L 222.906623 -110.335012 
L 219.283247 -96.321711 
L 215.65987 -97.409516 
L 212.036494 -103.652737 
L 208.413117 -109.063059 
L 204.78974 -115.565022 
L 201.166364 -111.91081 
L 197.542987 -113.438307 
L 193.91961 -129.76669 
L 190.296234 -115.398032 
L 186.672857 -116.496796 
L 183.049481 -119.052966 
L 179.426104 -122.231005 
L 175.802727 -127.036478 
L 172.179351 -132.431954 
L 168.555974 -138.455278 
L 164.932597 -143.315489 
L 161.309221 -147.049227 
L 157.685844 -154.057373 
L 154.062468 -160.066802 
L 150.439091 -168.320996 
L 146.815714 -172.172267 
L 143.192338 -177.106451 
L 139.568961 -179.066258 
L 135.945584 -180.243997 
L 132.322208 -182.210144 
L 128.698831 -184.845026 
L 125.075455 -186.54897 
L 121.452078 -187.481274 
L 117.828701 -185.582644 
L 114.205325 -180.140257 
L 110.581948 -179.675452 
L 106.958571 -179.851643 
L 103.335195 -180.11338 
L 99.711818 -180.308275 
L 96.088442 -180.462476 
L 92.465065 -180.55344 
L 88.841688 -180.628609 
L 85.218312 -180.656013 
L 81.594935 -184.211552 
L 77.971558 -184.259395 
L 74.348182 -185.275807 
z
" id="m045ed963dc" style="stroke:#499ad7;stroke-opacity:0.2;"/>
    </defs>
    <g clip-path="url(#p9fda921f90)">
     <use style="fill:#499ad7;fill-opacity:0.2;stroke:#499ad7;stroke-opacity:0.2;" x="0" xlink:href="#m045ed963dc" y="237.6075"/>
    </g>
   </g>
   <g id="patch_3">
    <path clip-path="url(#p9fda921f90)" d="M 327.984545 72.703306 
L 333.41961 83.224597 
L 327.986357 83.224597 
L 327.986357 114.788468 
L 327.982734 114.788468 
L 327.982734 83.224597 
L 322.549481 83.224597 
z
" style="stroke:#000000;stroke-linejoin:miter;stroke-width:1.5;"/>
   </g>
   <g id="patch_4">
    <path clip-path="url(#p9fda921f90)" d="M 327.984545 156.873629 
L 322.549481 146.352339 
L 327.982734 146.352339 
L 327.982734 114.788468 
L 327.986357 114.788468 
L 327.986357 146.352339 
L 333.41961 146.352339 
z
" style="stroke:#000000;stroke-linejoin:miter;stroke-width:1.5;"/>
   </g>
   <g id="matplotlib.axis_1">
    <g id="xtick_1">
     <g id="line2d_1">
      <defs>
       <path d="M 0 0 
L 0 3.5 
" id="m46e3014657" style="stroke:#000000;stroke-width:0.8;"/>
      </defs>
      <g>
       <use style="stroke:#000000;stroke-width:0.8;" x="74.348182" xlink:href="#m46e3014657" y="188.4375"/>
      </g>
     </g>
     <g id="text_1">
      <!-- 0 -->
      <defs>
       <path d="M 31.78125 66.40625 
Q 24.171875 66.40625 20.328125 58.90625 
Q 16.5 51.421875 16.5 36.375 
Q 16.5 21.390625 20.328125 13.890625 
Q 24.171875 6.390625 31.78125 6.390625 
Q 39.453125 6.390625 43.28125 13.890625 
Q 47.125 21.390625 47.125 36.375 
Q 47.125 51.421875 43.28125 58.90625 
Q 39.453125 66.40625 31.78125 66.40625 
z
M 31.78125 74.21875 
Q 44.046875 74.21875 50.515625 64.515625 
Q 56.984375 54.828125 56.984375 36.375 
Q 56.984375 17.96875 50.515625 8.265625 
Q 44.046875 -1.421875 31.78125 -1.421875 
Q 19.53125 -1.421875 13.0625 8.265625 
Q 6.59375 17.96875 6.59375 36.375 
Q 6.59375 54.828125 13.0625 64.515625 
Q 19.53125 74.21875 31.78125 74.21875 
z
" id="DejaVuSans-48"/>
      </defs>
      <g transform="translate(69.258182 207.595)scale(0.16 -0.16)">
       <use xlink:href="#DejaVuSans-48"/>
      </g>
     </g>
    </g>
    <g id="xtick_2">
     <g id="line2d_2">
      <g>
       <use style="stroke:#000000;stroke-width:0.8;" x="146.815714" xlink:href="#m46e3014657" y="188.4375"/>
      </g>
     </g>
     <g id="text_2">
      <!-- 20 -->
      <defs>
       <path d="M 19.1875 8.296875 
L 53.609375 8.296875 
L 53.609375 0 
L 7.328125 0 
L 7.328125 8.296875 
Q 12.9375 14.109375 22.625 23.890625 
Q 32.328125 33.6875 34.8125 36.53125 
Q 39.546875 41.84375 41.421875 45.53125 
Q 43.3125 49.21875 43.3125 52.78125 
Q 43.3125 58.59375 39.234375 62.25 
Q 35.15625 65.921875 28.609375 65.921875 
Q 23.96875 65.921875 18.8125 64.3125 
Q 13.671875 62.703125 7.8125 59.421875 
L 7.8125 69.390625 
Q 13.765625 71.78125 18.9375 73 
Q 24.125 74.21875 28.421875 74.21875 
Q 39.75 74.21875 46.484375 68.546875 
Q 53.21875 62.890625 53.21875 53.421875 
Q 53.21875 48.921875 51.53125 44.890625 
Q 49.859375 40.875 45.40625 35.40625 
Q 44.1875 33.984375 37.640625 27.21875 
Q 31.109375 20.453125 19.1875 8.296875 
z
" id="DejaVuSans-50"/>
      </defs>
      <g transform="translate(136.635714 207.595)scale(0.16 -0.16)">
       <use xlink:href="#DejaVuSans-50"/>
       <use x="63.623047" xlink:href="#DejaVuSans-48"/>
      </g>
     </g>
    </g>
    <g id="xtick_3">
     <g id="line2d_3">
      <g>
       <use style="stroke:#000000;stroke-width:0.8;" x="219.283247" xlink:href="#m46e3014657" y="188.4375"/>
      </g>
     </g>
     <g id="text_3">
      <!-- 40 -->
      <defs>
       <path d="M 37.796875 64.3125 
L 12.890625 25.390625 
L 37.796875 25.390625 
z
M 35.203125 72.90625 
L 47.609375 72.90625 
L 47.609375 25.390625 
L 58.015625 25.390625 
L 58.015625 17.1875 
L 47.609375 17.1875 
L 47.609375 0 
L 37.796875 0 
L 37.796875 17.1875 
L 4.890625 17.1875 
L 4.890625 26.703125 
z
" id="DejaVuSans-52"/>
      </defs>
      <g transform="translate(209.103247 207.595)scale(0.16 -0.16)">
       <use xlink:href="#DejaVuSans-52"/>
       <use x="63.623047" xlink:href="#DejaVuSans-48"/>
      </g>
     </g>
    </g>
    <g id="xtick_4">
     <g id="line2d_4">
      <g>
       <use style="stroke:#000000;stroke-width:0.8;" x="291.750779" xlink:href="#m46e3014657" y="188.4375"/>
      </g>
     </g>
     <g id="text_4">
      <!-- 60 -->
      <defs>
       <path d="M 33.015625 40.375 
Q 26.375 40.375 22.484375 35.828125 
Q 18.609375 31.296875 18.609375 23.390625 
Q 18.609375 15.53125 22.484375 10.953125 
Q 26.375 6.390625 33.015625 6.390625 
Q 39.65625 6.390625 43.53125 10.953125 
Q 47.40625 15.53125 47.40625 23.390625 
Q 47.40625 31.296875 43.53125 35.828125 
Q 39.65625 40.375 33.015625 40.375 
z
M 52.59375 71.296875 
L 52.59375 62.3125 
Q 48.875 64.0625 45.09375 64.984375 
Q 41.3125 65.921875 37.59375 65.921875 
Q 27.828125 65.921875 22.671875 59.328125 
Q 17.53125 52.734375 16.796875 39.40625 
Q 19.671875 43.65625 24.015625 45.921875 
Q 28.375 48.1875 33.59375 48.1875 
Q 44.578125 48.1875 50.953125 41.515625 
Q 57.328125 34.859375 57.328125 23.390625 
Q 57.328125 12.15625 50.6875 5.359375 
Q 44.046875 -1.421875 33.015625 -1.421875 
Q 20.359375 -1.421875 13.671875 8.265625 
Q 6.984375 17.96875 6.984375 36.375 
Q 6.984375 53.65625 15.1875 63.9375 
Q 23.390625 74.21875 37.203125 74.21875 
Q 40.921875 74.21875 44.703125 73.484375 
Q 48.484375 72.75 52.59375 71.296875 
z
" id="DejaVuSans-54"/>
      </defs>
      <g transform="translate(281.570779 207.595)scale(0.16 -0.16)">
       <use xlink:href="#DejaVuSans-54"/>
       <use x="63.623047" xlink:href="#DejaVuSans-48"/>
      </g>
     </g>
    </g>
    <g id="xtick_5">
     <g id="line2d_5">
      <g>
       <use style="stroke:#000000;stroke-width:0.8;" x="364.218312" xlink:href="#m46e3014657" y="188.4375"/>
      </g>
     </g>
     <g id="text_5">
      <!-- 80 -->
      <defs>
       <path d="M 31.78125 34.625 
Q 24.75 34.625 20.71875 30.859375 
Q 16.703125 27.09375 16.703125 20.515625 
Q 16.703125 13.921875 20.71875 10.15625 
Q 24.75 6.390625 31.78125 6.390625 
Q 38.8125 6.390625 42.859375 10.171875 
Q 46.921875 13.96875 46.921875 20.515625 
Q 46.921875 27.09375 42.890625 30.859375 
Q 38.875 34.625 31.78125 34.625 
z
M 21.921875 38.8125 
Q 15.578125 40.375 12.03125 44.71875 
Q 8.5 49.078125 8.5 55.328125 
Q 8.5 64.0625 14.71875 69.140625 
Q 20.953125 74.21875 31.78125 74.21875 
Q 42.671875 74.21875 48.875 69.140625 
Q 55.078125 64.0625 55.078125 55.328125 
Q 55.078125 49.078125 51.53125 44.71875 
Q 48 40.375 41.703125 38.8125 
Q 48.828125 37.15625 52.796875 32.3125 
Q 56.78125 27.484375 56.78125 20.515625 
Q 56.78125 9.90625 50.3125 4.234375 
Q 43.84375 -1.421875 31.78125 -1.421875 
Q 19.734375 -1.421875 13.25 4.234375 
Q 6.78125 9.90625 6.78125 20.515625 
Q 6.78125 27.484375 10.78125 32.3125 
Q 14.796875 37.15625 21.921875 38.8125 
z
M 18.3125 54.390625 
Q 18.3125 48.734375 21.84375 45.5625 
Q 25.390625 42.390625 31.78125 42.390625 
Q 38.140625 42.390625 41.71875 45.5625 
Q 45.3125 48.734375 45.3125 54.390625 
Q 45.3125 60.0625 41.71875 63.234375 
Q 38.140625 66.40625 31.78125 66.40625 
Q 25.390625 66.40625 21.84375 63.234375 
Q 18.3125 60.0625 18.3125 54.390625 
z
" id="DejaVuSans-56"/>
      </defs>
      <g transform="translate(354.038312 207.595)scale(0.16 -0.16)">
       <use xlink:href="#DejaVuSans-56"/>
       <use x="63.623047" xlink:href="#DejaVuSans-48"/>
      </g>
     </g>
    </g>
    <g id="text_6">
     <!-- Epoch -->
     <defs>
      <path d="M 9.8125 72.90625 
L 55.90625 72.90625 
L 55.90625 64.59375 
L 19.671875 64.59375 
L 19.671875 43.015625 
L 54.390625 43.015625 
L 54.390625 34.71875 
L 19.671875 34.71875 
L 19.671875 8.296875 
L 56.78125 8.296875 
L 56.78125 0 
L 9.8125 0 
z
" id="DejaVuSans-69"/>
      <path d="M 18.109375 8.203125 
L 18.109375 -20.796875 
L 9.078125 -20.796875 
L 9.078125 54.6875 
L 18.109375 54.6875 
L 18.109375 46.390625 
Q 20.953125 51.265625 25.265625 53.625 
Q 29.59375 56 35.59375 56 
Q 45.5625 56 51.78125 48.09375 
Q 58.015625 40.1875 58.015625 27.296875 
Q 58.015625 14.40625 51.78125 6.484375 
Q 45.5625 -1.421875 35.59375 -1.421875 
Q 29.59375 -1.421875 25.265625 0.953125 
Q 20.953125 3.328125 18.109375 8.203125 
z
M 48.6875 27.296875 
Q 48.6875 37.203125 44.609375 42.84375 
Q 40.53125 48.484375 33.40625 48.484375 
Q 26.265625 48.484375 22.1875 42.84375 
Q 18.109375 37.203125 18.109375 27.296875 
Q 18.109375 17.390625 22.1875 11.75 
Q 26.265625 6.109375 33.40625 6.109375 
Q 40.53125 6.109375 44.609375 11.75 
Q 48.6875 17.390625 48.6875 27.296875 
z
" id="DejaVuSans-112"/>
      <path d="M 30.609375 48.390625 
Q 23.390625 48.390625 19.1875 42.75 
Q 14.984375 37.109375 14.984375 27.296875 
Q 14.984375 17.484375 19.15625 11.84375 
Q 23.34375 6.203125 30.609375 6.203125 
Q 37.796875 6.203125 41.984375 11.859375 
Q 46.1875 17.53125 46.1875 27.296875 
Q 46.1875 37.015625 41.984375 42.703125 
Q 37.796875 48.390625 30.609375 48.390625 
z
M 30.609375 56 
Q 42.328125 56 49.015625 48.375 
Q 55.71875 40.765625 55.71875 27.296875 
Q 55.71875 13.875 49.015625 6.21875 
Q 42.328125 -1.421875 30.609375 -1.421875 
Q 18.84375 -1.421875 12.171875 6.21875 
Q 5.515625 13.875 5.515625 27.296875 
Q 5.515625 40.765625 12.171875 48.375 
Q 18.84375 56 30.609375 56 
z
" id="DejaVuSans-111"/>
      <path d="M 48.78125 52.59375 
L 48.78125 44.1875 
Q 44.96875 46.296875 41.140625 47.34375 
Q 37.3125 48.390625 33.40625 48.390625 
Q 24.65625 48.390625 19.8125 42.84375 
Q 14.984375 37.3125 14.984375 27.296875 
Q 14.984375 17.28125 19.8125 11.734375 
Q 24.65625 6.203125 33.40625 6.203125 
Q 37.3125 6.203125 41.140625 7.25 
Q 44.96875 8.296875 48.78125 10.40625 
L 48.78125 2.09375 
Q 45.015625 0.34375 40.984375 -0.53125 
Q 36.96875 -1.421875 32.421875 -1.421875 
Q 20.0625 -1.421875 12.78125 6.34375 
Q 5.515625 14.109375 5.515625 27.296875 
Q 5.515625 40.671875 12.859375 48.328125 
Q 20.21875 56 33.015625 56 
Q 37.15625 56 41.109375 55.140625 
Q 45.0625 54.296875 48.78125 52.59375 
z
" id="DejaVuSans-99"/>
      <path d="M 54.890625 33.015625 
L 54.890625 0 
L 45.90625 0 
L 45.90625 32.71875 
Q 45.90625 40.484375 42.875 44.328125 
Q 39.84375 48.1875 33.796875 48.1875 
Q 26.515625 48.1875 22.3125 43.546875 
Q 18.109375 38.921875 18.109375 30.90625 
L 18.109375 0 
L 9.078125 0 
L 9.078125 75.984375 
L 18.109375 75.984375 
L 18.109375 46.1875 
Q 21.34375 51.125 25.703125 53.5625 
Q 30.078125 56 35.796875 56 
Q 45.21875 56 50.046875 50.171875 
Q 54.890625 44.34375 54.890625 33.015625 
z
" id="DejaVuSans-104"/>
     </defs>
     <g transform="translate(202.0325 227.08)scale(0.16 -0.16)">
      <use xlink:href="#DejaVuSans-69"/>
      <use x="63.183594" xlink:href="#DejaVuSans-112"/>
      <use x="126.660156" xlink:href="#DejaVuSans-111"/>
      <use x="187.841797" xlink:href="#DejaVuSans-99"/>
      <use x="242.822266" xlink:href="#DejaVuSans-104"/>
     </g>
    </g>
   </g>
   <g id="matplotlib.axis_2">
    <g id="ytick_1">
     <g id="line2d_6">
      <defs>
       <path d="M 0 0 
L -3.5 0 
" id="md268d2a2a5" style="stroke:#000000;stroke-width:0.8;"/>
      </defs>
      <g>
       <use style="stroke:#000000;stroke-width:0.8;" x="59.13" xlink:href="#md268d2a2a5" y="183.176855"/>
      </g>
     </g>
     <g id="text_7">
      <!-- 0.0 -->
      <defs>
       <path d="M 10.6875 12.40625 
L 21 12.40625 
L 21 0 
L 10.6875 0 
z
" id="DejaVuSans-46"/>
      </defs>
      <g transform="translate(26.685 189.255605)scale(0.16 -0.16)">
       <use xlink:href="#DejaVuSans-48"/>
       <use x="63.623047" xlink:href="#DejaVuSans-46"/>
       <use x="95.410156" xlink:href="#DejaVuSans-48"/>
      </g>
     </g>
    </g>
    <g id="ytick_2">
     <g id="line2d_7">
      <g>
       <use style="stroke:#000000;stroke-width:0.8;" x="59.13" xlink:href="#md268d2a2a5" y="130.570403"/>
      </g>
     </g>
     <g id="text_8">
      <!-- 0.5 -->
      <defs>
       <path d="M 10.796875 72.90625 
L 49.515625 72.90625 
L 49.515625 64.59375 
L 19.828125 64.59375 
L 19.828125 46.734375 
Q 21.96875 47.46875 24.109375 47.828125 
Q 26.265625 48.1875 28.421875 48.1875 
Q 40.625 48.1875 47.75 41.5 
Q 54.890625 34.8125 54.890625 23.390625 
Q 54.890625 11.625 47.5625 5.09375 
Q 40.234375 -1.421875 26.90625 -1.421875 
Q 22.3125 -1.421875 17.546875 -0.640625 
Q 12.796875 0.140625 7.71875 1.703125 
L 7.71875 11.625 
Q 12.109375 9.234375 16.796875 8.0625 
Q 21.484375 6.890625 26.703125 6.890625 
Q 35.15625 6.890625 40.078125 11.328125 
Q 45.015625 15.765625 45.015625 23.390625 
Q 45.015625 31 40.078125 35.4375 
Q 35.15625 39.890625 26.703125 39.890625 
Q 22.75 39.890625 18.8125 39.015625 
Q 14.890625 38.140625 10.796875 36.28125 
z
" id="DejaVuSans-53"/>
      </defs>
      <g transform="translate(26.685 136.649153)scale(0.16 -0.16)">
       <use xlink:href="#DejaVuSans-48"/>
       <use x="63.623047" xlink:href="#DejaVuSans-46"/>
       <use x="95.410156" xlink:href="#DejaVuSans-53"/>
      </g>
     </g>
    </g>
    <g id="ytick_3">
     <g id="line2d_8">
      <g>
       <use style="stroke:#000000;stroke-width:0.8;" x="59.13" xlink:href="#md268d2a2a5" y="77.963952"/>
      </g>
     </g>
     <g id="text_9">
      <!-- 1.0 -->
      <defs>
       <path d="M 12.40625 8.296875 
L 28.515625 8.296875 
L 28.515625 63.921875 
L 10.984375 60.40625 
L 10.984375 69.390625 
L 28.421875 72.90625 
L 38.28125 72.90625 
L 38.28125 8.296875 
L 54.390625 8.296875 
L 54.390625 0 
L 12.40625 0 
z
" id="DejaVuSans-49"/>
      </defs>
      <g transform="translate(26.685 84.042702)scale(0.16 -0.16)">
       <use xlink:href="#DejaVuSans-49"/>
       <use x="63.623047" xlink:href="#DejaVuSans-46"/>
       <use x="95.410156" xlink:href="#DejaVuSans-48"/>
      </g>
     </g>
    </g>
    <g id="ytick_4">
     <g id="line2d_9">
      <g>
       <use style="stroke:#000000;stroke-width:0.8;" x="59.13" xlink:href="#md268d2a2a5" y="25.3575"/>
      </g>
     </g>
     <g id="text_10">
      <!-- 1.5 -->
      <g transform="translate(26.685 31.43625)scale(0.16 -0.16)">
       <use xlink:href="#DejaVuSans-49"/>
       <use x="63.623047" xlink:href="#DejaVuSans-46"/>
       <use x="95.410156" xlink:href="#DejaVuSans-53"/>
      </g>
     </g>
    </g>
    <g id="text_11">
     <!-- Categorisation loss -->
     <defs>
      <path d="M 64.40625 67.28125 
L 64.40625 56.890625 
Q 59.421875 61.53125 53.78125 63.8125 
Q 48.140625 66.109375 41.796875 66.109375 
Q 29.296875 66.109375 22.65625 58.46875 
Q 16.015625 50.828125 16.015625 36.375 
Q 16.015625 21.96875 22.65625 14.328125 
Q 29.296875 6.6875 41.796875 6.6875 
Q 48.140625 6.6875 53.78125 8.984375 
Q 59.421875 11.28125 64.40625 15.921875 
L 64.40625 5.609375 
Q 59.234375 2.09375 53.4375 0.328125 
Q 47.65625 -1.421875 41.21875 -1.421875 
Q 24.65625 -1.421875 15.125 8.703125 
Q 5.609375 18.84375 5.609375 36.375 
Q 5.609375 53.953125 15.125 64.078125 
Q 24.65625 74.21875 41.21875 74.21875 
Q 47.75 74.21875 53.53125 72.484375 
Q 59.328125 70.75 64.40625 67.28125 
z
" id="DejaVuSans-67"/>
      <path d="M 34.28125 27.484375 
Q 23.390625 27.484375 19.1875 25 
Q 14.984375 22.515625 14.984375 16.5 
Q 14.984375 11.71875 18.140625 8.90625 
Q 21.296875 6.109375 26.703125 6.109375 
Q 34.1875 6.109375 38.703125 11.40625 
Q 43.21875 16.703125 43.21875 25.484375 
L 43.21875 27.484375 
z
M 52.203125 31.203125 
L 52.203125 0 
L 43.21875 0 
L 43.21875 8.296875 
Q 40.140625 3.328125 35.546875 0.953125 
Q 30.953125 -1.421875 24.3125 -1.421875 
Q 15.921875 -1.421875 10.953125 3.296875 
Q 6 8.015625 6 15.921875 
Q 6 25.140625 12.171875 29.828125 
Q 18.359375 34.515625 30.609375 34.515625 
L 43.21875 34.515625 
L 43.21875 35.40625 
Q 43.21875 41.609375 39.140625 45 
Q 35.0625 48.390625 27.6875 48.390625 
Q 23 48.390625 18.546875 47.265625 
Q 14.109375 46.140625 10.015625 43.890625 
L 10.015625 52.203125 
Q 14.9375 54.109375 19.578125 55.046875 
Q 24.21875 56 28.609375 56 
Q 40.484375 56 46.34375 49.84375 
Q 52.203125 43.703125 52.203125 31.203125 
z
" id="DejaVuSans-97"/>
      <path d="M 18.3125 70.21875 
L 18.3125 54.6875 
L 36.8125 54.6875 
L 36.8125 47.703125 
L 18.3125 47.703125 
L 18.3125 18.015625 
Q 18.3125 11.328125 20.140625 9.421875 
Q 21.96875 7.515625 27.59375 7.515625 
L 36.8125 7.515625 
L 36.8125 0 
L 27.59375 0 
Q 17.1875 0 13.234375 3.875 
Q 9.28125 7.765625 9.28125 18.015625 
L 9.28125 47.703125 
L 2.6875 47.703125 
L 2.6875 54.6875 
L 9.28125 54.6875 
L 9.28125 70.21875 
z
" id="DejaVuSans-116"/>
      <path d="M 56.203125 29.59375 
L 56.203125 25.203125 
L 14.890625 25.203125 
Q 15.484375 15.921875 20.484375 11.0625 
Q 25.484375 6.203125 34.421875 6.203125 
Q 39.59375 6.203125 44.453125 7.46875 
Q 49.3125 8.734375 54.109375 11.28125 
L 54.109375 2.78125 
Q 49.265625 0.734375 44.1875 -0.34375 
Q 39.109375 -1.421875 33.890625 -1.421875 
Q 20.796875 -1.421875 13.15625 6.1875 
Q 5.515625 13.8125 5.515625 26.8125 
Q 5.515625 40.234375 12.765625 48.109375 
Q 20.015625 56 32.328125 56 
Q 43.359375 56 49.78125 48.890625 
Q 56.203125 41.796875 56.203125 29.59375 
z
M 47.21875 32.234375 
Q 47.125 39.59375 43.09375 43.984375 
Q 39.0625 48.390625 32.421875 48.390625 
Q 24.90625 48.390625 20.390625 44.140625 
Q 15.875 39.890625 15.1875 32.171875 
z
" id="DejaVuSans-101"/>
      <path d="M 45.40625 27.984375 
Q 45.40625 37.75 41.375 43.109375 
Q 37.359375 48.484375 30.078125 48.484375 
Q 22.859375 48.484375 18.828125 43.109375 
Q 14.796875 37.75 14.796875 27.984375 
Q 14.796875 18.265625 18.828125 12.890625 
Q 22.859375 7.515625 30.078125 7.515625 
Q 37.359375 7.515625 41.375 12.890625 
Q 45.40625 18.265625 45.40625 27.984375 
z
M 54.390625 6.78125 
Q 54.390625 -7.171875 48.1875 -13.984375 
Q 42 -20.796875 29.203125 -20.796875 
Q 24.46875 -20.796875 20.265625 -20.09375 
Q 16.0625 -19.390625 12.109375 -17.921875 
L 12.109375 -9.1875 
Q 16.0625 -11.328125 19.921875 -12.34375 
Q 23.78125 -13.375 27.78125 -13.375 
Q 36.625 -13.375 41.015625 -8.765625 
Q 45.40625 -4.15625 45.40625 5.171875 
L 45.40625 9.625 
Q 42.625 4.78125 38.28125 2.390625 
Q 33.9375 0 27.875 0 
Q 17.828125 0 11.671875 7.65625 
Q 5.515625 15.328125 5.515625 27.984375 
Q 5.515625 40.671875 11.671875 48.328125 
Q 17.828125 56 27.875 56 
Q 33.9375 56 38.28125 53.609375 
Q 42.625 51.21875 45.40625 46.390625 
L 45.40625 54.6875 
L 54.390625 54.6875 
z
" id="DejaVuSans-103"/>
      <path d="M 41.109375 46.296875 
Q 39.59375 47.171875 37.8125 47.578125 
Q 36.03125 48 33.890625 48 
Q 26.265625 48 22.1875 43.046875 
Q 18.109375 38.09375 18.109375 28.8125 
L 18.109375 0 
L 9.078125 0 
L 9.078125 54.6875 
L 18.109375 54.6875 
L 18.109375 46.1875 
Q 20.953125 51.171875 25.484375 53.578125 
Q 30.03125 56 36.53125 56 
Q 37.453125 56 38.578125 55.875 
Q 39.703125 55.765625 41.0625 55.515625 
z
" id="DejaVuSans-114"/>
      <path d="M 9.421875 54.6875 
L 18.40625 54.6875 
L 18.40625 0 
L 9.421875 0 
z
M 9.421875 75.984375 
L 18.40625 75.984375 
L 18.40625 64.59375 
L 9.421875 64.59375 
z
" id="DejaVuSans-105"/>
      <path d="M 44.28125 53.078125 
L 44.28125 44.578125 
Q 40.484375 46.53125 36.375 47.5 
Q 32.28125 48.484375 27.875 48.484375 
Q 21.1875 48.484375 17.84375 46.4375 
Q 14.5 44.390625 14.5 40.28125 
Q 14.5 37.15625 16.890625 35.375 
Q 19.28125 33.59375 26.515625 31.984375 
L 29.59375 31.296875 
Q 39.15625 29.25 43.1875 25.515625 
Q 47.21875 21.78125 47.21875 15.09375 
Q 47.21875 7.46875 41.1875 3.015625 
Q 35.15625 -1.421875 24.609375 -1.421875 
Q 20.21875 -1.421875 15.453125 -0.5625 
Q 10.6875 0.296875 5.421875 2 
L 5.421875 11.28125 
Q 10.40625 8.6875 15.234375 7.390625 
Q 20.0625 6.109375 24.8125 6.109375 
Q 31.15625 6.109375 34.5625 8.28125 
Q 37.984375 10.453125 37.984375 14.40625 
Q 37.984375 18.0625 35.515625 20.015625 
Q 33.0625 21.96875 24.703125 23.78125 
L 21.578125 24.515625 
Q 13.234375 26.265625 9.515625 29.90625 
Q 5.8125 33.546875 5.8125 39.890625 
Q 5.8125 47.609375 11.28125 51.796875 
Q 16.75 56 26.8125 56 
Q 31.78125 56 36.171875 55.265625 
Q 40.578125 54.546875 44.28125 53.078125 
z
" id="DejaVuSans-115"/>
      <path d="M 54.890625 33.015625 
L 54.890625 0 
L 45.90625 0 
L 45.90625 32.71875 
Q 45.90625 40.484375 42.875 44.328125 
Q 39.84375 48.1875 33.796875 48.1875 
Q 26.515625 48.1875 22.3125 43.546875 
Q 18.109375 38.921875 18.109375 30.90625 
L 18.109375 0 
L 9.078125 0 
L 9.078125 54.6875 
L 18.109375 54.6875 
L 18.109375 46.1875 
Q 21.34375 51.125 25.703125 53.5625 
Q 30.078125 56 35.796875 56 
Q 45.21875 56 50.046875 50.171875 
Q 54.890625 44.34375 54.890625 33.015625 
z
" id="DejaVuSans-110"/>
      <path id="DejaVuSans-32"/>
      <path d="M 9.421875 75.984375 
L 18.40625 75.984375 
L 18.40625 0 
L 9.421875 0 
z
" id="DejaVuSans-108"/>
     </defs>
     <g transform="translate(19.3575 183.31875)rotate(-90)scale(0.16 -0.16)">
      <use xlink:href="#DejaVuSans-67"/>
      <use x="69.824219" xlink:href="#DejaVuSans-97"/>
      <use x="131.103516" xlink:href="#DejaVuSans-116"/>
      <use x="170.3125" xlink:href="#DejaVuSans-101"/>
      <use x="231.835938" xlink:href="#DejaVuSans-103"/>
      <use x="295.3125" xlink:href="#DejaVuSans-111"/>
      <use x="356.494141" xlink:href="#DejaVuSans-114"/>
      <use x="397.607422" xlink:href="#DejaVuSans-105"/>
      <use x="425.390625" xlink:href="#DejaVuSans-115"/>
      <use x="477.490234" xlink:href="#DejaVuSans-97"/>
      <use x="538.769531" xlink:href="#DejaVuSans-116"/>
      <use x="577.978516" xlink:href="#DejaVuSans-105"/>
      <use x="605.761719" xlink:href="#DejaVuSans-111"/>
      <use x="666.943359" xlink:href="#DejaVuSans-110"/>
      <use x="730.322266" xlink:href="#DejaVuSans-32"/>
      <use x="762.109375" xlink:href="#DejaVuSans-108"/>
      <use x="789.892578" xlink:href="#DejaVuSans-111"/>
      <use x="851.074219" xlink:href="#DejaVuSans-115"/>
      <use x="903.173828" xlink:href="#DejaVuSans-115"/>
     </g>
    </g>
   </g>
   <g id="line2d_10">
    <path clip-path="url(#p9fda921f90)" d="M 74.348182 183.176855 
L 378.711818 183.176855 
" style="fill:none;stroke:#000000;stroke-linecap:square;stroke-opacity:0.8;stroke-width:1.5;"/>
   </g>
   <g id="line2d_11">
    <path clip-path="url(#p9fda921f90)" d="M 74.348182 64.847029 
L 378.711818 64.847029 
" style="fill:none;stroke:#000000;stroke-linecap:square;stroke-opacity:0.8;stroke-width:1.5;"/>
   </g>
   <g id="line2d_12">
    <path clip-path="url(#p9fda921f90)" d="M 74.348182 60.158897 
L 77.971558 61.873999 
L 81.594935 61.939643 
L 85.218312 61.961848 
L 88.841688 61.975544 
L 92.465065 61.984384 
L 96.088442 61.990322 
L 99.711818 61.995373 
L 103.335195 61.994956 
L 106.958571 61.999546 
L 110.581948 62.001549 
L 114.205325 62.008566 
L 117.828701 62.012186 
L 121.452078 63.215638 
L 125.075455 63.373277 
L 128.698831 63.377688 
L 132.322208 63.382756 
L 135.945584 63.398827 
L 139.568961 63.399074 
L 143.192338 63.391469 
L 146.815714 63.397364 
L 150.439091 63.41027 
L 154.062468 63.412071 
L 157.685844 63.411774 
L 161.309221 63.418735 
L 164.932597 63.411644 
L 168.555974 63.423944 
L 172.179351 63.932047 
L 175.802727 64.654099 
L 179.426104 64.781902 
L 183.049481 64.793767 
L 186.672857 64.804843 
L 190.296234 64.813074 
L 193.91961 64.814721 
L 197.542987 64.814074 
L 201.166364 64.818346 
L 204.78974 64.812696 
L 208.413117 64.822093 
L 212.036494 64.82295 
L 215.65987 64.82449 
L 219.283247 64.825923 
L 222.906623 64.827042 
L 226.53 64.827976 
L 230.153377 64.828567 
L 233.776753 64.826435 
L 237.40013 64.829315 
L 241.023506 64.829213 
L 244.646883 64.828919 
L 248.27026 64.828635 
L 251.893636 64.828343 
L 255.517013 64.828176 
L 259.14039 64.828028 
L 262.763766 64.827868 
L 266.387143 64.827881 
L 270.010519 64.82797 
L 273.633896 64.828158 
L 277.257273 64.828498 
L 280.880649 64.828783 
L 284.504026 64.822668 
L 288.127403 64.829302 
L 291.750779 64.829722 
L 295.374156 64.829717 
L 298.997532 64.829792 
L 302.620909 64.829899 
L 306.244286 64.830001 
L 309.867662 64.830111 
L 313.491039 64.83023 
L 317.114416 64.830345 
L 320.737792 64.830583 
L 324.361169 64.830882 
L 327.984545 64.831379 
L 331.607922 64.831638 
L 335.231299 64.831882 
L 338.854675 64.832108 
L 342.478052 64.832085 
L 346.101429 64.832489 
L 349.724805 64.83261 
L 353.348182 64.832738 
L 356.971558 64.832858 
L 360.594935 64.832969 
" style="fill:none;stroke:#cf8f17;stroke-linecap:square;stroke-width:5;"/>
   </g>
   <g id="line2d_13">
    <path clip-path="url(#p9fda921f90)" d="M 74.348182 60.714757 
L 77.971558 61.414921 
L 81.594935 61.479301 
L 85.218312 62.874303 
L 88.841688 62.911849 
L 92.465065 63.010987 
L 96.088442 63.137596 
L 99.711818 63.347057 
L 103.335195 63.651805 
L 106.958571 64.223723 
L 110.581948 65.138878 
L 114.205325 67.144855 
L 117.828701 71.9897 
L 121.452078 75.393544 
L 125.075455 78.293795 
L 128.698831 81.374505 
L 132.322208 85.721779 
L 135.945584 90.462298 
L 139.568961 93.458375 
L 143.192338 96.13014 
L 146.815714 101.502975 
L 150.439091 106.140321 
L 154.062468 112.475801 
L 157.685844 117.720991 
L 161.309221 123.377212 
L 164.932597 127.664569 
L 168.555974 134.925164 
L 172.179351 142.966076 
L 175.802727 147.880775 
L 179.426104 152.019442 
L 183.049481 155.218004 
L 186.672857 157.902969 
L 190.296234 158.874614 
L 193.91961 153.144378 
L 197.542987 160.412515 
L 201.166364 161.658424 
L 204.78974 158.784956 
L 208.413117 162.569754 
L 212.036494 164.686913 
L 215.65987 167.758635 
L 219.283247 168.03317 
L 222.906623 162.871783 
L 226.53 169.997935 
L 230.153377 168.74009 
L 233.776753 170.704079 
L 237.40013 164.267358 
L 241.023506 165.549394 
L 244.646883 163.620273 
L 248.27026 170.320685 
L 251.893636 165.398933 
L 255.517013 170.707976 
L 259.14039 171.227792 
L 262.763766 167.099081 
L 266.387143 171.274537 
L 270.010519 172.904435 
L 273.633896 159.137566 
L 277.257273 163.026319 
L 280.880649 169.342501 
L 284.504026 160.312746 
L 288.127403 170.465122 
L 291.750779 164.156038 
L 295.374156 170.781172 
L 298.997532 171.950587 
L 302.620909 173.065202 
L 306.244286 173.456338 
L 309.867662 173.213716 
L 313.491039 164.926073 
L 317.114416 172.56705 
L 320.737792 165.539006 
L 324.361169 168.002167 
L 327.984545 168.006905 
L 331.607922 167.585496 
L 335.231299 173.252548 
L 338.854675 168.155276 
L 342.478052 173.676084 
L 346.101429 166.981039 
L 349.724805 153.729076 
L 353.348182 168.776457 
L 356.971558 172.84317 
L 360.594935 173.310887 
" style="fill:none;stroke:#499ad7;stroke-linecap:square;stroke-width:5;"/>
   </g>
   <g id="patch_5">
    <path d="M 59.13 188.4375 
L 59.13 25.3575 
" style="fill:none;stroke:#000000;stroke-linecap:square;stroke-linejoin:miter;stroke-width:0.8;"/>
   </g>
   <g id="patch_6">
    <path d="M 59.13 188.4375 
L 393.93 188.4375 
" style="fill:none;stroke:#000000;stroke-linecap:square;stroke-linejoin:miter;stroke-width:0.8;"/>
   </g>
   <g id="text_12">
    <!-- optimal -->
    <defs>
     <path d="M 52 44.1875 
Q 55.375 50.25 60.0625 53.125 
Q 64.75 56 71.09375 56 
Q 79.640625 56 84.28125 50.015625 
Q 88.921875 44.046875 88.921875 33.015625 
L 88.921875 0 
L 79.890625 0 
L 79.890625 32.71875 
Q 79.890625 40.578125 77.09375 44.375 
Q 74.3125 48.1875 68.609375 48.1875 
Q 61.625 48.1875 57.5625 43.546875 
Q 53.515625 38.921875 53.515625 30.90625 
L 53.515625 0 
L 44.484375 0 
L 44.484375 32.71875 
Q 44.484375 40.625 41.703125 44.40625 
Q 38.921875 48.1875 33.109375 48.1875 
Q 26.21875 48.1875 22.15625 43.53125 
Q 18.109375 38.875 18.109375 30.90625 
L 18.109375 0 
L 9.078125 0 
L 9.078125 54.6875 
L 18.109375 54.6875 
L 18.109375 46.1875 
Q 21.1875 51.21875 25.484375 53.609375 
Q 29.78125 56 35.6875 56 
Q 41.65625 56 45.828125 52.96875 
Q 50 49.953125 52 44.1875 
z
" id="DejaVuSans-109"/>
    </defs>
    <g transform="translate(382.335195 183.176855)scale(0.16 -0.16)">
     <use xlink:href="#DejaVuSans-111"/>
     <use x="61.181641" xlink:href="#DejaVuSans-112"/>
     <use x="124.658203" xlink:href="#DejaVuSans-116"/>
     <use x="163.867188" xlink:href="#DejaVuSans-105"/>
     <use x="191.650391" xlink:href="#DejaVuSans-109"/>
     <use x="289.0625" xlink:href="#DejaVuSans-97"/>
     <use x="350.341797" xlink:href="#DejaVuSans-108"/>
    </g>
   </g>
   <g id="text_13">
    <!-- naive -->
    <defs>
     <path d="M 2.984375 54.6875 
L 12.5 54.6875 
L 29.59375 8.796875 
L 46.6875 54.6875 
L 56.203125 54.6875 
L 35.6875 0 
L 23.484375 0 
z
" id="DejaVuSans-118"/>
    </defs>
    <g transform="translate(382.335195 64.847029)scale(0.16 -0.16)">
     <use xlink:href="#DejaVuSans-110"/>
     <use x="63.378906" xlink:href="#DejaVuSans-97"/>
     <use x="124.658203" xlink:href="#DejaVuSans-105"/>
     <use x="152.441406" xlink:href="#DejaVuSans-118"/>
     <use x="211.621094" xlink:href="#DejaVuSans-101"/>
    </g>
   </g>
   <g id="text_14">
    <!-- eavesdropping -->
    <defs>
     <path d="M 45.40625 46.390625 
L 45.40625 75.984375 
L 54.390625 75.984375 
L 54.390625 0 
L 45.40625 0 
L 45.40625 8.203125 
Q 42.578125 3.328125 38.25 0.953125 
Q 33.9375 -1.421875 27.875 -1.421875 
Q 17.96875 -1.421875 11.734375 6.484375 
Q 5.515625 14.40625 5.515625 27.296875 
Q 5.515625 40.1875 11.734375 48.09375 
Q 17.96875 56 27.875 56 
Q 33.9375 56 38.25 53.625 
Q 42.578125 51.265625 45.40625 46.390625 
z
M 14.796875 27.296875 
Q 14.796875 17.390625 18.875 11.75 
Q 22.953125 6.109375 30.078125 6.109375 
Q 37.203125 6.109375 41.296875 11.75 
Q 45.40625 17.390625 45.40625 27.296875 
Q 45.40625 37.203125 41.296875 42.84375 
Q 37.203125 48.484375 30.078125 48.484375 
Q 22.953125 48.484375 18.875 42.84375 
Q 14.796875 37.203125 14.796875 27.296875 
z
" id="DejaVuSans-100"/>
    </defs>
    <g transform="translate(335.231299 102.132613)scale(0.16 -0.16)">
     <use xlink:href="#DejaVuSans-101"/>
     <use x="61.523438" xlink:href="#DejaVuSans-97"/>
     <use x="122.802734" xlink:href="#DejaVuSans-118"/>
     <use x="181.982422" xlink:href="#DejaVuSans-101"/>
     <use x="243.505859" xlink:href="#DejaVuSans-115"/>
     <use x="295.605469" xlink:href="#DejaVuSans-100"/>
     <use x="359.082031" xlink:href="#DejaVuSans-114"/>
     <use x="400.164062" xlink:href="#DejaVuSans-111"/>
     <use x="461.345703" xlink:href="#DejaVuSans-112"/>
     <use x="524.822266" xlink:href="#DejaVuSans-112"/>
     <use x="588.298828" xlink:href="#DejaVuSans-105"/>
     <use x="616.082031" xlink:href="#DejaVuSans-110"/>
     <use x="679.460938" xlink:href="#DejaVuSans-103"/>
    </g>
    <!-- effect -->
    <defs>
     <path d="M 37.109375 75.984375 
L 37.109375 68.5 
L 28.515625 68.5 
Q 23.6875 68.5 21.796875 66.546875 
Q 19.921875 64.59375 19.921875 59.515625 
L 19.921875 54.6875 
L 34.71875 54.6875 
L 34.71875 47.703125 
L 19.921875 47.703125 
L 19.921875 0 
L 10.890625 0 
L 10.890625 47.703125 
L 2.296875 47.703125 
L 2.296875 54.6875 
L 10.890625 54.6875 
L 10.890625 58.5 
Q 10.890625 67.625 15.140625 71.796875 
Q 19.390625 75.984375 28.609375 75.984375 
z
" id="DejaVuSans-102"/>
    </defs>
    <g transform="translate(335.231299 120.049113)scale(0.16 -0.16)">
     <use xlink:href="#DejaVuSans-101"/>
     <use x="61.523438" xlink:href="#DejaVuSans-102"/>
     <use x="96.728516" xlink:href="#DejaVuSans-102"/>
     <use x="131.933594" xlink:href="#DejaVuSans-101"/>
     <use x="193.457031" xlink:href="#DejaVuSans-99"/>
     <use x="248.4375" xlink:href="#DejaVuSans-116"/>
    </g>
   </g>
   <g id="text_15">
    <!-- Categorisation task convergence -->
    <defs>
     <path d="M 67 4 
Q 61.8125 1.3125 56.203125 -0.046875 
Q 50.59375 -1.421875 44.484375 -1.421875 
Q 26.265625 -1.421875 15.625 8.765625 
Q 4.984375 18.953125 4.984375 36.375 
Q 4.984375 53.859375 15.625 64.03125 
Q 26.265625 74.21875 44.484375 74.21875 
Q 50.59375 74.21875 56.203125 72.84375 
Q 61.8125 71.484375 67 68.796875 
L 67 53.71875 
Q 61.765625 57.28125 56.6875 58.9375 
Q 51.609375 60.59375 46 60.59375 
Q 35.9375 60.59375 30.171875 54.140625 
Q 24.421875 47.703125 24.421875 36.375 
Q 24.421875 25.09375 30.171875 18.640625 
Q 35.9375 12.203125 46 12.203125 
Q 51.609375 12.203125 56.6875 13.859375 
Q 61.765625 15.53125 67 19.09375 
z
" id="DejaVuSans-Bold-67"/>
     <path d="M 32.90625 24.609375 
Q 27.4375 24.609375 24.671875 22.75 
Q 21.921875 20.90625 21.921875 17.28125 
Q 21.921875 13.96875 24.140625 12.078125 
Q 26.375 10.203125 30.328125 10.203125 
Q 35.25 10.203125 38.625 13.734375 
Q 42 17.28125 42 22.609375 
L 42 24.609375 
z
M 59.625 31.203125 
L 59.625 0 
L 42 0 
L 42 8.109375 
Q 38.484375 3.125 34.078125 0.84375 
Q 29.6875 -1.421875 23.390625 -1.421875 
Q 14.890625 -1.421875 9.59375 3.53125 
Q 4.296875 8.5 4.296875 16.40625 
Q 4.296875 26.03125 10.90625 30.515625 
Q 17.53125 35.015625 31.6875 35.015625 
L 42 35.015625 
L 42 36.375 
Q 42 40.53125 38.71875 42.453125 
Q 35.453125 44.390625 28.515625 44.390625 
Q 22.90625 44.390625 18.0625 43.265625 
Q 13.234375 42.140625 9.078125 39.890625 
L 9.078125 53.21875 
Q 14.703125 54.59375 20.359375 55.296875 
Q 26.03125 56 31.6875 56 
Q 46.484375 56 53.046875 50.171875 
Q 59.625 44.34375 59.625 31.203125 
z
" id="DejaVuSans-Bold-97"/>
     <path d="M 27.484375 70.21875 
L 27.484375 54.6875 
L 45.515625 54.6875 
L 45.515625 42.1875 
L 27.484375 42.1875 
L 27.484375 19 
Q 27.484375 15.1875 29 13.84375 
Q 30.515625 12.5 35.015625 12.5 
L 44 12.5 
L 44 0 
L 29 0 
Q 18.65625 0 14.328125 4.3125 
Q 10.015625 8.640625 10.015625 19 
L 10.015625 42.1875 
L 1.3125 42.1875 
L 1.3125 54.6875 
L 10.015625 54.6875 
L 10.015625 70.21875 
z
" id="DejaVuSans-Bold-116"/>
     <path d="M 62.984375 27.484375 
L 62.984375 22.515625 
L 22.125 22.515625 
Q 22.75 16.359375 26.5625 13.28125 
Q 30.375 10.203125 37.203125 10.203125 
Q 42.71875 10.203125 48.5 11.84375 
Q 54.296875 13.484375 60.40625 16.796875 
L 60.40625 3.328125 
Q 54.203125 0.984375 48 -0.21875 
Q 41.796875 -1.421875 35.59375 -1.421875 
Q 20.75 -1.421875 12.515625 6.125 
Q 4.296875 13.671875 4.296875 27.296875 
Q 4.296875 40.671875 12.375 48.328125 
Q 20.453125 56 34.625 56 
Q 47.515625 56 55.25 48.234375 
Q 62.984375 40.484375 62.984375 27.484375 
z
M 45.015625 33.296875 
Q 45.015625 38.28125 42.109375 41.328125 
Q 39.203125 44.390625 34.515625 44.390625 
Q 29.4375 44.390625 26.265625 41.53125 
Q 23.09375 38.671875 22.3125 33.296875 
z
" id="DejaVuSans-Bold-101"/>
     <path d="M 45.609375 9.28125 
Q 42 4.5 37.640625 2.25 
Q 33.296875 0 27.59375 0 
Q 17.578125 0 11.03125 7.875 
Q 4.5 15.765625 4.5 27.984375 
Q 4.5 40.234375 11.03125 48.0625 
Q 17.578125 55.90625 27.59375 55.90625 
Q 33.296875 55.90625 37.640625 53.65625 
Q 42 51.421875 45.609375 46.578125 
L 45.609375 54.6875 
L 63.1875 54.6875 
L 63.1875 5.515625 
Q 63.1875 -7.671875 54.859375 -14.625 
Q 46.53125 -21.578125 30.71875 -21.578125 
Q 25.59375 -21.578125 20.796875 -20.796875 
Q 16.015625 -20.015625 11.1875 -18.40625 
L 11.1875 -4.78125 
Q 15.765625 -7.421875 20.15625 -8.71875 
Q 24.5625 -10.015625 29 -10.015625 
Q 37.59375 -10.015625 41.59375 -6.25 
Q 45.609375 -2.484375 45.609375 5.515625 
z
M 34.078125 43.3125 
Q 28.65625 43.3125 25.625 39.296875 
Q 22.609375 35.296875 22.609375 27.984375 
Q 22.609375 20.453125 25.53125 16.578125 
Q 28.46875 12.703125 34.078125 12.703125 
Q 39.546875 12.703125 42.578125 16.703125 
Q 45.609375 20.703125 45.609375 27.984375 
Q 45.609375 35.296875 42.578125 39.296875 
Q 39.546875 43.3125 34.078125 43.3125 
z
" id="DejaVuSans-Bold-103"/>
     <path d="M 34.421875 43.5 
Q 28.609375 43.5 25.5625 39.328125 
Q 22.515625 35.15625 22.515625 27.296875 
Q 22.515625 19.4375 25.5625 15.25 
Q 28.609375 11.078125 34.421875 11.078125 
Q 40.140625 11.078125 43.15625 15.25 
Q 46.1875 19.4375 46.1875 27.296875 
Q 46.1875 35.15625 43.15625 39.328125 
Q 40.140625 43.5 34.421875 43.5 
z
M 34.421875 56 
Q 48.53125 56 56.46875 48.375 
Q 64.40625 40.765625 64.40625 27.296875 
Q 64.40625 13.8125 56.46875 6.1875 
Q 48.53125 -1.421875 34.421875 -1.421875 
Q 20.265625 -1.421875 12.28125 6.1875 
Q 4.296875 13.8125 4.296875 27.296875 
Q 4.296875 40.765625 12.28125 48.375 
Q 20.265625 56 34.421875 56 
z
" id="DejaVuSans-Bold-111"/>
     <path d="M 49.03125 39.796875 
Q 46.734375 40.875 44.453125 41.375 
Q 42.1875 41.890625 39.890625 41.890625 
Q 33.15625 41.890625 29.515625 37.5625 
Q 25.875 33.25 25.875 25.203125 
L 25.875 0 
L 8.40625 0 
L 8.40625 54.6875 
L 25.875 54.6875 
L 25.875 45.703125 
Q 29.25 51.078125 33.609375 53.53125 
Q 37.984375 56 44.09375 56 
Q 44.96875 56 45.984375 55.921875 
Q 47.015625 55.859375 48.96875 55.609375 
z
" id="DejaVuSans-Bold-114"/>
     <path d="M 8.40625 54.6875 
L 25.875 54.6875 
L 25.875 0 
L 8.40625 0 
z
M 8.40625 75.984375 
L 25.875 75.984375 
L 25.875 61.71875 
L 8.40625 61.71875 
z
" id="DejaVuSans-Bold-105"/>
     <path d="M 51.125 52.984375 
L 51.125 39.703125 
Q 45.515625 42.046875 40.28125 43.21875 
Q 35.0625 44.390625 30.421875 44.390625 
Q 25.4375 44.390625 23.015625 43.140625 
Q 20.609375 41.890625 20.609375 39.3125 
Q 20.609375 37.203125 22.4375 36.078125 
Q 24.265625 34.96875 29 34.421875 
L 32.078125 33.984375 
Q 45.515625 32.28125 50.140625 28.375 
Q 54.78125 24.46875 54.78125 16.109375 
Q 54.78125 7.375 48.328125 2.96875 
Q 41.890625 -1.421875 29.109375 -1.421875 
Q 23.6875 -1.421875 17.890625 -0.5625 
Q 12.109375 0.296875 6 2 
L 6 15.28125 
Q 11.234375 12.75 16.71875 11.46875 
Q 22.21875 10.203125 27.875 10.203125 
Q 33.015625 10.203125 35.59375 11.609375 
Q 38.1875 13.03125 38.1875 15.828125 
Q 38.1875 18.171875 36.40625 19.3125 
Q 34.625 20.453125 29.296875 21.09375 
L 26.21875 21.484375 
Q 14.546875 22.953125 9.859375 26.90625 
Q 5.171875 30.859375 5.171875 38.921875 
Q 5.171875 47.609375 11.125 51.796875 
Q 17.09375 56 29.390625 56 
Q 34.234375 56 39.546875 55.265625 
Q 44.875 54.546875 51.125 52.984375 
z
" id="DejaVuSans-Bold-115"/>
     <path d="M 63.375 33.296875 
L 63.375 0 
L 45.796875 0 
L 45.796875 5.421875 
L 45.796875 25.484375 
Q 45.796875 32.5625 45.484375 35.25 
Q 45.171875 37.9375 44.390625 39.203125 
Q 43.359375 40.921875 41.59375 41.875 
Q 39.84375 42.828125 37.59375 42.828125 
Q 32.125 42.828125 29 38.59375 
Q 25.875 34.375 25.875 26.90625 
L 25.875 0 
L 8.40625 0 
L 8.40625 54.6875 
L 25.875 54.6875 
L 25.875 46.6875 
Q 29.828125 51.46875 34.265625 53.734375 
Q 38.71875 56 44.09375 56 
Q 53.5625 56 58.46875 50.1875 
Q 63.375 44.390625 63.375 33.296875 
z
" id="DejaVuSans-Bold-110"/>
     <path id="DejaVuSans-Bold-32"/>
     <path d="M 8.40625 75.984375 
L 25.875 75.984375 
L 25.875 34.625 
L 46 54.6875 
L 66.3125 54.6875 
L 39.59375 29.59375 
L 68.40625 0 
L 47.21875 0 
L 25.875 22.796875 
L 25.875 0 
L 8.40625 0 
z
" id="DejaVuSans-Bold-107"/>
     <path d="M 52.59375 52.984375 
L 52.59375 38.71875 
Q 49.03125 41.15625 45.4375 42.328125 
Q 41.84375 43.5 37.984375 43.5 
Q 30.671875 43.5 26.59375 39.234375 
Q 22.515625 34.96875 22.515625 27.296875 
Q 22.515625 19.625 26.59375 15.34375 
Q 30.671875 11.078125 37.984375 11.078125 
Q 42.09375 11.078125 45.78125 12.296875 
Q 49.46875 13.53125 52.59375 15.921875 
L 52.59375 1.609375 
Q 48.484375 0.09375 44.265625 -0.65625 
Q 40.046875 -1.421875 35.796875 -1.421875 
Q 21 -1.421875 12.640625 6.171875 
Q 4.296875 13.765625 4.296875 27.296875 
Q 4.296875 40.828125 12.640625 48.40625 
Q 21 56 35.796875 56 
Q 40.09375 56 44.265625 55.25 
Q 48.4375 54.5 52.59375 52.984375 
z
" id="DejaVuSans-Bold-99"/>
     <path d="M 1.515625 54.6875 
L 19 54.6875 
L 32.625 16.890625 
L 46.1875 54.6875 
L 63.71875 54.6875 
L 42.1875 0 
L 23 0 
z
" id="DejaVuSans-Bold-118"/>
    </defs>
    <g transform="translate(77.7725 19.3575)scale(0.16 -0.16)">
     <use xlink:href="#DejaVuSans-Bold-67"/>
     <use x="73.388672" xlink:href="#DejaVuSans-Bold-97"/>
     <use x="140.869141" xlink:href="#DejaVuSans-Bold-116"/>
     <use x="188.671875" xlink:href="#DejaVuSans-Bold-101"/>
     <use x="256.494141" xlink:href="#DejaVuSans-Bold-103"/>
     <use x="328.076172" xlink:href="#DejaVuSans-Bold-111"/>
     <use x="396.777344" xlink:href="#DejaVuSans-Bold-114"/>
     <use x="446.09375" xlink:href="#DejaVuSans-Bold-105"/>
     <use x="480.371094" xlink:href="#DejaVuSans-Bold-115"/>
     <use x="539.892578" xlink:href="#DejaVuSans-Bold-97"/>
     <use x="607.373047" xlink:href="#DejaVuSans-Bold-116"/>
     <use x="655.175781" xlink:href="#DejaVuSans-Bold-105"/>
     <use x="689.453125" xlink:href="#DejaVuSans-Bold-111"/>
     <use x="758.154297" xlink:href="#DejaVuSans-Bold-110"/>
     <use x="829.345703" xlink:href="#DejaVuSans-Bold-32"/>
     <use x="864.160156" xlink:href="#DejaVuSans-Bold-116"/>
     <use x="911.962891" xlink:href="#DejaVuSans-Bold-97"/>
     <use x="979.443359" xlink:href="#DejaVuSans-Bold-115"/>
     <use x="1038.964844" xlink:href="#DejaVuSans-Bold-107"/>
     <use x="1105.46875" xlink:href="#DejaVuSans-Bold-32"/>
     <use x="1140.283203" xlink:href="#DejaVuSans-Bold-99"/>
     <use x="1199.560547" xlink:href="#DejaVuSans-Bold-111"/>
     <use x="1268.261719" xlink:href="#DejaVuSans-Bold-110"/>
     <use x="1339.453125" xlink:href="#DejaVuSans-Bold-118"/>
     <use x="1404.638672" xlink:href="#DejaVuSans-Bold-101"/>
     <use x="1472.460938" xlink:href="#DejaVuSans-Bold-114"/>
     <use x="1521.777344" xlink:href="#DejaVuSans-Bold-103"/>
     <use x="1593.359375" xlink:href="#DejaVuSans-Bold-101"/>
     <use x="1661.181641" xlink:href="#DejaVuSans-Bold-110"/>
     <use x="1732.373047" xlink:href="#DejaVuSans-Bold-99"/>
     <use x="1791.650391" xlink:href="#DejaVuSans-Bold-101"/>
    </g>
   </g>
  </g>
 </g>
 <defs>
  <clipPath id="p9fda921f90">
   <rect height="163.08" width="334.8" x="59.13" y="25.3575"/>
  </clipPath>
 </defs>
</svg>
