<?xml version="1.0" encoding="utf-8" standalone="no"?>
<!DOCTYPE svg PUBLIC "-//W3C//DTD SVG 1.1//EN"
  "http://www.w3.org/Graphics/SVG/1.1/DTD/svg11.dtd">
<!-- Created with matplotlib (https://matplotlib.org/) -->
<svg height="229.865pt" version="1.1" viewBox="0 0 451.076299 229.865" width="451.076299pt" xmlns="http://www.w3.org/2000/svg" xmlns:xlink="http://www.w3.org/1999/xlink">
 <defs>
  <style type="text/css">
*{stroke-linecap:butt;stroke-linejoin:round;}
  </style>
 </defs>
 <g id="figure_1">
  <g id="patch_1">
   <path d="M 0 229.865 
L 451.076299 229.865 
L 451.076299 0 
L 0 0 
z
" style="fill:#ffffff;"/>
  </g>
  <g id="axes_1">
   <g id="patch_2">
    <path d="M 48.8975 188.4375 
L 383.6975 188.4375 
L 383.6975 25.3575 
L 48.8975 25.3575 
z
" style="fill:#ffffff;"/>
   </g>
   <g id="PolyCollection_1">
    <defs>
     <path d="M 64.115682 -165.634136 
L 64.115682 -164.964707 
L 67.739058 -164.994293 
L 71.362435 -164.991405 
L 74.985812 -164.989728 
L 78.609188 -164.988475 
L 82.232565 -164.987652 
L 85.855942 -164.987132 
L 89.479318 -164.984613 
L 93.102695 -164.987187 
L 96.726071 -164.986935 
L 100.349448 -164.987027 
L 103.972825 -164.987569 
L 107.596201 -164.987973 
L 111.219578 -164.988734 
L 114.842955 -164.988696 
L 118.466331 -164.989468 
L 122.089708 -164.990066 
L 125.713084 -164.991148 
L 129.336461 -164.991464 
L 132.959838 -164.991629 
L 136.583214 -164.992419 
L 140.206591 -164.992877 
L 143.829968 -164.993381 
L 147.453344 -164.993851 
L 151.076721 -164.99451 
L 154.700097 -164.991537 
L 158.323474 -164.995632 
L 161.946851 -165.00031 
L 165.570227 -164.999761 
L 169.193604 -164.999498 
L 172.816981 -165.000121 
L 176.440357 -165.00079 
L 180.063734 -165.001768 
L 183.68711 -165.002443 
L 187.310487 -165.003091 
L 190.933864 -165.003834 
L 194.55724 -165.004664 
L 198.180617 -165.005594 
L 201.803994 -165.006716 
L 205.42737 -165.007674 
L 209.050747 -165.008814 
L 212.674123 -165.009624 
L 216.2975 -165.010854 
L 219.920877 -165.011854 
L 223.544253 -165.010195 
L 227.16763 -165.013884 
L 230.791006 -165.015598 
L 234.414383 -165.016701 
L 238.03776 -165.018235 
L 241.661136 -165.016265 
L 245.284513 -165.016695 
L 248.90789 -165.016349 
L 252.531266 -165.016906 
L 256.154643 -165.017088 
L 259.778019 -165.017912 
L 263.401396 -165.01752 
L 267.024773 -165.017961 
L 270.648149 -165.017635 
L 274.271526 -165.018086 
L 277.894903 -165.016055 
L 281.518279 -165.015657 
L 285.141656 -165.016183 
L 288.765032 -165.017724 
L 292.388409 -165.018267 
L 296.011786 -165.018113 
L 299.635162 -165.018012 
L 303.258539 -165.01835 
L 306.881916 -165.01733 
L 310.505292 -165.018001 
L 314.128669 -165.018148 
L 317.752045 -165.017983 
L 321.375422 -165.018207 
L 324.998799 -165.018164 
L 328.622175 -165.018009 
L 332.245552 -165.017613 
L 335.868929 -165.017712 
L 339.492305 -165.017557 
L 343.115682 -165.017694 
L 346.739058 -165.020016 
L 350.362435 -165.018725 
L 350.362435 -165.371706 
L 350.362435 -165.371706 
L 346.739058 -165.370902 
L 343.115682 -165.369373 
L 339.492305 -165.367596 
L 335.868929 -165.367255 
L 332.245552 -165.36693 
L 328.622175 -165.367025 
L 324.998799 -165.366907 
L 321.375422 -165.366962 
L 317.752045 -165.366737 
L 314.128669 -165.366931 
L 310.505292 -165.366897 
L 306.881916 -165.366877 
L 303.258539 -165.367265 
L 299.635162 -165.367212 
L 296.011786 -165.367216 
L 292.388409 -165.365751 
L 288.765032 -165.365792 
L 285.141656 -165.366077 
L 281.518279 -165.366103 
L 277.894903 -165.366513 
L 274.271526 -165.367572 
L 270.648149 -165.367841 
L 267.024773 -165.368661 
L 263.401396 -165.369427 
L 259.778019 -165.370108 
L 256.154643 -165.370756 
L 252.531266 -165.371411 
L 248.90789 -165.37162 
L 245.284513 -165.372608 
L 241.661136 -165.37334 
L 238.03776 -165.374317 
L 234.414383 -165.374863 
L 230.791006 -165.37625 
L 227.16763 -165.377226 
L 223.544253 -165.378374 
L 219.920877 -165.379767 
L 216.2975 -165.381337 
L 212.674123 -165.382727 
L 209.050747 -165.383833 
L 205.42737 -165.385538 
L 201.803994 -165.387365 
L 198.180617 -165.388835 
L 194.55724 -165.390906 
L 190.933864 -165.39339 
L 187.310487 -165.395789 
L 183.68711 -165.398284 
L 180.063734 -165.401473 
L 176.440357 -165.402977 
L 172.816981 -165.405447 
L 169.193604 -165.408157 
L 165.570227 -165.40992 
L 161.946851 -165.413648 
L 158.323474 -165.416962 
L 154.700097 -165.420559 
L 151.076721 -165.423559 
L 147.453344 -165.427282 
L 143.829968 -165.430876 
L 140.206591 -165.434806 
L 136.583214 -165.439239 
L 132.959838 -165.444113 
L 129.336461 -165.449209 
L 125.713084 -165.454741 
L 122.089708 -165.460782 
L 118.466331 -165.467094 
L 114.842955 -165.473963 
L 111.219578 -165.481205 
L 107.596201 -165.489366 
L 103.972825 -165.497987 
L 100.349448 -165.507229 
L 96.726071 -165.517135 
L 93.102695 -165.528184 
L 89.479318 -165.540089 
L 85.855942 -165.553109 
L 82.232565 -165.567214 
L 78.609188 -165.582614 
L 74.985812 -165.599497 
L 71.362435 -165.618143 
L 67.739058 -165.637639 
L 64.115682 -165.634136 
z
" id="m4b5697656c" style="stroke:#cf8f17;stroke-opacity:0.2;"/>
    </defs>
    <g clip-path="url(#p1095e20997)">
     <use style="fill:#cf8f17;fill-opacity:0.2;stroke:#cf8f17;stroke-opacity:0.2;" x="0" xlink:href="#m4b5697656c" y="229.865"/>
    </g>
   </g>
   <g id="PolyCollection_2">
    <defs>
     <path d="M 64.115682 -165.794809 
L 64.115682 -164.912569 
L 67.739058 -164.786584 
L 71.362435 -164.740386 
L 74.985812 -164.837908 
L 78.609188 -164.792978 
L 82.232565 -164.637345 
L 85.855942 -164.684896 
L 89.479318 -164.514682 
L 93.102695 -164.44196 
L 96.726071 -164.009839 
L 100.349448 -162.257482 
L 103.972825 -153.381765 
L 107.596201 -136.117593 
L 111.219578 -129.624304 
L 114.842955 -121.457634 
L 118.466331 -112.210788 
L 122.089708 -94.981338 
L 125.713084 -79.984416 
L 129.336461 -65.437109 
L 132.959838 -57.180087 
L 136.583214 -48.400832 
L 140.206591 -40.330383 
L 143.829968 -38.509399 
L 147.453344 -35.847906 
L 151.076721 -35.027006 
L 154.700097 -35.50615 
L 158.323474 -34.491103 
L 161.946851 -30.409898 
L 165.570227 -32.794821 
L 169.193604 -32.348206 
L 172.816981 -28.411585 
L 176.440357 -27.496723 
L 180.063734 -32.1445 
L 183.68711 -30.172326 
L 187.310487 -29.510539 
L 190.933864 -30.077047 
L 194.55724 -29.89416 
L 198.180617 -28.838764 
L 201.803994 -27.771146 
L 205.42737 -27.47089 
L 209.050747 -27.049562 
L 212.674123 -27.15731 
L 216.2975 -26.798764 
L 219.920877 -26.762822 
L 223.544253 -26.670269 
L 227.16763 -26.566693 
L 230.791006 -26.70011 
L 234.414383 -26.696852 
L 238.03776 -26.490394 
L 241.661136 -26.202543 
L 245.284513 -24.425767 
L 248.90789 -25.590511 
L 252.531266 -27.721784 
L 256.154643 -27.387475 
L 259.778019 -27.3566 
L 263.401396 -27.544365 
L 267.024773 -26.747998 
L 270.648149 -26.302693 
L 274.271526 -25.974043 
L 277.894903 -25.962698 
L 281.518279 -25.793398 
L 285.141656 -26.120233 
L 288.765032 -26.08675 
L 292.388409 -25.827338 
L 296.011786 -25.986798 
L 299.635162 -26.115331 
L 303.258539 -25.868404 
L 306.881916 -25.93356 
L 310.505292 -27.929255 
L 314.128669 -27.205784 
L 317.752045 -25.844635 
L 321.375422 -26.187986 
L 324.998799 -26.413915 
L 328.622175 -26.156772 
L 332.245552 -25.771784 
L 335.868929 -25.866537 
L 339.492305 -25.751387 
L 343.115682 -25.819448 
L 346.739058 -25.632606 
L 350.362435 -25.780073 
L 350.362435 -91.027937 
L 350.362435 -91.027937 
L 346.739058 -90.94277 
L 343.115682 -91.087778 
L 339.492305 -91.00073 
L 335.868929 -91.164882 
L 332.245552 -91.020248 
L 328.622175 -91.319415 
L 324.998799 -91.446108 
L 321.375422 -91.326962 
L 317.752045 -100.099314 
L 314.128669 -93.864399 
L 310.505292 -103.090866 
L 306.881916 -91.119394 
L 303.258539 -91.069482 
L 299.635162 -91.275962 
L 296.011786 -91.140271 
L 292.388409 -91.042907 
L 288.765032 -91.192778 
L 285.141656 -91.218913 
L 281.518279 -91.062718 
L 277.894903 -91.128845 
L 274.271526 -91.140533 
L 270.648149 -91.342189 
L 267.024773 -91.870431 
L 263.401396 -93.469658 
L 259.778019 -93.657458 
L 256.154643 -93.78843 
L 252.531266 -95.059397 
L 248.90789 -102.523106 
L 245.284513 -117.103524 
L 241.661136 -99.84483 
L 238.03776 -100.033808 
L 234.414383 -100.077792 
L 230.791006 -100.130231 
L 227.16763 -100.183471 
L 223.544253 -100.115004 
L 219.920877 -100.291793 
L 216.2975 -100.281572 
L 212.674123 -100.472209 
L 209.050747 -100.564525 
L 205.42737 -100.541273 
L 201.803994 -100.712446 
L 198.180617 -101.463908 
L 194.55724 -104.428692 
L 190.933864 -110.249605 
L 187.310487 -115.391451 
L 183.68711 -109.918394 
L 180.063734 -117.200832 
L 176.440357 -133.880137 
L 172.816981 -117.146966 
L 169.193604 -103.148291 
L 165.570227 -103.54378 
L 161.946851 -115.842307 
L 158.323474 -105.167818 
L 154.700097 -109.603633 
L 151.076721 -115.041726 
L 147.453344 -121.744835 
L 143.829968 -126.27873 
L 140.206591 -132.215952 
L 136.583214 -136.79379 
L 132.959838 -143.849563 
L 129.336461 -151.368511 
L 125.713084 -163.24698 
L 122.089708 -169.360682 
L 118.466331 -174.882748 
L 114.842955 -178.38135 
L 111.219578 -178.056301 
L 107.596201 -177.287348 
L 103.972825 -170.15861 
L 100.349448 -166.437843 
L 96.726071 -165.830842 
L 93.102695 -165.784365 
L 89.479318 -165.905967 
L 85.855942 -165.768891 
L 82.232565 -165.966466 
L 78.609188 -165.810358 
L 74.985812 -165.813536 
L 71.362435 -165.98812 
L 67.739058 -165.976707 
L 64.115682 -165.794809 
z
" id="m8077bfbe68" style="stroke:#499ad7;stroke-opacity:0.2;"/>
    </defs>
    <g clip-path="url(#p1095e20997)">
     <use style="fill:#499ad7;fill-opacity:0.2;stroke:#499ad7;stroke-opacity:0.2;" x="0" xlink:href="#m8077bfbe68" y="229.865"/>
    </g>
   </g>
   <g id="patch_3">
    <path clip-path="url(#p1095e20997)" d="M 317.752045 72.703306 
L 323.18711 83.224597 
L 317.753857 83.224597 
L 317.753857 114.788468 
L 317.750234 114.788468 
L 317.750234 83.224597 
L 312.316981 83.224597 
z
" style="stroke:#000000;stroke-linejoin:miter;stroke-width:1.5;"/>
   </g>
   <g id="patch_4">
    <path clip-path="url(#p1095e20997)" d="M 317.752045 156.873629 
L 312.316981 146.352339 
L 317.750234 146.352339 
L 317.750234 114.788468 
L 317.753857 114.788468 
L 317.753857 146.352339 
L 323.18711 146.352339 
z
" style="stroke:#000000;stroke-linejoin:miter;stroke-width:1.5;"/>
   </g>
   <g id="matplotlib.axis_1">
    <g id="xtick_1">
     <g id="line2d_1">
      <defs>
       <path d="M 0 0 
L 0 3.5 
" id="m92bc02f215" style="stroke:#000000;stroke-width:0.8;"/>
      </defs>
      <g>
       <use style="stroke:#000000;stroke-width:0.8;" x="64.115682" xlink:href="#m92bc02f215" y="188.4375"/>
      </g>
     </g>
     <g id="text_1">
      <!-- 0 -->
      <defs>
       <path d="M 31.78125 66.40625 
Q 24.171875 66.40625 20.328125 58.90625 
Q 16.5 51.421875 16.5 36.375 
Q 16.5 21.390625 20.328125 13.890625 
Q 24.171875 6.390625 31.78125 6.390625 
Q 39.453125 6.390625 43.28125 13.890625 
Q 47.125 21.390625 47.125 36.375 
Q 47.125 51.421875 43.28125 58.90625 
Q 39.453125 66.40625 31.78125 66.40625 
z
M 31.78125 74.21875 
Q 44.046875 74.21875 50.515625 64.515625 
Q 56.984375 54.828125 56.984375 36.375 
Q 56.984375 17.96875 50.515625 8.265625 
Q 44.046875 -1.421875 31.78125 -1.421875 
Q 19.53125 -1.421875 13.0625 8.265625 
Q 6.59375 17.96875 6.59375 36.375 
Q 6.59375 54.828125 13.0625 64.515625 
Q 19.53125 74.21875 31.78125 74.21875 
z
" id="DejaVuSans-48"/>
      </defs>
      <g transform="translate(60.298182 204.555625)scale(0.12 -0.12)">
       <use xlink:href="#DejaVuSans-48"/>
      </g>
     </g>
    </g>
    <g id="xtick_2">
     <g id="line2d_2">
      <g>
       <use style="stroke:#000000;stroke-width:0.8;" x="136.583214" xlink:href="#m92bc02f215" y="188.4375"/>
      </g>
     </g>
     <g id="text_2">
      <!-- 20 -->
      <defs>
       <path d="M 19.1875 8.296875 
L 53.609375 8.296875 
L 53.609375 0 
L 7.328125 0 
L 7.328125 8.296875 
Q 12.9375 14.109375 22.625 23.890625 
Q 32.328125 33.6875 34.8125 36.53125 
Q 39.546875 41.84375 41.421875 45.53125 
Q 43.3125 49.21875 43.3125 52.78125 
Q 43.3125 58.59375 39.234375 62.25 
Q 35.15625 65.921875 28.609375 65.921875 
Q 23.96875 65.921875 18.8125 64.3125 
Q 13.671875 62.703125 7.8125 59.421875 
L 7.8125 69.390625 
Q 13.765625 71.78125 18.9375 73 
Q 24.125 74.21875 28.421875 74.21875 
Q 39.75 74.21875 46.484375 68.546875 
Q 53.21875 62.890625 53.21875 53.421875 
Q 53.21875 48.921875 51.53125 44.890625 
Q 49.859375 40.875 45.40625 35.40625 
Q 44.1875 33.984375 37.640625 27.21875 
Q 31.109375 20.453125 19.1875 8.296875 
z
" id="DejaVuSans-50"/>
      </defs>
      <g transform="translate(128.948214 204.555625)scale(0.12 -0.12)">
       <use xlink:href="#DejaVuSans-50"/>
       <use x="63.623047" xlink:href="#DejaVuSans-48"/>
      </g>
     </g>
    </g>
    <g id="xtick_3">
     <g id="line2d_3">
      <g>
       <use style="stroke:#000000;stroke-width:0.8;" x="209.050747" xlink:href="#m92bc02f215" y="188.4375"/>
      </g>
     </g>
     <g id="text_3">
      <!-- 40 -->
      <defs>
       <path d="M 37.796875 64.3125 
L 12.890625 25.390625 
L 37.796875 25.390625 
z
M 35.203125 72.90625 
L 47.609375 72.90625 
L 47.609375 25.390625 
L 58.015625 25.390625 
L 58.015625 17.1875 
L 47.609375 17.1875 
L 47.609375 0 
L 37.796875 0 
L 37.796875 17.1875 
L 4.890625 17.1875 
L 4.890625 26.703125 
z
" id="DejaVuSans-52"/>
      </defs>
      <g transform="translate(201.415747 204.555625)scale(0.12 -0.12)">
       <use xlink:href="#DejaVuSans-52"/>
       <use x="63.623047" xlink:href="#DejaVuSans-48"/>
      </g>
     </g>
    </g>
    <g id="xtick_4">
     <g id="line2d_4">
      <g>
       <use style="stroke:#000000;stroke-width:0.8;" x="281.518279" xlink:href="#m92bc02f215" y="188.4375"/>
      </g>
     </g>
     <g id="text_4">
      <!-- 60 -->
      <defs>
       <path d="M 33.015625 40.375 
Q 26.375 40.375 22.484375 35.828125 
Q 18.609375 31.296875 18.609375 23.390625 
Q 18.609375 15.53125 22.484375 10.953125 
Q 26.375 6.390625 33.015625 6.390625 
Q 39.65625 6.390625 43.53125 10.953125 
Q 47.40625 15.53125 47.40625 23.390625 
Q 47.40625 31.296875 43.53125 35.828125 
Q 39.65625 40.375 33.015625 40.375 
z
M 52.59375 71.296875 
L 52.59375 62.3125 
Q 48.875 64.0625 45.09375 64.984375 
Q 41.3125 65.921875 37.59375 65.921875 
Q 27.828125 65.921875 22.671875 59.328125 
Q 17.53125 52.734375 16.796875 39.40625 
Q 19.671875 43.65625 24.015625 45.921875 
Q 28.375 48.1875 33.59375 48.1875 
Q 44.578125 48.1875 50.953125 41.515625 
Q 57.328125 34.859375 57.328125 23.390625 
Q 57.328125 12.15625 50.6875 5.359375 
Q 44.046875 -1.421875 33.015625 -1.421875 
Q 20.359375 -1.421875 13.671875 8.265625 
Q 6.984375 17.96875 6.984375 36.375 
Q 6.984375 53.65625 15.1875 63.9375 
Q 23.390625 74.21875 37.203125 74.21875 
Q 40.921875 74.21875 44.703125 73.484375 
Q 48.484375 72.75 52.59375 71.296875 
z
" id="DejaVuSans-54"/>
      </defs>
      <g transform="translate(273.883279 204.555625)scale(0.12 -0.12)">
       <use xlink:href="#DejaVuSans-54"/>
       <use x="63.623047" xlink:href="#DejaVuSans-48"/>
      </g>
     </g>
    </g>
    <g id="xtick_5">
     <g id="line2d_5">
      <g>
       <use style="stroke:#000000;stroke-width:0.8;" x="353.985812" xlink:href="#m92bc02f215" y="188.4375"/>
      </g>
     </g>
     <g id="text_5">
      <!-- 80 -->
      <defs>
       <path d="M 31.78125 34.625 
Q 24.75 34.625 20.71875 30.859375 
Q 16.703125 27.09375 16.703125 20.515625 
Q 16.703125 13.921875 20.71875 10.15625 
Q 24.75 6.390625 31.78125 6.390625 
Q 38.8125 6.390625 42.859375 10.171875 
Q 46.921875 13.96875 46.921875 20.515625 
Q 46.921875 27.09375 42.890625 30.859375 
Q 38.875 34.625 31.78125 34.625 
z
M 21.921875 38.8125 
Q 15.578125 40.375 12.03125 44.71875 
Q 8.5 49.078125 8.5 55.328125 
Q 8.5 64.0625 14.71875 69.140625 
Q 20.953125 74.21875 31.78125 74.21875 
Q 42.671875 74.21875 48.875 69.140625 
Q 55.078125 64.0625 55.078125 55.328125 
Q 55.078125 49.078125 51.53125 44.71875 
Q 48 40.375 41.703125 38.8125 
Q 48.828125 37.15625 52.796875 32.3125 
Q 56.78125 27.484375 56.78125 20.515625 
Q 56.78125 9.90625 50.3125 4.234375 
Q 43.84375 -1.421875 31.78125 -1.421875 
Q 19.734375 -1.421875 13.25 4.234375 
Q 6.78125 9.90625 6.78125 20.515625 
Q 6.78125 27.484375 10.78125 32.3125 
Q 14.796875 37.15625 21.921875 38.8125 
z
M 18.3125 54.390625 
Q 18.3125 48.734375 21.84375 45.5625 
Q 25.390625 42.390625 31.78125 42.390625 
Q 38.140625 42.390625 41.71875 45.5625 
Q 45.3125 48.734375 45.3125 54.390625 
Q 45.3125 60.0625 41.71875 63.234375 
Q 38.140625 66.40625 31.78125 66.40625 
Q 25.390625 66.40625 21.84375 63.234375 
Q 18.3125 60.0625 18.3125 54.390625 
z
" id="DejaVuSans-56"/>
      </defs>
      <g transform="translate(346.350812 204.555625)scale(0.12 -0.12)">
       <use xlink:href="#DejaVuSans-56"/>
       <use x="63.623047" xlink:href="#DejaVuSans-48"/>
      </g>
     </g>
    </g>
    <g id="text_6">
     <!-- Epoch -->
     <defs>
      <path d="M 9.8125 72.90625 
L 55.90625 72.90625 
L 55.90625 64.59375 
L 19.671875 64.59375 
L 19.671875 43.015625 
L 54.390625 43.015625 
L 54.390625 34.71875 
L 19.671875 34.71875 
L 19.671875 8.296875 
L 56.78125 8.296875 
L 56.78125 0 
L 9.8125 0 
z
" id="DejaVuSans-69"/>
      <path d="M 18.109375 8.203125 
L 18.109375 -20.796875 
L 9.078125 -20.796875 
L 9.078125 54.6875 
L 18.109375 54.6875 
L 18.109375 46.390625 
Q 20.953125 51.265625 25.265625 53.625 
Q 29.59375 56 35.59375 56 
Q 45.5625 56 51.78125 48.09375 
Q 58.015625 40.1875 58.015625 27.296875 
Q 58.015625 14.40625 51.78125 6.484375 
Q 45.5625 -1.421875 35.59375 -1.421875 
Q 29.59375 -1.421875 25.265625 0.953125 
Q 20.953125 3.328125 18.109375 8.203125 
z
M 48.6875 27.296875 
Q 48.6875 37.203125 44.609375 42.84375 
Q 40.53125 48.484375 33.40625 48.484375 
Q 26.265625 48.484375 22.1875 42.84375 
Q 18.109375 37.203125 18.109375 27.296875 
Q 18.109375 17.390625 22.1875 11.75 
Q 26.265625 6.109375 33.40625 6.109375 
Q 40.53125 6.109375 44.609375 11.75 
Q 48.6875 17.390625 48.6875 27.296875 
z
" id="DejaVuSans-112"/>
      <path d="M 30.609375 48.390625 
Q 23.390625 48.390625 19.1875 42.75 
Q 14.984375 37.109375 14.984375 27.296875 
Q 14.984375 17.484375 19.15625 11.84375 
Q 23.34375 6.203125 30.609375 6.203125 
Q 37.796875 6.203125 41.984375 11.859375 
Q 46.1875 17.53125 46.1875 27.296875 
Q 46.1875 37.015625 41.984375 42.703125 
Q 37.796875 48.390625 30.609375 48.390625 
z
M 30.609375 56 
Q 42.328125 56 49.015625 48.375 
Q 55.71875 40.765625 55.71875 27.296875 
Q 55.71875 13.875 49.015625 6.21875 
Q 42.328125 -1.421875 30.609375 -1.421875 
Q 18.84375 -1.421875 12.171875 6.21875 
Q 5.515625 13.875 5.515625 27.296875 
Q 5.515625 40.765625 12.171875 48.375 
Q 18.84375 56 30.609375 56 
z
" id="DejaVuSans-111"/>
      <path d="M 48.78125 52.59375 
L 48.78125 44.1875 
Q 44.96875 46.296875 41.140625 47.34375 
Q 37.3125 48.390625 33.40625 48.390625 
Q 24.65625 48.390625 19.8125 42.84375 
Q 14.984375 37.3125 14.984375 27.296875 
Q 14.984375 17.28125 19.8125 11.734375 
Q 24.65625 6.203125 33.40625 6.203125 
Q 37.3125 6.203125 41.140625 7.25 
Q 44.96875 8.296875 48.78125 10.40625 
L 48.78125 2.09375 
Q 45.015625 0.34375 40.984375 -0.53125 
Q 36.96875 -1.421875 32.421875 -1.421875 
Q 20.0625 -1.421875 12.78125 6.34375 
Q 5.515625 14.109375 5.515625 27.296875 
Q 5.515625 40.671875 12.859375 48.328125 
Q 20.21875 56 33.015625 56 
Q 37.15625 56 41.109375 55.140625 
Q 45.0625 54.296875 48.78125 52.59375 
z
" id="DejaVuSans-99"/>
      <path d="M 54.890625 33.015625 
L 54.890625 0 
L 45.90625 0 
L 45.90625 32.71875 
Q 45.90625 40.484375 42.875 44.328125 
Q 39.84375 48.1875 33.796875 48.1875 
Q 26.515625 48.1875 22.3125 43.546875 
Q 18.109375 38.921875 18.109375 30.90625 
L 18.109375 0 
L 9.078125 0 
L 9.078125 75.984375 
L 18.109375 75.984375 
L 18.109375 46.1875 
Q 21.34375 51.125 25.703125 53.5625 
Q 30.078125 56 35.796875 56 
Q 45.21875 56 50.046875 50.171875 
Q 54.890625 44.34375 54.890625 33.015625 
z
" id="DejaVuSans-104"/>
     </defs>
     <g transform="translate(197.924375 220.169375)scale(0.12 -0.12)">
      <use xlink:href="#DejaVuSans-69"/>
      <use x="63.183594" xlink:href="#DejaVuSans-112"/>
      <use x="126.660156" xlink:href="#DejaVuSans-111"/>
      <use x="187.841797" xlink:href="#DejaVuSans-99"/>
      <use x="242.822266" xlink:href="#DejaVuSans-104"/>
     </g>
    </g>
   </g>
   <g id="matplotlib.axis_2">
    <g id="ytick_1">
     <g id="line2d_6">
      <defs>
       <path d="M 0 0 
L -3.5 0 
" id="m6eadf5e57c" style="stroke:#000000;stroke-width:0.8;"/>
      </defs>
      <g>
       <use style="stroke:#000000;stroke-width:0.8;" x="48.8975" xlink:href="#m6eadf5e57c" y="183.176855"/>
      </g>
     </g>
     <g id="text_7">
      <!-- 0.0 -->
      <defs>
       <path d="M 10.6875 12.40625 
L 21 12.40625 
L 21 0 
L 10.6875 0 
z
" id="DejaVuSans-46"/>
      </defs>
      <g transform="translate(22.81375 187.735917)scale(0.12 -0.12)">
       <use xlink:href="#DejaVuSans-48"/>
       <use x="63.623047" xlink:href="#DejaVuSans-46"/>
       <use x="95.410156" xlink:href="#DejaVuSans-48"/>
      </g>
     </g>
    </g>
    <g id="ytick_2">
     <g id="line2d_7">
      <g>
       <use style="stroke:#000000;stroke-width:0.8;" x="48.8975" xlink:href="#m6eadf5e57c" y="130.570403"/>
      </g>
     </g>
     <g id="text_8">
      <!-- 0.5 -->
      <defs>
       <path d="M 10.796875 72.90625 
L 49.515625 72.90625 
L 49.515625 64.59375 
L 19.828125 64.59375 
L 19.828125 46.734375 
Q 21.96875 47.46875 24.109375 47.828125 
Q 26.265625 48.1875 28.421875 48.1875 
Q 40.625 48.1875 47.75 41.5 
Q 54.890625 34.8125 54.890625 23.390625 
Q 54.890625 11.625 47.5625 5.09375 
Q 40.234375 -1.421875 26.90625 -1.421875 
Q 22.3125 -1.421875 17.546875 -0.640625 
Q 12.796875 0.140625 7.71875 1.703125 
L 7.71875 11.625 
Q 12.109375 9.234375 16.796875 8.0625 
Q 21.484375 6.890625 26.703125 6.890625 
Q 35.15625 6.890625 40.078125 11.328125 
Q 45.015625 15.765625 45.015625 23.390625 
Q 45.015625 31 40.078125 35.4375 
Q 35.15625 39.890625 26.703125 39.890625 
Q 22.75 39.890625 18.8125 39.015625 
Q 14.890625 38.140625 10.796875 36.28125 
z
" id="DejaVuSans-53"/>
      </defs>
      <g transform="translate(22.81375 135.129466)scale(0.12 -0.12)">
       <use xlink:href="#DejaVuSans-48"/>
       <use x="63.623047" xlink:href="#DejaVuSans-46"/>
       <use x="95.410156" xlink:href="#DejaVuSans-53"/>
      </g>
     </g>
    </g>
    <g id="ytick_3">
     <g id="line2d_8">
      <g>
       <use style="stroke:#000000;stroke-width:0.8;" x="48.8975" xlink:href="#m6eadf5e57c" y="77.963952"/>
      </g>
     </g>
     <g id="text_9">
      <!-- 1.0 -->
      <defs>
       <path d="M 12.40625 8.296875 
L 28.515625 8.296875 
L 28.515625 63.921875 
L 10.984375 60.40625 
L 10.984375 69.390625 
L 28.421875 72.90625 
L 38.28125 72.90625 
L 38.28125 8.296875 
L 54.390625 8.296875 
L 54.390625 0 
L 12.40625 0 
z
" id="DejaVuSans-49"/>
      </defs>
      <g transform="translate(22.81375 82.523014)scale(0.12 -0.12)">
       <use xlink:href="#DejaVuSans-49"/>
       <use x="63.623047" xlink:href="#DejaVuSans-46"/>
       <use x="95.410156" xlink:href="#DejaVuSans-48"/>
      </g>
     </g>
    </g>
    <g id="ytick_4">
     <g id="line2d_9">
      <g>
       <use style="stroke:#000000;stroke-width:0.8;" x="48.8975" xlink:href="#m6eadf5e57c" y="25.3575"/>
      </g>
     </g>
     <g id="text_10">
      <!-- 1.5 -->
      <g transform="translate(22.81375 29.916562)scale(0.12 -0.12)">
       <use xlink:href="#DejaVuSans-49"/>
       <use x="63.623047" xlink:href="#DejaVuSans-46"/>
       <use x="95.410156" xlink:href="#DejaVuSans-53"/>
      </g>
     </g>
    </g>
    <g id="text_11">
     <!-- Categorisation loss -->
     <defs>
      <path d="M 64.40625 67.28125 
L 64.40625 56.890625 
Q 59.421875 61.53125 53.78125 63.8125 
Q 48.140625 66.109375 41.796875 66.109375 
Q 29.296875 66.109375 22.65625 58.46875 
Q 16.015625 50.828125 16.015625 36.375 
Q 16.015625 21.96875 22.65625 14.328125 
Q 29.296875 6.6875 41.796875 6.6875 
Q 48.140625 6.6875 53.78125 8.984375 
Q 59.421875 11.28125 64.40625 15.921875 
L 64.40625 5.609375 
Q 59.234375 2.09375 53.4375 0.328125 
Q 47.65625 -1.421875 41.21875 -1.421875 
Q 24.65625 -1.421875 15.125 8.703125 
Q 5.609375 18.84375 5.609375 36.375 
Q 5.609375 53.953125 15.125 64.078125 
Q 24.65625 74.21875 41.21875 74.21875 
Q 47.75 74.21875 53.53125 72.484375 
Q 59.328125 70.75 64.40625 67.28125 
z
" id="DejaVuSans-67"/>
      <path d="M 34.28125 27.484375 
Q 23.390625 27.484375 19.1875 25 
Q 14.984375 22.515625 14.984375 16.5 
Q 14.984375 11.71875 18.140625 8.90625 
Q 21.296875 6.109375 26.703125 6.109375 
Q 34.1875 6.109375 38.703125 11.40625 
Q 43.21875 16.703125 43.21875 25.484375 
L 43.21875 27.484375 
z
M 52.203125 31.203125 
L 52.203125 0 
L 43.21875 0 
L 43.21875 8.296875 
Q 40.140625 3.328125 35.546875 0.953125 
Q 30.953125 -1.421875 24.3125 -1.421875 
Q 15.921875 -1.421875 10.953125 3.296875 
Q 6 8.015625 6 15.921875 
Q 6 25.140625 12.171875 29.828125 
Q 18.359375 34.515625 30.609375 34.515625 
L 43.21875 34.515625 
L 43.21875 35.40625 
Q 43.21875 41.609375 39.140625 45 
Q 35.0625 48.390625 27.6875 48.390625 
Q 23 48.390625 18.546875 47.265625 
Q 14.109375 46.140625 10.015625 43.890625 
L 10.015625 52.203125 
Q 14.9375 54.109375 19.578125 55.046875 
Q 24.21875 56 28.609375 56 
Q 40.484375 56 46.34375 49.84375 
Q 52.203125 43.703125 52.203125 31.203125 
z
" id="DejaVuSans-97"/>
      <path d="M 18.3125 70.21875 
L 18.3125 54.6875 
L 36.8125 54.6875 
L 36.8125 47.703125 
L 18.3125 47.703125 
L 18.3125 18.015625 
Q 18.3125 11.328125 20.140625 9.421875 
Q 21.96875 7.515625 27.59375 7.515625 
L 36.8125 7.515625 
L 36.8125 0 
L 27.59375 0 
Q 17.1875 0 13.234375 3.875 
Q 9.28125 7.765625 9.28125 18.015625 
L 9.28125 47.703125 
L 2.6875 47.703125 
L 2.6875 54.6875 
L 9.28125 54.6875 
L 9.28125 70.21875 
z
" id="DejaVuSans-116"/>
      <path d="M 56.203125 29.59375 
L 56.203125 25.203125 
L 14.890625 25.203125 
Q 15.484375 15.921875 20.484375 11.0625 
Q 25.484375 6.203125 34.421875 6.203125 
Q 39.59375 6.203125 44.453125 7.46875 
Q 49.3125 8.734375 54.109375 11.28125 
L 54.109375 2.78125 
Q 49.265625 0.734375 44.1875 -0.34375 
Q 39.109375 -1.421875 33.890625 -1.421875 
Q 20.796875 -1.421875 13.15625 6.1875 
Q 5.515625 13.8125 5.515625 26.8125 
Q 5.515625 40.234375 12.765625 48.109375 
Q 20.015625 56 32.328125 56 
Q 43.359375 56 49.78125 48.890625 
Q 56.203125 41.796875 56.203125 29.59375 
z
M 47.21875 32.234375 
Q 47.125 39.59375 43.09375 43.984375 
Q 39.0625 48.390625 32.421875 48.390625 
Q 24.90625 48.390625 20.390625 44.140625 
Q 15.875 39.890625 15.1875 32.171875 
z
" id="DejaVuSans-101"/>
      <path d="M 45.40625 27.984375 
Q 45.40625 37.75 41.375 43.109375 
Q 37.359375 48.484375 30.078125 48.484375 
Q 22.859375 48.484375 18.828125 43.109375 
Q 14.796875 37.75 14.796875 27.984375 
Q 14.796875 18.265625 18.828125 12.890625 
Q 22.859375 7.515625 30.078125 7.515625 
Q 37.359375 7.515625 41.375 12.890625 
Q 45.40625 18.265625 45.40625 27.984375 
z
M 54.390625 6.78125 
Q 54.390625 -7.171875 48.1875 -13.984375 
Q 42 -20.796875 29.203125 -20.796875 
Q 24.46875 -20.796875 20.265625 -20.09375 
Q 16.0625 -19.390625 12.109375 -17.921875 
L 12.109375 -9.1875 
Q 16.0625 -11.328125 19.921875 -12.34375 
Q 23.78125 -13.375 27.78125 -13.375 
Q 36.625 -13.375 41.015625 -8.765625 
Q 45.40625 -4.15625 45.40625 5.171875 
L 45.40625 9.625 
Q 42.625 4.78125 38.28125 2.390625 
Q 33.9375 0 27.875 0 
Q 17.828125 0 11.671875 7.65625 
Q 5.515625 15.328125 5.515625 27.984375 
Q 5.515625 40.671875 11.671875 48.328125 
Q 17.828125 56 27.875 56 
Q 33.9375 56 38.28125 53.609375 
Q 42.625 51.21875 45.40625 46.390625 
L 45.40625 54.6875 
L 54.390625 54.6875 
z
" id="DejaVuSans-103"/>
      <path d="M 41.109375 46.296875 
Q 39.59375 47.171875 37.8125 47.578125 
Q 36.03125 48 33.890625 48 
Q 26.265625 48 22.1875 43.046875 
Q 18.109375 38.09375 18.109375 28.8125 
L 18.109375 0 
L 9.078125 0 
L 9.078125 54.6875 
L 18.109375 54.6875 
L 18.109375 46.1875 
Q 20.953125 51.171875 25.484375 53.578125 
Q 30.03125 56 36.53125 56 
Q 37.453125 56 38.578125 55.875 
Q 39.703125 55.765625 41.0625 55.515625 
z
" id="DejaVuSans-114"/>
      <path d="M 9.421875 54.6875 
L 18.40625 54.6875 
L 18.40625 0 
L 9.421875 0 
z
M 9.421875 75.984375 
L 18.40625 75.984375 
L 18.40625 64.59375 
L 9.421875 64.59375 
z
" id="DejaVuSans-105"/>
      <path d="M 44.28125 53.078125 
L 44.28125 44.578125 
Q 40.484375 46.53125 36.375 47.5 
Q 32.28125 48.484375 27.875 48.484375 
Q 21.1875 48.484375 17.84375 46.4375 
Q 14.5 44.390625 14.5 40.28125 
Q 14.5 37.15625 16.890625 35.375 
Q 19.28125 33.59375 26.515625 31.984375 
L 29.59375 31.296875 
Q 39.15625 29.25 43.1875 25.515625 
Q 47.21875 21.78125 47.21875 15.09375 
Q 47.21875 7.46875 41.1875 3.015625 
Q 35.15625 -1.421875 24.609375 -1.421875 
Q 20.21875 -1.421875 15.453125 -0.5625 
Q 10.6875 0.296875 5.421875 2 
L 5.421875 11.28125 
Q 10.40625 8.6875 15.234375 7.390625 
Q 20.0625 6.109375 24.8125 6.109375 
Q 31.15625 6.109375 34.5625 8.28125 
Q 37.984375 10.453125 37.984375 14.40625 
Q 37.984375 18.0625 35.515625 20.015625 
Q 33.0625 21.96875 24.703125 23.78125 
L 21.578125 24.515625 
Q 13.234375 26.265625 9.515625 29.90625 
Q 5.8125 33.546875 5.8125 39.890625 
Q 5.8125 47.609375 11.28125 51.796875 
Q 16.75 56 26.8125 56 
Q 31.78125 56 36.171875 55.265625 
Q 40.578125 54.546875 44.28125 53.078125 
z
" id="DejaVuSans-115"/>
      <path d="M 54.890625 33.015625 
L 54.890625 0 
L 45.90625 0 
L 45.90625 32.71875 
Q 45.90625 40.484375 42.875 44.328125 
Q 39.84375 48.1875 33.796875 48.1875 
Q 26.515625 48.1875 22.3125 43.546875 
Q 18.109375 38.921875 18.109375 30.90625 
L 18.109375 0 
L 9.078125 0 
L 9.078125 54.6875 
L 18.109375 54.6875 
L 18.109375 46.1875 
Q 21.34375 51.125 25.703125 53.5625 
Q 30.078125 56 35.796875 56 
Q 45.21875 56 50.046875 50.171875 
Q 54.890625 44.34375 54.890625 33.015625 
z
" id="DejaVuSans-110"/>
      <path id="DejaVuSans-32"/>
      <path d="M 9.421875 75.984375 
L 18.40625 75.984375 
L 18.40625 0 
L 9.421875 0 
z
" id="DejaVuSans-108"/>
     </defs>
     <g transform="translate(16.318125 164.213437)rotate(-90)scale(0.12 -0.12)">
      <use xlink:href="#DejaVuSans-67"/>
      <use x="69.824219" xlink:href="#DejaVuSans-97"/>
      <use x="131.103516" xlink:href="#DejaVuSans-116"/>
      <use x="170.3125" xlink:href="#DejaVuSans-101"/>
      <use x="231.835938" xlink:href="#DejaVuSans-103"/>
      <use x="295.3125" xlink:href="#DejaVuSans-111"/>
      <use x="356.494141" xlink:href="#DejaVuSans-114"/>
      <use x="397.607422" xlink:href="#DejaVuSans-105"/>
      <use x="425.390625" xlink:href="#DejaVuSans-115"/>
      <use x="477.490234" xlink:href="#DejaVuSans-97"/>
      <use x="538.769531" xlink:href="#DejaVuSans-116"/>
      <use x="577.978516" xlink:href="#DejaVuSans-105"/>
      <use x="605.761719" xlink:href="#DejaVuSans-111"/>
      <use x="666.943359" xlink:href="#DejaVuSans-110"/>
      <use x="730.322266" xlink:href="#DejaVuSans-32"/>
      <use x="762.109375" xlink:href="#DejaVuSans-108"/>
      <use x="789.892578" xlink:href="#DejaVuSans-111"/>
      <use x="851.074219" xlink:href="#DejaVuSans-115"/>
      <use x="903.173828" xlink:href="#DejaVuSans-115"/>
     </g>
    </g>
   </g>
   <g id="line2d_10">
    <path clip-path="url(#p1095e20997)" d="M 64.115682 183.176855 
L 368.479318 183.176855 
" style="fill:none;stroke:#000000;stroke-linecap:square;stroke-opacity:0.8;stroke-width:1.5;"/>
   </g>
   <g id="line2d_11">
    <path clip-path="url(#p1095e20997)" d="M 64.115682 64.847029 
L 368.479318 64.847029 
" style="fill:none;stroke:#000000;stroke-linecap:square;stroke-opacity:0.8;stroke-width:1.5;"/>
   </g>
   <g id="line2d_12">
    <path clip-path="url(#p1095e20997)" d="M 64.115682 64.565579 
L 67.739058 64.549034 
L 71.362435 64.560226 
L 74.985812 64.570388 
L 78.609188 64.579455 
L 82.232565 64.587567 
L 85.855942 64.594879 
L 89.479318 64.602649 
L 93.102695 64.607314 
L 96.726071 64.612965 
L 100.349448 64.617872 
L 103.972825 64.622222 
L 107.596201 64.626331 
L 111.219578 64.630031 
L 114.842955 64.63367 
L 118.466331 64.636719 
L 122.089708 64.639576 
L 125.713084 64.642056 
L 129.336461 64.644664 
L 132.959838 64.647129 
L 136.583214 64.649171 
L 140.206591 64.651159 
L 143.829968 64.652871 
L 147.453344 64.654434 
L 151.076721 64.655966 
L 154.700097 64.658952 
L 158.323474 64.658703 
L 161.946851 64.658021 
L 165.570227 64.660159 
L 169.193604 64.661173 
L 172.816981 64.662216 
L 176.440357 64.663116 
L 180.063734 64.663379 
L 183.68711 64.664637 
L 187.310487 64.66556 
L 190.933864 64.666388 
L 194.55724 64.667215 
L 198.180617 64.667786 
L 201.803994 64.66796 
L 205.42737 64.668394 
L 209.050747 64.668676 
L 212.674123 64.668825 
L 216.2975 64.668905 
L 219.920877 64.66919 
L 223.544253 64.670715 
L 227.16763 64.669445 
L 230.791006 64.669076 
L 234.414383 64.669218 
L 238.03776 64.668724 
L 241.661136 64.670197 
L 245.284513 64.670349 
L 248.90789 64.671015 
L 252.531266 64.670841 
L 256.154643 64.671078 
L 259.778019 64.67099 
L 263.401396 64.671526 
L 267.024773 64.671689 
L 270.648149 64.672262 
L 274.271526 64.672171 
L 277.894903 64.673716 
L 281.518279 64.67412 
L 285.141656 64.67387 
L 288.765032 64.673242 
L 292.388409 64.672991 
L 296.011786 64.672335 
L 299.635162 64.672388 
L 303.258539 64.672192 
L 306.881916 64.672897 
L 310.505292 64.672551 
L 314.128669 64.672461 
L 317.752045 64.67264 
L 321.375422 64.672416 
L 324.998799 64.672464 
L 328.622175 64.672483 
L 332.245552 64.672728 
L 335.868929 64.672517 
L 339.492305 64.672424 
L 343.115682 64.671467 
L 346.739058 64.669541 
L 350.362435 64.669785 
" style="fill:none;stroke:#cf8f17;stroke-linecap:square;stroke-width:5;"/>
   </g>
   <g id="line2d_13">
    <path clip-path="url(#p1095e20997)" d="M 64.115682 64.511311 
L 67.739058 64.483355 
L 71.362435 64.500747 
L 74.985812 64.539278 
L 78.609188 64.563332 
L 82.232565 64.563095 
L 85.855942 64.638107 
L 89.479318 64.654676 
L 93.102695 64.751838 
L 96.726071 64.944659 
L 100.349448 65.517338 
L 103.972825 68.094812 
L 107.596201 73.162529 
L 111.219578 76.024698 
L 114.842955 79.945508 
L 118.466331 86.318232 
L 122.089708 97.69399 
L 125.713084 108.249302 
L 129.336461 121.46219 
L 132.959838 129.350175 
L 136.583214 137.267689 
L 140.206591 143.591832 
L 143.829968 147.470936 
L 147.453344 151.068629 
L 151.076721 154.830634 
L 154.700097 157.310108 
L 158.323474 160.035539 
L 161.946851 156.738897 
L 165.570227 161.6957 
L 169.193604 162.116752 
L 172.816981 157.085724 
L 176.440357 149.17657 
L 180.063734 155.192334 
L 183.68711 159.81964 
L 187.310487 157.414005 
L 190.933864 159.701674 
L 194.55724 162.703574 
L 198.180617 164.713664 
L 201.803994 165.623204 
L 205.42737 165.858918 
L 209.050747 166.057956 
L 212.674123 166.05024 
L 216.2975 166.324832 
L 219.920877 166.337692 
L 223.544253 166.472364 
L 227.16763 166.489918 
L 230.791006 166.44983 
L 234.414383 166.477678 
L 238.03776 166.602899 
L 241.661136 166.841313 
L 245.284513 159.100355 
L 248.90789 165.808192 
L 252.531266 168.47441 
L 256.154643 169.277047 
L 259.778019 169.357971 
L 263.401396 169.357988 
L 267.024773 170.555785 
L 270.648149 171.042559 
L 274.271526 171.307712 
L 277.894903 171.319229 
L 281.518279 171.436942 
L 285.141656 171.195427 
L 288.765032 171.225236 
L 292.388409 171.429877 
L 296.011786 171.301465 
L 299.635162 171.169353 
L 303.258539 171.396057 
L 306.881916 171.338523 
L 310.505292 164.354939 
L 314.128669 169.329908 
L 317.752045 166.893025 
L 321.375422 171.107526 
L 324.998799 170.934988 
L 328.622175 171.126906 
L 332.245552 171.468984 
L 335.868929 171.34929 
L 339.492305 171.488942 
L 343.115682 171.411387 
L 346.739058 171.577312 
L 350.362435 171.460995 
" style="fill:none;stroke:#499ad7;stroke-linecap:square;stroke-width:5;"/>
   </g>
   <g id="patch_5">
    <path d="M 48.8975 188.4375 
L 48.8975 25.3575 
" style="fill:none;stroke:#000000;stroke-linecap:square;stroke-linejoin:miter;stroke-width:0.8;"/>
   </g>
   <g id="patch_6">
    <path d="M 48.8975 188.4375 
L 383.6975 188.4375 
" style="fill:none;stroke:#000000;stroke-linecap:square;stroke-linejoin:miter;stroke-width:0.8;"/>
   </g>
   <g id="text_12">
    <!-- optimal -->
    <defs>
     <path d="M 52 44.1875 
Q 55.375 50.25 60.0625 53.125 
Q 64.75 56 71.09375 56 
Q 79.640625 56 84.28125 50.015625 
Q 88.921875 44.046875 88.921875 33.015625 
L 88.921875 0 
L 79.890625 0 
L 79.890625 32.71875 
Q 79.890625 40.578125 77.09375 44.375 
Q 74.3125 48.1875 68.609375 48.1875 
Q 61.625 48.1875 57.5625 43.546875 
Q 53.515625 38.921875 53.515625 30.90625 
L 53.515625 0 
L 44.484375 0 
L 44.484375 32.71875 
Q 44.484375 40.625 41.703125 44.40625 
Q 38.921875 48.1875 33.109375 48.1875 
Q 26.21875 48.1875 22.15625 43.53125 
Q 18.109375 38.875 18.109375 30.90625 
L 18.109375 0 
L 9.078125 0 
L 9.078125 54.6875 
L 18.109375 54.6875 
L 18.109375 46.1875 
Q 21.1875 51.21875 25.484375 53.609375 
Q 29.78125 56 35.6875 56 
Q 41.65625 56 45.828125 52.96875 
Q 50 49.953125 52 44.1875 
z
" id="DejaVuSans-109"/>
    </defs>
    <g transform="translate(372.102695 183.176855)scale(0.16 -0.16)">
     <use xlink:href="#DejaVuSans-111"/>
     <use x="61.181641" xlink:href="#DejaVuSans-112"/>
     <use x="124.658203" xlink:href="#DejaVuSans-116"/>
     <use x="163.867188" xlink:href="#DejaVuSans-105"/>
     <use x="191.650391" xlink:href="#DejaVuSans-109"/>
     <use x="289.0625" xlink:href="#DejaVuSans-97"/>
     <use x="350.341797" xlink:href="#DejaVuSans-108"/>
    </g>
   </g>
   <g id="text_13">
    <!-- naive -->
    <defs>
     <path d="M 2.984375 54.6875 
L 12.5 54.6875 
L 29.59375 8.796875 
L 46.6875 54.6875 
L 56.203125 54.6875 
L 35.6875 0 
L 23.484375 0 
z
" id="DejaVuSans-118"/>
    </defs>
    <g transform="translate(372.102695 64.847029)scale(0.16 -0.16)">
     <use xlink:href="#DejaVuSans-110"/>
     <use x="63.378906" xlink:href="#DejaVuSans-97"/>
     <use x="124.658203" xlink:href="#DejaVuSans-105"/>
     <use x="152.441406" xlink:href="#DejaVuSans-118"/>
     <use x="211.621094" xlink:href="#DejaVuSans-101"/>
    </g>
   </g>
   <g id="text_14">
    <!-- eavesdropping -->
    <defs>
     <path d="M 45.40625 46.390625 
L 45.40625 75.984375 
L 54.390625 75.984375 
L 54.390625 0 
L 45.40625 0 
L 45.40625 8.203125 
Q 42.578125 3.328125 38.25 0.953125 
Q 33.9375 -1.421875 27.875 -1.421875 
Q 17.96875 -1.421875 11.734375 6.484375 
Q 5.515625 14.40625 5.515625 27.296875 
Q 5.515625 40.1875 11.734375 48.09375 
Q 17.96875 56 27.875 56 
Q 33.9375 56 38.25 53.625 
Q 42.578125 51.265625 45.40625 46.390625 
z
M 14.796875 27.296875 
Q 14.796875 17.390625 18.875 11.75 
Q 22.953125 6.109375 30.078125 6.109375 
Q 37.203125 6.109375 41.296875 11.75 
Q 45.40625 17.390625 45.40625 27.296875 
Q 45.40625 37.203125 41.296875 42.84375 
Q 37.203125 48.484375 30.078125 48.484375 
Q 22.953125 48.484375 18.875 42.84375 
Q 14.796875 37.203125 14.796875 27.296875 
z
" id="DejaVuSans-100"/>
    </defs>
    <g transform="translate(324.998799 102.132613)scale(0.16 -0.16)">
     <use xlink:href="#DejaVuSans-101"/>
     <use x="61.523438" xlink:href="#DejaVuSans-97"/>
     <use x="122.802734" xlink:href="#DejaVuSans-118"/>
     <use x="181.982422" xlink:href="#DejaVuSans-101"/>
     <use x="243.505859" xlink:href="#DejaVuSans-115"/>
     <use x="295.605469" xlink:href="#DejaVuSans-100"/>
     <use x="359.082031" xlink:href="#DejaVuSans-114"/>
     <use x="400.164062" xlink:href="#DejaVuSans-111"/>
     <use x="461.345703" xlink:href="#DejaVuSans-112"/>
     <use x="524.822266" xlink:href="#DejaVuSans-112"/>
     <use x="588.298828" xlink:href="#DejaVuSans-105"/>
     <use x="616.082031" xlink:href="#DejaVuSans-110"/>
     <use x="679.460938" xlink:href="#DejaVuSans-103"/>
    </g>
    <!-- effect -->
    <defs>
     <path d="M 37.109375 75.984375 
L 37.109375 68.5 
L 28.515625 68.5 
Q 23.6875 68.5 21.796875 66.546875 
Q 19.921875 64.59375 19.921875 59.515625 
L 19.921875 54.6875 
L 34.71875 54.6875 
L 34.71875 47.703125 
L 19.921875 47.703125 
L 19.921875 0 
L 10.890625 0 
L 10.890625 47.703125 
L 2.296875 47.703125 
L 2.296875 54.6875 
L 10.890625 54.6875 
L 10.890625 58.5 
Q 10.890625 67.625 15.140625 71.796875 
Q 19.390625 75.984375 28.609375 75.984375 
z
" id="DejaVuSans-102"/>
    </defs>
    <g transform="translate(324.998799 120.049113)scale(0.16 -0.16)">
     <use xlink:href="#DejaVuSans-101"/>
     <use x="61.523438" xlink:href="#DejaVuSans-102"/>
     <use x="96.728516" xlink:href="#DejaVuSans-102"/>
     <use x="131.933594" xlink:href="#DejaVuSans-101"/>
     <use x="193.457031" xlink:href="#DejaVuSans-99"/>
     <use x="248.4375" xlink:href="#DejaVuSans-116"/>
    </g>
   </g>
   <g id="text_15">
    <!-- Categorisation task convergence -->
    <defs>
     <path d="M 67 4 
Q 61.8125 1.3125 56.203125 -0.046875 
Q 50.59375 -1.421875 44.484375 -1.421875 
Q 26.265625 -1.421875 15.625 8.765625 
Q 4.984375 18.953125 4.984375 36.375 
Q 4.984375 53.859375 15.625 64.03125 
Q 26.265625 74.21875 44.484375 74.21875 
Q 50.59375 74.21875 56.203125 72.84375 
Q 61.8125 71.484375 67 68.796875 
L 67 53.71875 
Q 61.765625 57.28125 56.6875 58.9375 
Q 51.609375 60.59375 46 60.59375 
Q 35.9375 60.59375 30.171875 54.140625 
Q 24.421875 47.703125 24.421875 36.375 
Q 24.421875 25.09375 30.171875 18.640625 
Q 35.9375 12.203125 46 12.203125 
Q 51.609375 12.203125 56.6875 13.859375 
Q 61.765625 15.53125 67 19.09375 
z
" id="DejaVuSans-Bold-67"/>
     <path d="M 32.90625 24.609375 
Q 27.4375 24.609375 24.671875 22.75 
Q 21.921875 20.90625 21.921875 17.28125 
Q 21.921875 13.96875 24.140625 12.078125 
Q 26.375 10.203125 30.328125 10.203125 
Q 35.25 10.203125 38.625 13.734375 
Q 42 17.28125 42 22.609375 
L 42 24.609375 
z
M 59.625 31.203125 
L 59.625 0 
L 42 0 
L 42 8.109375 
Q 38.484375 3.125 34.078125 0.84375 
Q 29.6875 -1.421875 23.390625 -1.421875 
Q 14.890625 -1.421875 9.59375 3.53125 
Q 4.296875 8.5 4.296875 16.40625 
Q 4.296875 26.03125 10.90625 30.515625 
Q 17.53125 35.015625 31.6875 35.015625 
L 42 35.015625 
L 42 36.375 
Q 42 40.53125 38.71875 42.453125 
Q 35.453125 44.390625 28.515625 44.390625 
Q 22.90625 44.390625 18.0625 43.265625 
Q 13.234375 42.140625 9.078125 39.890625 
L 9.078125 53.21875 
Q 14.703125 54.59375 20.359375 55.296875 
Q 26.03125 56 31.6875 56 
Q 46.484375 56 53.046875 50.171875 
Q 59.625 44.34375 59.625 31.203125 
z
" id="DejaVuSans-Bold-97"/>
     <path d="M 27.484375 70.21875 
L 27.484375 54.6875 
L 45.515625 54.6875 
L 45.515625 42.1875 
L 27.484375 42.1875 
L 27.484375 19 
Q 27.484375 15.1875 29 13.84375 
Q 30.515625 12.5 35.015625 12.5 
L 44 12.5 
L 44 0 
L 29 0 
Q 18.65625 0 14.328125 4.3125 
Q 10.015625 8.640625 10.015625 19 
L 10.015625 42.1875 
L 1.3125 42.1875 
L 1.3125 54.6875 
L 10.015625 54.6875 
L 10.015625 70.21875 
z
" id="DejaVuSans-Bold-116"/>
     <path d="M 62.984375 27.484375 
L 62.984375 22.515625 
L 22.125 22.515625 
Q 22.75 16.359375 26.5625 13.28125 
Q 30.375 10.203125 37.203125 10.203125 
Q 42.71875 10.203125 48.5 11.84375 
Q 54.296875 13.484375 60.40625 16.796875 
L 60.40625 3.328125 
Q 54.203125 0.984375 48 -0.21875 
Q 41.796875 -1.421875 35.59375 -1.421875 
Q 20.75 -1.421875 12.515625 6.125 
Q 4.296875 13.671875 4.296875 27.296875 
Q 4.296875 40.671875 12.375 48.328125 
Q 20.453125 56 34.625 56 
Q 47.515625 56 55.25 48.234375 
Q 62.984375 40.484375 62.984375 27.484375 
z
M 45.015625 33.296875 
Q 45.015625 38.28125 42.109375 41.328125 
Q 39.203125 44.390625 34.515625 44.390625 
Q 29.4375 44.390625 26.265625 41.53125 
Q 23.09375 38.671875 22.3125 33.296875 
z
" id="DejaVuSans-Bold-101"/>
     <path d="M 45.609375 9.28125 
Q 42 4.5 37.640625 2.25 
Q 33.296875 0 27.59375 0 
Q 17.578125 0 11.03125 7.875 
Q 4.5 15.765625 4.5 27.984375 
Q 4.5 40.234375 11.03125 48.0625 
Q 17.578125 55.90625 27.59375 55.90625 
Q 33.296875 55.90625 37.640625 53.65625 
Q 42 51.421875 45.609375 46.578125 
L 45.609375 54.6875 
L 63.1875 54.6875 
L 63.1875 5.515625 
Q 63.1875 -7.671875 54.859375 -14.625 
Q 46.53125 -21.578125 30.71875 -21.578125 
Q 25.59375 -21.578125 20.796875 -20.796875 
Q 16.015625 -20.015625 11.1875 -18.40625 
L 11.1875 -4.78125 
Q 15.765625 -7.421875 20.15625 -8.71875 
Q 24.5625 -10.015625 29 -10.015625 
Q 37.59375 -10.015625 41.59375 -6.25 
Q 45.609375 -2.484375 45.609375 5.515625 
z
M 34.078125 43.3125 
Q 28.65625 43.3125 25.625 39.296875 
Q 22.609375 35.296875 22.609375 27.984375 
Q 22.609375 20.453125 25.53125 16.578125 
Q 28.46875 12.703125 34.078125 12.703125 
Q 39.546875 12.703125 42.578125 16.703125 
Q 45.609375 20.703125 45.609375 27.984375 
Q 45.609375 35.296875 42.578125 39.296875 
Q 39.546875 43.3125 34.078125 43.3125 
z
" id="DejaVuSans-Bold-103"/>
     <path d="M 34.421875 43.5 
Q 28.609375 43.5 25.5625 39.328125 
Q 22.515625 35.15625 22.515625 27.296875 
Q 22.515625 19.4375 25.5625 15.25 
Q 28.609375 11.078125 34.421875 11.078125 
Q 40.140625 11.078125 43.15625 15.25 
Q 46.1875 19.4375 46.1875 27.296875 
Q 46.1875 35.15625 43.15625 39.328125 
Q 40.140625 43.5 34.421875 43.5 
z
M 34.421875 56 
Q 48.53125 56 56.46875 48.375 
Q 64.40625 40.765625 64.40625 27.296875 
Q 64.40625 13.8125 56.46875 6.1875 
Q 48.53125 -1.421875 34.421875 -1.421875 
Q 20.265625 -1.421875 12.28125 6.1875 
Q 4.296875 13.8125 4.296875 27.296875 
Q 4.296875 40.765625 12.28125 48.375 
Q 20.265625 56 34.421875 56 
z
" id="DejaVuSans-Bold-111"/>
     <path d="M 49.03125 39.796875 
Q 46.734375 40.875 44.453125 41.375 
Q 42.1875 41.890625 39.890625 41.890625 
Q 33.15625 41.890625 29.515625 37.5625 
Q 25.875 33.25 25.875 25.203125 
L 25.875 0 
L 8.40625 0 
L 8.40625 54.6875 
L 25.875 54.6875 
L 25.875 45.703125 
Q 29.25 51.078125 33.609375 53.53125 
Q 37.984375 56 44.09375 56 
Q 44.96875 56 45.984375 55.921875 
Q 47.015625 55.859375 48.96875 55.609375 
z
" id="DejaVuSans-Bold-114"/>
     <path d="M 8.40625 54.6875 
L 25.875 54.6875 
L 25.875 0 
L 8.40625 0 
z
M 8.40625 75.984375 
L 25.875 75.984375 
L 25.875 61.71875 
L 8.40625 61.71875 
z
" id="DejaVuSans-Bold-105"/>
     <path d="M 51.125 52.984375 
L 51.125 39.703125 
Q 45.515625 42.046875 40.28125 43.21875 
Q 35.0625 44.390625 30.421875 44.390625 
Q 25.4375 44.390625 23.015625 43.140625 
Q 20.609375 41.890625 20.609375 39.3125 
Q 20.609375 37.203125 22.4375 36.078125 
Q 24.265625 34.96875 29 34.421875 
L 32.078125 33.984375 
Q 45.515625 32.28125 50.140625 28.375 
Q 54.78125 24.46875 54.78125 16.109375 
Q 54.78125 7.375 48.328125 2.96875 
Q 41.890625 -1.421875 29.109375 -1.421875 
Q 23.6875 -1.421875 17.890625 -0.5625 
Q 12.109375 0.296875 6 2 
L 6 15.28125 
Q 11.234375 12.75 16.71875 11.46875 
Q 22.21875 10.203125 27.875 10.203125 
Q 33.015625 10.203125 35.59375 11.609375 
Q 38.1875 13.03125 38.1875 15.828125 
Q 38.1875 18.171875 36.40625 19.3125 
Q 34.625 20.453125 29.296875 21.09375 
L 26.21875 21.484375 
Q 14.546875 22.953125 9.859375 26.90625 
Q 5.171875 30.859375 5.171875 38.921875 
Q 5.171875 47.609375 11.125 51.796875 
Q 17.09375 56 29.390625 56 
Q 34.234375 56 39.546875 55.265625 
Q 44.875 54.546875 51.125 52.984375 
z
" id="DejaVuSans-Bold-115"/>
     <path d="M 63.375 33.296875 
L 63.375 0 
L 45.796875 0 
L 45.796875 5.421875 
L 45.796875 25.484375 
Q 45.796875 32.5625 45.484375 35.25 
Q 45.171875 37.9375 44.390625 39.203125 
Q 43.359375 40.921875 41.59375 41.875 
Q 39.84375 42.828125 37.59375 42.828125 
Q 32.125 42.828125 29 38.59375 
Q 25.875 34.375 25.875 26.90625 
L 25.875 0 
L 8.40625 0 
L 8.40625 54.6875 
L 25.875 54.6875 
L 25.875 46.6875 
Q 29.828125 51.46875 34.265625 53.734375 
Q 38.71875 56 44.09375 56 
Q 53.5625 56 58.46875 50.1875 
Q 63.375 44.390625 63.375 33.296875 
z
" id="DejaVuSans-Bold-110"/>
     <path id="DejaVuSans-Bold-32"/>
     <path d="M 8.40625 75.984375 
L 25.875 75.984375 
L 25.875 34.625 
L 46 54.6875 
L 66.3125 54.6875 
L 39.59375 29.59375 
L 68.40625 0 
L 47.21875 0 
L 25.875 22.796875 
L 25.875 0 
L 8.40625 0 
z
" id="DejaVuSans-Bold-107"/>
     <path d="M 52.59375 52.984375 
L 52.59375 38.71875 
Q 49.03125 41.15625 45.4375 42.328125 
Q 41.84375 43.5 37.984375 43.5 
Q 30.671875 43.5 26.59375 39.234375 
Q 22.515625 34.96875 22.515625 27.296875 
Q 22.515625 19.625 26.59375 15.34375 
Q 30.671875 11.078125 37.984375 11.078125 
Q 42.09375 11.078125 45.78125 12.296875 
Q 49.46875 13.53125 52.59375 15.921875 
L 52.59375 1.609375 
Q 48.484375 0.09375 44.265625 -0.65625 
Q 40.046875 -1.421875 35.796875 -1.421875 
Q 21 -1.421875 12.640625 6.171875 
Q 4.296875 13.765625 4.296875 27.296875 
Q 4.296875 40.828125 12.640625 48.40625 
Q 21 56 35.796875 56 
Q 40.09375 56 44.265625 55.25 
Q 48.4375 54.5 52.59375 52.984375 
z
" id="DejaVuSans-Bold-99"/>
     <path d="M 1.515625 54.6875 
L 19 54.6875 
L 32.625 16.890625 
L 46.1875 54.6875 
L 63.71875 54.6875 
L 42.1875 0 
L 23 0 
z
" id="DejaVuSans-Bold-118"/>
    </defs>
    <g transform="translate(67.54 19.3575)scale(0.16 -0.16)">
     <use xlink:href="#DejaVuSans-Bold-67"/>
     <use x="73.388672" xlink:href="#DejaVuSans-Bold-97"/>
     <use x="140.869141" xlink:href="#DejaVuSans-Bold-116"/>
     <use x="188.671875" xlink:href="#DejaVuSans-Bold-101"/>
     <use x="256.494141" xlink:href="#DejaVuSans-Bold-103"/>
     <use x="328.076172" xlink:href="#DejaVuSans-Bold-111"/>
     <use x="396.777344" xlink:href="#DejaVuSans-Bold-114"/>
     <use x="446.09375" xlink:href="#DejaVuSans-Bold-105"/>
     <use x="480.371094" xlink:href="#DejaVuSans-Bold-115"/>
     <use x="539.892578" xlink:href="#DejaVuSans-Bold-97"/>
     <use x="607.373047" xlink:href="#DejaVuSans-Bold-116"/>
     <use x="655.175781" xlink:href="#DejaVuSans-Bold-105"/>
     <use x="689.453125" xlink:href="#DejaVuSans-Bold-111"/>
     <use x="758.154297" xlink:href="#DejaVuSans-Bold-110"/>
     <use x="829.345703" xlink:href="#DejaVuSans-Bold-32"/>
     <use x="864.160156" xlink:href="#DejaVuSans-Bold-116"/>
     <use x="911.962891" xlink:href="#DejaVuSans-Bold-97"/>
     <use x="979.443359" xlink:href="#DejaVuSans-Bold-115"/>
     <use x="1038.964844" xlink:href="#DejaVuSans-Bold-107"/>
     <use x="1105.46875" xlink:href="#DejaVuSans-Bold-32"/>
     <use x="1140.283203" xlink:href="#DejaVuSans-Bold-99"/>
     <use x="1199.560547" xlink:href="#DejaVuSans-Bold-111"/>
     <use x="1268.261719" xlink:href="#DejaVuSans-Bold-110"/>
     <use x="1339.453125" xlink:href="#DejaVuSans-Bold-118"/>
     <use x="1404.638672" xlink:href="#DejaVuSans-Bold-101"/>
     <use x="1472.460938" xlink:href="#DejaVuSans-Bold-114"/>
     <use x="1521.777344" xlink:href="#DejaVuSans-Bold-103"/>
     <use x="1593.359375" xlink:href="#DejaVuSans-Bold-101"/>
     <use x="1661.181641" xlink:href="#DejaVuSans-Bold-110"/>
     <use x="1732.373047" xlink:href="#DejaVuSans-Bold-99"/>
     <use x="1791.650391" xlink:href="#DejaVuSans-Bold-101"/>
    </g>
   </g>
  </g>
 </g>
 <defs>
  <clipPath id="p1095e20997">
   <rect height="163.08" width="334.8" x="48.8975" y="25.3575"/>
  </clipPath>
 </defs>
</svg>
